<svg id="Camada_1" data-name="Camada 1" xmlns="http://www.w3.org/2000/svg" viewBox="0 0 167.28 38.66"><defs><style>.cls-3{fill:#fff}</style></defs><path fill="#2b2523" d="M0 0h93.11v38.66H0z"/><path fill="#686969" d="M93.11 0h74.16v38.66H93.11z"/><path class="cls-3" d="M64.12 5.16h-9.67v28.36h9.67a14.18 14.18 0 100-28.36m0 23.2h-4.51v-18h4.51a9 9 0 110 18M81.53 5.17h5.15v28.35h-5.15zm-55.42 9.64a10.31 10.31 0 00-20.62 0v18.71h5.15V14.81a5.15 5.15 0 0110.31 0v18.71h5.15z"/><path class="cls-3" d="M19.67 21.94a3.87 3.87 0 10-3.86 3.87 3.87 3.87 0 003.86-3.87m83.16-.39A3.42 3.42 0 0199.51 18a3.42 3.42 0 013.32-3.59 3.12 3.12 0 013.17 2.25h-1.41a1.89 1.89 0 00-1.72-1.09 2.23 2.23 0 00-2 2.39 2.23 2.23 0 002 2.4 1.93 1.93 0 001.72-1.11H106a3.16 3.16 0 01-3.12 2.3"/><path class="cls-3" d="M111.43 18.88a2.57 2.57 0 11-2.57-2.68 2.59 2.59 0 012.57 2.68m-1.32 0a1.28 1.28 0 10-2.51 0 1.27 1.27 0 102.51 0m9.68 2.55h-1.31v-3a.89.89 0 00-1-1 .94.94 0 00-1 1v3h-1.31v-3a.88.88 0 00-.95-1 .93.93 0 00-1 1v3H112v-3a2.19 2.19 0 012.3-2.28 2 2 0 011.62.72 2.24 2.24 0 013.9 1.56zm2.94.12a2.13 2.13 0 01-2.27-2.28v-2.94h1.31v3a.89.89 0 001 1 1 1 0 001-1v-3H125v2.94a2.19 2.19 0 01-2.3 2.28m5.37-5.35a2.13 2.13 0 012.27 2.28v3H129v-3a.89.89 0 00-1-1 .94.94 0 00-1 1v3h-1.31v-3a2.19 2.19 0 012.3-2.28m3.21-.43V15a.66.66 0 011.32 0v.73zm1.32 5.65h-1.31v-5.1h1.31zm3.24.13a2.67 2.67 0 010-5.35 2.41 2.41 0 012.45 1.8h-1.4a1.22 1.22 0 00-1.06-.64 1.49 1.49 0 000 3 1.21 1.21 0 001.07-.65h1.39a2.4 2.4 0 01-2.47 1.84m8.03-.12h-1.23v-.54a2.05 2.05 0 01-1.56.65 2.56 2.56 0 01-2.44-2.65 2.62 2.62 0 115.24 0zm-2.61-4a1.46 1.46 0 101.31 1.46 1.39 1.39 0 00-1.31-1.46m5.54 4.51a.79.79 0 011.12.65.8.8 0 01-.91.79 1.41 1.41 0 01-1-.42l.18-.31a1 1 0 00.7.27c.23 0 .42-.11.42-.32a.35.35 0 00-.39-.33.5.5 0 00-.35.13l-.36-.24.34-.65a2.68 2.68 0 01.38-5.33 2.42 2.42 0 012.51 1.82h-1.41a1.19 1.19 0 00-1.06-.57 1.37 1.37 0 00-1.31 1.42 1.36 1.36 0 001.31 1.4 1.18 1.18 0 001.07-.59h1.4a2.39 2.39 0 01-2.4 1.85zm8.4-.51h-1.24v-.54a2.06 2.06 0 01-1.55.65 2.56 2.56 0 01-2.44-2.65 2.62 2.62 0 115.24 0zm-1.81-5.87c-.58 0-1-.37-1.39-.37-.23 0-.38.12-.44.4h-.62c.09-.59.43-1.18 1.09-1.18s1 .38 1.35.38.35-.12.43-.42h.61c-.08.6-.42 1.18-1 1.18m-.8 1.87a1.46 1.46 0 101.31 1.46 1.39 1.39 0 00-1.31-1.46m8.26 1.46a2.57 2.57 0 11-2.57-2.68 2.59 2.59 0 012.57 2.68m-1.32 0a1.28 1.28 0 10-2.51 0 1.27 1.27 0 102.51 0m-54.9 10.38a2.41 2.41 0 01-2.47 1.74 2.67 2.67 0 010-5.35 2.47 2.47 0 012.5 2.14L101 29.32a1.34 1.34 0 001.09.54 1.2 1.2 0 001.08-.6zm-1.46-2a1.29 1.29 0 00-1-.46 1.42 1.42 0 00-1.39 1.47zm7.98 3.63h-2.55V24h2.55c1.91 0 3.1 1.32 3.1 3.44s-1.22 3.44-3.1 3.44m0-5.66h-1.24v4.44h1.24c1.55 0 1.79-1.4 1.79-2.23 0-1-.32-2.21-1.79-2.21m3.81.01v-.73a.66.66 0 011.32 0v.73zm1.32 5.66h-1.31v-5.1h1.31zm3.56-3.97c-.84-.15-1.39.3-1.39 1v3h-1.31v-3a2.18 2.18 0 012.69-2.25zm5.17 2.34a2.42 2.42 0 01-2.47 1.74 2.67 2.67 0 010-5.35A2.47 2.47 0 01125 27.8l-3.6 1.52a1.33 1.33 0 001.09.54 1.19 1.19 0 001.08-.6zm-1.47-2a1.28 1.28 0 00-1-.46 1.42 1.42 0 00-1.38 1.47zm2.35-1.95v-.73a.66.66 0 011.31 0v.73zm1.31 5.69h-1.31v-5.1h1.31zm3.1 0a1.92 1.92 0 01-2.29-2.14v-4.29h1.31v1.3h.92V27h-.92v1.8c0 .71.33 1 1 .94z"/><path class="cls-3" d="M135.66 28.41a2.57 2.57 0 11-2.57-2.68 2.59 2.59 0 012.57 2.68m-1.31 0a1.28 1.28 0 10-2.52 0 1.27 1.27 0 102.52 0m1.46 1.28a1 1 0 00.82-.19c.13-.12.26-.35.26-1.1a2.61 2.61 0 01.67-2 2.09 2.09 0 011.72-.53v1.27a.93.93 0 00-.82.22c-.12.13-.26.32-.26 1a2.72 2.72 0 01-.65 2.06 2.18 2.18 0 01-1.73.49zM50.58 14.81a10.31 10.31 0 00-20.62 0v18.71h5.15V14.81a5.15 5.15 0 0110.31 0v18.71h5.15z"/></svg>