<svg xmlns="http://www.w3.org/2000/svg" width="515" height="514">
  <defs>
    <linearGradient id="b" x1="96.5%" x2="0%" y1="73.5%" y2="26.5%">
      <stop offset="0%" stop-color="#72DEDB"/>
      <stop offset="100%" stop-color="#67DAD6"/>
    </linearGradient>
    <linearGradient id="c" x1="95.9%" x2=".6%" y1="100%" y2="0%">
      <stop offset="0%" stop-color="#72DEDB"/>
      <stop offset="100%" stop-color="#67DAD6"/>
    </linearGradient>
    <linearGradient id="d" x1="96.5%" x2="0%" y1="99%" y2="1%">
      <stop offset="0%" stop-color="#50BBB8"/>
      <stop offset="100%" stop-color="#67DAD6"/>
    </linearGradient>
    <linearGradient id="e" x1="96.5%" x2="0%" y1="96.2%" y2="3.8%">
      <stop offset="0%" stop-color="#72DEDB"/>
      <stop offset="100%" stop-color="#67DAD6"/>
    </linearGradient>
    <linearGradient id="f" x1="66.8%" x2="32%" y1="100%" y2="0%">
      <stop offset="0%" stop-color="#50BBB8"/>
      <stop offset="100%" stop-color="#67DAD6"/>
    </linearGradient>
    <linearGradient id="g" x1="96.5%" x2="0%" y1="74.6%" y2="25.4%">
      <stop offset="0%" stop-color="#72DEDB"/>
      <stop offset="100%" stop-color="#67DAD6"/>
    </linearGradient>
    <linearGradient id="h" x1="96.5%" x2="0%" y1="68.7%" y2="31.3%">
      <stop offset="0%" stop-color="#50BBB8"/>
      <stop offset="100%" stop-color="#67DAD6"/>
    </linearGradient>
    <filter id="a" width="105.1%" height="105.1%" x="-2.6%" y="-2.6%" filterUnits="objectBoundingBox">
      <feOffset dy="2" in="SourceAlpha" result="shadowOffsetOuter1"/>
      <feGaussianBlur in="shadowOffsetOuter1" result="shadowBlurOuter1" stdDeviation="2"/>
      <feColorMatrix in="shadowBlurOuter1" result="shadowMatrixOuter1" values="0 0 0 0 0 0 0 0 0 0 0 0 0 0 0 0 0 0 0.5 0"/>
      <feMerge>
        <feMergeNode in="shadowMatrixOuter1"/>
        <feMergeNode in="SourceGraphic"/>
      </feMerge>
    </filter>
  </defs>
  <g fill="none" stroke="#FFF" stroke-width=".5" filter="url(#a)" transform="translate(4 3)">
    <path fill="#C1F1F0" d="M363 379l-1 2h-1l-1-1 2-2 1 1zm-95-17l3-3 1-1 2-1 2-1 2-2 1-2 1-2 2-1-1-2 3-3v-2l3-4v-2l4-4 2-1 2-2 1-2 3-1 1-1h2l1 1 6 1h7v3l1 2h0l2-2 1 1-1 2h2v-3h10l1-1v1l1-2h2l1 1 2-1v1l3 2-1 3 2 1v2l-1 2v2h0l1 2v1l1 3 2-1 4 2v1l-2 3v3l-1 1 1 1-1 2 1 1 3 2-1 2 1 1v1l2 1 3-1 1 1 1-1v-1l1-2 2 1h1l5-2 2-1 1 1 2 2h5v2l-1 1h-3l-4 2v2l-1 1 2 2h-2l-2 1v1l-1-1-1 1h-1l-2 1v2l-5-1-3 1-1 2h-2l-3 1-4 3-1 1-2 2-5 2-3 2-1 2 1-2-1 2h0l-1 2-1 1v-1h-1l-1-3-2-1-1 2h-1l1-4h0l-1-1h-2l-3-1-1 1-2-1v-2l1-2-2-3-3-3 1-2-1-3 1-1-1-2-1-2-2-1-1-2-3 1-4-1h-2l-1-1-3-1-3-2-2 1-4-1-3-1-1 1-9-1-3 2z"/>
    <path fill="#91F7F3" d="M381 105l1 2-2 2 1-5v1zm35 0v4l-2 2-3 3h-4l-2 3v1l-1 2-3 4v2l2 2-2 2v1l2 2v5l-3 4h-1l1 6 1 2 1 1v3l-1 2v1h-3l-4 1-2-2-5 1-3 3-1 2h-2l-3 3h-1l-3 1-4 1-2 2-1 2v4l-2 4-2 3-1 1-1 2 1 3v2l1 2v1l-1 6-1 2v2l-2-1-3-1-1-2-1-2-2-2 2-2v-1l-3-1-1-1v-2l-1-2h-2l2-3 1-3 1-2h4l-1-1 1-3v-2l-1-1-4 1-2 1-2-2-2-3-2-3v-2h-2l-1-1 1-1 2-1v-4l1-3 1-4-1-1v-3l-1-2 1-2-1-1-3-1-1-1v-1l-2-1-2 1-2-2-3 1-1 2h-2l13-10h2l2-3 1-1 1-2 3-4 1-3 1-2 1-1 2-3 1-3h1l-2-2 4-3v-3l1-1 1-3v-2l-1-1 2-1v-2l1-4 2-2-1 2h1l2 1 1-2 1 2-1 1 2-1v2l1-1v2l2-2v1l-1 1 1 3 1-1 1-2h3l1-1-1 2 2 2 3 2 1 2-3 3h1l2-1h1v3l-1-1v2l-2 3-1 4h1l-2 2v1l2-1 2-3 1-5 4-2 1 2-2 1-2 2h2v1l1-1h0l1-2 1-1h2v-1l1-1v-2h1v1l2 3 1-1-1-2h2l8 3 3 3h3v1l2-1 2 1-1-1h-3v-1l2 1v-1l3 1z"/>
    <path fill="#205058" d="M333 82l-1-1 2-2v1l-1 2zm-34-6v2l-3 1v-2l3-1zm-5 0l1 1-2 5v-1l-1 3-5 3-1 1-1-1 1-2 2-3v-3l3-3 2-1 1 1zm-2-2l2-3 1-1v3l-3 1zm7-2h-2l1-3 2-1 2 2-3 2zm18-4l2 1-2 1h-5l3-2h2zm-13 0h-2v-2l2 1v1zm3-3l2 1 1-1h1l4-2h1v2l-2 1-2 2-2 1-1-1h-3l-1-2 2-1zm-1-3v2l-1 2h-2l2-3v-3l1 2zm4-1v1l-3 2-1-2 1-1 2-1 1 1zm6 29l-2 1-2 1-2-1v-1l-2 1h-1v-2l-1 3h-1l-3-1 1-1-3-3v-4l3 1-3-2v-5l2-5 1-1h2v-1h4l6 2 2-1 3-1 5 1h3l3 1v1l-1 2-1 5-1 1v2l-3 1 1 1-1 2-1-2-1 1 2 1-3 1-1-1v2h-2l-1-1v2l-1-1-1 1zm45-6l-1 4v2l-2 1 1 1v2l-1 3-1 1v3l-4 3 2 2h-1l-1 3-2 3-1 1-1 2-1 3-3 4-1 2-1 1-2 3h-2l-13 10h1l2 1h2l3 3-2 1 1 2-1 1v2l-2 1 1 2h-2l-1 1-1 3-4 1-3 2v4l-2 4v1l1 1 2 2-1 3-2 4v1l-3 5-2 1-4 5-1 5-2 2-13-1-49-3-17-1-3-1h-1l-1-2h-3l-1-2-2-2-3-2h-1l-1-4v-3l-2-2-1-5-2-4-1-1-1-2-3-2-1-4 3-2 19-43 5-11v-1l-1-2-2 1h-2v-2l-3-2-1-1-3-1-4-2-3-2-4-3-3-2-1-2-2-2-2-1v-3l-1-1v-7l-2-15 1 2h2l1-1h2v-2l2-1 1-1 2 1h2v-2l3-1h3l2-2 1-1h1l2-1 1 2h3l2-1h3l5 2 1-1v-2l-2-4 1-1v-1l4 2 1-1h3l1-1h4l2 1h1l1 2-1 3 1 4h4l3 1 1 2h1l2 1h3l1 1v1h1v2l1 2 2 2 2 1-1 4 2 2v3l1 3h1l3 3v2l1 1v3h2l1 2 3 2 2-1v3l-2 1-1-1-4 2h-3v1h4l2-1v2l2-1h2l3-2 6-3 1-1 2-1v-1h2v1l-1 1 1 1 1 3 1 2 1 2-3 2h2l1-1 2 1 1 2 1-2h2l1-1h1l2 1v2l1-2h2l1-1v1l3-2h1l-2 2-1 4-1 3v1l-2 2h2l1-3 1-1 1-2 1-3 2-3 2-2h1l-1 3 2-3 2-3 1 3 2 1-1-2h2l-2-1v-2l2 1v-2h-2l1-2h3v-3l2-2 1 2v-2h2l1-2 1 2 1-1 1 2h1l-1-2 5 1v2l2-1 1 1 1-1 1 2h1v1l2-1v2h2l2-2-1 3h2v1z"/>
    <path fill="url(#b)" d="M321 429v-1l1-2v-2h1v3l-2 2zm0-18l-1-1 2-2v1l-1 2zm1-5l-1 2-1 1-1-2v3l2 2-1 1v2l1 1v4h1v2h-1v1l-1 2 1 2h-1l1 3-2 4-1 4v-1l-1-1v2l1 1-1 1h-1l-5 3-2 3-2 2-3-1h-1v2l-1-1v-1l1-2h1v-3l2-3h1v-2h-6l-4-1-2-3h-1v-2l-1-1-1-2h-2l-3-3h-1l-1-1h-3l-1-2-2-1v1l-2-1-1-1-3 1-2-1h-1l-1-1-3 1 1-1-2-1-1 1v1l-2-1-2 1 2-4-1-2v-5l1-1h4l2 1h4l2 1 5 1 2 1 2 1h4l1 1 2-1v-4l2-1 2 1 2-1 1-2 3-1 1 1 5-1 4 3 3-1 2-1h7z"/>
    <path fill="#91F7F3" d="M449 247l-1 4v-4h1zm-20 60v-3l-3-3v-1l-2-1 1-2v-1l1-3 1-1h2l1-4h1l1-2 2-1 1-2-5-5h-3 0l-2-1h-1l-2-1-3 1-2-1v-3l-6-5-1 1h-2l-6-4h-1l-4-3-3-1-4 2-2-1-2-1v-2l1-2-1-1-6-1-3 1-3 2-1 1-3 2h-1l-2 1-2 2-1-1-2 3h-2l-2 1 1-3-1-2 2-2-1-2 1-2-3-3-1-4v-3l1-3h1v-2h-1l1-3 1-1-2-2 1-2v-2l-2-1v-4l1-1 2-1-1-1h-1v-2h2v-1l-1-1-3-1-2-2 1-2 2-3 1-1v-1l2-3 3-1 2-2h2l1 2 1 2 1 2 4 2 3-1h0l3-2 2-1 2 1 1-1 2-1 1-1 3-5v-4l-1-4h1l2-1h2v1h4l2 1 1 1h3l1-1 1 1 2-3h2l2-1 2 1 2-2v-2h3l2-3h2l4 2v4l2 1v1l-1 2h2l3-1h1l1-4h2l2-1v-2l3-1v-1l4-2 1 1 1 1 3 1v1h2l2 1v1l2-2v2l1 1h2l1 4v2l2 1h0v1l1 4 2 3v3l-1 1v3l-2 2-3-1v2l1 2 1 2v3l2 1 1 1 1 1 3-1h1l-1 1-3 6-5 8-4 4-3 1 1-2v-2l-2-1-1-1-1 3h-1l2 1 1 1-4 4v1h-2l1 4v2l-2-1 1 2h0l1 1v-1 1l-1 3v2l-1 4v8l1 6 1 2-3 8-2 4v2l-1 3v7l-2 2-3 2-1 3-1 1-6-4v-1z"/>
    <path fill="#205058" d="M309 56h0l2-1-2 4h-2v-2l2-1zm-5-15v-1l2 3-2 1-1-1 1-2zm-19 42l-2 1-3-2-1-2h-2v-3l-1-1v-2l-3-3h-1l-1-3v-3l-2-2 1-4-2-1-2-2-1-2v-2h-1v-1l-1-1h-3l-2-1h-1l-1-2-3-1h-4l-1-4 1-3-1-2h1v1l2 1 1 1 4 1 4-2h4l3-1 1 1 4 1 1-1 2-1 2-3v-1l3-5-1-1 2-2 3-4v-1l2-3 1-1 2-1v-2l2 1-1-3v-1l2 1 2 3 1 1v5l1-3h0v7l2 7h0l2 6 1 2 3 5h4l2 1 1 1 1 4-1 1-3 1h4l-4 4-2 1-2 2-2 4-2 2h-2l-2 3-3 1h1l-1 1-2 4-3 3v4l-3 1z"/>
    <path fill="url(#c)" d="M257 378l-2 1-2-1-2-2-4 2-3 1-2-1-1-3-1-1v-5l-1-3-1-3 1-2-2-1v-2l-1-1h-4l-2-1-1-2h-1l-2 2h-1l-1 1-5-1h-4l-1-1h-2l-2-1 1-2-1-1 1-2h-1l1-3v-5l1-1-1-1v-1h-1l1-1-1-1-1-3-1-1-1-2 4-3-3-3 3-9h1v-2l2-9-2-4v-2l2 1 2 1 3-1 2-2v-1l2-1 1-3h5l1-1h2l4 2h2l1 2 5 2h3l2-2h3l1 1v1l3-1 3-2 1-2 2-1-1 5-1 1-2 3 4 1h8v4l1 1h2l-1 3v1h5l2 2h0l3 1 5 3h3l1 2h2l2 2v9l-2 2-2 1-4 4v2l-3 4v2l-3 3 1 2-2 1-1 2-1 2-2 2-2 1-2 1-1 1-3 3-4 2-1 1-1 2-1 3-2 1-2 5z"/>
    <path fill="#C1F1F0" d="M295 329v-9l2 1v-3l2-2h2v-3l2-2 5-2 2 1 4-2 1 2 3-3 3-1 9 1h1l2 1 4-1 1-2 3-2v-2l1-3-1-1-3-2 1-1 4-5-1-4-2-2 1-3 1-3h1l1-1h1l3-1v-4l-1-2 1-1-1-1v-3h2l2 1 1-1-1-3 1-1 2 1 1 2h3v-1l1 2-1 3 2-1h2l2-3 1 1 2-2 2-1h1l3-2 1-1 3-2 3-1 6 1 1 1-1 2v2l2 1 2 1 4-2 3 1 4 3h1l6 4h2l1-1 6 5v3l2 1 3-1 2 1h1l2 1h3l5 5-1 2-2 1-1 2h-1l-1 4h-2l-1 1-1 3v1l-1 2 2 1v1l3 3v3l-3-1h-6l2 2h-2l-2 1-1 1 1 3v2l1 1v1l-4 1h2v2l2 2v2l-1 2-3 2v3l-2 1-1 3v1l-4-1-2 2 1 1-1 3v2l-2 1h-1l-2 6h-1l-1 3 1 1-10 4-3-1-2 1h-4l-4 1-1 1h-3l-3 1h-2l-2 1-5 2h-1l-2-1-1 2v1l-1 1-1-1-3 1-2-1v-1l-1-1 1-2-3-2-1-1 1-2-1-1 1-1v-3l2-3v-1l-4-2-2 1-1-3v-1l-1-2v-2l1-2v-2l-2-1 1-3-3-2v-1l-2 1-1-1h-2l-1 2v-1l-1 1h-10v3h-2l1-2-1-1-2 2h0l-1-2v-3h-7l-6-1-1-1h-2l-1 1-3 1z"/>
    <path fill="url(#d)" d="M341 280l-1 3 2 2 1 4-4 5-1 1 3 2 1 1-1 3v2l-3 2-1 2-4 1-2-1h-1l-9-1-3 1-3 3-1-2-4 2-2-1-5 2-2 2v3h-2l-2 2v3l-2-1-2-2h-2l-1-2h-3l-5-3-3-1h0l-2-2h-5v-1l1-3h-2l-1-1v-4l-2-6v-3l2-3v-3l3-1 2-3v-3l1-1v-1l3-1 1-2 5-1 2-6 1-2 1-2 3-1h2l1-1 1-5v-1l1-4h1v-5l1-1v-1l1-2 2-2-1-2 2-2v-3l1-2 3-2v1l-2 4 1 2 7 3 4 1 1-3 2-3 1-1 1 1 2 1v7l1-1 1-2 4 1 2-2v2l6 2v-3h1l1 2 6-2h3l2-2 6-2 2 2-1 1-1 3h1v2h-1l-1 3v3l1 4 3 3-1 2 1 2-2 2v1h-3l-1-2-2-1-1 1 1 3-1 1-2-1h-2v3l1 1-1 1 1 2v4l-3 1h-1l-1 1h-1l-1-1 1-5-1-1h-10l-1 2 1 1-1 1 1 3h11z"/>
    <path fill="url(#e)" d="M307 448l-1 2-3 5-4 8-4 7-5 6-5 4-3 2-3 2 1-2-1-1 1-1 1 1 3-1 3-4h2v-2l1-3h2v-2l3-2v-6l1 2 1-2-1-2v2h-3v1h-2l1-2-3-1v-2l-1 3 2 1-2 4h-1l1 3h-1l-1 2 1 1h-2l-1 2h-3l-1 2v3-1l-1 1-1 1v2h1l-1 1v1h1v2l-2 1-1 3-1 4-2 4-2 2-5 5-1 1-2-1 1-2v-4l2-2h0l1-1 1-2h1l1 1 2-1 2-3v-1l-2-2 1-2h-1l-1 2h1l-3 2v1l-2 1-2-1-3-3v-2l-1-2-4-2h0l-4-3v-1l-1-2h-3l-2-2-1 1-2-2-1-2-3-3-3 3-1 1v-4l-3-3-1-1-3-3-3-2h-2l-2 3-4-1v-1h1l2-2v-3h2l5-6v-2l3-2v-1l1-1v-1l1-1 2-2v-1h1l1-2 2 1v-1l-1-1 2-2h2l1-3h2l1-1h0l2-1v-1l4-2 2-1h1l1-2h1l2-2 1 1 2-1 2 1v-1l1-1 2 1-1 1 3-1 1 1h1l2 1 3-1 1 1 2 1v-1l2 1 1 2h3l1 1h1l3 3h2l1 2 1 1v2h1l2 3 4 1h6v2h-1l-2 2v4h-1l-1 2v1l1 1v-2h1z"/>
    <path fill="url(#f)" d="M361 203h3l-2 2-3 1-2 3v1l-1 1-2 3-1 2 2 2 3 1 1 1v1h-2v2h1l1 1-2 1-1 1v4l2 1v2l-1 2-6 2-2 2h-3l-6 2-1-2h-1v3l-6-2v-2l-2 2-4-1-1 2-1 1v-7l-2-1-1-1-1 1-2 3-1 3-4-1-7-3-1-2 2-4v-1l-3 2-1 2v2l-2-1-1-2 1-3-1-3v-2l1-2-1-2 1-1-1-2 1-6v-1l1-4 1-1 1-3 1-3v-1l1-2 2-2 1-5 4-5 2-1 3-5v-1l2-4 1-3-2-2-1-1v-1l2-4v-4l3-2 4-1 1-3 1-1h2l-1-2 2-1-1-2 2-1-1-2 2-1-3-3h-2l-2-1h1l1-2 2-1 3 2 2-1 2 1v1l1 1 3 1 1 1-1 2 1 2v3l1 1-1 4-1 3v4l-2 1-1 1 1 1h2v2l2 3 2 3 2 2 2-1 4-1 1 1v2l-1 3 1 1h-4l-1 2-1 3-2 3h2l1 2v2l1 1 3 1v1l-2 2 2 2 1 2 1 2 3 1z"/>
    <path fill="#91F7F3" d="M364 203h-3v-2l1-2 1-6v-1l-1-2v-2l-1-3 1-2 1-1 2-3 2-4v-4l1-2 2-2 4-1 3-1h1l3-3h2l1-2 3-3 5-1 2 2 4-1h3v-1l1-2v-3l-1-1-1-2-1-6h1l3-4v-5l-2-2v-1l2-2-2-2v-2l3-4 1-2v-1l2-3h4l3-3 2-2v-4h1l1 1 5 1 1 1v1l-2 3-1 2 1 4 1 1 1 3 1 2 1 2-2 3v5l2 3v2l1 1 1 8 1 3v4l1 2 3 1 1 1-3 5 1 3h-2l1 3-1 1 2 1-1 3v1l-2 2-3 2h-1l-2 3-2 1-2 3h-3v2l-2 2-2-1-2 1h-2l-2 3-1-1-1 1h-3l-1-1-2-1h-4v-1h-2l-2 1h-1l1 4v4l-3 5-1 1-2 1-1 1-2-1-2 1-3 2h0l-3 1-4-2-1-2-1-2-1-2zm136-13l-2 3-2 2-3 5-1-2-1 2-3 5-3 2-2 3v-1h-2v-2h-1l-2-1-1-1v-2l-4-1-1-2-3-1-6-3h0l-2-1v-2l1-1 2-1 2-2 1-2 1 2h2l4 4 3 2 2-2 3 1 3-1 3-2 1-2h3l1 1 3-2 1 1zm4-33v2l1 3v1l-1 3 2-2v7h-1l-3-2h-2l-2 1h-1l-1 2-4 2h0-7l-1 1-1 1-2 1 1 1-2 1-3 1-2-2v-2h-2l2-3v-3h2v-2l-3-2-2 1-2 2-2 1-3 3h-3l-1 1-1-2h-2l-3-2 3-4-2-2-1-3 2-2-1-1 2-4 3 2h2l1-1 3-1 1-3 7-1 1 1-3 3-1 2-1 1v1l2 1 2 1 3-1 2 1 1 2v1l2-1 1-2v-2h1l-1-2 1-1 1-1h1l1 1 4 1h6l2 1 3 1z"/>
    <path fill="#91F7F3" d="M458 154l-2 4 1 1-2 2 1 3 2 2-3 4-1 1-2 2h-2v-1l-2-1-1-2-2-1-2-1-2-1-3 1h-6l-1-3 3-5-1-1-3-1-1-2v-4l-1-3-1-8-1-1v-2l-2-3v-5l2-3-1-2-1-2-1-3-1-1-1-4 1-2 2-3v-2h1l8-1 1-1 6 1 4 3h1l2 1 1 1 4 3h1l1 1 1 1 2 2h3l1 2 2 2 1 2 4 3 1 1v1l2 1 3 2 1 2-3 1-3 1-3 6-1 2-1 3-3 3h-1l-2 2-1 2zm25 56l-2 1-4 3-2 2-2 3-1 1-1 2h-2v1l-3 1-1-1-1-1-2-1v-3l-1-2-1-1v-3l3 1 2-2v-3l1-1v-3l-2-3-1-4v-1l6 3 3 1 1 2 4 1v2l1 1 2 1h1v2h2z"/>
    <path fill="#205058" d="M136 39v-2h-6l-2-1v-3l-1-3-2-3v-3l1-3-2-1-3-2-1-2-2-4h1l2 2h3l3 1 1 2v1l2-1h3l2 1 1-2 2 1 3 4 1 1 2-1h0v-5h3v-1l2-1 3 1 2-1h1l3-1h2l1-2h3v-1h3l2-3h1l2-2 1-2-1-2h2l4-1 3 2-1 5-2 3h3l3 2v2l2 3-2 3-2 2 1 3-2 4-1 4 1 3v2l2 1v5l2 1-1 1h2l4 5h3l2 15-12-1-3 1-2 1-2 5-1 3 1 2v1h-2l-1 1h-2l-1-2-2-1-2-1-5 2-1 1v4l-1 3v2l-2-1h-1l-2-3-3-1-2-3h-2l1-1h1l1-1-1-2v-2l-1-2-1-3v-5l1-2-1-2 1-1-2-8-2-3 1-1v-3l-2-1h-2l-2-2h-2z"/>
    <path fill="#91F7F3" d="M500 190l-3-1-1-1-3 1h-4l-1 2-3 2-3 1-3-1-2 2-3-2-4-4h-2l-1-2-1 2-2 2-2 1-1 1-1-4h-2l-1-1v-2l-2 2v-1l-2-1h-2v-1l-3-1-1-1-1-1-4 2v1l-3 1v2l-2 1h-2l-1 4h-1l-3 1h-2l1-2v-1l-2-1v-4l-4-2h-2l2-1 2-3h1l3-2 2-2v-1l1-3-2-1 1-1-1-3h8l3-1 2 1 2 1 2 1 1 2 2 1v1h2l2-2 1-1 3 2h2l1 2 1-1h3l3-3 2-1 2-2 2-1 3 2v2h-2v3l-2 3h2v2l2 2 3-1 2-1-1-1 2-1 1-1 1-1h7l4-2 1-2h1l2-1h2l3 2 1 1-1 3v1l-1 5-1 1-2 6z"/>
    <path fill="url(#g)" d="M262 408l-1-3-1-1v-2l-1-2-2-1v-1l-4 1v1l-2-1v-2l2-1v-1h3l-2-1v-1l1-1h-2l1-2h1l-1-1 1-1h1l-1-1v-8l2-1v-2l2-5 2-1 1-3 1-2 1-1 4-2 3-2 9 1 1-1 3 1 4 1 2-1 3 2 3 1 1 1h2l4 1 3-1 1 2 2 1 1 2 1 2-1 1 1 3-1 2 3 3 2 3-1 2v2l2 1 1-1 3 1h2l1 1h0l-1 4h1l1-2 2 1 1 3h1v1l-2 2-2 1 1-4-1 1-1-1 1 2-1 1h-2l-1-1 1 2h3l-1 1-1 5h-7l-2 1-3 1-4-3-5 1-1-1-3 1-1 2-2 1-2-1-2 1v4l-2 1-1-1h-4l-2-1-2-1-5-1-2-1h-4l-2-1h-2z"/>
    <path fill="#C1F1F0" d="M406 343v-2l1-3-1-1 2-2 4 1v-1l1-3 2-1v-3l3-2 1-2v-2l-2-2v-2h-2l4-1v-1l-1-1v-2l-1-3 1-1 2-1h2l-2-2h6l3 1v1l6 4-1 5v7l-1 3-1 3-3 1-2 3-1 3h-2v1h2l-2 2-3 4h-2l-1 3-2 3-1-1h-2l-3-1-3-1v-4z"/>
    <path fill="#C1F1F0" d="M369 374l-2-2 1-1v-2l4-2h3l1-1v-2h-5l-2-2-1-1h2l3-1h3l1-1 4-1h4l2-1 3 1 10-4-1-1 1-3h1l2-6h1l2-1h1v4l3 1 3 1h2l1 1v1l-1 2v7l-3 1-5 1-4 3-1 3 1 1h-1l-1 2-7-1h0-5l-1-1 2-1-1-2-2 1 1 2-1 1-9 1 5-1-3-1h-2l-3 2 2 1h-4l2-2v0l-2-1-4 2v1l3 1-1 1z"/>
    <path fill="#91F7F3" d="M458 154h-1l1-2 2-2h1l3-3 1-3 1-2 3-6 3-1 4-1 1 1h3l1 2 3 1 2-1h5l7 1 1 1 2 4 1 6 1 1v3h0l1 4-1 1-3-1-2-1h-6l-4-1-1-1h-1l-1 1-1 1 1 2h-1v2l-1 2-2 1v-1l-1-2-2-1-3 1-2-1-2-1v-1l1-1 1-2 3-3-1-1-7 1-1 3-3 1-1 1h-2z"/>
    <path fill="#205058" d="M136 39l1 1h2l2 2h2l2 1v3l-1 1 2 3 2 8-1 1 1 2-1 2v5l1 3 1 2v2l1 2-1 1h-1l-1 1h2l2 3 3 1 2 3h1l2 1v-2l1-3v-4l1-1 5-2 2 1 2 1 1 2h2l1-1h2v-2l-1-1 1-3 2-5 2-1 3-1 12 1v7l1 1v3l2 1 2 2 1 2 3 2 4 3 3 2 4 2 3 1 1 1 3 2v2h2l2-1 1 2v1l-5 11-19 43-3 2 1 4 3 2 1 2-1 1v3l-2 3 1 4-1 1-1 2v2l-1 3-40 1-1-1h-2v2l-3-1-1-2-2-1-1-2h-2l-2-4-3-1h-8v2l-2 1v1l-3 1v4h-2v4h-4l-2 1h-2l-2 1v2l-2 3-2-3-2 2-3 1-2 2-2-2h-6v1l-1 2-3 1-1 2-39-17-8-4-30-6-15-6 1-3 1-1 4-4h2l1-2-2-5 1-2 2-3v-3l1-3v-2l4-1 5-4 2-2 4-2h5l1-1h4l2-3 2-1 1 1 2-1h1l1 2 1 1v-1h3v-1l7-41-1-2-1-1-1-3v-3l-4-2-2-3v-9l6-1 1-1 2 1h3l-1-1 1-2-2-2-1-1h-6v-8l4-1h18l-2-1 2-2 1 1 1 2 3-1 2-3 2-1 2 1 3 5v7l3-1 6 6 3 1 2-1 3-2h2l1 1-1 2 1 1 1-1 2-3h1l1-2 2-1 2-1h2l2-2 2-1v1l3-2 1-1v-3l1-1 3-1 2-1 3-1z"/>
    <path fill="#39858E" d="M205 164h1l2 4 1 5 2 2v3l1 4h1l3 2 2 2 1 2h3l1 2h1l3 1 17 1 49 3 13 1-1 2v1l-1 3-1 3-1 1-1 4v1l-1 6 1 2-1 1 1 2-1 2v2l1 3-1 3 1 2 2 1v1l-2 2 1 2-2 2-1 2v1l-1 1v5h-1l-1 4v1l-1 5-1 1h-2l-3 1-1 2-1 2-2 6-5 1-1 2-3 1v1l-1 1v3l-2 3-3 1v3l-2 3v3l2 6h-8l-4-1 2-3 1-1 1-5-2 1-1 2-3 2-3 1v-1l-1-1h-3l-2 1-3 1-5-2-1-2h-2l-4-2h-2l-1 1h-5l-1 3-2 1v1l-2 2-3 1-2-1-2-1-1-2-3-1-2-2-2-1-1-5-1-2 2-3v-2h-22l-1-1-1-9-5-5h4v-6l-2-5v-4l-1-2-3-2 4-3 2-5 1-1 1-1 1-2 1-2 1-3-1-2v-1l-1-3h-1l-1-4 3-3-1-3-4-1-1 1-1-2-13 1-1-1 1-7-2-2v-2l1-3-1-2 1-1-2-4 1-1v-2l1-2-2-2 40-1 1-3v-2l1-2 1-1-1-4 2-3v-2z"/>
    <path fill="url(#h)" d="M342 277h-11l-1-3 1-1-1-1 1-2h10l1 1-1 5z"/>
    <path fill="#205058" d="M96 200l-3 2-2 2-2 1h-2l-1 2-2 1-1 3-2-1-3 1-2 4-4 2h-3l1-2H54l-4 2h-2l-1-1-1 1-1-16 1-2-1-2 1-2-4 4-2 2-2 1v1l-3 1H25v-2l-1-1-1-3-1-1H12l3-5-1-1-2-4-3-1v-2l-2-1-2-5-2-1v-1l1-1-2-1-2-2 1-3 3-1-2-2 15 6 30 6 8 4 39 17z"/>
    <path fill="#205058" d="M173 246l-2-1h-2v-1h-4l-1 1-2-1-3 1-2-2-2-3h-4v-1h-2l-1-1h-2l-1-2h-1l-1-2-2 1-2-1-1-1-3-1h-1l-2 1h-3l-1-1h-2l-1-1v-2l-3-1-1-1-3-1-1-3h-1l-1-3h-1l-1-5 1-2-1-1-1-1 1-2-1-1v-2l2-3-1-4v-1l-1-2h-1l-1 2-2-1-6 1-3 1-3 1-2-1 1-2 3-1 1-2v-1h6l2 2 2-2 3-1 2-2 2 3 2-3v-2l2-1h2l2-1h4v-4h2v-4l3-1v-1l2-1v-2h8l3 1 2 4h2l1 2 2 1 1 2 3 1v-2h2l1 1 2 2-1 2v2l-1 1 2 4-1 1 1 2-1 3v2l2 2-1 7 1 1 13-1 1 2 1-1 4 1 1 3-3 3 1 4h1l1 3v1l1 2-1 3-1 2-1 2-1 1-1 1-2 5z"/>
  </g>
</svg>
