<svg xmlns="http://www.w3.org/2000/svg" viewBox="0 0 109 54"><style>.shp0{fill:#fff}.shp1{mix-blend-mode:multiply;fill:#d6d6d6}</style><g id="Layer"><g id="Camada_1"><path id="Layer" class="shp0" d="M.38 26.73l5.32 5.34V21.4L.38 26.73z"/><path id="Layer" class="shp1" d="M.38 26.73l5.32 5.34V21.4L.38 26.73z"/><path id="Layer" class="shp0" d="M47.77 32.07l-15.7 15.7h15.7v-15.7zM5.7 5.7v15.7L21.4 5.7H5.7zm0 42.07h15.7L5.7 32.07v15.7zM47.77 5.7h-15.7l15.7 15.7V5.7zM26.73 53.09l5.34-5.32H21.4l5.33 5.32zm0-52.71L21.4 5.7h10.67L26.73.38z"/><path id="Layer" class="shp0" d="M53.09 26.73l-5.32-5.33v10.67l5.32-5.34z"/><path id="Layer" fill-rule="evenodd" class="shp0" d="M47.77 32.07l-15.73 15.7H21.38L5.7 32.04V21.38L21.38 5.7h10.69l15.7 15.68v10.69zm-20.98 6.92c1.6 0 3.19-.32 4.66-.94 1.48-.61 2.83-1.51 3.96-2.64 1.13-1.14 2.03-2.48 2.65-3.96.62-1.48.94-3.06.94-4.66.03-4.97-2.95-9.46-7.54-11.37-4.58-1.91-9.87-.87-13.38 2.64-3.51 3.51-4.56 8.8-2.65 13.38 1.9 4.59 6.39 7.57 11.36 7.55z"/><path id="Layer" fill-rule="evenodd" class="shp0" d="M26.79 14.48c1.61 0 3.2.32 4.69.95 1.48.62 2.83 1.53 3.97 2.67a12.29 12.29 0 012.64 3.99c.61 1.49.92 3.09.91 4.7-.02 4.96-3.02 9.41-7.61 11.29a12.258 12.258 0 11-4.6-23.6zm3.73 21.24a9.744 9.744 0 003.15-2.11c.91-.9 1.63-1.98 2.12-3.16.48-1.18.74-2.45.74-3.73 0-3.94-2.38-7.49-6.01-8.99a9.737 9.737 0 10-3.73 18.73c1.28 0 2.54-.25 3.73-.74z"/><path id="Layer" fill-rule="evenodd" class="shp0" d="M30.52 17.79c1.18.49 2.25 1.21 3.15 2.11.91.91 1.63 1.98 2.12 3.16.48 1.18.74 2.45.74 3.73 0 3.94-2.38 7.49-6.01 9-3.64 1.5-7.83.67-10.62-2.12a9.736 9.736 0 016.89-16.62c1.28 0 2.54.25 3.73.74zm-3.73 14.47c.72 0 1.42-.15 2.09-.43.66-.28 1.26-.68 1.76-1.19.51-.5.91-1.1 1.19-1.76.28-.67.43-1.37.43-2.09a5.511 5.511 0 00-3.41-5.12 5.527 5.527 0 00-7.21 7.26c.87 2.06 2.91 3.4 5.15 3.38v-.05z"/><path id="Layer" class="shp0" d="M26.73 32.26a5.52 5.52 0 01-5.52-5.53c0-3.05 2.47-5.52 5.52-5.52a5.52 5.52 0 015.53 5.52c0 3.06-2.47 5.53-5.53 5.53z"/><path id="Layer" d="M47.77 32.07l-15.7 15.7h15.7v-15.7zM5.7 5.7v15.7L21.4 5.7H5.7zm0 42.07h15.7L5.7 32.07v15.7zM47.77 5.7h-15.7l15.7 15.7V5.7z" style="mix-blend-mode:multiply" fill="#b2b2b2"/><path id="Layer" class="shp1" d="M26.73 53.09l5.34-5.32H21.4l5.33 5.32zm0-52.71L21.4 5.7h10.67L26.73.38zm26.36 26.35l-5.32-5.33v10.67l5.32-5.34z"/><path id="Layer" fill-rule="evenodd" d="M47.77 32.07l-15.73 15.7H21.38L5.7 32.04V21.38L21.38 5.7h10.69l15.7 15.68v10.69zm-20.98 6.92c1.6 0 3.19-.32 4.66-.94 1.48-.61 2.83-1.51 3.96-2.64 1.13-1.14 2.03-2.48 2.65-3.96.62-1.48.94-3.06.94-4.66.03-4.97-2.95-9.46-7.54-11.37-4.58-1.91-9.87-.87-13.38 2.64-3.51 3.51-4.56 8.8-2.65 13.38 1.9 4.59 6.39 7.57 11.36 7.55z" fill="#969696"/><path id="Layer" fill-rule="evenodd" d="M26.79 14.48c1.61 0 3.2.32 4.69.95 1.48.62 2.83 1.53 3.97 2.67a12.29 12.29 0 012.64 3.99c.61 1.49.92 3.09.91 4.7-.02 4.96-3.02 9.41-7.61 11.29a12.258 12.258 0 11-4.6-23.6zm3.73 21.24a9.744 9.744 0 003.15-2.11c.91-.9 1.63-1.98 2.12-3.16.48-1.18.74-2.45.74-3.73 0-3.94-2.38-7.49-6.01-8.99a9.737 9.737 0 10-3.73 18.73c1.28 0 2.54-.25 3.73-.74z" fill="#000"/><path id="Layer" fill-rule="evenodd" d="M30.52 17.79c1.18.49 2.25 1.21 3.15 2.11.91.91 1.63 1.98 2.12 3.16.48 1.18.74 2.45.74 3.73 0 3.94-2.38 7.49-6.01 9-3.64 1.5-7.83.67-10.62-2.12a9.736 9.736 0 016.89-16.62c1.28 0 2.54.25 3.73.74zm-3.73 14.47c.72 0 1.42-.15 2.09-.43.66-.28 1.26-.68 1.76-1.19.51-.5.91-1.1 1.19-1.76.28-.67.43-1.37.43-2.09a5.511 5.511 0 00-3.41-5.12 5.527 5.527 0 00-7.21 7.26c.87 2.06 2.91 3.4 5.15 3.38v-.05z" style="mix-blend-mode:multiply" fill="#383838"/><path id="Layer" class="shp0" d="M26.73 32.26a5.52 5.52 0 01-5.52-5.53c0-3.05 2.47-5.52 5.52-5.52a5.52 5.52 0 015.53 5.52c0 3.06-2.47 5.53-5.53 5.53z"/><path id="Layer" d="M26.79 17.05a9.736 9.736 0 00-6.89 16.62 9.759 9.759 0 0010.62 2.12 9.756 9.756 0 006.01-9c0-1.28-.26-2.55-.74-3.73a9.762 9.762 0 00-2.12-3.16c-.9-.9-1.97-1.62-3.15-2.11a9.77 9.77 0 00-3.73-.74z" style="mix-blend-mode:multiply" fill="none" stroke="#383838" stroke-width=".5"/><path id="Layer" fill-rule="evenodd" class="shp0" d="M60.75 13.14c-.01-.08 0-.17.03-.26.03-.08.08-.16.14-.22a.636.636 0 01.48-.18h2.17c.33-.02.66.02.97.12.32.1.61.27.85.49.25.22.45.49.59.79.15.3.23.62.24.95.01.23-.01.46-.06.68-.06.22-.15.43-.27.63a2.171 2.171 0 01-1.04.86c.3.02.59.11.86.24.26.14.5.32.7.54.2.23.35.48.46.76.1.28.15.58.15.88 0 .41-.09.81-.26 1.19a2.942 2.942 0 01-1.78 1.57c-.39.12-.8.16-1.21.11h-2.36a.59.59 0 01-.26-.04.518.518 0 01-.22-.14.582.582 0 01-.17-.48l-.01-8.49zm1.21 3.49h1.38c.21.01.43-.02.63-.09.2-.07.39-.19.54-.34.15-.15.27-.33.35-.53.08-.2.11-.42.1-.63.02-.21-.01-.42-.09-.62-.07-.19-.19-.37-.34-.51-.15-.15-.33-.26-.53-.32-.2-.07-.41-.09-.62-.07h-1.42v3.11zm0 4.62h1.71c.26.03.52 0 .77-.08.25-.07.47-.2.67-.37.19-.17.35-.38.46-.62.11-.23.17-.49.17-.75 0-.25-.05-.51-.15-.74-.11-.23-.26-.44-.45-.61-.18-.17-.41-.3-.65-.38-.24-.08-.5-.1-.75-.08h-1.78v3.63zm7.51-2.14a2.121 2.121 0 001.31 2.08c.27.11.57.16.86.15 1.61 0 2.02-1 2.48-1 .06 0 .13.02.18.05.06.03.11.07.16.12.04.05.07.11.09.18.01.06.02.13.01.19 0 .6-1.5 1.5-2.93 1.5-2.35 0-3.37-1.8-3.37-3.75-.04-.46.01-.93.15-1.37.14-.44.37-.85.68-1.2a3.398 3.398 0 012.42-1.18c.44.02.88.13 1.28.32.39.2.75.47 1.05.8a3.34 3.34 0 01.83 2.45c0 .42-.15.65-.67.65l-4.53.01zm4.03-.91c.02-.28-.01-.55-.1-.81-.08-.27-.22-.51-.4-.71-.18-.21-.4-.38-.65-.5-.24-.12-.51-.2-.79-.21-1.49-.09-2.04 1.08-2.09 2.22l4.03.01z"/><path id="Layer" class="shp0" d="M76.42 15.54c0-.17.06-.32.18-.43.11-.12.27-.18.43-.18.16 0 .31.06.42.18.12.11.18.26.18.43v.61c.08-.17.17-.32.29-.47.11-.14.24-.27.39-.38.15-.11.31-.2.48-.27.17-.07.35-.12.53-.14.09-.01.17 0 .25.03.08.02.16.07.22.13.06.05.12.13.15.2.03.08.05.17.05.25 0 .35-.25.57-.76.66-.23.04-.46.13-.67.25-.21.13-.39.29-.54.48-.14.19-.25.41-.32.65-.06.23-.08.47-.06.71v3.49a.598.598 0 01-.6.6c-.16 0-.32-.06-.43-.18a.599.599 0 01-.18-.42l-.01-6.2zm4.89 0c0-.17.06-.32.18-.43.11-.12.27-.18.43-.18a.598.598 0 01.6.61v.29a2.6 2.6 0 011.35-.88c.54-.14 1.1-.11 1.61.09.52.21.95.57 1.24 1.04.29.47.42 1.02.38 1.57v4.06c0 .16-.06.32-.18.43-.11.12-.27.18-.43.18a.56.56 0 01-.42-.18.582.582 0 01-.18-.43v-3.98c.04-.47-.13-.94-.45-1.29-.32-.34-.77-.54-1.25-.54-.47 0-.92.2-1.24.54-.33.35-.49.82-.45 1.29v3.99c0 .17-.06.32-.18.43a.56.56 0 01-.42.18c-.17 0-.32-.06-.43-.18a.566.566 0 01-.18-.43l.02-6.18z"/><path id="Layer" fill-rule="evenodd" class="shp0" d="M95.34 21.79c.01.08 0 .15-.03.22-.02.08-.07.14-.12.2-.05.05-.11.1-.18.13a.62.62 0 01-.23.04.43.43 0 01-.22-.04.497.497 0 01-.19-.13.474.474 0 01-.12-.19.46.46 0 01-.03-.23v-.51c-.11.17-.24.32-.38.45-.15.14-.31.25-.48.35a2.379 2.379 0 01-1.14.28c-2.07 0-3.25-1.8-3.25-3.75s1.16-3.76 3.25-3.76c.19 0 .38.03.57.07a2.47 2.47 0 011.02.5c.15.12.29.26.41.41v-.39c-.01-.08 0-.16.03-.23.02-.07.07-.14.12-.19.05-.06.12-.1.19-.13s.15-.05.22-.05c.08 0 .15.02.23.05.07.03.13.07.18.13.05.05.1.12.12.19.03.07.04.15.03.23v6.35zm-3.15-.41c1.49 0 2.01-1.46 2.01-2.71 0-1.24-.52-2.7-2.01-2.7-1.5 0-2.02 1.46-2.02 2.7 0 1.25.53 2.71 2.02 2.71z"/><path id="Layer" class="shp0" d="M97.5 15.54c0-.17.06-.32.18-.43a.56.56 0 01.42-.18c.16 0 .32.06.43.18.12.11.18.26.18.43v.61c.07-.16.17-.32.28-.46.11-.15.24-.27.39-.38.14-.11.3-.2.46-.28.17-.07.35-.12.53-.14.08-.01.17 0 .25.03.08.02.15.07.22.13.06.05.11.13.14.2.04.08.06.17.06.25 0 .35-.25.57-.76.66-.24.04-.47.12-.68.25-.2.12-.39.28-.53.47-.15.2-.26.41-.33.65-.06.23-.09.47-.06.71v3.48c0 .17-.07.32-.18.43-.11.12-.27.18-.43.18a.598.598 0 01-.6-.61l.03-6.18z"/><path id="Layer" fill-rule="evenodd" class="shp0" d="M107.18 21.38c-.09.17-.21.32-.35.46-.14.13-.3.25-.48.33-.17.09-.35.16-.55.19-.19.04-.38.05-.58.02-1.99 0-3.12-1.8-3.12-3.75s1.11-3.74 3.1-3.74c.19 0 .38.02.57.06.18.04.36.11.53.2.17.08.33.19.47.31.15.13.28.27.39.42v-3.57a.598.598 0 01.61-.6.598.598 0 01.6.6v9.43c0 .16-.06.31-.18.42a.56.56 0 01-.42.18c-.16 0-.32-.06-.43-.18a.56.56 0 01-.18-.42l.02-.36zm-1.88-5.41c-1.49 0-2.01 1.46-2.01 2.7 0 1.25.52 2.71 2.01 2.71 1.49 0 2.01-1.46 2.01-2.71 0-1.24-.52-2.7-2.01-2.7z"/><path id="Layer" class="shp0" d="M60.26 26.49c-.02-.04-.04-.08-.05-.12-.01-.04-.03-.08-.04-.12-.01-.04-.01-.08-.02-.13-.01-.04-.01-.08-.01-.12-.01-.07 0-.15.03-.22.02-.06.06-.13.11-.18.05-.05.12-.09.18-.12.07-.02.14-.04.22-.03.07-.01.14 0 .2.01.07.02.14.05.19.1.06.04.11.09.15.15.03.06.06.12.07.19l1.63 4.92 1.62-4.92c.01-.07.04-.13.08-.19s.08-.11.14-.15c.06-.05.12-.08.19-.1.07-.01.14-.02.21-.01.07 0 .14.01.21.04.07.02.13.06.18.12.05.05.09.11.11.18.03.06.04.14.04.21 0 .04-.01.08-.01.12-.01.05-.02.09-.03.13l-.03.12c-.02.04-.03.08-.05.12l-2 5.71c-.12.34-.24.51-.62.51s-.5-.17-.62-.51l-2.08-5.71z"/><path id="Layer" fill-rule="evenodd" class="shp0" d="M72.96 32.2c0 .07-.01.15-.03.22a.76.76 0 01-.12.19c-.05.05-.12.09-.19.12-.06.03-.14.04-.21.04-.08 0-.15-.01-.22-.04a.76.76 0 01-.19-.12.524.524 0 01-.11-.19.57.57 0 01-.04-.22v-.54c-.1.16-.22.31-.36.44-.14.14-.3.25-.47.35-.16.09-.34.16-.53.21-.19.05-.38.08-.57.08-2 0-3.13-1.75-3.13-3.64 0-1.88 1.08-3.63 3.13-3.63.18 0 .37.02.55.07.18.04.36.1.52.18.17.09.33.19.47.3.15.12.28.25.39.4v-.39c0-.07.01-.15.04-.22.02-.07.06-.13.11-.19a.76.76 0 01.19-.12c.07-.03.14-.04.22-.04.07 0 .15.01.21.04.07.03.14.07.19.12.05.06.09.12.12.19.02.07.03.15.03.22v6.17zm-3.06-.45c1.43 0 1.94-1.41 1.94-2.61s-.51-2.62-1.94-2.62c-1.44 0-2 1.35-2 2.57 0 1.23.55 2.62 2 2.62v.04z"/><path id="Layer" class="shp0" d="M75.05 26.09c0-.16.06-.31.17-.42a.59.59 0 01.83 0c.11.11.17.26.17.42l.01.28c.33-.42.79-.72 1.31-.85a2.492 2.492 0 012.75 1.09c.28.46.41.99.37 1.52v3.95c0 .15-.07.3-.17.41a.59.59 0 01-.83 0 .583.583 0 01-.17-.41l-.01-3.86a1.6 1.6 0 00-.37-1.33 1.63 1.63 0 00-1.25-.58c-.48 0-.94.21-1.25.58a1.6 1.6 0 00-.37 1.33v3.87a.62.62 0 01-.18.41.59.59 0 01-.83 0 .566.566 0 01-.17-.41l-.01-6zm10.98 5.46h2.51c.16-.03.33.01.46.11.13.11.2.26.2.43 0 .17-.07.32-.2.43-.13.1-.3.14-.46.11h-3.06c-.09.01-.17 0-.25-.03a.636.636 0 01-.22-.14.611.611 0 01-.13-.22c-.03-.08-.04-.16-.03-.25v-6.86c-.02-.17.03-.34.14-.47a.607.607 0 01.9 0c.11.13.16.3.14.47v6.42z"/><path id="Layer" fill-rule="evenodd" class="shp0" d="M91.33 29.55c-.02.28.02.57.12.83.1.27.25.51.45.72.19.2.43.36.7.47.26.1.55.15.83.14 1.56 0 1.97-.96 2.4-.96.06 0 .13.02.18.05.06.03.11.07.15.12a.417.417 0 01.1.35c0 .57-1.46 1.46-2.84 1.46-2.27 0-3.25-1.75-3.25-3.64a3.386 3.386 0 01.84-2.52c.3-.34.67-.61 1.09-.8.41-.2.86-.3 1.32-.31.43.03.84.14 1.22.34.39.19.73.46 1 .78.28.33.49.7.63 1.11.13.41.18.84.15 1.26 0 .41-.14.63-.65.63l-4.44-.03zm3.91-.89c.02-.27-.01-.53-.1-.79-.08-.25-.21-.49-.39-.69-.17-.2-.39-.37-.63-.48-.24-.12-.5-.19-.77-.2-1.46 0-1.98 1.08-2.01 2.16h3.9zm3.58.89c-.02.28.02.57.12.83.09.27.25.51.44.72.2.2.44.36.71.47.26.1.54.15.83.14 1.56 0 1.96-.96 2.4-.96.06 0 .12.02.18.05.06.03.11.07.15.12.04.04.07.1.09.16.01.06.02.13.01.19 0 .57-1.46 1.46-2.84 1.46-2.28 0-3.25-1.75-3.25-3.64-.04-.45.01-.91.16-1.34.14-.44.37-.84.68-1.18.3-.34.67-.61 1.09-.8.41-.2.86-.3 1.32-.31.43.02.85.13 1.23.32.39.18.74.45 1.02.77.29.32.5.7.64 1.1.14.41.2.84.17 1.27 0 .41-.15.63-.65.63h-4.5zm3.9-.89c.03-.27-.01-.53-.09-.79a1.957 1.957 0 00-1.02-1.17c-.24-.12-.5-.19-.77-.2-1.46 0-1.98 1.08-2.02 2.16h3.9z"/><path id="Layer" class="shp0" d="M105.56 26.09a.599.599 0 01.59-.59.583.583 0 01.58.59l.01.6c.07-.16.16-.31.27-.45.11-.13.24-.26.38-.36.14-.11.29-.2.45-.27.16-.07.33-.12.5-.15.08-.01.17 0 .25.02.08.03.15.07.22.13.06.06.11.13.14.21.04.07.05.16.05.24 0 .34-.24.56-.74.64a1.89 1.89 0 00-1.17.7c-.15.19-.25.4-.32.63-.06.23-.08.46-.05.7v3.38c-.01.16-.07.31-.18.42a.63.63 0 01-.41.17c-.16 0-.31-.07-.42-.17a.59.59 0 01-.17-.42l.02-6.02zm-44.23 14.2c.01.09-.01.18-.07.25-.06.07-.14.11-.23.11s-.18-.04-.23-.11a.288.288 0 01-.07-.25v-4.21c0-.04 0-.08.01-.12.02-.05.04-.08.07-.11.03-.03.07-.06.11-.07.04-.02.08-.03.12-.02h1.69c.09-.02.17 0 .24.06a.281.281 0 010 .43c-.07.06-.15.08-.24.06h-1.4v1.57h1.24c.08-.02.17 0 .23.06a.266.266 0 010 .43c-.06.06-.15.08-.23.06h-1.24v1.86z"/><path id="Layer" fill-rule="evenodd" class="shp0" d="M69.13 36.97c.5.91.39 2.03-.29 2.81-.68.79-1.77 1.07-2.74.71a2.475 2.475 0 01-1.61-2.33c-.04-.3 0-.6.09-.89.09-.29.24-.56.43-.79.2-.23.44-.41.71-.55.28-.13.57-.2.88-.21 1.02-.16 2.03.34 2.53 1.25zm-2.53 3.07c1.08 0 1.47-1.01 1.47-1.93 0-.92-.39-1.94-1.47-1.94-1.09 0-1.48 1.02-1.48 1.94 0 .92.39 1.99 1.48 1.99v-.06z"/><path id="Layer" class="shp0" d="M70.48 36.04c-.02-.09.01-.18.06-.25a.32.32 0 01.24-.11c.09 0 .17.04.23.11s.08.16.07.25v2.86c.02.31.17.61.41.82.23.22.54.34.86.34.31 0 .62-.12.86-.34.23-.21.38-.51.41-.82v-2.86c-.02-.09 0-.18.06-.25a.32.32 0 01.24-.11.299.299 0 01.29.36v2.65c.04.52-.14 1.03-.49 1.42-.35.38-.85.59-1.37.59-.52 0-1.02-.21-1.38-.59-.35-.39-.53-.9-.49-1.42v-2.65zm6.3 4.25c.01.09-.01.18-.07.25-.05.07-.14.11-.23.11s-.18-.04-.23-.11a.322.322 0 01-.07-.25v-4.22c0-.24.08-.35.27-.35.2 0 .26.07.42.31l2.44 3.49v-3.48c-.02-.09.01-.18.06-.25a.32.32 0 01.24-.11.299.299 0 01.29.36v4.22c0 .24-.07.36-.27.36-.19 0-.26-.08-.42-.32l-2.43-3.49v3.48z"/><path id="Layer" fill-rule="evenodd" class="shp0" d="M81.91 36.08c-.01-.04 0-.08.01-.12.01-.05.04-.08.07-.11.03-.03.06-.06.1-.07a.2.2 0 01.13-.02h1.17c.3 0 .6.06.88.18s.53.3.73.53c.2.22.36.49.45.77.1.29.13.6.1.9 0 1.44-.77 2.43-2.05 2.43h-1.28c-.04.01-.09 0-.13-.01a.36.36 0 01-.1-.07c-.03-.04-.06-.07-.07-.11a.288.288 0 01-.01-.13v-4.17zm.59 3.97h.86c1.08 0 1.53-.94 1.53-1.92 0-.99-.44-1.86-1.58-1.86h-.81v3.78zm5.07.34c-.01.03-.03.06-.04.09a.5.5 0 01-.07.08c-.03.02-.06.03-.09.04-.03.01-.06.02-.1.02-.03 0-.07 0-.1-.02a.204.204 0 01-.09-.05.156.156 0 01-.06-.08.193.193 0 01-.03-.1c.01-.03.01-.05.02-.08 0-.02.01-.05.02-.07 0-.03.01-.05.02-.07.01-.03.02-.05.03-.07l1.49-3.99c.08-.2.2-.36.42-.36.23 0 .36.15.43.36l1.49 3.99c.01.02.02.04.02.07.01.02.02.05.02.07.01.02.02.05.02.07.01.03.01.05.01.08s-.01.07-.02.1c-.02.03-.04.06-.06.08-.03.03-.06.04-.09.05-.04.02-.07.02-.11.02-.03 0-.06-.01-.1-.02a.201.201 0 01-.08-.04.5.5 0 01-.07-.08c-.02-.03-.03-.06-.04-.09l-.31-.87h-2.23l-.3.87zM89 36.41l-.93 2.61h1.86L89 36.41z"/><path id="Layer" class="shp0" d="M92.94 36.31h-.9a.25.25 0 01-.23-.06.281.281 0 010-.43c.07-.06.15-.08.23-.06h2.4c.08-.02.16 0 .23.06a.281.281 0 010 .43.25.25 0 01-.23.06h-.9v3.98c-.01.08-.04.15-.09.21-.06.05-.13.08-.21.08-.08 0-.15-.03-.21-.08a.323.323 0 01-.08-.21l-.01-3.98zm3.96 3.98a.299.299 0 01-.29.36.32.32 0 01-.24-.11.283.283 0 01-.06-.25v-4.25c-.02-.09 0-.18.06-.25a.32.32 0 01.24-.11.299.299 0 01.29.36v4.25z"/><path id="Layer" fill-rule="evenodd" class="shp0" d="M103.34 36.97c.5.91.38 2.03-.3 2.81a2.47 2.47 0 01-2.74.71 2.489 2.489 0 01-1.61-2.33 2.238 2.238 0 01.53-1.68c.19-.23.44-.41.71-.55.27-.13.57-.2.87-.21 1.02-.16 2.04.34 2.54 1.25zm-2.54 3.07c1.08 0 1.47-1.01 1.47-1.93 0-.92-.39-1.94-1.47-1.94s-1.47 1.02-1.47 1.94c0 .92.39 1.99 1.47 1.99v-.06z"/><path id="Layer" class="shp0" d="M105.28 40.29c-.01.08-.04.15-.09.21-.06.05-.13.08-.21.08-.08 0-.15-.03-.21-.08a.323.323 0 01-.08-.21l-.01-4.22c0-.24.09-.35.27-.35.19 0 .26.07.43.31l2.43 3.49v-3.48c-.02-.09.01-.18.06-.25a.32.32 0 01.24-.11.299.299 0 01.29.36v4.22c0 .24-.08.36-.27.36-.18 0-.26-.08-.42-.32l-2.43-3.49v3.48z"/></g></g></svg>