<svg xmlns="http://www.w3.org/2000/svg" viewBox="0 0 110 97.53"><defs><style>.cls-2{fill:#fff}.cls-3{fill:#d6d6d6;mix-blend-mode:multiply}</style></defs><g style="isolation:isolate"><g id="Camada_1" data-name="Camada 1"><path class="cls-2" d="M9.59 33.95l4.92 4.93v-9.86l-4.92 4.93z"/><path class="cls-3" d="M9.59 33.95l4.92 4.93v-9.86l-4.92 4.93z"/><path class="cls-2" d="M53.39 38.88L38.88 53.39h14.51V38.88zM14.51 14.51v14.51l14.51-14.51H14.51zm0 38.88h14.51L14.51 38.88v14.51zm38.88-38.88H38.88l14.51 14.51V14.51zm-19.44 43.8l4.93-4.92h-9.86l4.93 4.92zm0-48.72l-4.93 4.92h9.86l-4.93-4.92zm24.36 24.36l-4.92-4.93v9.86l4.92-4.93z"/><path class="cls-2" d="M53.39 29L38.88 14.51H29L14.51 29v9.85L29 53.39h9.85l14.54-14.51zM34 45.28A11.33 11.33 0 1145.29 34 11.33 11.33 0 0134 45.28z"/><path class="cls-2" d="M34 22.62A11.33 11.33 0 1045.29 34 11.33 11.33 0 0034 22.62zm0 20.32a9 9 0 119-9 9 9 0 01-9 9z"/><path class="cls-2" d="M34 25a9 9 0 109 9 9 9 0 00-9-9zm0 14.1a5.11 5.11 0 115.06-5.1A5.11 5.11 0 0134 39.06z"/><circle class="cls-2" cx="33.95" cy="33.95" r="5.11"/><path d="M53.39 38.88L38.88 53.39h14.51V38.88zM14.51 14.51v14.51l14.51-14.51H14.51zm0 38.88h14.51L14.51 38.88v14.51zm38.88-38.88H38.88l14.51 14.51V14.51z" style="mix-blend-mode:multiply" fill="#b2b2b2"/><path class="cls-3" d="M33.95 58.31l4.93-4.92h-9.86l4.93 4.92zm0-48.72l-4.93 4.92h9.86l-4.93-4.92zm24.36 24.36l-4.92-4.93v9.86l4.92-4.93z"/><path d="M53.39 29L38.88 14.51H29L14.51 29v9.85L29 53.39h9.85l14.54-14.51zM34 45.28A11.33 11.33 0 1145.29 34 11.33 11.33 0 0134 45.28z" fill="#969696"/><path d="M34 22.62A11.33 11.33 0 1045.29 34 11.33 11.33 0 0034 22.62zm0 20.32a9 9 0 119-9 9 9 0 01-9 9z"/><path d="M34 25a9 9 0 109 9 9 9 0 00-9-9zm0 14.1a5.11 5.11 0 115.06-5.1A5.11 5.11 0 0134 39.06z" style="mix-blend-mode:multiply" fill="#383838"/><circle class="cls-2" cx="33.95" cy="33.95" r="5.11"/><path d="M34 25a9 9 0 109 9 9 9 0 00-9-9z" style="mix-blend-mode:multiply" stroke="#383838" stroke-width=".5" fill="none"/><path fill="none" d="M0 0h67.9v97.53H0z"/><path class="cls-2" d="M65.39 21.39a.55.55 0 01.6-.61h2a2.26 2.26 0 012.45 2.17 2 2 0 01-1.26 2 2.21 2.21 0 012 2.24 2.68 2.68 0 01-3 2.65H66a.55.55 0 01-.6-.61zm1.12 3.22h1.27a1.4 1.4 0 001.5-1.47 1.31 1.31 0 00-1.46-1.4h-1.31zm0 4.27h1.58A1.72 1.72 0 0070 27.2a1.67 1.67 0 00-1.85-1.67h-1.64zm6.94-1.98a1.93 1.93 0 002 2.06c1.49 0 1.87-.92 2.29-.92a.44.44 0 01.41.5c0 .55-1.39 1.39-2.71 1.39-2.17 0-3.11-1.67-3.11-3.47a3.18 3.18 0 013-3.47 3.09 3.09 0 012.92 3.3c0 .39-.14.6-.62.6zm3.72-.84A1.91 1.91 0 0075.38 24c-1.38-.08-1.89 1-1.93 2.05zm2.7-2.46a.56.56 0 111.12 0v.57A2 2 0 0182.55 23a.57.57 0 01.62.57c0 .32-.23.52-.7.61A1.77 1.77 0 0081 26.11v3.22a.56.56 0 11-1.12 0zm4.52 0a.56.56 0 111.12 0v.27a2.38 2.38 0 014.23 1.68v3.76a.56.56 0 11-1.12 0v-3.68a1.57 1.57 0 10-3.13 0v3.69a.56.56 0 11-1.12 0zm12.97 5.78a.52.52 0 01-.52.55.51.51 0 01-.52-.55v-.47a2.19 2.19 0 01-1.85 1c-1.91 0-3-1.67-3-3.47s1.07-3.47 3-3.47a2.37 2.37 0 011.85.9v-.36a.51.51 0 01.52-.55.52.52 0 01.52.55zM94.44 29c1.38 0 1.86-1.35 1.86-2.5s-.48-2.5-1.86-2.5-1.86 1.35-1.86 2.5.49 2.5 1.86 2.5zm4.91-5.4a.56.56 0 111.12 0v.57A2 2 0 01102 23a.57.57 0 01.62.57c0 .32-.23.52-.7.61a1.77 1.77 0 00-1.48 1.92v3.22a.56.56 0 11-1.12 0zm8.95 5.4a1.85 1.85 0 01-1.81.93c-1.84 0-2.89-1.67-2.89-3.47s1.03-3.46 2.87-3.46a2.22 2.22 0 011.81.92v-3.3a.56.56 0 111.12 0v8.71a.56.56 0 11-1.12 0zm-1.74-5c-1.38 0-1.86 1.35-1.86 2.5s.48 2.5 1.86 2.5 1.86-1.35 1.86-2.5-.48-2.5-1.86-2.5zm-41.63 9.72a1.31 1.31 0 01-.11-.45.48.48 0 01.5-.51.53.53 0 01.57.42l1.5 4.55 1.5-4.55a.53.53 0 01.57-.42.49.49 0 01.5.51 1.25 1.25 0 01-.11.45L68 39c-.11.32-.22.47-.57.47s-.46-.15-.57-.47zM76.67 39a.5.5 0 01-.51.53.5.5 0 01-.51-.53v-.5a2.13 2.13 0 01-1.79 1c-1.85 0-2.89-1.62-2.89-3.36s1-3.36 2.89-3.36a2.3 2.3 0 011.79.88v-.36a.5.5 0 01.51-.53.5.5 0 01.51.53zm-2.83-.41c1.33 0 1.8-1.31 1.8-2.42s-.47-2.42-1.8-2.42S72 35 72 36.13s.5 2.42 1.84 2.42zm4.76-5.24a.54.54 0 111.09 0v.26a2.31 2.31 0 014.1 1.63v3.65a.54.54 0 11-1.09 0v-3.57a1.52 1.52 0 10-3 0v3.58a.54.54 0 11-1.09 0zm10.15 5.05h2.32a.51.51 0 110 1h-2.83a.54.54 0 01-.58-.59v-6.34a.55.55 0 111.09 0zm4.9-1.85a1.87 1.87 0 001.94 2c1.44 0 1.82-.89 2.22-.89a.43.43 0 01.4.48c0 .53-1.35 1.35-2.63 1.35-2.1 0-3-1.62-3-3.36a3.09 3.09 0 013-3.36A3 3 0 0198.35 36c0 .38-.13.58-.6.58zm3.61-.82a1.85 1.85 0 00-1.74-2c-1.35 0-1.83 1-1.86 2zm3.31.82a1.87 1.87 0 001.94 2c1.44 0 1.81-.89 2.22-.89a.43.43 0 01.4.48c0 .53-1.35 1.35-2.63 1.35-2.1 0-3-1.62-3-3.36a3.09 3.09 0 013-3.36 3 3 0 012.83 3.2c0 .38-.14.58-.6.58zm3.61-.82a1.85 1.85 0 00-1.74-2c-1.35 0-1.83 1-1.87 2zm2.62-2.38a.54.54 0 111.09 0v.56a2 2 0 011.48-1.14.55.55 0 01.61.56c0 .31-.22.51-.68.59a1.71 1.71 0 00-1.43 1.87v3.13a.54.54 0 11-1.09 0zM65.92 46.48a.28.28 0 11-.55 0v-3.89a.27.27 0 01.29-.3h1.56a.26.26 0 110 .51h-1.3v1.45h1.15a.26.26 0 110 .51h-1.15zm4.87-4.23a2.29 2.29 0 11-1.95 2.26 2.05 2.05 0 011.95-2.26zm0 4c1 0 1.36-.94 1.36-1.79s-.36-1.79-1.36-1.79-1.36.94-1.36 1.79.36 1.84 1.36 1.84zm3.59-3.7a.28.28 0 11.55 0v2.64a1.18 1.18 0 002.35 0v-2.64a.28.28 0 11.55 0V45a1.73 1.73 0 11-3.45 0zm5.82 3.93a.28.28 0 11-.55 0v-3.9c0-.22.07-.33.25-.33s.24.07.39.29l2.25 3.23v-3.22a.28.28 0 11.55 0v3.9c0 .22-.07.33-.25.33s-.24-.07-.39-.29l-2.25-3.23zm4.74-3.89a.27.27 0 01.29-.3h1.08a2 2 0 012 2.2c0 1.33-.71 2.25-1.9 2.25h-1.18a.27.27 0 01-.29-.3zm.55 3.67h.79c1 0 1.42-.87 1.42-1.78s-.41-1.72-1.46-1.72h-.75zm4.68.31a.27.27 0 01-.27.21.24.24 0 01-.26-.23 1.23 1.23 0 01.08-.27l1.38-3.68c.07-.19.18-.34.39-.34s.33.14.39.34l1.38 3.68a1.28 1.28 0 01.07.27.24.24 0 01-.26.23.27.27 0 01-.27-.21l-.29-.8h-2.06zm1.33-3.68l-.86 2.41h1.72zm3.64-.09h-.83a.26.26 0 110-.51h2.21a.26.26 0 110 .51h-.83v3.68a.27.27 0 11-.55 0zm3.66 3.68a.28.28 0 11-.55 0v-3.93a.28.28 0 11.55 0zm3.6-4.23a2.29 2.29 0 11-1.95 2.26 2.05 2.05 0 011.95-2.26zm0 4c1 0 1.36-.94 1.36-1.79s-.36-1.79-1.36-1.79-1.36.94-1.36 1.79.36 1.84 1.36 1.84zm4.14.23a.27.27 0 11-.55 0v-3.9c0-.22.08-.33.25-.33s.24.07.39.29l2.25 3.23v-3.22a.28.28 0 11.55 0v3.9c0 .22-.08.33-.25.33s-.24-.07-.39-.29l-2.25-3.23z"/></g></g></svg>