<svg xmlns="http://www.w3.org/2000/svg" width="74" height="84"><g fill="none" fill-rule="evenodd" transform="translate(-1)"><path stroke="#979797" stroke-linecap="round" stroke-linejoin="round" d="M10 4h12m-8 38h-3"/><rect width="56" height="78" x="2" y="5" fill="#EAEAEA" stroke="#205058" stroke-width="2" rx="5"/><rect width="56" height="78" x="5" y="1" fill="#F9F9F9" stroke="#205058" stroke-width="2" rx="5"/><circle cx="1" cy="1" r="1" fill="#47B3AF" transform="matrix(-1 0 0 1 75 18)"/><path fill="#205058" d="M20.5 1.5v10a5 5 0 01-5 5h-10l15-15z"/><path fill="#205058" d="M22.5 0v13.5a5 5 0 01-5 5H4L22.5 0z"/><path stroke="#FFF" stroke-linecap="round" stroke-linejoin="round" stroke-width="2" d="M36.5 5.5h12m4 0h4"/><path stroke="#979797" stroke-linecap="round" stroke-linejoin="round" stroke-width="2" d="M20.972 22.774h20.506m-28.242 8.003l36.26-.006m-36.383 8.012l36.26-.006m-36.26 8.012l36.26-.006"/><path stroke="#979797" stroke-linecap="round" stroke-linejoin="round" d="M4.224 54.505l7.516.024m2.454.004h3.536"/><path fill="#EAEAEA" d="M6 54h24a2 2 0 012 2v10a2 2 0 01-2 2H6V54z"/><path fill="#205058" d="M5 52l-1 1.5-2.5-1zM1.499 67.5l4-4-1.5 4.5z"/><path fill="#FFF" stroke="#205058" d="M2 53h28a2 2 0 012 2v10a2 2 0 01-2 2H2h0V53z"/><text fill="#205058" font-family="Lato-Heavy, Lato" font-size="10" font-weight="600"><tspan x="8.018" y="64">CSV</tspan></text></g></svg>