<svg xmlns="http://www.w3.org/2000/svg" width="34" height="33"><path fill="#FFF" fill-rule="evenodd" d="M20.863 0a2 2 0 0 1 2 2v10a2 2 0 0 1-2 2h-10a2 2 0 0 1-2-2V2a2 2 0 0 1 2-2h10zm-4.638 3c-.644 0-1.234.11-1.77.33-.536.22-.996.528-1.38.924a4.173 4.173 0 0 0-.894 1.413 4.924 4.924 0 0 0-.318 1.797c0 .64.098 1.233.294 1.779.196.546.477 1.018.843 1.416.366.398.812.71 1.338.936.526.226 1.12.339 1.785.339.724 0 1.35-.117 1.88-.351a3.33 3.33 0 0 0 1.167-.85l.157-.191-.804-.846a.391.391 0 0 0-.456-.081.71.71 0 0 0-.156.099c-.12.108-.238.197-.354.267-.116.07-.24.126-.372.168a2.292 2.292 0 0 1-.426.09c-.152.018-.32.027-.504.027-.32 0-.62-.062-.9-.186a2.113 2.113 0 0 1-.735-.543 2.622 2.622 0 0 1-.498-.879 3.6 3.6 0 0 1-.183-1.194c0-.444.055-.839.165-1.185.11-.346.266-.638.468-.876s.442-.419.72-.543c.278-.124.585-.186.92-.186.213 0 .398.016.556.048.158.032.296.071.414.117.118.046.22.096.306.15l.237.15c.072.046.14.085.204.117a.45.45 0 0 0 .204.048.406.406 0 0 0 .252-.069l.084-.073.072-.08.684-.918a3.714 3.714 0 0 0-1.26-.837 4.53 4.53 0 0 0-.813-.24A4.722 4.722 0 0 0 16.225 3zM4.29 14.175l9.816 1.908a2 2 0 0 1 1.582 2.345l-1.908 9.816a2 2 0 0 1-2.345 1.581l-9.816-1.908a2 2 0 0 1-1.582-2.345l1.908-9.816a2 2 0 0 1 2.345-1.581zm3.405 3.718l-4.513 7.179 1.406.273c.15.03.282.014.399-.047a.71.71 0 0 0 .213-.162l.05-.066.721-1.264 2.952.574.195 1.442c.027.123.082.23.164.322.061.069.143.12.247.154l.11.029 1.396.271-1.496-8.346-1.844-.359zm.606 1.777a14.857 14.857 0 0 0 .117.986l.026.153.306 2.266-2.125-.414 1.125-1.976a8.78 8.78 0 0 0 .55-1.015zm23.479-.914l1.908 9.816a2 2 0 0 1-1.582 2.345l-9.816 1.908a2 2 0 0 1-2.345-1.581l-1.908-9.816a2 2 0 0 1 1.582-2.345l9.816-1.908a2 2 0 0 1 2.345 1.581zm-6.47 2.3l-.265.047-2.889.561 1.527 7.853 3.137-.61c.47-.09.877-.232 1.22-.424.343-.192.62-.419.827-.681.208-.262.35-.55.423-.862a2.31 2.31 0 0 0 .013-.97c-.087-.446-.282-.785-.584-1.017-.302-.232-.725-.36-1.266-.386.22-.132.403-.274.549-.425.146-.152.259-.309.339-.472.08-.163.13-.33.148-.504a1.78 1.78 0 0 0-.023-.524 2.3 2.3 0 0 0-.336-.847c-.16-.24-.379-.43-.655-.566-.276-.136-.615-.218-1.015-.245a5.165 5.165 0 0 0-1.15.072zm1.403 4.483c.16.014.292.051.4.112.106.062.19.146.25.254.06.107.104.233.132.377.024.125.032.253.024.381a.81.81 0 0 1-.114.363.95.95 0 0 1-.313.307c-.14.09-.331.16-.572.207l-1.283.249-.38-1.957 1.272-.247c.23-.045.425-.06.584-.046zm-.862-3.127a.922.922 0 0 1 .4.09.68.68 0 0 1 .274.257c.07.115.124.266.16.453.038.19.039.354.004.491a.706.706 0 0 1-.201.347c-.1.094-.227.17-.383.23a3.19 3.19 0 0 1-.536.15l-.949.184-.377-1.94 1.067-.208c.205-.04.385-.058.54-.054z"/></svg>