<svg xmlns="http://www.w3.org/2000/svg" viewBox="0 0 15 15" width="20" height="20"><style>.shp1{fill:#fff}</style><path id="Layer" d="M4.52 0h5.03c.44 0 .79.35.79.79v5.15c0 .44-.35.79-.79.79H4.52c-.44 0-.79-.35-.79-.79V.79c0-.44.35-.79.79-.79zM.79 7.28h5.03c.44 0 .79.35.79.79v5.15c0 .44-.35.79-.79.79H.79c-.44 0-.79-.35-.79-.79V8.07c0-.44.35-.79.79-.79zm7.48.02h5.02c.43 0 .78.35.78.78v5.13c0 .43-.35.78-.78.78H8.27c-.43 0-.78-.35-.78-.78V8.08c0-.43.35-.78.78-.78z" fill="#693996"/><path id="Layer" fill-rule="evenodd" class="shp1" d="M8.17 5l-.22-.54H6.1L5.88 5c-.01.04-.03.07-.04.11-.02.04-.03.07-.05.11-.02.03-.04.07-.06.1-.02.03-.04.07-.06.1-.02.02-.04.05-.06.06-.02.02-.05.04-.07.05-.03.02-.06.02-.08.03-.03.01-.06.01-.09.01s-.06 0-.09-.01c-.03 0-.06-.01-.08-.02l-.09-.03c-.02-.02-.05-.03-.07-.05l-.06-.06c-.02-.02-.03-.05-.04-.07a.689.689 0 00-.03-.08v-.09c0-.01 0-.03-.01-.04v-.1c.01-.01.01-.03.01-.04l.13-.26L6.22 2l.12-.29c.01-.02.02-.05.03-.07.01-.02.03-.05.04-.07a.21.21 0 01.04-.06c.01-.03.03-.05.04-.07.01-.02.03-.04.04-.06.02-.01.03-.03.05-.05.02-.01.04-.03.06-.04l.06-.03c.03-.01.05-.03.08-.04.03-.01.06-.02.08-.03.03-.01.06-.01.09-.02s.06-.01.09-.01h.08c.03.01.06.01.08.02.03 0 .06.01.08.02.03.01.06.02.08.03l.06.03c.02.02.04.03.05.04.02.02.04.03.05.05.02.02.04.03.05.05.01.02.02.04.04.06l.03.06.03.06.03.06c.01.03.03.06.04.09.01.03.02.06.04.09l.03.09.03.09 1.2 2.7c.02.04.03.07.05.11.01.03.03.07.04.11l.03.11c.01.04.01.08.02.12 0 .03 0 .05-.01.08 0 .02-.01.05-.02.07-.02.03-.03.05-.05.07-.01.02-.03.04-.05.06-.02.02-.05.04-.07.05a.3.3 0 01-.08.04c-.03.01-.05.02-.08.02-.03.01-.06.01-.09.01h-.18c-.01-.01-.03-.01-.04-.02l-.03-.03c-.01 0-.03-.01-.04-.02l-.03-.03a.219.219 0 01-.03-.05c-.01-.01-.02-.03-.03-.04-.01-.02-.02-.03-.03-.05 0-.02-.01-.03-.02-.05L8.17 5zM6.34 3.82h1.35l-.65-1.76-.7 1.76zm-4.3 8.93h-.11l-.1-.03c-.03-.01-.07-.03-.1-.04-.03-.02-.05-.05-.08-.07-.02-.03-.05-.06-.06-.09a.3.3 0 01-.04-.1c-.02-.03-.02-.07-.02-.1a.205.205 0 010-.11V8.94c0-.03.01-.07.02-.1a.3.3 0 01.04-.1l.06-.09.09-.06c.03-.01.06-.03.09-.04.04-.01.07-.01.11-.02h1.5c.04 0 .09-.01.13-.01h.27c.04 0 .09.01.13.01.03.01.07.01.1.02.04.01.07.02.1.03.03.01.07.03.1.04.03.02.06.03.09.05.03.02.05.03.07.05.03.02.05.04.07.05.03.02.05.04.07.07l.06.06a1.194 1.194 0 01.18.3c.02.06.03.12.04.17.01.06.02.12.02.18 0 .1-.02.2-.05.29-.03.09-.08.18-.13.26-.06.08-.13.15-.2.22-.08.06-.17.1-.26.14.12.02.23.06.33.12s.19.14.27.23a1.03 1.03 0 01.23.65c0 .06 0 .11-.01.17-.01.05-.02.11-.04.16-.02.06-.04.11-.06.16a1.093 1.093 0 01-.18.28c-.03.04-.07.08-.11.12-.04.03-.08.06-.13.09-.04.03-.09.06-.14.08-.04.01-.07.02-.11.04l-.11.03c-.04.01-.08.01-.12.02-.03.01-.07.01-.11.02-.05.01-.09.03-.14.04-.05.01-.1.02-.14.03l-.15.03c-.04.01-.09.01-.14.02H2.04zm.33-3.58v1.09h.91c.04 0 .08 0 .12-.01.04 0 .09-.01.13-.02l.12-.03c.03-.01.06-.01.09-.03.03-.01.06-.02.08-.04.03-.02.05-.04.07-.06.02-.02.04-.04.06-.07.01-.02.03-.04.04-.07.01-.02.02-.04.03-.07.01-.02.01-.05.01-.07.01-.03.01-.05.01-.08.01-.04 0-.09 0-.13a.612.612 0 00-.05-.12.413.413 0 00-.07-.11.673.673 0 00-.11-.07c-.06-.02-.11-.04-.17-.06l-.18-.03c-.06-.01-.12-.02-.18-.02h-.91zm.04 1.7v1.24h.92c.58 0 .9-.2.9-.62a.33.33 0 000-.14c0-.04-.01-.09-.03-.13a.746.746 0 00-.07-.12.284.284 0 00-.09-.1 1.336 1.336 0 00-.36-.11c-.06-.02-.13-.02-.19-.02a.605.605 0 00-.19 0h-.89z"/><path id="Layer" class="shp1" d="M12.61 11.39c0 .04-.01.07-.01.11-.01.04-.01.07-.02.11l-.03.11c-.01.03-.03.07-.04.1l-.06.12c-.02.04-.05.08-.07.11l-.08.11c-.03.03-.06.07-.09.1-.04.04-.08.07-.12.11-.04.03-.08.06-.13.09-.04.03-.09.06-.13.08-.05.03-.1.05-.15.07-.06.03-.12.05-.18.07-.06.01-.12.03-.18.04l-.19.03h-.34c-.05-.01-.1-.01-.15-.01-.05-.01-.09-.02-.14-.02l-.15-.03c-.04-.01-.08-.02-.13-.03-.04-.02-.08-.03-.12-.05a.612.612 0 01-.12-.05 1.09 1.09 0 00-.11-.06c-.04-.02-.08-.05-.11-.07l-.11-.08-.09-.09c-.03-.03-.06-.07-.09-.1s-.05-.07-.08-.1c-.02-.04-.05-.08-.07-.11-.02-.04-.05-.08-.07-.11l-.06-.12c-.02-.04-.03-.08-.05-.12-.02-.04-.03-.08-.05-.13a.564.564 0 00-.04-.12l-.03-.13c-.01-.05-.02-.09-.02-.14a.784.784 0 01-.02-.14c0-.05-.01-.1-.01-.15v-.37L9 10.2c.01-.08.03-.15.04-.22.02-.08.04-.15.07-.22.02-.06.05-.12.08-.18l.09-.18c.04-.05.07-.11.11-.16.04-.05.09-.1.13-.15.04-.04.09-.09.14-.13.05-.04.1-.07.15-.11.06-.03.11-.07.17-.09.05-.03.11-.06.17-.08.06-.03.12-.05.19-.07.06-.01.12-.03.19-.04.06-.02.13-.03.19-.03.07-.01.13-.01.2-.01.08 0 .15 0 .23.01l.22.03c.08.02.15.04.22.07l.21.09c.06.03.11.06.17.1.05.03.1.07.15.11.05.04.1.09.15.13l.12.15c.03.04.06.08.08.12.03.05.05.09.07.14.01.05.03.09.04.14.01.05.02.1.02.15 0 .02 0 .05-.01.07 0 .02-.01.04-.02.06l-.03.06c-.02.02-.03.04-.05.05a.12.12 0 01-.05.05c-.01.02-.03.03-.06.04-.02.01-.04.02-.06.02-.02.01-.05.01-.07.01-.02 0-.04 0-.06-.01-.02 0-.05-.01-.07-.01l-.06-.03a.219.219 0 00-.05-.03c-.02-.02-.03-.04-.05-.06-.02-.02-.03-.04-.05-.06-.01-.02-.02-.05-.04-.07-.01-.02-.02-.05-.03-.07-.02-.04-.05-.09-.07-.13l-.09-.12-.11-.11c-.03-.03-.07-.06-.11-.09a.746.746 0 00-.12-.07c-.05-.02-.09-.04-.14-.05-.04-.01-.09-.02-.14-.03h-.14c-.08 0-.16.01-.23.02-.08.02-.15.05-.22.08s-.14.07-.2.12c-.06.05-.11.11-.16.17-.06.08-.1.16-.15.25-.04.09-.07.18-.1.27-.02.1-.04.19-.05.29-.01.1-.02.19-.01.29 0 .07 0 .13.01.2 0 .07.01.13.02.2.01.06.03.13.05.19.01.06.04.13.06.19.02.05.04.1.06.14a1.199 1.199 0 00.2.25c.03.03.08.06.12.09.04.03.09.05.13.07.05.02.1.04.14.05l.15.03h.15c.05 0 .11 0 .16-.01.05 0 .1-.01.16-.03.05-.01.1-.03.14-.06.05-.02.1-.05.14-.08l.13-.1c.03-.04.07-.08.1-.13.04-.04.06-.09.09-.14l.06-.15c0-.02.01-.04.02-.07 0-.02.01-.04.02-.06 0-.02.01-.05.02-.07l.03-.06c.02-.02.04-.03.06-.04.02-.02.04-.03.06-.04.02-.01.05-.01.07-.02h.07c.05 0 .1.01.14.03a.502.502 0 01.21.19c.02.05.03.09.04.14z"/></svg>