<svg xmlns="http://www.w3.org/2000/svg" viewBox="0 0 379.3 352.2"><path d="M252 24c11.6 0 21.1 9.4 21.1 21.1v105.3c0 11.6-9.4 21.1-21.1 21.1H146.7c-11.6 0-21.1-9.4-21.1-21.1V45.1c0-11.6 9.4-21.1 21.1-21.1H252zm-46 20.3c-6.8 0-13 1.2-18.6 3.5-5.6 2.3-10.5 5.6-14.5 9.7-4 4.2-7.2 9.1-9.4 14.9s-3.3 12.1-3.3 18.9c0 6.7 1 13 3.1 18.7 2.1 5.7 5 10.7 8.9 14.9 3.9 4.2 8.6 7.5 14.1 9.9s11.8 3.6 18.8 3.6c7.6 0 14.2-1.2 19.8-3.7 4.8-2.1 8.9-5.1 12.3-9l1.6-2-8.5-8.9c-.5-.5-.9-.8-1.5-1-.5-.2-1-.3-1.5-.3-.6 0-1.2.1-1.8.4s-1.1.6-1.6 1c-1.3 1.1-2.5 2.1-3.7 2.8s-2.5 1.3-3.9 1.8-2.9.8-4.5.9c-1.6.2-3.4.3-5.3.3-3.4 0-6.5-.7-9.5-2-2.9-1.3-5.5-3.2-7.7-5.7s-4-5.6-5.2-9.3c-1.3-3.7-1.9-7.9-1.9-12.6 0-4.7.6-8.8 1.7-12.5 1.2-3.6 2.8-6.7 4.9-9.2s4.7-4.4 7.6-5.7 6.2-2 9.7-2c2.2 0 4.2.2 5.8.5 1.7.3 3.1.7 4.4 1.2 1.2.5 2.3 1 3.2 1.6s1.7 1.1 2.5 1.6 1.5.9 2.1 1.2c.7.3 1.4.5 2.1.5 1.1 0 2-.2 2.7-.7l.9-.8.8-.8 7.2-9.7c-1.7-1.8-3.7-3.4-5.9-4.9-2.2-1.5-4.7-2.8-7.3-3.9-2.7-1.1-5.5-1.9-8.6-2.5-3.3-.4-6.6-.7-10-.7zM63.6 183.1l90.5 17.6c10 1.9 16.5 11.6 14.6 21.6l-17.6 90.5c-1.9 10-11.6 16.5-21.6 14.6L39 309.8c-10-1.9-16.5-11.6-14.6-21.6L42 197.7c1.9-10 11.6-16.6 21.6-14.6zm27.8 32.5l-39.5 62.8 12.3 2.4c1.3.3 2.5.1 3.5-.4.8-.4 1.4-.9 1.9-1.4l.4-.6 6.3-11.1 25.8 5 1.7 12.6c.2 1.1.7 2 1.4 2.8.5.6 1.3 1.1 2.2 1.4l1 .2 12.2 2.4-13.1-73.1-16.1-3zm5.3 15.6c.2 2 .4 3.8.6 5.5.1 1.1.3 2.2.4 3.1l.2 1.3 2.7 19.8-18.6-3.6 9.8-17.3c.7-1.1 1.5-2.4 2.3-3.9.9-1.5 1.7-3.1 2.6-4.9zm177.6-17.4l-2.6.5-27.8 5.4 14.7 75.6 30.2-5.9c4.5-.9 8.4-2.2 11.8-4.1s6-4 8-6.6c2-2.5 3.4-5.3 4.1-8.3.7-3 .7-6.1.1-9.3-.8-4.3-2.7-7.6-5.6-9.8-2.9-2.2-7-3.5-12.2-3.7 2.1-1.3 3.9-2.6 5.3-4.1 1.4-1.5 2.5-3 3.3-4.5s1.2-3.2 1.4-4.9c.2-1.7.1-3.3-.2-5-.6-3.1-1.7-5.8-3.2-8.2-1.5-2.3-3.6-4.1-6.3-5.5-2.7-1.3-5.9-2.1-9.8-2.4-3.4-.1-7 .2-11.2.8zm62.3-22.1l18.4 94.5c2 10.4-4.8 20.5-15.2 22.6l-94.5 18.4c-10.4 2-20.5-4.8-22.6-15.2l-18.4-94.5c-2-10.4 4.8-20.5 15.2-22.6l94.5-18.4c10.4-2.1 20.6 4.8 22.6 15.2zM287.8 257c1.5.1 2.8.5 3.8 1.1 1 .6 1.8 1.4 2.4 2.4.6 1 1 2.2 1.3 3.6.2 1.2.3 2.4.2 3.7-.1 1.2-.4 2.4-1.1 3.5-.6 1.1-1.7 2.1-3 3-1.4.9-3.2 1.5-5.5 2l-12.4 2.4-3.7-18.8 12.2-2.4c2.4-.5 4.3-.6 5.8-.5zm-8.3-30.1c1.5 0 2.8.3 3.9.9 1.1.5 2 1.4 2.6 2.5.7 1.1 1.2 2.6 1.5 4.4.4 1.8.4 3.4 0 4.7-.3 1.3-1 2.4-1.9 3.3s-2.2 1.6-3.7 2.2c-1.5.6-3.2 1.1-5.2 1.4l-9.1 1.8-3.6-18.7 10.3-2c2-.4 3.7-.5 5.2-.5z" fill-rule="evenodd" clip-rule="evenodd" fill="#fff"/></svg>