<svg data-name="Camada 1" xmlns="http://www.w3.org/2000/svg" viewBox="0 0 207.62 59.45"><defs><style>.cls-1{fill:#fff}.cls-2{fill:#231f20}</style></defs><path class="cls-1" d="M93.68 21.13c6 0 8.94 2.51 8.94 6.67a5.55 5.55 0 01-3.85 5.2 6.89 6.89 0 015.23 6.41c0 4.09-3 7.19-9.76 7.19-3.32 0-6-.07-9.06-.11l-.25-.26V21.5l.25-.26c2.97-.04 5.82-.11 8.5-.11zm-4.47 10.58h4.31c3.85 0 4.72-2.06 4.72-3.8s-.78-3.8-4.63-3.8h-4.39zm0 3v8.92h5c4.43 0 5.33-2.54 5.33-4.42s-1.19-4.46-5.58-4.46zm31.16.68a5.12 5.12 0 012.91 3.13l1.8 4.31a5.67 5.67 0 001.84 2.65 3.86 3.86 0 01-3 1.22c-1.64 0-2.21-.81-2.87-2.4l-2.05-5c-.7-1.7-1.6-3-4.14-3h-3.36v10.15a14 14 0 01-2.17.15 13.5 13.5 0 01-2.13-.15v-25l.25-.26c3.08 0 6-.11 8.82-.11 5.7 0 9.31 2.65 9.31 7.56a6.9 6.9 0 01-5.21 6.75zm-8.82-2.21c1.6 0 3.4-.07 4.55-.07 4 0 5-2.28 5-4.42s-1-4.46-5-4.46h-4.55zm23.95 7.15l-2.17 6.16a10 10 0 01-1.89.15 9 9 0 01-2.13-.26l-.12-.18 9.27-24.92a18.6 18.6 0 012.5-.15 17.6 17.6 0 012.46.15l9.19 24.92a5.32 5.32 0 01-2.54.52c-1.35 0-2.05-.44-2.58-2.06L146 40.33h-8.08c-.37.04-1.72 0-2.42 0zm1.11-3.17h8.24L143 31.82c-.74-2.14-1.6-4.72-2.17-6.67h-.2c-.41 1.66-1.15 4-1.6 5.34zm19.88 3.98a17.11 17.11 0 008.24 2.51c3.32 0 5.21-1.44 5.25-3.47 0-1.73-1.35-3.06-3.73-4l-4.84-1.88c-3.41-1.3-5.61-3.22-5.61-6.35 0-4 3.77-7.15 9.27-7.15a21.92 21.92 0 018.69 1.92 4.43 4.43 0 01-1.6 3.06 19 19 0 00-7-1.73c-3 0-4.92 1.51-4.92 3.47 0 1.62 1.39 2.54 3.4 3.32l4.76 1.84c3.53 1.33 6.15 3.58 6.15 6.86 0 4.24-3.28 7.41-10 7.41a19.22 19.22 0 01-9.84-2.76 4.74 4.74 0 011.78-3.05zm23.14-19.87a14 14 0 012.17-.15 14.39 14.39 0 012.17.15v25.18a14.39 14.39 0 01-2.17.15 14 14 0 01-2.17-.15zm27.65 21.79a10.66 10.66 0 01-.12 1.55c-.25 1.25-1.27 1.88-2.83 1.88h-10.7a2.31 2.31 0 01-2.54-2.43V21.35l.29-.22H193c1.8 0 2.46.77 2.46 2.51V43.2c1.27-.11 2.54-.15 3.65-.15zM89.1 12.81h-1.71V17a7.25 7.25 0 01-1.24.09A7.4 7.4 0 0184.9 17V4.44l.1-.11c1.49 0 2.73-.07 4.07-.07 2.56 0 4.4 1.39 4.4 4.29s-1.81 4.26-4.37 4.26zm-1.71-1.89h1.56c1.65 0 2-1.36 2-2.34S90.61 6.2 89 6.2h-1.56zm9.09 3.23L95.6 17a4.91 4.91 0 01-1.08.09 3.92 3.92 0 01-1.18-.09l-.09-.13 4.14-12.5a12.4 12.4 0 011.45-.09 9.25 9.25 0 011.43.11l4.07 12.5a3.19 3.19 0 01-1.43.32c-.8 0-1.19-.28-1.49-1.34l-.52-1.69h-3.51c-.19-.01-.62-.01-.91-.03zm.61-2h3.22l-.56-1.9c-.31-1.06-.72-2.49-1-3.6h-.11c-.19.95-.58 2.29-.82 3.14zm9.82-4.37V6.41h-3.18a5.36 5.36 0 01-.09-1 5.5 5.5 0 01.09-1h8.88a4 4 0 01.13 1c0 .82-.43 1.11-1.34 1.11h-1.99V17a7.6 7.6 0 01-1.26.09 7.51 7.51 0 01-1.24-.09zm13.84 3.79a2.46 2.46 0 011.37 1.63l.69 1.88a3.05 3.05 0 00.87 1.36 2.11 2.11 0 01-1.65.74c-.91 0-1.23-.5-1.58-1.47l-.78-2.21a1.68 1.68 0 00-1.73-1.34h-1.13V17a7.41 7.41 0 01-1.25.09 7.31 7.31 0 01-1.23-.09V4.44l.13-.11c1.49 0 2.9-.07 4.23-.07 2.58 0 4.36 1.28 4.36 3.92a3.54 3.54 0 01-2.3 3.39zm-3.94-1.34c.65 0 1.36-.06 1.71-.06a1.76 1.76 0 002-2 1.76 1.76 0 00-2-2h-1.71zm8.88-5.89a7.39 7.39 0 011.24-.09 7.52 7.52 0 011.24.09V17a7.39 7.39 0 01-1.24.09 7.26 7.26 0 01-1.24-.09zm7.58 9.81l-.87 2.9a4.92 4.92 0 01-1.08.09 3.92 3.92 0 01-1.19-.17l-.09-.13 4.14-12.5a12.4 12.4 0 011.45-.09 9.22 9.22 0 011.43.11l4.07 12.5a3.19 3.19 0 01-1.43.32c-.8 0-1.19-.28-1.49-1.34l-.52-1.69h-3.51c-.18.02-.62.02-.91 0zm.61-2h3.22l-.56-1.9c-.31-1.06-.72-2.49-1-3.6h-.11c-.19.95-.58 2.29-.82 3.14zm15.12 2l-.87 2.9a4.91 4.91 0 01-1.08.09 3.92 3.92 0 01-1.19-.17l-.09-.13 4.14-12.5a12.4 12.4 0 011.45-.09 9.25 9.25 0 011.43.11l4.07 12.5a3.19 3.19 0 01-1.43.32c-.8 0-1.19-.28-1.49-1.34l-.52-1.69h-3.51a6.9 6.9 0 01-.91 0zm.61-2h3.17l-.56-1.9c-.31-1.06-.72-2.49-1-3.6h-.11c-.19.95-.58 2.29-.82 3.14zm9.64-7.79a11.24 11.24 0 011.67-.13 9.75 9.75 0 011.58.13l1.43 5.15c.13.52.59 2.43.71 3.18h.13c.11-.74.58-2.66.71-3.18l1.41-5.15a10.27 10.27 0 011.58-.13 11.46 11.46 0 011.69.13l1 12.63a5.52 5.52 0 01-1.26.13 6.94 6.94 0 01-1.1-.07l-.35-6c-.07-1.15-.15-2.86-.15-4h-.13L166 15.14a8.81 8.81 0 01-2.54 0l-2.17-8.08h-.13c0 1.17-.07 2.88-.15 4l-.35 6a7.17 7.17 0 01-1.11.07 5.47 5.47 0 01-1.24-.13zm16.57 9.79l-.87 2.9a4.91 4.91 0 01-1.08.09 3.92 3.92 0 01-1.19-.17l-.09-.13 4.14-12.5a12.4 12.4 0 011.45-.09 9.25 9.25 0 011.43.11l4.07 12.5a3.19 3.19 0 01-1.43.32c-.8 0-1.19-.28-1.49-1.34l-.52-1.69h-3.51c-.19.02-.61.02-.91 0zm.61-2h3.22l-.56-1.9c-.31-1.06-.72-2.49-1-3.6H178c-.19.95-.58 2.29-.82 3.14zm16.88 4.04a5.85 5.85 0 01-3.32.93c-1.56 0-2.77 0-4.38-.07l-.13-.11V4.44l.13-.11c1.6-.06 2.82-.07 4.38-.07a5.86 5.86 0 013.32.93c1.71 1.37 2 3.34 2 5.5s-.31 4.13-2 5.5zM190 6.22h-2v9h2c2.43 0 2.79-2.43 2.79-4.48s-.37-4.52-2.79-4.52zm9.42 7.93l-.87 2.9a4.92 4.92 0 01-1.08.09 3.92 3.92 0 01-1.19-.17l-.09-.13 4.14-12.5a12.4 12.4 0 011.45-.09 9.22 9.22 0 011.43.11l4.07 12.5a3.19 3.19 0 01-1.43.32c-.8 0-1.19-.28-1.49-1.34l-.52-1.69h-3.51c-.18.02-.61.02-.91 0zm.61-2h3.22l-.56-1.9c-.31-1.06-.72-2.49-1-3.6h-.11c-.19.95-.58 2.29-.82 3.14zM101 0a2.33 2.33 0 011 1.33l-3 1.82a1.38 1.38 0 01-.69-.83zM88 54.17h1.42q1 0 1 .9v2.37a8 8 0 01-2.45.37 2.87 2.87 0 01-1.15-.22 2.22 2.22 0 01-.84-.62 2.72 2.72 0 01-.51-1 4.8 4.8 0 01-.17-1.34 3.91 3.91 0 01.24-1.43 3 3 0 01.64-1 2.63 2.63 0 01.93-.61 3 3 0 011.09-.2 4.05 4.05 0 012.2.65 1 1 0 01-.07.29 1.88 1.88 0 01-.14.29 1.36 1.36 0 01-.2.25 1.67 1.67 0 01-.23.19 2.76 2.76 0 00-1.52-.49q-1.47 0-1.47 2.06t1.51 2h.4l.32-.03v-1.22h-.45a.76.76 0 01-.54-.15.64.64 0 01-.15-.47 2 2 0 01.14-.59zm7.2 3.07a3.26 3.26 0 01-1-2.65 4.75 4.75 0 01.18-1.39 2.79 2.79 0 01.53-1 2.23 2.23 0 01.84-.61 2.88 2.88 0 011.12-.21 2.92 2.92 0 011.12.21 2.21 2.21 0 01.85.62 2.85 2.85 0 01.53 1 5.29 5.29 0 010 2.77 2.79 2.79 0 01-.53 1 2.22 2.22 0 01-.85.61 2.92 2.92 0 01-1.12.21 2.6 2.6 0 01-1.67-.56zm.73-1.24a1 1 0 001 .7.93.93 0 00.6-.18 1.28 1.28 0 00.36-.47 2.18 2.18 0 00.18-.64 5.52 5.52 0 000-.7v-.7a2.94 2.94 0 00-.13-.73 1.37 1.37 0 00-.34-.57.94.94 0 00-.69-.23.92.92 0 00-.66.22 1.37 1.37 0 00-.34.55 2.7 2.7 0 00-.14.69v.65a6 6 0 000 .74 3.78 3.78 0 00.16.67zm9.86.46l1.18-5a2.38 2.38 0 01.56-.05 2.22 2.22 0 01.74.1l.05.07-1.69 6a9.89 9.89 0 01-1 .05 1.59 1.59 0 01-.75-.13.84.84 0 01-.35-.52L103 51.63a2.17 2.17 0 01.8-.21.79.79 0 01.56.17 1.14 1.14 0 01.28.54l.7 2.57q.16.61.34 1.64c.03.09.06.12.11.12zm7.82-.61v.65h2.76a3.71 3.71 0 010 .51q-.11.7-.92.7H113a.81.81 0 01-.61-.23.84.84 0 01-.22-.61v-5.3l.06-.06h3.89a2.82 2.82 0 01.05.57 1.81 1.81 0 01-.13.64h-2.44V54h2a1.89 1.89 0 01.08.58 2.07 2.07 0 01-.08.6h-2zm11.27-2.44a1.75 1.75 0 01-.09.56 1.86 1.86 0 01-.24.48 1.7 1.7 0 01-.35.37 1.61 1.61 0 01-.42.24 1.23 1.23 0 01.7.83l.27.77a1.32 1.32 0 00.45.67 1 1 0 01-.41.3 1.43 1.43 0 01-.6.12.67.67 0 01-.51-.19 1.72 1.72 0 01-.33-.65L123 56a1 1 0 00-.27-.42.75.75 0 00-.5-.14h-.37v2.26a4 4 0 01-.72.05 3.87 3.87 0 01-.71-.05v-6.15l.06-.06h2.16a3.15 3.15 0 01.9.12 1.87 1.87 0 01.69.37 1.64 1.64 0 01.44.61 2.17 2.17 0 01.2.82zm-3-.88v1.77h.7a1.09 1.09 0 00.47-.11.64.64 0 00.27-.27 1.1 1.1 0 00.09-.5q0-.88-.85-.88h-.67zM134 51.44l.06.06v6.14a3.92 3.92 0 01-.85.08 6.23 6.23 0 01-.87-.05l-1.42-3.23q-.25-.55-.51-1.27.11 1.32.11 2.7v1.8a3.63 3.63 0 01-.68.05 3.48 3.48 0 01-.67-.05v-6.14a3.62 3.62 0 01.83-.08 6.16 6.16 0 01.86.05l1.4 3.22q.38.89.56 1.37-.11-1.25-.11-2.66v-1.1a1 1 0 01.19-.67.81.81 0 01.61-.2zm5.09 5.8a3.26 3.26 0 01-1-2.65 4.75 4.75 0 01.18-1.39 2.79 2.79 0 01.53-1 2.23 2.23 0 01.84-.61 2.88 2.88 0 011.12-.21 2.92 2.92 0 011.12.21 2.21 2.21 0 01.85.62 2.85 2.85 0 01.53 1 5.29 5.29 0 010 2.77 2.79 2.79 0 01-.53 1 2.22 2.22 0 01-.85.61 2.92 2.92 0 01-1.12.21 2.6 2.6 0 01-1.67-.56zm.73-1.25a1 1 0 001 .7.93.93 0 00.6-.18 1.28 1.28 0 00.36-.47 2.18 2.18 0 00.18-.64 5.52 5.52 0 000-.7V54a2.94 2.94 0 00-.13-.73 1.37 1.37 0 00-.34-.57.94.94 0 00-.69-.23.92.92 0 00-.66.22 1.37 1.37 0 00-.34.55 2.7 2.7 0 00-.14.69v.65a6 6 0 000 .74 3.78 3.78 0 00.16.68zm14.29-3.26V54h1.94a2.46 2.46 0 010 1.18h-1.94v2.48a4.77 4.77 0 01-1.44 0v-6.1l.06-.05h3.86a2.47 2.47 0 01.05.56.63.63 0 01-.19.5.87.87 0 01-.58.16zm7.89 3.12v.65h2.76a3.71 3.71 0 010 .51q-.11.7-.92.7h-2.4a.81.81 0 01-.61-.23.84.84 0 01-.22-.61v-5.3l.06-.06h3.89a2.82 2.82 0 01.05.57 1.81 1.81 0 01-.13.64H162V54h2a1.89 1.89 0 01.08.58 2.07 2.07 0 01-.08.6h-2zm10.87 1.42a1.84 1.84 0 01-.76.34 4.6 4.6 0 01-1 .11h-2.13l-.06-.06v-6.11l.06-.06h2.28a3 3 0 011.28.24 2.1 2.1 0 01.82.67 2.66 2.66 0 01.43 1 5.73 5.73 0 01.13 1.23 5.23 5.23 0 01-.21 1.56 2.25 2.25 0 01-.84 1.08zm-1.66-.68q1.19 0 1.19-2t-1.19-2h-.89v4h.89zm8.21-.74v.65h2.76a3.71 3.71 0 010 .51q-.11.7-.92.7h-2.4a.81.81 0 01-.61-.23.84.84 0 01-.22-.61v-5.3l.06-.06h3.89a2.82 2.82 0 01.05.57 1.81 1.81 0 01-.13.64h-2.46V54h2a1.89 1.89 0 01.08.58 2.07 2.07 0 01-.08.6h-2zm11.27-2.44a1.75 1.75 0 01-.09.56 1.86 1.86 0 01-.24.48 1.7 1.7 0 01-.35.37 1.61 1.61 0 01-.42.24 1.23 1.23 0 01.7.83l.27.77a1.32 1.32 0 00.45.67 1 1 0 01-.41.3 1.43 1.43 0 01-.6.12.67.67 0 01-.51-.19 1.72 1.72 0 01-.33-.65l-.33-.95a1 1 0 00-.27-.42.75.75 0 00-.5-.14h-.37v2.26a4 4 0 01-.72.05 3.87 3.87 0 01-.71-.05v-6.11l.06-.06h2.16a3.15 3.15 0 01.9.12 1.87 1.87 0 01.69.37 1.64 1.64 0 01.44.61 2.17 2.17 0 01.18.82zm-3-.88v1.77h.7a1.09 1.09 0 00.47-.11.64.64 0 00.27-.27 1.1 1.1 0 00.09-.5q0-.88-.85-.88h-.67zm8.72 3.85h-.36l-.39 1.31a2.62 2.62 0 01-.6.05 2.08 2.08 0 01-.7-.1v-.07l2-6.06a5.47 5.47 0 01.82-.05 4.54 4.54 0 01.85.06l1.95 6.07a1.47 1.47 0 01-.71.17 1 1 0 01-.66-.16 1.31 1.31 0 01-.33-.62l-.17-.6h-1.63zm0-1.14h1.35l-.15-.56q-.22-.76-.5-1.86H197q-.07.39-.43 1.72zm9.64 1.21h1.57a3.66 3.66 0 010 .62.7.7 0 01-.29.44 1 1 0 01-.64.19h-2a.78.78 0 01-.84-.84v-5.35l.06-.06h.53q.84 0 .84.92v4.13q.32-.05.77-.05z"/><path class="cls-2" d="M.68 2.79h78.63v56.66H.68z"/><path class="cls-1" d="M2 4.26h75.55v53.48H2z"/><path class="cls-1" d="M2 4.25v29.08L32.07 9.07l45.48 20.06V4.25H2z"/><path class="cls-1" d="M2 54.95a1 1 0 01-1-1V33.33a1 1 0 01.37-.78L31.44 8.29a1 1 0 01.63-.22 1 1 0 01.4.08L78 28.22a1 1 0 01-.4 1.92h-3.24A115.55 115.55 0 0053.41 32h-.18a1 1 0 01-.6-.2A26.92 26.92 0 009.88 49a1 1 0 01-.43.67 72.35 72.35 0 00-6.79 5 1 1 0 01-.66.28z"/><path class="cls-2" d="M32.07 9.07l45.48 20.06h-3.28a116 116 0 00-21 1.93 27.92 27.92 0 00-44.38 17.8A72.1 72.1 0 002 53.95V33.33L32.07 9.07m0-2a2 2 0 00-1.26.44L.74 31.77A2 2 0 000 33.33v20.62a2 2 0 003.32 1.51A71.39 71.39 0 0110 50.53a2 2 0 00.87-1.35A25.92 25.92 0 0152 32.62a2 2 0 001.57.37 114.42 114.42 0 0120.69-1.9h3.28a2 2 0 00.81-3.83L32.87 7.24a2 2 0 00-.81-.17z"/><path class="cls-2" d="M53.24 31A121.19 121.19 0 008.83 48.86a72.23 72.23 0 00-6.9 5.08v3.8a53.88 53.88 0 016.54-4.39c8.78-5.17 26.28-13.24 51.74-14.71a145.8 145.8 0 0117.39 0v-9.51A116.28 116.28 0 0053.24 31z"/></svg>