<svg xmlns="http://www.w3.org/2000/svg" viewBox="0 0 379.3 352.2"><path d="M264.5 24c25.1 0 25.1 0 46 11.9s20.9 11.9 32.9 32.9c11.9 20.9 11.9 20.9 11.9 46 .5 76-70.5 123.6-141.4 192.3l-24.3 21.1C120.9 260.7 21.3 194.7 24 114.8c0-25.1 0-25.1 12.1-46S48.3 47.9 69 35.9 89.7 24 115.2 24c21.1 0 21.1 0 41 9.6s19.9 9.6 33.4 25.5c13.5-15.9 13.5-15.9 33.4-25.5s20-9.6 41.5-9.6zm-66 63.9c-8.6 1-30.8-4.5-30.5 10.2v44h-44c-5.6 0-10.2 4.6-10.2 10.2v20.3c0 5.6 4.6 10.2 10.2 10.2h44v44c0 5.6 4.6 10.2 10.2 10.2h20.3c5.6 0 10.2-4.6 10.2-10.2v-44h44c5.6 0 10.2-4.6 10.2-10.2v-20.3c0-5.6-4.6-10.2-10.2-10.2h-44V98c-.1-5.6-4.6-10.1-10.2-10.1z" fill-rule="evenodd" clip-rule="evenodd" fill="#693996"/></svg>