<svg xmlns="http://www.w3.org/2000/svg" viewBox="0 0 16 14" width="20" height="20"><style/><path id="Layer" d="M14.45 1c-.42-.34-.9-.6-1.41-.76a4.26 4.26 0 00-1.59-.18c-.53.03-1.06.17-1.54.41-.49.23-.93.55-1.29.95L8 2l-.62-.64C7.01.97 6.57.65 6.09.42 5.6.19 5.07.06 4.54.03 4-.01 3.46.06 2.95.23s-.99.43-1.4.77A4.434 4.434 0 00.01 4.18c-.03.61.06 1.21.27 1.78.22.57.54 1.09.96 1.53l6 6.25a.986.986 0 00.7.28.971.971 0 00.69-.28l6-6.25a4.47 4.47 0 001.3-3.28c-.01-.61-.15-1.21-.41-1.76-.25-.55-.62-1.04-1.07-1.45z" fill="#693996"/><path id="Layer" d="M11 6.25H8.75V4c0-.07-.01-.13-.04-.19a.478.478 0 00-.1-.17.386.386 0 00-.17-.11.406.406 0 00-.19-.04h-.5c-.07 0-.13.01-.19.04-.07.02-.12.06-.17.11-.04.05-.08.1-.1.17-.03.06-.04.12-.04.19v2.25H5c-.07 0-.13.01-.19.04-.07.02-.12.06-.17.1-.05.05-.09.1-.11.17-.03.06-.04.12-.04.19v.5c0 .07.02.13.04.19.03.06.07.12.11.17.05.04.11.08.17.11.06.02.12.04.19.04h2.25V10c0 .07.01.13.04.19.02.07.06.12.1.17.05.05.1.09.17.11.06.03.12.04.19.04h.5c.07 0 .13-.01.19-.04.06-.02.12-.06.16-.11.05-.04.09-.1.11-.16.03-.06.04-.12.04-.19V7.75H11c.07 0 .13-.01.19-.04.07-.02.12-.06.17-.1.05-.05.09-.1.11-.17.03-.06.04-.12.04-.19v-.5c0-.07-.01-.13-.04-.19a.386.386 0 00-.11-.17.478.478 0 00-.17-.1.406.406 0 00-.19-.04z" fill="#f2f2f2"/></svg>