<svg xmlns="http://www.w3.org/2000/svg" width="36" height="33"><path fill="#FFF" fill-rule="evenodd" d="M25.896.55c2.646 0 2.646 0 4.851 1.26s2.205 1.26 3.465 3.465c1.26 2.205 1.26 2.205 1.26 4.851 0 3.192 0 3.192-1.848 6.426-1.638 2.814-1.638 2.814-5.208 6.426-2.226 2.31-2.226 2.31-7.854 7.434L18 32.638l-2.52-2.31-.39-.353c-5.397-4.89-5.397-4.89-7.506-7.039-3.57-3.612-3.57-3.612-5.166-6.426-1.89-3.192-1.89-3.192-1.89-6.384 0-2.646 0-2.646 1.281-4.851S3.09 3.07 5.274 1.81C7.458.55 7.458.55 10.146.55c2.226 0 2.226 0 4.326 1.008 2.1 1.008 2.1 1.008 3.528 2.688 1.428-1.68 1.428-1.68 3.528-2.688C23.628.55 23.628.55 25.896.55zm-6.967 6.736h-2.143c-.592 0-1.072.48-1.072 1.071V13h-4.643C10.48 13 10 13.48 10 14.071v2.143c0 .592.48 1.072 1.071 1.072h4.643v4.643c0 .591.48 1.071 1.072 1.071h2.143C19.52 23 20 22.52 20 21.929v-4.643h4.643c.591 0 1.071-.48 1.071-1.072v-2.143c0-.591-.48-1.071-1.071-1.071H20V8.357c0-.591-.48-1.071-1.071-1.071z"/></svg>