<svg version="1.1" id="Layer_1" xmlns="http://www.w3.org/2000/svg" x="0" y="0" viewBox="0 0 252.6 65.3" xml:space="preserve"><style>.st1{fill:none}.st2{fill-rule:evenodd;clip-rule:evenodd}.st2,.st6{fill:#fff}</style><path d="M34.8 5.8c-1.7-.3-3.5-.5-5.3-.5C13.4 5.3.3 18.4.3 34.6s13.1 29.3 29.3 29.3c14.2 0 26-10.1 28.7-23.5" fill="none" stroke="#fff" stroke-width=".5" stroke-linecap="round"/><path class="st1" d="M-.7 16.5c3 .6 5.9 1.7 8.5 3.4l6.5-9.8C10.5 7.6 6 5.8 1.5 5L-.7 16.5z" transform="translate(34.665 -5)"/><path class="st2" d="M8.7 13.2l-.6 1c.3.2.6.3.9.5l.5.3.5.3.6-1-.5-.3-.5-.3c-.3-.2-.6-.4-.9-.5zm-3.6-1.6l-.4 1.1c.3.1.6.2 1 .4l.5.2c.2.1.3.1.5.2l.5-1.1c-.2-.1-.3-.2-.5-.2l-.6-.2c-.3-.1-.6-.3-1-.4zm-3.8-1.1L1 11.7c.3.1.7.2 1 .2l.5.1c.2 0 .3.1.5.1l.3-1.1s-.2 0-.4-.1l-.5-.1c-.4-.1-.7-.2-1.1-.3z" transform="translate(34.665 -5)"/><path class="st1" d="M-.6 14.9C2 16.5 4.3 18.7 6 21.3l9.8-6.6c-2.6-3.8-6-7.1-9.9-9.7l-6.5 9.9z" transform="translate(43.13 .089)"/><path class="st2" d="M9.4 15.3l-.9.8.6.8c.2.3.4.6.6.8l1-.7-.6-.9-.7-.8zm-2.7-2.8l-.8.9 1.5 1.5.9-.8-1.6-1.6zm-3.1-2.4l-.7 1c.6.4 1.1.8 1.7 1.3l.7-.9c-.5-.6-1.1-1-1.7-1.4z" transform="translate(43.13 .089)"/><path class="st1" d="M-.7 11.7c.9 1.3 1.6 2.6 2.2 4s1 2.9 1.3 4.4l11.6-2.3c-.5-2.3-1.1-4.5-2-6.6-.9-2.1-2-4.2-3.3-6.1l-9.8 6.6z" transform="translate(49.824 9.679)"/><path d="M58.124 25.679l-1.1.4c.1.3.2.7.3 1l.3 1 1.1-.3-.3-1.1c-.1-.3-.2-.7-.3-1z" fill-rule="evenodd" clip-rule="evenodd" fill="#fff" stroke="#fff" stroke-width=".1" stroke-linejoin="round"/><path class="st2" d="M6.9 12.3l-1.1.5c.1.3.3.6.4 1l.4 1 1.1-.4-.4-1c-.1-.4-.3-.7-.4-1.1zM5 8.9l-1 .6.6.9.5.9 1-.5-.5-1z" transform="translate(49.824 9.679)"/><path class="st1" d="M-.7 7.4c.6 3 .6 6.2 0 9.2l11.6 2.3c.9-4.5.9-9.2 0-13.8L-.7 7.4z" transform="translate(53.368 22.4)"/><path class="st2" d="M5.9 14.8l-1.2-.1-.3 2.1 1.2.2c.2-.7.3-1.5.3-2.2zm.2-3.9H4.9v2h1.2v-2zm-.4-3.8l-1.2.2c.1.4.1.7.2 1l.1 1L6 9.2l-.2-1.1c0-.3-.1-.7-.1-1z" transform="translate(53.368 22.4)"/><path d="M12.591 16.833c-1.1 1-2.1 2.1-2.9 3.3-8 10.9-5.5 26.3 5.6 34.3s26.6 5.7 34.6-5.3c7-9.6 6-22.6-1.9-31.1" fill="none" stroke="#fff" stroke-width=".5" stroke-linecap="round" stroke-linejoin="round"/><path class="st1" d="M5.3 16.5c1.5-1.5 3.3-2.7 5.3-3.6L6.8 5C4 6.3 1.4 8.1-.8 10.2l6.1 6.3z" transform="translate(10.395 3.257)"/><path class="st2" d="M6.8 9.7l.5.8c.2-.1.4-.2.6-.4l.6-.3-.4-.8-.7.3c-.2.1-.4.2-.6.4zm-2.3 1.4l.5.7c.2-.1.4-.3.6-.4.2-.1.4-.3.6-.4l-.5-.7c-.2.1-.4.3-.6.4-.1.1-.4.2-.6.4zm-2 1.6l.6.6c.4-.3.7-.6 1.1-.9l-.5-.7c-.5.4-.8.7-1.2 1z" transform="translate(10.395 3.257)"/><path class="st1" d="M3.2 15.5c1-.4 2-.8 3-1.1 1-.3 2.1-.5 3.2-.6L8.2 5c-1.5.2-3 .5-4.5.9S.8 6.9-.6 7.5l3.8 8z" transform="translate(17.844 .723)"/><path class="st2" d="M6.7 9.4l.2.9c.2-.1.5-.1.7-.1s.4-.2.7-.2l-.2-.9c-.2 0-.5.1-.7.1-.2.1-.5.1-.7.2zm-2.6.6l.3.9.7-.2.7-.2-.3-.8-.7.1zm-2.4 1l.3.8.6-.3c.2-.1.4-.2.7-.3l-.3-.8c-.2.1-.5.2-.7.3l-.6.3z" transform="translate(17.844 .723)"/><path class="st1" d="M.5 14.1c2.1-.3 4.3-.2 6.4.2l1.7-8.6C5.5 5.1 2.4 5-.6 5.4l1.1 8.7z" transform="translate(26.665 .333)"/><path class="st2" d="M5.7 9.4l-.1.9.7.1c.2 0 .5.1.7.1l.2-.9c-.2 0-.5-.1-.7-.1l-.8-.1zm-2.6-.2v.9h1.4l.1-.9H3.1zm-2.6.2l.1.8h.7l.7-.1v-.8h-.8z" transform="translate(26.665 .333)"/><path class="st1" d="M-.6 13.7c2.1.4 4.1 1.2 6 2.2l4.3-7.6C7.1 6.8 4.2 5.7 1.1 5.1l-1.7 8.6z" transform="translate(34.113 .918)"/><path class="st2" d="M5.9 10.9l-.4.8c.4.2.8.4 1.3.6l.4-.8c-.4-.2-.9-.4-1.3-.6zm-2.5-1l-.3.8c.5.2.9.3 1.3.5l.3-.8c-.3-.2-.8-.3-1.3-.5zM.9 9.2l-.2.9c.2 0 .5.1.7.2.2.1.5.1.7.2l.2-.8c-.2-.2-.4-.2-.7-.3-.2-.1-.4-.1-.7-.2z" transform="translate(34.113 .918)"/><path class="st1" d="M-.7 12.8c1.9 1 3.6 2.4 5 4l6.5-5.9c-2-2.3-4.5-4.2-7.1-5.7l-4.4 7.6z" transform="translate(40.189 4.037)"/><path class="st2" d="M6.4 12.1l-.6.6c.4.3.7.6 1 1l.6-.6-1-1zm-2-1.6l-.5.7c.3.2.7.5 1.1.8l.6-.7c-.4-.3-.8-.5-1.2-.8zM2.2 9l-.5.8c.2.1.4.3.6.4.2.1.4.3.6.4l.5-.7c-.2-.2-.4-.4-.6-.5-.2-.1-.4-.3-.6-.4z" transform="translate(40.189 4.037)"/><g transform="translate(1 -5)"><ellipse id="group-9-b" cx="28.4" cy="39.3" rx="18.4" ry="18.3"/></g><g transform="translate(1 -5)"><radialGradient id="group-9-b_2_" cx="-214.26" cy="284.527" r=".485" gradientTransform="matrix(36.666 0 0 -36.666 7885.097 10471.806)" gradientUnits="userSpaceOnUse"><stop offset="0" stop-color="#c1f1f0"/><stop offset=".51" stop-color="#47b3af"/><stop offset="1" stop-color="#2e6b72"/></radialGradient><ellipse id="group-9-b_1_" cx="28.4" cy="39.3" rx="18.4" ry="18.3" fill="url(#group-9-b_2_)"/></g><path class="st6" d="M4.6 23.5c-.1 0-.2 0-.2-.1s-.1-.2 0-.3c1.5-3.8 1-8.1-1.4-11.5C2 10.4.9 9.3-.4 8.5c-.1 0-.1-.1-.1-.2s0-.2.1-.2l3.9-2.8s.1-.1.2-.1.1 0 .2.1c1 .7 1.8 1.6 2.5 2.5C9.9 12.6 9.3 19.3 5 23.4c-.2 0-.3.1-.4.1z" transform="translate(35.178 18.333)"/><path class="st6" d="M3.6 5.2c.1 0 .1 0 .2.1.8.7 1.7 1.5 2.4 2.5 1.7 2.3 2.5 5.2 2.2 8.1-.3 2.9-1.5 5.5-3.6 7.5 0 0-.1.1-.2.1s-.2 0-.2-.1-.1-.1 0-.2c1.5-3.8 1-8.1-1.4-11.5C2 10.4.9 9.3-.5 8.5c-.1 0-.1-.1-.1-.2s0-.2.1-.2l3.9-2.8c.1-.1.1-.1.2-.1m0 0c-.1 0-.1 0-.2.1L-.5 8c-.2.1-.2.4 0 .5 1.3.8 2.4 1.8 3.4 3.1C5.4 15 5.8 19.4 4.3 23c-.1.2.1.4.3.4.1 0 .1 0 .2-.1 4.3-4.1 4.9-10.8 1.4-15.6-.7-.9-1.6-1.7-2.5-2.4 0-.1-.1-.1-.1-.1z" transform="translate(35.178 18.333)"/><g transform="translate(37.859 39.667)"><ellipse class="st6" cx=".6" cy="6" rx="1.2" ry="1"/><path class="st6" d="M.6 5.1c.6 0 1.1.4 1.1.9s-.5.9-1.1.9S-.5 6.5-.5 6 0 5.1.6 5.1m0-.1C0 5-.6 5.5-.6 6S0 7 .6 7s1.2-.4 1.2-1-.5-1-1.2-1z"/></g><path class="st6" d="M73.4 18.7c1.9 0 3.6.2 5 .6 1.4.4 2.6.9 3.5 1.7.9.7 1.6 1.7 2.1 2.7.4 1.1.7 2.3.7 3.6 0 .9-.2 1.8-.5 2.6s-.8 1.6-1.3 2.3-1.3 1.3-2.2 1.8c-.9.5-1.8.9-2.9 1.2 2.7.4 4.7 1.3 6.2 2.7 1.4 1.4 2.1 3.2 2.1 5.5 0 1.4-.3 2.7-.8 3.9-.5 1.2-1.3 2.1-2.2 2.9s-2.2 1.4-3.6 1.8c-1.4.4-3 .6-4.8.6h-11v-34h9.7zm-7.3 2v13.9h7.3c1.6 0 2.9-.2 4-.6 1.1-.4 2-.9 2.7-1.6s1.2-1.4 1.6-2.2c.3-.8.5-1.7.5-2.6 0-2.3-.7-4-2.2-5.2-1.4-1.2-3.7-1.8-6.7-1.8h-7.2zm8.5 30c3 0 5.2-.6 6.8-1.9 1.5-1.3 2.3-3.1 2.3-5.4 0-1.1-.2-2-.6-2.9-.4-.9-1-1.6-1.8-2.2-.8-.6-1.7-1.1-2.8-1.4s-2.4-.5-3.8-.5h-8.5v14.3h8.4zm39.6-27.9c-.1.3-.4.4-.6.4-.2 0-.5-.1-.8-.4-.3-.3-.8-.6-1.3-1-.6-.4-1.3-.7-2.1-1s-1.9-.5-3.1-.5-2.3.2-3.3.5c-.9.4-1.7.8-2.4 1.4-.6.6-1.1 1.3-1.4 2.1s-.5 1.6-.5 2.5c0 1.2.2 2.1.7 2.9.5.8 1.1 1.4 1.9 1.9.8.5 1.7 1 2.7 1.3 1 .4 2.1.7 3.1 1.1 1.1.4 2.1.7 3.1 1.2 1 .4 1.9 1 2.7 1.6.8.6 1.4 1.4 1.9 2.4.5.9.7 2.1.7 3.5s-.2 2.8-.7 4c-.5 1.3-1.2 2.3-2.1 3.3-.9.9-2.1 1.7-3.4 2.2s-2.9.8-4.6.8c-2.2 0-4.2-.4-5.8-1.2s-3-1.9-4.2-3.3l.7-1.1c.2-.2.4-.4.7-.4.1 0 .3.1.6.3.2.2.5.4.8.7.3.3.7.6 1.2.9.4.3 1 .6 1.6.9.6.3 1.3.5 2 .7.8.2 1.6.3 2.6.3 1.3 0 2.5-.2 3.6-.6 1.1-.4 1.9-1 2.7-1.7.7-.7 1.3-1.5 1.7-2.5.4-1 .6-2 .6-3.1 0-1.2-.2-2.2-.7-3-.5-.8-1.1-1.4-1.9-1.9-.8-.5-1.7-1-2.7-1.3-1-.4-2.1-.7-3.1-1-1.1-.3-2.1-.7-3.1-1.1-1-.4-1.9-.9-2.7-1.6-.8-.6-1.4-1.5-1.9-2.4-.5-1-.7-2.2-.7-3.6 0-1.1.2-2.2.6-3.3.4-1.1 1.1-2 1.9-2.8s1.9-1.5 3.1-1.9c1.2-.5 2.6-.7 4.2-.7 1.8 0 3.3.3 4.7.8 1.4.6 2.7 1.4 3.8 2.6l-.8 1.1zm33.4 27.8v2h-20.4v-34h20.4v2h-17.9v13.7h14.9v2h-14.9v14.2h17.9zm34.7 2.1h-2.1c-.3 0-.5 0-.7-.1s-.4-.3-.5-.5l-10.9-13.8c-.1-.2-.3-.3-.4-.5-.1-.1-.3-.2-.5-.3-.2-.1-.4-.1-.6-.2h-5.3v15.4h-2.5v-34h8.7c3.9 0 6.8.8 8.8 2.3 1.9 1.5 2.9 3.7 2.9 6.7 0 1.3-.2 2.5-.7 3.6-.4 1.1-1.1 2-1.9 2.8-.8.8-1.9 1.5-3 2-1.2.5-2.5.9-4 1 .4.2.7.6 1 1l11.7 14.6zm-15.1-17.2c1.5 0 2.9-.2 4-.5 1.2-.4 2.2-.9 3-1.5.8-.7 1.5-1.5 1.9-2.4.4-.9.6-2 .6-3.2 0-2.4-.8-4.2-2.4-5.4s-3.9-1.8-6.9-1.8h-6.2v14.8h6zm49.7-16.8l-14 34h-2.2l-14-34h1.9c.2 0 .4.1.6.2.1.1.3.3.3.5l11.6 28.2c.1.4.3.7.4 1.1.1.4.2.8.4 1.2l.3-1.2c.1-.4.2-.8.4-1.1l11.5-28.2c.1-.2.2-.3.3-.5s.4-.2.6-.2h1.9zm32.9 34h-1.9c-.2 0-.4-.1-.6-.2-.1-.1-.3-.3-.3-.5l-4-9.9h-16.7l-4 9.9c-.1.2-.2.3-.3.5-.2.1-.4.2-.6.2h-1.9l13.9-34h2.4l14 34zm-7.5-12.4l-6.9-17.2c-.2-.6-.5-1.2-.7-2-.1.4-.2.7-.3 1.1-.1.3-.2.7-.4.9l-6.9 17.1h15.2z"/></svg>