<svg xmlns="http://www.w3.org/2000/svg" viewBox="0 0 407.76 75.77"><g data-name="Layer 2"><g data-name="Layer 107"><path d="M92.36 58.67v13.85C61.63 61.27 30.75 83.78 0 72.52V58.67c30.71 11.24 61.63-11.25 92.36 0zM0 31v13.81c30.75 11.26 61.63-11.25 92.36 0V31C61.61 19.7 30.73 42.21 0 31zM0 3.25V17.1c30.75 11.26 61.63-11.25 92.36 0V3.25C61.61-8 30.73 14.5 0 3.25z" fill="#03f"/><path d="M147.91 23.15a1.42 1.42 0 0 0-1.32-.9h-6.17a1.4 1.4 0 0 0-1.33.93L126.67 57a.91.91 0 0 0 .85 1.22h5.06a1.27 1.27 0 0 0 1.19-.84L136 51h15.5l2.27 6.36a1.25 1.25 0 0 0 1.19.83h5.38a.91.91 0 0 0 .85-1.24zm1.14 21.62a.48.48 0 0 1-.38.2h-10a.48.48 0 0 1-.38-.2.52.52 0 0 1-.06-.42l4.91-14a.41.41 0 0 1 .39-.28.43.43 0 0 1 .4.27l5.12 14a.45.45 0 0 1 0 .43zm119.43-27.44V15.2a.91.91 0 0 1 .73-.9l9.79-1.91a1.27 1.27 0 0 1 1.42.79l1.46 3.82a.91.91 0 0 1-.85 1.23h-11.64a.9.9 0 0 1-.91-.9zM179 22.25h-12.42a1.07 1.07 0 0 0-1.07 1.08v33.82a1.07 1.07 0 0 0 1.07 1.07h4.95a1.07 1.07 0 0 0 1.07-1.07v-9h6.4a13 13 0 1 0 0-25.92zm-1.43 20.1h-4.52a.46.46 0 0 1-.46-.46V28.53a.46.46 0 0 1 .46-.46h4.52a7.14 7.14 0 0 1 0 14.28zm211.67-20.59a18.52 18.52 0 1 0 18.52 18.51 18.51 18.51 0 0 0-18.52-18.51zm0 30.2a11.69 11.69 0 1 1 11.69-11.69A11.69 11.69 0 0 1 389.24 52zm-74.38-28.48l-12.94 33.83a1.42 1.42 0 0 1-1.33.91h-6.23a1.42 1.42 0 0 1-1.33-.91l-12.94-33.83a.91.91 0 0 1 .85-1.23h5.56a1.25 1.25 0 0 1 1.19.85l9.11 26.18a.51.51 0 0 0 .47.34h.41a.51.51 0 0 0 .47-.34l9.11-26.18a1.25 1.25 0 0 1 1.19-.85H314a.91.91 0 0 1 .86 1.23zm-39.29-.15v33.82a1.07 1.07 0 0 1-1.07 1.07h-4.95a1.07 1.07 0 0 1-1.07-1.07V23.33a1.07 1.07 0 0 1 1.07-1.08h4.95a1.07 1.07 0 0 1 1.07 1.08zm62.57 16.94A11.69 11.69 0 0 0 360 46a1.27 1.27 0 0 1 1.11-.65h5a1.11 1.11 0 0 1 .9.47 1.08 1.08 0 0 1 .12 1 18.51 18.51 0 1 1 0-13.09 1.1 1.1 0 0 1-1 1.47h-5a1.27 1.27 0 0 1-1.11-.65 11.68 11.68 0 0 0-21.88 5.71zM326 23.33v33.82a1.07 1.07 0 0 1-1.08 1.07H320a1.07 1.07 0 0 1-1.08-1.07V23.33a1.08 1.08 0 0 1 1.08-1.08h4.94a1.08 1.08 0 0 1 1.06 1.08zm-115.21-1.08h-12.43a1.07 1.07 0 0 0-1.07 1.08v33.82a1.07 1.07 0 0 0 1.07 1.07h4.95a1.07 1.07 0 0 0 1.07-1.07v-9h6.41a13 13 0 1 0 0-25.92zm-1.43 20.1h-4.52a.46.46 0 0 1-.46-.46V28.53a.46.46 0 0 1 .46-.46h4.52a7.14 7.14 0 0 1 0 14.28zm24.41-2.08A11.69 11.69 0 0 0 255.64 46a1.27 1.27 0 0 1 1.11-.65h5a1.08 1.08 0 0 1 1 1.47 18.51 18.51 0 1 1 0-13.09 1.1 1.1 0 0 1-1 1.47h-5a1.27 1.27 0 0 1-1.11-.65 11.68 11.68 0 0 0-21.88 5.71z"/></g></g></svg>