<svg xmlns="http://www.w3.org/2000/svg" width="198" height="39"><style>.shp0{fill:#fff}</style><path id="Layer" class="shp0" d="M.23.23h38.58v9.35H.23V.23zm68.08 28.35h11.9l.95-3.33h-7.25l.64-2.23h5.89l.95-3.33H75.5l.59-2.05h6.94l.94-3.3H72.35l-4.04 14.24z"/><path id="Layer" fill-rule="evenodd" class="shp0" d="M68.11 19.15c-.82 2.9-2.95 4.77-6.58 5H58.4l-1.25 4.43h-4.69l4.07-14.24h6.86c4.1 0 5.54 1.91 4.72 4.81zm-6.54-1.51h-1.33l-.87 3.17h2.16c.24 0 .48-.04.71-.11a2.241 2.241 0 001.13-.88c.13-.21.22-.43.28-.67.35-1.33-1.08-1.51-2.08-1.51z"/><path id="Layer" class="shp0" d="M15.37 18.18c0-.15-.04-.3-.11-.44a1.07 1.07 0 00-.27-.37.943.943 0 00-.39-.22c-.14-.05-.3-.07-.45-.06h-3.21l-.74 2.64h3.44c.22.02.44-.01.64-.08.21-.06.4-.17.56-.32.16-.14.29-.32.39-.52.09-.2.14-.41.14-.63zm-6.84 7.37h3.09c1.74 0 2-.89 2.18-1.18a1.553 1.553 0 00.09-.91c-.02-.1-.05-.2-.09-.3-.19-.32-.27-.69-1.63-.69H9.42l-.89 3.08zm22.77-7.18c0-.28-.06-1.26-1.5-1.26h-3c0 .08-.88 3.19-.88 3.19H29c.28.03.56 0 .83-.09.26-.08.51-.21.72-.39.22-.18.39-.4.52-.65s.21-.52.23-.8z"/><path id="Layer" class="shp0" d="M34.6 16.5c.1.29.17.58.2.89.04.3.04.6 0 .9-.03.3-.1.6-.19.89-.1.29-.23.56-.39.82-.16.25-.34.49-.54.72-.19.22-.41.43-.65.61-.23.19-.48.36-.74.5s-.54.26-.82.36c.21.01.41.07.59.16s.35.21.48.37c.14.15.24.33.31.52.07.2.09.41.08.61 0 .33.19 4.79.19 4.79h-3.89l-.14-4c0-.46.11-1.54-1.62-1.54h-2.38l-1.53 5.41h-4.17l4.13-14.26h-9c.34-.02.69 0 1.03.05.34.05.68.14 1 .25.32.12.64.27.93.45.29.18.57.39.82.63.2.27.36.56.48.87.11.31.18.63.21.96.03.33.01.66-.06.99-.06.32-.18.64-.33.93-.11.2-.23.39-.36.57-.13.17-.28.34-.44.5-.16.16-.33.3-.51.44-.18.13-.37.25-.57.35.15.09.3.19.43.3.14.12.26.24.38.38.11.13.21.28.3.43.09.15.16.31.22.48.1.36.15.73.16 1.11 0 .38-.04.75-.13 1.11-.1.37-.23.72-.42 1.05-.18.33-.4.63-.66.9-.74.62-1.38 1.47-5 1.47H3.53l4.11-14.23H.23v24.45h38.58V14.25h-8a3.83 3.83 0 012.26.51 3.824 3.824 0 011.53 1.74z"/><path id="Layer" fill-rule="evenodd" class="shp0" d="M132.02 21.42a10.193 10.193 0 01-2.73 4.72c-.66.64-1.4 1.19-2.21 1.64-.8.44-1.66.78-2.56.99a9.87 9.87 0 01-1.07.17c-.18.02-.36.04-.54.05-.18.01-.36.01-.54.01-4.46 0-6.66-2.77-5.3-7.63.24-.87.59-1.71 1.05-2.49.46-.78 1.03-1.49 1.68-2.12.66-.62 1.39-1.16 2.19-1.58.8-.43 1.65-.75 2.53-.95.17-.04.35-.07.53-.1.17-.03.35-.05.53-.07.18-.02.35-.04.53-.05.18-.01.36-.01.54-.01 5.1 0 6.46 3.62 5.37 7.42zm-4.68-.04c.57-1.94.36-3.99-1.72-3.91-.09 0-.19 0-.28.01-.09.01-.19.03-.28.04-.09.02-.18.04-.27.07l-.27.09c-1.45.59-2.35 2.28-2.76 3.74-.54 1.82-.62 4.1 1.61 4.1.1 0 .2-.01.29-.01.1-.01.2-.03.29-.05.1-.01.2-.03.29-.06.09-.03.19-.06.28-.09 1.39-.54 2.31-2.02 2.82-3.89v-.04z"/><path id="Layer" class="shp0" d="M99.46 16.21l.54-1.87H86.92l-1.05 3.74h4.2l-3 10.5h4.66l3-10.5h4.2l.53-1.87z"/><path id="Layer" fill-rule="evenodd" class="shp0" d="M165.54 18.67c-.11.38-.27.74-.47 1.08-.21.34-.45.65-.73.93-.28.27-.6.51-.94.71-.34.19-.71.35-1.09.45 1.33.56 2.15.92 1.33 3.79-.54 1.87-.77 2.48-.23 2.48l-.1.44h-4.74c.01-.19.02-.38.04-.57.02-.18.04-.37.08-.56.03-.18.06-.37.11-.55.04-.19.09-.37.15-.55.03-.08.08-.16.08-.26.33-1.15.41-1.79-.08-2.15a3.52 3.52 0 00-.4-.18c-.14-.05-.29-.08-.43-.11-.15-.03-.29-.05-.44-.05-.15-.01-.29-.01-.44.01h-1.41l-1.43 5h-4.66l4-14.24h6.73c2.89 0 4.46.46 5.07 1.46.1.2.18.41.23.62a3.014 3.014 0 01.05 1.33c-.03.22-.1.43-.18.64-.01.02-.01.05-.02.07-.01.03-.01.05-.02.07-.01.03-.02.05-.03.07-.01.03-.02.05-.03.07zm-4.43.46c.29-1-.38-1.49-1.45-1.48h-2.18l-.82 2.84h2.25c1.2-.08 1.94-.46 2.2-1.36z"/><path id="Layer" class="shp0" d="M197.75 18.46c.36-2.48-.87-4.51-4.81-4.51-3.58 0-6.63 1.51-7.48 4.56-1.56 5.43 7.07 3.94 6.45 6.12-.18.67-1.08 1-2.23 1-.11 0-.22 0-.32-.02-.11-.01-.22-.03-.32-.06-.11-.03-.21-.07-.31-.12-.1-.05-.19-.1-.28-.16-.08-.06-.15-.13-.21-.21a.919.919 0 01-.16-.27c-.04-.09-.06-.19-.08-.29-.01-.1-.01-.2 0-.3h-4.48c-.61 2.56 1.2 4.76 5 4.76 3.92 0 7.14-1.61 8.07-4.92 1.48-5.17-7.09-3.87-6.48-6 .13-.51.67-.82 1.72-.82a2.715 2.715 0 01.58.05c.1.02.19.05.28.09.09.03.18.07.27.12a.952.952 0 01.36.44c.03.09.05.18.05.28.01.09 0 .19-.03.28l4.41-.02z"/><path id="Layer" fill-rule="evenodd" class="shp0" d="M179.24 14.34l1 14.24h-4.66v-1.87h-4.66l-1.08 1.87h-4.58l.28-.44 8.58-13.34.31-.46h4.81zm-3.64 9.4l-.05-5.12-1.43 2.51-1.46 2.61h2.94zm-60.71-5.38c-.1.41-.26.81-.46 1.18-.21.37-.46.71-.76 1.02-.29.3-.63.57-.99.78-.37.22-.76.39-1.17.5 1.33.56 2.15.92 1.33 3.79-.53 1.87-.76 2.48-.2 2.48l-.13.44h-4.74c.01-.19.03-.38.05-.56.02-.19.04-.38.08-.57.03-.18.06-.37.11-.55.04-.19.09-.37.14-.55.03-.08.08-.16.08-.26.33-1.15.41-1.79-.08-2.15-.13-.07-.27-.13-.41-.18-.14-.05-.28-.09-.43-.11-.14-.03-.29-.05-.44-.05-.14-.01-.29-.01-.44.01h-1.41l-1.38 5h-4.69l.54-1.87L103 14.34h6.68c4.76 0 5.94 1.28 5.21 4.02zm-4.57.77c.28-1-.38-1.49-1.45-1.48h-2.18l-.82 2.84h2.25c1.2-.08 1.94-.46 2.2-1.36zm38.72-1.18a5.38 5.38 0 01-1.06 1.82c-.24.27-.5.51-.78.72-.28.22-.58.4-.9.56 1.43.39 1.87 1.72 1.43 3.28-.82 2.92-3.2 4.07-6.43 4.25h-7.92l4-14.24h6.84c3.2 0 5.53.74 4.82 3.61zm-7.79 4.69h-1.51l-.74 2.61h2.22c1.05-.03 1.9-.31 2.18-1.31.36-1.23-.72-1.3-2.15-1.3zm3.09-3.84c.31-1.13-.58-1.16-1.6-1.16h-1.64l-.67 2.38h1.92c.21.03.42.02.63-.03a1.77 1.77 0 001.06-.65c.13-.16.24-.35.31-.55l-.01.01z"/></svg>