<svg xmlns="http://www.w3.org/2000/svg" viewBox="0 0 111 97"><style>.shp0{fill:#231f20}.shp1{fill:#fff}</style><path id="Layer" class="shp0" d="M11.28 50.9L56.87 5.31l45.6 45.59-45.6 45.6-45.59-45.6z"/><path id="Layer" fill-rule="evenodd" class="shp1" d="M56.88 97L10.74 50.9 56.88 4.76 103 50.9 56.88 97zM11.83 50.9L56.88 96l45.06-45.1L56.88 5.85 11.83 50.9z"/><g id="Layer"><path id="Layer" d="M0 9.18h110.87v83.15H0V9.18z" fill="none"/><path id="Layer" class="shp1" d="M51.73 95.9l-.59-.18 4.64-15.17-13.52-9.41 15.87-6.09.22.58-14.79 5.67 12.94 9-4.77 15.6z"/><path id="Layer" class="shp1" d="M41.63 89.16l14.3-8.84.33.53-14.3 8.83-.33-.52zm-.15-4.19l1.47-13.31.61.06-1.46 13.31-.62-.06z"/><path id="Layer" class="shp1" d="M24.16 81.26l18.74-9.93.29.55-18.74 9.93-.29-.55z"/><path id="Layer" class="shp1" d="M20.41 72.59l22.61-1.3.04.61-22.61 1.31-.04-.62z"/><path id="Layer" class="shp1" d="M16.33 62.13l.22-.58 26.58 9.76-.21.58-26.59-9.76z"/><path id="Layer" class="shp1" d="M29.97 53.66l.51-.36 12.81 18.11-.51.36-12.81-18.11z"/><path id="Layer" class="shp1" d="M17.75 62.65l12.28-9.41.37.49-12.27 9.41-.38-.49z"/><path id="Layer" class="shp1" d="M13.91 26.24l.53-.31 16.05 27.4-.53.31-16.05-27.4zm28.45 29.45l.62-.01.37 15.92-.62.02-.37-15.93z"/><path id="Layer" class="shp1" d="M30.17 53.8l.11-.61 12.44 2.19-.11.61-12.44-2.19z"/><path id="Layer" class="shp1" d="M30.04 53.24l16.91-12.48.37.5L30.4 53.74l-.36-.5zm12.43 2.19l8.01-5.78.37.5-8.01 5.79-.37-.51z"/><path id="Layer" class="shp1" d="M42.61 55.98l.1-.61 10.75 1.69-.09.61-10.76-1.69z"/><path id="Layer" class="shp1" d="M42.67 71.03l10.5-13.84.5.37-10.51 13.85-.49-.38zm13.04 9.15l.48-.38L64.1 90l-.49.38-7.9-10.2z"/><path id="Layer" class="shp1" d="M62.52 88.71l9.05-11.72.49.38-9.05 11.72-.49-.38z"/><path id="Layer" class="shp1" d="M71.71 61.37h.62l.02 16h-.62l-.02-16z"/><path id="Layer" class="shp1" d="M71.91 77.08l17.36-7.65.25.57-17.36 7.65-.25-.57z"/><path id="Layer" class="shp1" d="M71.93 77.66l.22-.57 14.97 5.87-.22.57-14.97-5.87zm-.04-12.98l.21-.58 15.81 5.86-.21.58-15.81-5.86z"/><path id="Layer" class="shp1" d="M71.81 64.18l11.95-10.23.4.47-11.95 10.23-.4-.47z"/><path id="Layer" class="shp1" d="M83.66 54.25l.59-.17 4.58 16.59-.6.17-4.57-16.59z"/><path id="Layer" class="shp1" d="M83.79 54.43l.33-.52 14.24 9.04-.33.52-14.24-9.04z"/><path id="Layer" class="shp1" d="M83.87 53.87l12.94-3.97.18.59-12.93 3.98-.19-.6z"/><path id="Layer" class="shp1" d="M96.71 50.45l.37-.49 9.76 7.25-.37.49-9.76-7.25z"/><path id="Layer" class="shp1" d="M94.4 36.53l.61-.1 2.18 13.73-.61.1-2.18-13.73zm-11.79 7.85l.62-.05.77 10.24-.62.05-.77-10.24z"/><path id="Layer" class="shp1" d="M82.81 44.07l11.96-5 .24.57-11.96 5-.24-.57z"/><path id="Layer" class="shp1" d="M82.64 44.25l5.8-15.42.58.22-5.8 15.41-.58-.21z"/><path id="Layer" class="shp1" d="M72.26 29.46l.51-.36 10.22 14.53-.51.35-10.22-14.52z"/><path id="Layer" class="shp1" d="M72.47 28.97l16.72-2.55.09.62-16.72 2.55-.09-.62z"/><path id="Layer" class="shp1" d="M64.61 16.44l.54-.31 7.65 13.35-.54.31-7.65-13.35z"/><path id="Layer" class="shp1" d="M64.64 16.07l7.95-8.67.46.42-7.96 8.67-.45-.42z"/><path id="Layer" class="shp1" d="M44.38 1.5l.37-.5 20.3 15.03-.37.5L44.38 1.5z"/><path id="Layer" class="shp1" d="M37.35 12.75l.09-.61 27.49 3.85-.09.61-27.49-3.85z"/><path id="Layer" class="shp1" d="M47.08 25.51l17.65-9.48.29.55-17.65 9.48-.29-.55z"/><path id="Layer" class="shp1" d="M51.66 34.6l12.95-18.5.5.36-12.95 18.5-.5-.36zM31.52 11.8l.42-.45 15.18 13.98-.42.46L31.52 11.8z"/><path id="Layer" class="shp1" d="M19.41 31.97l27.42-6.7.15.6-27.42 6.7-.15-.6z"/><path id="Layer" class="shp1" d="M46.16 38.82l.43-13.28.62.02-.43 13.29-.62-.03zm-27.3-5.85l.17-.59 28.2 8.34-.17.59-28.2-8.34z"/><path id="Layer" class="shp1" d="M47.01 40.73L72.39 29l.26.56-25.38 11.73-.26-.56z"/><path id="Layer" class="shp1" d="M60.4 46.74l11.86-17.63.51.34-11.85 17.64-.52-.35zm-45.34 1.6l.21-.59 15.06 5.44-.21.59-15.06-5.44z"/><path id="Layer" class="shp1" d="M14.86 48.08l.62-.07 1.27 11.7-.61.07-1.28-11.7z"/><path id="Layer" class="shp1" d="M8.25 56.48l6.67-8.62.49.38-6.67 8.62-.49-.38z"/><path id="Layer" class="shp1" d="M14.88 47.93l4.32-10.19.57.25-4.32 10.18-.57-.24zm61.97 4.1l.2-.58 7.14 2.52-.2.59-7.14-2.53zM42.94 72.84c-.71 0-1.29-.58-1.29-1.29 0-.71.58-1.29 1.29-1.29.71 0 1.29.58 1.29 1.29 0 .71-.58 1.29-1.29 1.29zm-.18-15.96c-.71 0-1.29-.58-1.29-1.29 0-.71.58-1.29 1.29-1.29.71 0 1.29.58 1.29 1.29 0 .71-.58 1.29-1.29 1.29zm13.61 24.74c-.71 0-1.29-.58-1.29-1.29 0-.71.58-1.29 1.29-1.29.71 0 1.29.58 1.29 1.29 0 .71-.58 1.29-1.29 1.29zm2.17-15.17c-.6 0-1.09-.49-1.09-1.09 0-.6.49-1.09 1.09-1.09.6 0 1.09.49 1.09 1.09 0 .6-.49 1.09-1.09 1.09zm-4.98-8.22c-.6 0-1.09-.49-1.09-1.09 0-.6.49-1.09 1.09-1.09.6 0 1.09.49 1.09 1.09 0 .6-.49 1.09-1.09 1.09zm7.74-10.2c-.6 0-1.09-.49-1.09-1.09 0-.6.49-1.09 1.09-1.09.6 0 1.09.49 1.09 1.09 0 .6-.49 1.09-1.09 1.09zM72 65.36c-.6 0-1.09-.49-1.09-1.09 0-.6.49-1.09 1.09-1.09.6 0 1.09.49 1.09 1.09 0 .6-.49 1.09-1.09 1.09zm.34 13.31c-.71 0-1.29-.58-1.29-1.29 0-.71.58-1.29 1.29-1.29.71 0 1.29.58 1.29 1.29 0 .71-.58 1.29-1.29 1.29zm16.1-7.14c-.6 0-1.09-.49-1.09-1.09 0-.6.49-1.09 1.09-1.09.6 0 1.09.49 1.09 1.09 0 .6-.49 1.09-1.09 1.09z"/><path id="Layer" class="shp1" d="M83.85 55.47c-.71 0-1.29-.58-1.29-1.29 0-.71.58-1.29 1.29-1.29.71 0 1.29.58 1.29 1.29 0 .71-.58 1.29-1.29 1.29zm-.59-10.33c-.6 0-1.09-.49-1.09-1.09 0-.6.49-1.09 1.09-1.09.6 0 1.09.49 1.09 1.09 0 .6-.49 1.09-1.09 1.09zM30.41 54.8c-.71 0-1.29-.58-1.29-1.29 0-.71.58-1.29 1.29-1.29.71 0 1.29.58 1.29 1.29 0 .71-.58 1.29-1.29 1.29zM19.69 74.51c-.6 0-1.09-.49-1.09-1.09 0-.6.49-1.09 1.09-1.09.6 0 1.09.49 1.09 1.09 0 .6-.49 1.09-1.09 1.09zM18.11 63.7c-.6 0-1.09-.49-1.09-1.09 0-.6.49-1.09 1.09-1.09.6 0 1.09.49 1.09 1.09 0 .6-.49 1.09-1.09 1.09zM15.5 49.31c-.71 0-1.29-.58-1.29-1.29 0-.71.58-1.29 1.29-1.29.71 0 1.29.58 1.29 1.29 0 .71-.58 1.29-1.29 1.29zM5.41 64.91c-.6 0-1.09-.49-1.09-1.09 0-.6.49-1.09 1.09-1.09.6 0 1.09.49 1.09 1.09 0 .6-.49 1.09-1.09 1.09zm14.28 21.53c-.6 0-1.09-.49-1.09-1.09 0-.6.49-1.09 1.09-1.09.6 0 1.09.49 1.09 1.09 0 .6-.49 1.09-1.09 1.09zm43.44 4.03c-.71 0-1.29-.58-1.29-1.29 0-.71.58-1.29 1.29-1.29.71 0 1.29.58 1.29 1.29 0 .71-.58 1.29-1.29 1.29zM47.19 42.85c-.6 0-1.09-.49-1.09-1.09 0-.6.49-1.09 1.09-1.09.6 0 1.09.49 1.09 1.09 0 .6-.49 1.09-1.09 1.09zm.05-16.28c-.6 0-1.09-.49-1.09-1.09 0-.6.49-1.09 1.09-1.09.6 0 1.09.49 1.09 1.09 0 .6-.49 1.09-1.09 1.09zm-28.18 7.45c-.6 0-1.09-.49-1.09-1.09 0-.6.49-1.09 1.09-1.09.6 0 1.09.49 1.09 1.09 0 .6-.49 1.09-1.09 1.09zm53.56-3.13c-.71 0-1.29-.58-1.29-1.29 0-.71.58-1.29 1.29-1.29.71 0 1.29.58 1.29 1.29 0 .71-.58 1.29-1.29 1.29zm17.29-3.24c-.6 0-1.09-.49-1.09-1.09 0-.6.49-1.09 1.09-1.09.6 0 1.09.49 1.09 1.09 0 .6-.49 1.09-1.09 1.09zm4.9 13.15c-.6 0-1.09-.49-1.09-1.09 0-.6.49-1.09 1.09-1.09.6 0 1.09.49 1.09 1.09 0 .6-.49 1.09-1.09 1.09zm10.95.96c-.6 0-1.09-.49-1.09-1.09 0-.6.49-1.09 1.09-1.09.6 0 1.09.49 1.09 1.09 0 .6-.49 1.09-1.09 1.09zm-8.35 9.67c-.71 0-1.29-.58-1.29-1.29 0-.71.58-1.29 1.29-1.29.71 0 1.29.58 1.29 1.29 0 .71-.58 1.29-1.29 1.29zm2.65 13.93c-.6 0-1.09-.49-1.09-1.09 0-.6.49-1.09 1.09-1.09.6 0 1.09.49 1.09 1.09 0 .6-.49 1.09-1.09 1.09zm-6.2 22.33c-.6 0-1.09-.49-1.09-1.09 0-.6.49-1.09 1.09-1.09.6 0 1.09.49 1.09 1.09 0 .6-.49 1.09-1.09 1.09zm14.46-67.49c-.6 0-1.09-.49-1.09-1.09 0-.6.49-1.09 1.09-1.09.6 0 1.09.49 1.09 1.09 0 .6-.49 1.09-1.09 1.09zm-14.7-5.9c-.6 0-1.09-.49-1.09-1.09 0-.6.49-1.09 1.09-1.09.6 0 1.09.49 1.09 1.09 0 .6-.49 1.09-1.09 1.09zm-28.86 3.46c-.71 0-1.29-.58-1.29-1.29 0-.71.58-1.29 1.29-1.29.71 0 1.29.58 1.29 1.29 0 .71-.58 1.29-1.29 1.29zm12.81-1.28c-.6 0-1.09-.49-1.09-1.09 0-.6.49-1.09 1.09-1.09.6 0 1.09.49 1.09 1.09 0 .6-.49 1.09-1.09 1.09zm-44.99-3.79c-.6 0-1.09-.49-1.09-1.09 0-.6.49-1.09 1.09-1.09.6 0 1.09.49 1.09 1.09 0 .6-.49 1.09-1.09 1.09zM15.93 16.2c-.6 0-1.09-.49-1.09-1.09 0-.6.49-1.09 1.09-1.09.6 0 1.09.49 1.09 1.09 0 .6-.49 1.09-1.09 1.09zM3.24 18.65c-.6 0-1.09-.49-1.09-1.09 0-.6.49-1.09 1.09-1.09.6 0 1.09.49 1.09 1.09 0 .6-.49 1.09-1.09 1.09z"/></g><path id="Layer" class="shp1" d="M59.38 81.95l.1-.12 5.15-6.09.38-4.45L75.2 65.7l3.73-6.77 1.29-5.74 1.5-3.03 3.81-5.57-2.2-4.14-5.97-3.35-2.97-.58-1.85-1.07-4.48-1.76-4.53-1.6-.12-1.93-2.06-3.66-6.82 2.5-4.67 1.55-1.5-5.51-6.58 1.28.13 3.8-4.03.01-4.12.84v8.14l-3.21 1.33-2.31 3.69 5.16 4.39 3.78 1 2.16-1.89 2.16 3.03 4.72 2.13 2.13 1.59 3.54 7.55 1 1.84-.48 1.57 4.17 5.18.62 2.69-4.54 4.61 3.56 2.43"/><path id="Layer" fill-rule="evenodd" class="shp1" d="M12.15 87.31h-.92V82h1.24a1.819 1.819 0 01.65.06c.11.03.21.07.31.12.1.04.2.1.29.16.09.08.17.17.24.27.07.1.13.2.17.31.05.11.09.23.11.34.02.12.03.24.03.36a1.56 1.56 0 01-.47 1.26c-.16.17-.36.29-.58.36-.22.08-.46.11-.69.08h-.39l.01 1.99zm1.15-3.68c0-.83-.63-.81-1.15-.83v1.67c.53 0 1.15-.03 1.15-.83v-.01zm1.7 3.68V82h1.48c.81 0 1.63.23 1.63 1.4.02.14 0 .28-.03.42-.04.14-.1.27-.19.38-.08.12-.19.22-.31.29-.12.08-.25.13-.39.16.33.15.43.45.56.81l.65 1.86h-1l-.49-1.51c-.2-.64-.4-.7-1-.7v2.21l-.91-.01zm1.32-3c.41 0 .81-.18.81-.73.01-.1 0-.2-.03-.3a.669.669 0 00-.16-.25.821.821 0 00-.25-.16c-.1-.03-.2-.03-.3-.02h-.48v1.46h.41z"/><path id="Layer" class="shp1" d="M19 87.31V82h1v5.32l-1-.01zm6.3 0v-3.14c0-.48 0-1 .06-1.43 0 .18-.08.37-.14.55l-1.15 4h-.87l-1-3.32c-.12-.41-.22-.83-.31-1.25 0 .46.07.93.07 1.39v3.18h-.87V82h1.44l.82 2.79c.03.11.06.22.09.32.03.11.05.22.08.33l.06.33.06.33c.07-.37.14-.72.24-1.08l.87-3h1.47v5.32l-.92-.03zm4.7 0h-2.7V82H30v.88h-1.78v1.28h1.61V85h-1.61v1.42H30v.89zm1 0V82h.92v5.32l-.92-.01z"/><path id="Layer" fill-rule="evenodd" class="shp1" d="M33 87.31V82h1.48c.8 0 1.63.23 1.63 1.4.02.14 0 .28-.03.42-.04.14-.1.27-.19.38-.08.12-.19.22-.31.29-.12.08-.25.13-.39.16.33.15.43.45.56.81l.65 1.86h-1l-.49-1.51c-.2-.64-.4-.7-1-.7v2.21l-.91-.01zm1.32-3c.41 0 .81-.18.81-.73.01-.1 0-.2-.03-.3a.669.669 0 00-.16-.25.821.821 0 00-.25-.16c-.1-.03-.2-.03-.3-.02h-.48v1.46h.41zm5.87 3l-.39-1.21h-1.88l-.38 1.21h-.94L38.36 82h1l1.81 5.32-.98-.01zm-1.25-4c0-.11-.06-.23-.09-.35 0 .14-.06.29-.1.44l-.54 1.79h1.32l-.59-1.88z"/><path id="Layer" class="shp1" d="M13 80.1l-1.07-2.33c-.1-.22-.18-.45-.27-.68l.03.25.03.25c0 .08.01.17.01.25.01.08.01.17.01.25v2h-.63v-3.84h.78L13 78.58c.1.22.16.46.24.68l-.03-.23c-.01-.08-.01-.16-.02-.24 0-.08-.01-.16-.01-.23v-2.31h.63v3.85H13z"/><path id="Layer" fill-rule="evenodd" class="shp1" d="M16.83 80.1l-.28-.88h-1.36l-.28.88h-.68l1.28-3.85h.73l1.31 3.85h-.72zm-.91-2.87c0-.08 0-.17-.06-.25 0 .1 0 .21-.08.32l-.39 1.3h1l-.47-1.37z"/><path id="Layer" class="shp1" d="M20.38 80c-.06.02-.12.04-.18.05-.06.02-.12.03-.19.04l-.18.03c-.06 0-.13.01-.19.01-.25.01-.5-.03-.73-.12-.24-.1-.45-.24-.62-.42-.17-.18-.3-.4-.38-.64-.07-.24-.1-.49-.07-.74 0-1.28.66-2 1.74-2 .07 0 .14.01.2.02.07 0 .14.01.2.03.07.01.13.03.2.05.06.02.13.04.19.07l-.05.66c-.05-.03-.11-.06-.16-.09-.06-.03-.12-.05-.17-.07-.06-.01-.12-.03-.19-.04-.06-.01-.12-.01-.18-.01-.66 0-1.07.52-1.07 1.28s.43 1.36 1.13 1.36c.06 0 .12-.01.18-.01.06-.01.12-.02.17-.03.06-.02.12-.03.17-.05.06-.02.12-.05.17-.07l.01.69zm.53.1v-3.85h.66v3.85h-.66z"/><path id="Layer" fill-rule="evenodd" class="shp1" d="M23.85 80.19c-1 0-1.61-.83-1.61-2s.57-2 1.61-2 1.59.86 1.59 2c0 1.14-.58 2-1.59 2zm-.01-3.43h.01-.01zm-.89 1.42c0 .65.26 1.41.91 1.41s.89-.77.89-1.41c0-.64-.27-1.42-.91-1.42-.63 0-.89.77-.89 1.42z"/><path id="Layer" class="shp1" d="M28 80.1l-1.1-2.32c-.1-.22-.18-.45-.27-.68l.03.25.03.25c0 .08.01.17.01.25.01.08.01.17.01.25v2h-.63v-3.85h.78L28 78.58c.1.22.16.46.24.68l-.03-.23c-.01-.08-.01-.16-.02-.24 0-.08-.01-.16-.01-.23v-2.31h.63v3.85H28z"/><path id="Layer" fill-rule="evenodd" class="shp1" d="M31.82 80.1l-.28-.88h-1.36l-.28.88h-.68l1.28-3.85h.73l1.31 3.85h-.72zm-.91-2.87c0-.08 0-.17-.06-.25 0 .1 0 .21-.08.32l-.39 1.3h1l-.47-1.37z"/><path id="Layer" class="shp1" d="M34.92 80.1H33v-3.85h.66v3.22h1.28l-.02.63z"/><path id="Layer" fill-rule="evenodd" class="shp1" d="M11.24 74.36V69h1.49c.81 0 1.64.23 1.64 1.41.02.14 0 .29-.03.42a1.178 1.178 0 01-.89.84c.33.15.43.45.56.81l.66 1.87h-1l-.5-1.52c-.2-.64-.4-.71-1-.71v2.22l-.93.02zm1.33-3c.42 0 .82-.18.82-.74.01-.1 0-.2-.03-.3a.696.696 0 00-.42-.4c-.1-.04-.2-.04-.3-.03h-.48v1.47h.41z"/><path id="Layer" class="shp1" d="M18 74.36h-2.69V69H18v.88h-1.77v1.29h1.62v.87h-1.62v1.43H18v.89z"/><path id="Layer" fill-rule="evenodd" class="shp1" d="M19 69h1c.17-.02.35-.02.53 0 .17.01.34.04.51.08.17.05.34.1.5.17.16.08.31.16.46.26.14.14.27.29.38.46.11.17.2.35.27.53.08.19.13.38.15.58.03.2.04.4.02.6a2.743 2.743 0 01-.17 1.18c-.07.19-.16.37-.27.54-.11.17-.24.33-.38.47-.12.09-.26.17-.39.24-.14.07-.29.12-.44.16-.14.04-.3.07-.45.09-.15.01-.31.01-.46 0H19V69zm1.16 4.53c1 0 1.74-.59 1.74-1.89.01-.15 0-.29-.03-.44-.02-.14-.07-.28-.13-.42-.05-.13-.13-.26-.22-.37-.09-.12-.19-.23-.3-.32-.1-.05-.2-.1-.3-.14l-.33-.09c-.1-.02-.22-.03-.33-.04-.11 0-.22 0-.33.01v3.69l.23.01z"/><path id="Layer" class="shp1" d="M26.43 74.36h-2.72V69h2.69v.88h-1.77v1.29h1.62v.87h-1.62v1.43h1.8v.89zM11.14 95.81v-6.69h1.15v6.69h-1.15zm5.86 0l-1.86-4c-.18-.38-.32-.78-.47-1.18.02.14.04.29.05.43.02.14.03.28.04.43l.03.43c0 .14.01.29.01.43v3.5h-1.08v-6.73h1.35L17 93.17c.17.38.28.79.42 1.18-.02-.13-.03-.27-.05-.41l-.03-.4c-.01-.14-.01-.28-.02-.41v-4.01h1.08v6.69H17zm3.92 0h-1.16v-6.69h3.16v1.1h-2v1.58h1.93v1.1h-1.93v2.91zm12.26 0l-1.87-4c-.18-.38-.32-.78-.47-1.18l.06.42c.02.14.03.28.04.42.02.14.03.28.04.42.01.14.01.28.02.42v3.5h-1.12v-6.69h1.35l1.92 4.05c.17.38.28.79.42 1.18-.02-.13-.03-.27-.05-.41l-.03-.4c-.01-.14-.01-.28-.02-.41v-4.01h1.09v6.69h-1.38zm6.89-.17c-.1.03-.21.06-.32.09-.1.03-.21.05-.32.07-.1.02-.21.03-.32.04-.11.01-.22.02-.33.02-.43.02-.87-.05-1.27-.22-.4-.16-.76-.41-1.06-.73a3.08 3.08 0 01-.66-1.1 3.08 3.08 0 01-.13-1.28c0-2.22 1.15-3.46 3-3.46.12 0 .23.01.35.03.11.01.23.03.34.05.12.03.23.06.34.09l.33.12L40 90.5c-.09-.06-.18-.11-.28-.16-.1-.04-.2-.08-.3-.11-.1-.03-.21-.05-.31-.07-.11-.01-.21-.02-.32-.02-1.14 0-1.86.9-1.86 2.23s.75 2.37 2 2.37c.1 0 .21-.01.31-.02.1-.02.2-.03.3-.06.11-.02.2-.05.3-.08.1-.04.2-.08.29-.12l-.06 1.18zm.93.17v-6.69h1.15v6.69H41z"/><path id="Layer" fill-rule="evenodd" class="shp1" d="M47.49 95.81L47 94.29h-2.36l-.48 1.52H43l2.22-6.69h1.27l2.28 6.69h-1.28zm-1.57-5c0-.14-.08-.29-.11-.44-.05.18-.08.37-.13.55L45 93.19h1.65l-.73-2.38z"/><path id="Layer" class="shp1" d="M27.02 89.66l-.18-.54h-1.27l-.18.54h1.63z"/><path id="Layer" fill-rule="evenodd" class="shp1" d="M29.1 95.81h-1.25l-.49-1.52H25l-.52 1.52H23.3l2-5.89h1.81l1.99 5.89zM27 93.19l-.76-2.36c-.04-.14-.11-.29-.11-.44-.05.18-.13.37-.13.55l-.64 2.25H27z"/><path id="Layer" class="shp1" d="M48.97 39.39c-3.12.98-6.44-.76-7.41-3.89-.98-3.13.76-6.44 3.89-7.41 3.13-.98 6.44.76 7.41 3.89.98 3.12-.76 6.44-3.89 7.41z"/><path id="Layer" class="shp0" d="M52.1 31.39a3.22 3.22 0 01-2.5-1.05c-.06.1-.13.19-.21.28-.08.09-.16.17-.25.25-.09.07-.18.14-.28.2-.1.07-.2.12-.31.17v-.22c-.01-.07-.02-.14-.02-.21-.01-.08-.03-.15-.04-.22-.01-.07-.03-.14-.05-.21-.17.21-.36.41-.56.59a6.072 6.072 0 01-1.3.97c-.24.13-.48.25-.73.36a1.627 1.627 0 00.17-.76 1.627 1.627 0 00-.17-.76c-.06-.12-1.39 2.57-2.95 2.89.03-.12.05-.25.07-.37.02-.12.04-.25.04-.38.01-.12.02-.25.01-.37 0-.13-.01-.25-.02-.38s-.46 1.76-1.54 2.15c-.72-2.48 1.06-5.22 4-6.15 2.94-.93 5.91.38 6.69 2.89 0 .1.06.21.08.31l-.13.02z"/><path id="Layer" fill-rule="evenodd" class="shp0" d="M52.17 31.5c-.23.01-.45 0-.68-.04-.22-.04-.44-.09-.66-.17-.21-.08-.41-.18-.61-.3-.19-.12-.37-.26-.54-.41-.07.08-.14.16-.21.23-.08.08-.16.15-.24.21-.09.06-.17.12-.27.17-.09.05-.18.1-.28.14l-.28.1v-.25c0-.04 0-.08.01-.11v-.24c-.01-.03-.01-.07-.01-.11-.16.19-.33.36-.52.53-.18.16-.37.32-.58.46-.2.14-.41.27-.63.38-.22.12-.44.22-.67.31l-.38.09.15-.32.09-.24a2.211 2.211 0 00.07-.51c0-.08-.01-.17-.02-.25-.47.76-1.6 2.34-2.87 2.6l-.3.06.07-.26s0-.14.07-.33c-.06.13-.14.25-.22.37-.09.12-.18.23-.29.33-.1.1-.21.19-.33.27-.12.08-.25.15-.38.21h-.26v-.1a5.937 5.937 0 01.99-3.87c.39-.56.87-1.05 1.42-1.45.55-.4 1.17-.7 1.82-.89.64-.21 1.32-.3 1.99-.28.68.03 1.34.17 1.97.43.63.26 1.2.62 1.7 1.08.5.45.92.99 1.23 1.59.01.03.02.05.03.08.01.02.02.05.03.08 0 .02.01.05.02.08 0 .03.01.05.01.08v.2l-.44.05zM41.68 34c.15-.12.29-.25.42-.4.12-.14.24-.3.34-.46.11-.16.19-.33.27-.51.07-.18.13-.36.18-.55l.23-.87.18.84.03.32v.32l-.03.32c-.02.11-.04.22-.06.32 1.32-.54 2.48-2.66 2.49-2.69l.19-.35.19.31c.05.1.1.21.13.31.03.11.06.22.07.34.01.11.01.22 0 .34-.01.11-.04.22-.07.33.2-.11.39-.23.58-.36.19-.13.37-.26.55-.41.18-.14.35-.29.51-.45.17-.16.32-.33.47-.5l.26-.3.11.34c.01.05.03.1.04.15.01.06.02.11.03.16l.03.16c0 .05.01.11.01.16.07-.05.13-.09.19-.14.06-.06.12-.11.18-.17.05-.05.11-.11.16-.18.05-.06.1-.12.14-.19l.17-.27.19.23c.14.16.29.3.46.42.17.12.35.23.54.32.19.08.39.15.6.19.2.05.41.07.62.07v-.09c-.76-2.45-3.59-3.67-6.44-2.78-2.85.89-4.51 3.39-3.96 5.72z"/><path id="Layer" class="shp0" d="M44.37 35.31c-.38.12-.76-.01-.85-.29-.09-.28.15-.6.53-.72s.76.01.84.29c.09.28-.14.6-.52.72z"/><path id="Layer" fill-rule="evenodd" class="shp0" d="M43.41 35.05c-.1-.32.17-.7.61-.84.09-.04.18-.07.28-.07.1-.01.2 0 .29.03.09.04.18.09.25.15.08.06.14.14.18.23.1.32-.17.7-.61.84-.09.04-.18.07-.28.07-.1.01-.2 0-.29-.03-.09-.04-.18-.09-.25-.15a.578.578 0 01-.18-.23zm.21-.07c.03.06.08.12.13.16.05.05.11.09.18.11.07.02.14.03.21.03.07 0 .14-.02.2-.05.32-.1.52-.38.45-.61a.509.509 0 00-.13-.16.418.418 0 00-.18-.11.761.761 0 00-.21-.03c-.07 0-.14.02-.2.05-.32.1-.52.38-.45.63v-.02z"/><path id="Layer" class="shp0" d="M50.37 33.59c-.38.12-.76-.01-.85-.29-.09-.28.15-.6.53-.72s.76.01.85.29c.08.28-.15.61-.53.72z"/><path id="Layer" fill-rule="evenodd" class="shp0" d="M49.41 33.33c-.1-.32.17-.7.61-.84.09-.04.18-.07.28-.07.1-.01.2 0 .29.03.09.04.18.09.25.15.08.06.14.14.18.23.1.32-.17.7-.61.84-.09.04-.18.07-.28.07-.1.01-.2 0-.29-.03-.09-.04-.18-.09-.25-.15a.578.578 0 01-.18-.23zm.21-.07c.03.06.08.12.13.16.05.05.11.09.18.11.07.02.14.03.21.03.07 0 .14-.02.2-.05.32-.1.52-.38.45-.61a.509.509 0 00-.13-.16.418.418 0 00-.18-.11.761.761 0 00-.21-.03c-.07 0-.14.02-.2.05-.32.1-.52.35-.45.61zm-3.86 3.56l.29-.09c.26.36.63.63 1.05.77.42.14.88.15 1.3.01.43-.13.8-.39 1.07-.75.26-.35.41-.78.42-1.23v-.05l.3-.09v.07c-.01.51-.18 1.01-.48 1.43-.31.41-.74.71-1.23.87-.5.15-1.02.14-1.51-.02s-.91-.48-1.21-.9v-.02zM50 35.6c-.02.47-.19.92-.48 1.29-.28.36-.68.64-1.12.78-.45.14-.93.14-1.38 0-.44-.15-.83-.42-1.12-.79.29.38.68.66 1.13.8.45.14.94.15 1.39.01.45-.15.85-.42 1.14-.8.28-.37.45-.83.47-1.3l-.03.01z"/><path id="Layer" class="shp0" d="M48.51 37.91c.27-.06.52-.17.75-.33.23-.15.43-.34.59-.56.16-.22.28-.47.36-.73.08-.26.11-.54.09-.81v-.2l-.51.16v.15c-.01.42-.15.83-.4 1.17-.25.34-.6.59-1.01.71-.4.13-.83.12-1.23-.01-.4-.14-.75-.4-.99-.74l-.07-.13-.51.16.09.18a2.378 2.378 0 001.24 1.01c.26.08.53.13.8.12.28 0 .55-.05.8-.15z"/><path id="Layer" fill-rule="evenodd" class="shp0" d="M41.41 35.74c-.75-2.37 0-4.96 1.9-6.56a6.14 6.14 0 016.79-.75c2.2 1.15 3.5 3.52 3.28 5.99a6.147 6.147 0 01-4.29 5.32c-.77.24-1.57.33-2.37.25-.8-.07-1.58-.29-2.3-.67a6.106 6.106 0 01-3.01-3.58zm5.35 3.85a5.68 5.68 0 005.55-3.02c1.07-2.04.81-4.52-.66-6.29a5.689 5.689 0 00-6.07-1.79c-.71.22-1.37.58-1.95 1.06a5.56 5.56 0 00-1.39 1.73 5.68 5.68 0 00-.4 4.33c.68 2.2 2.62 3.77 4.92 3.98z"/><path id="Layer" class="shp0" d="M49.63 39.14a.75.75 0 01.1-.2c.05-.06.11-.11.17-.15.07-.03.14-.06.22-.07.07-.01.15 0 .22.02-.1-.05-.19-.12-.27-.19-.08-.08-.15-.16-.21-.25-.06-.1-.11-.2-.14-.3-.04-.1-.06-.21-.07-.32.01-.13.05-.26.11-.37.06-.12.14-.22.24-.31.1-.08.22-.15.34-.19.13-.04.26-.05.39-.04.13.01-.71-1.29.4-1.62 0 0 .33 0 .34-.12a.978.978 0 01-.09-.29c-.02-.09-.02-.2-.02-.3.01-.1.04-.19.07-.29.04-.09.09-.18.15-.26.09-.07.2-.12.31-.15.11-.03.23-.05.35-.04.11.01.23.04.33.09.11.04.21.11.29.19.08.08-.36-1.76.81-1.31.05.02.11.05.16.08.05.02.11.05.16.08.05.02.1.05.16.08l.15.09c.05.03-.1-1.34.47-1.47 0 0 .49-.09 1.21.86 0-.05 0-.11.01-.16l.03-.16c.01-.05.03-.1.05-.15l.06-.15c.02-.05.31-.56.71-.66l1 6-.21-.2c-.05.01-.1.01-.14.01-.05 0-.1-.01-.15-.01l-.13-.03c-.05-.02-.1-.03-.14-.05-.04-.02.29.7-.27.87 0 0-.47.18-.72-.49-.04.08-.1.15-.16.21-.07.06-.14.11-.23.15-.08.03-.17.05-.25.06-.09.01-.18 0-.27-.02-.09-.02 0 .82-.69.34 0 0-.29.31-.52.22 0 0 .21.6-.32.81 0 0-.19.14-.58-.13a.21.21 0 01-.06.04c-.02.02-.05.03-.07.04-.02.01-.04.02-.07.03-.02.01-.05.01-.07.02-.02.01 1 1.44.06 1 0 0-.07.34-.26.43 0 0 4.93 4.42 5 5.08l.08.06.12.71h-.32c-.24-.03-.48-.07-.72-.12a7.97 7.97 0 01-.7-.18c-.24-.08-.46-.16-.69-.25-.22-.09-.44-.2-.66-.31-.22-.11-.28.14-.51-.46-.23-.6 0 0 0 0s-1.21 0-2-2.08c0 0-.74-.23-.37-.78 0 0-2.06-1-.75-1.37-.06-.03-.12-.05-.18-.08-.05-.03-.11-.06-.17-.09-.05-.04-.11-.07-.16-.11-.06-.03-.11-.07-.16-.11-.05-.04-.83-.45-.77-1.18z"/><path id="Layer" class="shp0" d="M65.86 36.45a.808.808 0 00-.16-.16c-.06-.04-.14-.06-.21-.08a.81.81 0 00-.22 0c-.08.02-.15.05-.21.09.07-.08.14-.17.19-.27.05-.1.09-.2.12-.31.03-.1.04-.21.04-.32 0-.11-.01-.22-.04-.33-.05-.12-.13-.23-.22-.32a.944.944 0 00-.33-.2.986.986 0 00-.76.01c-.12.05.25-1.45-.9-1.41 0 0-.31.12-.36 0 .01-.1 0-.19-.01-.29-.02-.09-.05-.19-.09-.27a.963.963 0 00-.16-.25.952.952 0 00-.21-.19c-.11-.04-.23-.05-.35-.04-.11 0-.23.03-.34.07-.1.05-.2.11-.29.19-.09.08-.16.18-.21.28-.05.1-.23-1.78-1.18-1-.04.04-.09.08-.13.12-.04.04-.08.09-.12.13-.04.04-.08.08-.12.13-.04.04-.08.09-.12.13-.04.04-.34-1.3-.92-1.24 0 0-.5.08-.87 1.2-.01-.06-.03-.11-.04-.17-.01-.06-.03-.11-.05-.17-.01-.05-.03-.11-.05-.17-.02-.05-.04-.11-.06-.16a.548.548 0 00-.08-.15.628.628 0 00-.12-.11.558.558 0 00-.16-.07c-.06-.01-.11-.02-.17-.01l.5 6.11c.01-.02.03-.04.04-.06.01-.02.02-.05.03-.07.02-.02.03-.04.04-.06.01-.03.02-.05.03-.07.05-.01.09-.02.14-.04.04-.01.08-.03.13-.05.04-.02.08-.05.12-.07.04-.03.07-.06.11-.09.04-.03 0 .75.54.74 0 0 .51 0 .53-.7.07.06.14.11.22.15a.802.802 0 00.78-.06c.08-.05.27.77.77.1 0 0 .38.2.56 0 0 0 0 .64.56.67 0 0 .23.07.51-.31.02 0 .05.01.07.01h.15c.02 0 .05-.01.07-.01.02 0-.46 1.67.25.94 0 0 .18.3.39.32 0 0-3.25 5.77-3.1 6.42l-.05.08.12.71.31-.09c.21-.11.41-.22.61-.35.2-.12.39-.25.58-.39.19-.14.37-.29.54-.45.17-.16.34-.32.5-.49.16-.17.31 0 .34-.6.03-.6 0 0 0 0s1.14-.4 1.22-2.61c0 0 .63-.45.1-.86 0 0 1.62-1.63.27-1.54 0 0 .48-.46.5-.59.02-.13.73-.68.43-1.35z"/><path id="Layer" class="shp1" d="M59.38 47.31a5.928 5.928 0 01-6.81-4.88 5.913 5.913 0 014.88-6.8 5.913 5.913 0 016.81 4.87 5.928 5.928 0 01-4.88 6.81z"/><path id="Layer" class="shp1" d="M63.84 39.14a5.902 5.902 0 00-2.58-2.95 5.837 5.837 0 00-3.86-.69c-1.33.21-2.54.88-3.44 1.88-.9 1-1.43 2.28-1.51 3.62a9.204 9.204 0 015.36-2.96c1.03-.17 2.08-.16 3.11.02 1.02.18 2.01.54 2.92 1.05v.03z"/><path id="Layer" fill-rule="evenodd" class="shp0" d="M52.19 41.65v-.63c.07-1.4.61-2.73 1.54-3.78a6.114 6.114 0 013.57-1.98 6.128 6.128 0 016.72 3.76l.23.59-.55-.31a9.09 9.09 0 00-2.85-1.02 9.067 9.067 0 00-3.03-.02c-1.01.17-1.98.5-2.87.99a9.02 9.02 0 00-2.37 1.89l-.39.51zm5.23-5.93c-.58.1-1.14.29-1.67.56-.52.27-1 .62-1.42 1.03-.41.42-.76.9-1.03 1.42-.27.53-.46 1.09-.56 1.67.68-.67 1.47-1.23 2.32-1.66.85-.43 1.77-.73 2.71-.89.95-.16 1.91-.17 2.86-.03.94.13 1.87.41 2.73.82a5.6 5.6 0 00-1.07-1.4c-.42-.41-.91-.75-1.43-1.01a5.768 5.768 0 00-3.44-.51z"/><path id="Layer" class="shp0" d="M56.61 42.6a.73.73 0 01-.83-.6c-.06-.39.2-.76.6-.82.39-.07.76.2.82.59.07.39-.2.76-.59.83z"/><path id="Layer" fill-rule="evenodd" class="shp0" d="M56.63 42.7c-.33.05-.65-.1-.83-.38a.835.835 0 01.03-.91.83.83 0 01.84-.35c.32.07.58.32.65.64.02.11.02.23 0 .34-.02.11-.07.21-.13.31-.07.09-.15.17-.24.23-.1.06-.21.1-.32.12zm-.24-1.43c-.24.04-.44.22-.5.46-.05.24.04.49.24.64.21.14.47.15.68.02.21-.13.32-.38.28-.62a.469.469 0 00-.09-.22c-.04-.07-.1-.12-.16-.17a.647.647 0 00-.45-.1v-.01z"/><path id="Layer" class="shp0" d="M60.41 41.96a.73.73 0 01-.83-.6c-.06-.39.2-.76.6-.82.39-.07.76.2.82.59.07.39-.2.76-.59.83z"/><path id="Layer" fill-rule="evenodd" class="shp0" d="M60.42 42.07c-.33.05-.65-.1-.83-.38a.835.835 0 01.03-.91.83.83 0 01.84-.35c.32.07.58.32.65.64.02.11.02.23 0 .34-.02.11-.07.21-.13.31-.07.09-.15.17-.24.23-.1.06-.21.1-.32.12zm-.24-1.43c-.24.04-.44.22-.5.46-.05.24.04.49.24.64.21.14.47.15.68.02.21-.13.32-.38.28-.62a.469.469 0 00-.09-.22.49.49 0 00-.16-.16.586.586 0 00-.44-.11l-.01-.01zm-1.96 4.76c-.26-.03-.51-.11-.74-.23-.23-.11-.45-.27-.62-.46-.18-.19-.33-.41-.43-.65v-.07l.3-.05v.05c.2.41.53.74.93.94.41.21.87.28 1.31.21.45-.07.86-.29 1.18-.62.32-.32.52-.74.58-1.19v-.05l.3-.05v.07c-.02.26-.09.52-.2.76-.1.23-.25.45-.44.64a2.24 2.24 0 01-1.39.65c-.25.06-.52.08-.78.05zm-1.62-1.31c.23.41.58.75 1.01.95.43.21.91.27 1.37.2.47-.08.9-.3 1.24-.63.34-.34.57-.76.65-1.23-.09.46-.32.88-.65 1.21-.34.33-.76.54-1.23.62-.46.07-.93.01-1.36-.19-.42-.21-.77-.53-1-.94l-.03.01z"/><path id="Layer" class="shp0" d="M59 45.46c-.27.06-.54.08-.81.04-.28-.03-.54-.11-.79-.23-.24-.13-.46-.29-.65-.49-.18-.21-.33-.44-.44-.69l-.06-.19.53-.09v.14c.19.37.5.68.88.86.38.19.8.26 1.22.19a1.992 1.992 0 001.65-1.67v-.15l.53-.09v.2a2.368 2.368 0 01-.64 1.46c-.18.19-.4.36-.65.48-.24.12-.5.2-.77.23z"/><path id="Layer" fill-rule="evenodd" class="shp0" d="M53.13 44.57a6.138 6.138 0 01.22-6.82 6.135 6.135 0 016.38-2.41c2.42.57 4.26 2.53 4.67 4.98.13.8.11 1.61-.08 2.39-.18.79-.51 1.53-.98 2.19a6.18 6.18 0 01-1.75 1.63c-.68.43-1.44.72-2.24.85-2.45.41-4.9-.7-6.22-2.81zm-.29-4.51c-.51 2.25.38 4.57 2.25 5.9a5.667 5.667 0 006.31.19 5.682 5.682 0 001.81-7.84c-.39-.63-.91-1.18-1.53-1.62-.61-.43-1.3-.74-2.03-.91a5.689 5.689 0 00-6.81 4.28z"/><path id="Layer" class="shp1" d="M74.97 42.11c-.82 3.16-4.05 5.05-7.22 4.23a5.916 5.916 0 01-4.23-7.23c.83-3.16 4.06-5.06 7.22-4.23 3.17.83 5.06 4.06 4.23 7.23z"/><path id="Layer" class="shp1" d="M70.66 34.94a5.68 5.68 0 00-2.32-.12c-.78.11-1.52.38-2.19.78-.67.4-1.25.94-1.72 1.57-.46.63-.79 1.35-.97 2.11 0 .13-.06.27-.09.4h.16c.27-.02.53-.07.79-.15.26-.09.51-.2.74-.33.23-.14.45-.3.64-.49.2-.19.37-.39.52-.62.06.11.14.22.22.31.08.1.17.2.27.28a2.372 2.372 0 00.64.41c0-.09 0-.18.01-.27 0-.1.01-.19.02-.28.01-.09.02-.18.04-.27.01-.09.03-.18.05-.27.02-.09 1.5 1.9 2.79 2.12a2.607 2.607 0 01-.19-.95 2.607 2.607 0 01.19-.95c.06-.15 1.49 3.06 3.17 3.29l-.09-.46c-.02-.15-.03-.31-.05-.47-.01-.15-.01-.31-.01-.46 0-.16.01-.31.02-.47.01-.16.49 2.15 1.65 2.53.19-.76.22-1.54.11-2.31a5.958 5.958 0 00-2.32-3.92c-.62-.47-1.33-.81-2.08-1.01z"/><path id="Layer" fill-rule="evenodd" class="shp0" d="M63.26 39.77v-.1c0-.13.06-.27.09-.41.19-.77.53-1.5 1-2.14a5.88 5.88 0 011.74-1.59c.68-.41 1.43-.68 2.22-.79.78-.12 1.58-.08 2.35.12s1.49.55 2.12 1.03c.63.48 1.17 1.07 1.57 1.76.41.68.68 1.43.8 2.21.12.79.09 1.59-.1 2.36v.05h-.11c-.85-.27-1.34-1.41-1.57-2.08 0 .11.01.22.02.33l.03.32c.02.11.03.22.05.33l.06.32v.13h-.13c-1.49-.21-2.79-2.5-3.14-3.17-.04.13-.07.27-.09.41-.01.14-.02.28-.01.42 0 .14.02.28.05.42.03.14.07.27.12.4l.07.16h-.17c-.27-.1-.53-.22-.78-.35a5.48 5.48 0 01-.72-.46c-.23-.17-.45-.35-.65-.55-.21-.2-.4-.41-.57-.64-.01.07-.03.15-.04.22-.01.07-.01.14-.02.22-.01.07-.01.15-.02.22v.35h-.12c-.11-.05-.22-.1-.33-.16-.1-.07-.2-.14-.3-.22-.09-.08-.18-.16-.26-.26-.08-.09-.15-.19-.22-.29-.15.22-.33.41-.53.59-.19.18-.41.33-.64.46-.23.13-.48.24-.73.32-.25.07-.52.12-.78.14l-.26-.08zM70.63 35a5.89 5.89 0 00-2.29-.13c-.76.11-1.49.38-2.15.77-.66.4-1.24.93-1.69 1.55-.46.62-.78 1.33-.96 2.08 0 .1 0 .19-.07.29h.06c.26-.02.52-.07.77-.16.25-.08.49-.19.71-.32.23-.13.44-.29.63-.48.19-.18.36-.38.5-.6l.08-.13.07.13c.06.1.13.19.2.28.07.09.15.17.24.25.08.08.17.15.26.21.1.07.2.13.3.18 0-.08 0-.17.01-.25 0-.09.01-.17.02-.25.01-.09.02-.17.04-.25.01-.09.03-.17.05-.25v-.18l.11.14c.17.23.35.44.55.64.19.21.4.4.62.58.21.18.44.34.68.49.24.15.49.29.74.41a2.363 2.363 0 01-.13-.91c0-.16.02-.31.06-.46.03-.15.08-.3.14-.44l.08-.17.08.17s1.38 2.8 2.92 3.21c-.03-.14-.06-.29-.08-.44-.02-.14-.03-.29-.04-.44-.01-.14-.01-.29-.01-.44l.03-.44.08-.44.1.44s.47 2 1.52 2.44a5.927 5.927 0 00-.71-4.38c-.39-.65-.9-1.23-1.5-1.69-.6-.46-1.29-.8-2.02-1.01z"/><path id="Layer" class="shp1" d="M63.56 39.7c.27-.02.53-.07.79-.15.26-.09.51-.2.74-.33.23-.14.45-.3.64-.49.2-.19.37-.39.52-.62.06.11.14.22.22.31.08.1.17.19.27.28a2.372 2.372 0 00.64.41v-.28l.03-.28.03-.28.06-.27c.02-.09 1.5 1.9 2.79 2.12a2.607 2.607 0 01-.19-.95 2.607 2.607 0 01.19-.95c.06-.15 1.49 3.06 3.17 3.29l-.09-.46c-.02-.15-.03-.31-.05-.47-.01-.15-.01-.31-.01-.46 0-.16.01-.31.02-.47.01-.16.49 2.15 1.65 2.53.18-.75.21-1.53.09-2.3-.12-.76-.38-1.5-.78-2.16-.4-.67-.92-1.25-1.54-1.71-.62-.47-1.32-.81-2.07-1.01a5.68 5.68 0 00-2.32-.12c-.78.11-1.52.38-2.19.78-.67.4-1.25.94-1.72 1.57-.46.63-.79 1.35-.97 2.11 0 .13-.06.27-.09.4l.17-.04z"/><path id="Layer" fill-rule="evenodd" class="shp0" d="M63.13 39.91v-.26c0-.14.06-.28.09-.41.19-.79.53-1.54 1.01-2.19.48-.66 1.08-1.21 1.78-1.63.69-.42 1.47-.7 2.27-.81.8-.12 1.62-.07 2.41.13.78.21 1.52.57 2.16 1.06.65.48 1.19 1.09 1.61 1.79.41.69.69 1.46.81 2.26.12.81.09 1.62-.1 2.41v.12l-.22.07h-.07c-.15-.06-.29-.14-.42-.23-.13-.1-.25-.2-.36-.31a2.24 2.24 0 01-.31-.38 2.78 2.78 0 01-.22-.42c0 .24.07.4.07.41l.07.32h-.32c-1.36-.19-2.57-2-3.08-2.94-.01.1-.02.21-.02.31 0 .11 0 .22.02.32.01.1.03.21.05.31.03.1.06.2.1.3l.17.38-.41-.07c-.26-.09-.5-.19-.74-.32-.24-.12-.48-.26-.7-.41-.22-.16-.43-.33-.62-.52-.2-.18-.38-.38-.55-.59 0 .05-.01.1-.01.14v.3c0 .04.01.09.01.14v.32l-.3-.1c-.11-.04-.21-.09-.31-.15-.1-.05-.2-.12-.29-.19-.09-.07-.17-.14-.25-.23-.08-.08-.15-.17-.22-.26-.16.2-.34.39-.54.56-.2.17-.42.31-.65.43-.23.12-.47.22-.72.29-.25.08-.51.12-.77.14l-.43-.09zm5.27-4.85a5.695 5.695 0 00-3.76 2.27c-.44.61-.76 1.3-.93 2.03v.11c.24-.03.47-.09.69-.17.23-.08.44-.18.64-.31.21-.13.39-.28.56-.44.18-.17.33-.35.46-.55l.2-.31.18.32c.05.08.1.15.15.22.05.07.11.14.17.2.06.07.12.13.19.19.07.05.14.11.21.16 0-.07.01-.13.02-.2 0-.07.01-.14.02-.2.01-.07.02-.14.04-.2.01-.07.02-.13.04-.2l.11-.43.28.35c.15.2.32.38.49.56.18.19.36.36.55.52.19.16.39.31.59.45.21.15.42.28.64.4-.04-.14-.06-.28-.07-.42-.01-.14-.01-.29 0-.43s.03-.28.07-.42c.03-.14.08-.27.14-.4l.2-.41.2.41s1.26 2.56 2.68 3.09a2.63 2.63 0 01-.06-.39c-.02-.14-.03-.27-.04-.4v-.4l.03-.4.2-1.08.24 1.07c.04.22.1.43.18.64.07.21.17.41.28.6.11.2.24.38.38.55.14.17.29.33.46.48a5.864 5.864 0 00-.77-4.2c-.39-.62-.89-1.16-1.47-1.59-.59-.44-1.25-.76-1.96-.95-.73-.19-1.49-.23-2.23-.12z"/><path id="Layer" class="shp0" d="M67.98 40.71a.72.72 0 01-1.39-.37.72.72 0 011.39.37z"/><path id="Layer" fill-rule="evenodd" class="shp0" d="M66.45 40.66c-.06-.33.1-.67.39-.84a.833.833 0 011.23.92c-.03.1-.08.2-.14.29-.07.08-.15.16-.24.21a.855.855 0 01-.62.1.822.822 0 01-.62-.68zm.35-.49c-.14.19-.16.46-.04.67.13.21.37.33.61.3.25-.04.45-.21.51-.45.02-.08.03-.16.02-.24a.895.895 0 00-.08-.23.69.69 0 00-.16-.18.625.625 0 00-.86.13z"/><path id="Layer" class="shp0" d="M71.7 41.68c-.1.39-.49.62-.88.52-.38-.1-.61-.5-.51-.88a.7.7 0 01.87-.51c.39.1.62.49.52.87z"/><path id="Layer" fill-rule="evenodd" class="shp0" d="M70.17 41.63c-.06-.33.1-.67.39-.84a.833.833 0 011.23.92c-.03.1-.08.2-.14.29-.07.08-.15.16-.24.21a.855.855 0 01-.62.1.822.822 0 01-.62-.68zm.35-.49c-.15.19-.16.46-.04.67.13.21.37.33.62.29a.597.597 0 00.51-.69.584.584 0 00-.08-.22.548.548 0 00-.16-.18.612.612 0 00-.85.13zm-3.07 3.32c-.22-.14-.42-.31-.58-.51-.17-.2-.3-.43-.38-.67-.09-.25-.13-.51-.13-.77v-.07l.3.08v.05c.03.44.2.86.49 1.2.28.34.67.58 1.1.7.43.11.88.08 1.29-.08.42-.16.77-.45 1.01-.82l.3.08v.06a2.188 2.188 0 01-1.15.99c-.24.1-.5.15-.76.15s-.51-.04-.76-.12c-.26-.05-.5-.14-.73-.27zm-.95-1.86c.05.47.23.91.54 1.27.3.36.71.62 1.17.74.46.11.94.09 1.38-.07.44-.17.82-.46 1.09-.85-.27.39-.65.68-1.09.84-.44.16-.92.19-1.37.07-.45-.12-.86-.38-1.16-.73-.31-.36-.5-.8-.54-1.27h-.02z"/><path id="Layer" class="shp0" d="M68.15 44.84c-.27-.05-.53-.15-.76-.29-.24-.14-.44-.32-.62-.53-.17-.22-.3-.46-.39-.72-.09-.25-.13-.53-.13-.8v-.2l.52.14v.15c.02.42.17.83.43 1.16a1.98 1.98 0 002.29.62c.39-.15.73-.42.96-.78l.06-.14.52.14-.08.18c-.13.24-.31.45-.51.63-.21.17-.44.32-.7.41-.25.1-.52.15-.79.16-.27 0-.54-.04-.8-.13z"/><path id="Layer" fill-rule="evenodd" class="shp0" d="M63.12 41.62c-.34-2.46.83-4.88 2.97-6.14a6.163 6.163 0 016.82.4 6.141 6.141 0 012.23 6.45c-.2.78-.56 1.51-1.05 2.15-.48.65-1.09 1.19-1.79 1.6-.69.4-1.46.67-2.26.78-.8.11-1.61.06-2.39-.14a6.146 6.146 0 01-4.53-5.1zm7.53-6.34c-2.23-.58-4.59.23-5.98 2.06a5.71 5.71 0 00-.38 6.32 5.716 5.716 0 005.69 2.76 5.682 5.682 0 004.13-8.51 5.69 5.69 0 00-1.48-1.65c-.59-.45-1.27-.78-1.99-.97l.01-.01z"/><path id="Layer" class="shp0" d="M52.26 41.88a6.776 6.776 0 00-3.57-3.2c-1.54-.6-3.24-.62-4.79-.05a6.766 6.766 0 00-3.64 3.12 6.824 6.824 0 00-.67 4.75h.07l.14-.06-.18.22a35.615 35.615 0 001.33 3.43c.25.56.51 1.11.79 1.66.28.54.57 1.08.88 1.61l2.79-1.07-3-6.88.24-.1s-.49-2.35-.17-2.93c.04.23.09.47.14.7.05.23.1.46.16.69.05.24.11.47.17.69.07.23.13.46.2.69l3-1.21s-.77-2.13-.91-2.78c0 0 1.07 2.22 1.68 2.44l2.4-.8 2.38 7 2.8-1.08a34.42 34.42 0 00-.95-3.48c-.18-.57-.39-1.13-.6-1.69-.22-.57-.45-1.12-.69-1.67z"/><path id="Layer" class="shp1" d="M48.55 50.85a5.916 5.916 0 01-7.65-3.41 5.91 5.91 0 013.4-7.65 5.923 5.923 0 014.25 11.06z"/><path id="Layer" class="shp0" d="M44.22 39.62c-.66.26-1.27.63-1.8 1.1a6.05 6.05 0 00-1.31 1.66 6.1 6.1 0 00-.65 2c-.1.7-.07 1.42.08 2.11h.06l2.45-1c-.04-.22-.06-.44-.08-.66a7.343 7.343 0 010-1.33c.02-.22.04-.44.08-.66l.12.61c.04.2.09.41.14.61l.15.6c.05.2.11.4.17.6l2.66-1.06s-.67-1.87-.8-2.44c0 0 .94 1.95 1.47 2.14l4.65-1.54c-.34-.63-.8-1.19-1.34-1.66-.55-.48-1.17-.84-1.84-1.09a6.1 6.1 0 00-2.11-.38c-.72 0-1.43.14-2.1.39z"/><path id="Layer" fill-rule="evenodd" class="shp0" d="M48.62 51c-2.32.89-4.95.3-6.66-1.5a6.147 6.147 0 014.62-10.37c2.48.07 4.68 1.62 5.57 3.94.29.75.43 1.55.41 2.36-.03.81-.21 1.6-.53 2.34-.33.73-.8 1.4-1.39 1.95-.58.56-1.27.99-2.02 1.28zm-7.89-5.84a5.683 5.683 0 003.38 5.35 5.685 5.685 0 006.43-9.12c-.51-.54-1.13-.97-1.81-1.28a5.651 5.651 0 00-4.35-.11 5.68 5.68 0 00-3.65 5.16z"/><path id="Layer" class="shp0" d="M40.91 42.74l6.78-2.52 1.19 3.17-6.79 2.53-1.18-3.18zm1.96 3.74l1.39.68c.05.02.1.03.15.04.05.01.1.02.15.02.05 0 .1-.01.15-.02.05-.01.1-.02.15-.04.4-.15.71-.44.56-.85-.04-.09-.09-.18-.16-.26a.739.739 0 00-.25-.17.727.727 0 00-.29-.07c-.1 0-.2.01-.3.05l-1.08.42m6.49-2.47s-.5 1.26-.58 1.44c-.02.05-.05.09-.08.14-.03.04-.06.08-.1.11-.04.04-.08.07-.12.1-.04.03-.09.05-.14.07-.4.15-.82.15-1-.26-.04-.1-.05-.2-.05-.3 0-.1.03-.2.07-.29.04-.1.1-.18.17-.25.08-.07.17-.12.26-.16l1.11-.41"/><path id="Layer" fill-rule="evenodd" class="shp0" d="M47.16 49.4a2.218 2.218 0 01-1.47-.4c-.22-.15-.4-.34-.55-.55v-.06l.29-.11c.28.35.67.59 1.1.71.43.11.88.09 1.3-.07.42-.16.77-.45 1.02-.82.24-.37.36-.81.34-1.26v-.05l.29-.11v.07c.04.26.03.53-.03.79s-.16.5-.3.73c-.14.22-.32.42-.54.57-.21.16-.45.28-.7.36-.24.11-.49.18-.75.2zm-1.86-.95c.2.22.43.39.69.52-.26-.13-.49-.31-.69-.53v.01zm.69.52c.15.07.31.13.48.17.45.11.93.08 1.36-.09.44-.16.81-.46 1.07-.84.26-.39.4-.84.4-1.31 0 .46-.14.92-.4 1.3s-.64.68-1.07.85a2.332 2.332 0 01-1.84-.08z"/><path id="Layer" class="shp0" d="M48 49.3c-.25.11-.52.19-.79.21-.27.02-.55-.01-.81-.08-.27-.07-.51-.19-.74-.35-.22-.16-.41-.35-.57-.58l-.1-.17.5-.19.07.13c.27.33.63.56 1.04.67.4.11.83.09 1.23-.06.39-.15.73-.43.96-.78.23-.35.34-.77.32-1.19v-.15l.5-.19v.19c.04.27.02.55-.03.81-.06.27-.17.52-.31.75-.15.23-.33.44-.55.6-.22.17-.46.3-.72.38z"/><path id="Layer" class="shp1" d="M81.1 51.37a5.918 5.918 0 01-7.61 3.5A5.913 5.913 0 0170 47.26a5.898 5.898 0 017.6-3.49 5.904 5.904 0 013.5 7.6z"/><path id="Layer" class="shp0" d="M77.66 43.58a6.15 6.15 0 00-2.08-.36c-.71 0-1.41.13-2.07.38-.67.25-1.28.61-1.82 1.07-.54.47-.99 1.02-1.33 1.64l2.47.9s1.21-1.77 1.76-2c-.11.18-.21.36-.31.54-.1.18-.2.36-.3.55-.1.18-.19.37-.28.56-.09.18-.18.37-.27.56l2.69 1s.73-1.85 1-2.36c0 0-.58 2.08-.31 2.58l4.51 1.91c.16-.7.2-1.42.11-2.13-.09-.71-.3-1.4-.64-2.04a6.006 6.006 0 00-3.13-2.8zm-5.5 4.2s.51 1.24.59 1.42c.02.05.05.09.08.13.03.05.06.08.1.12.04.03.08.07.12.09.05.03.09.05.14.07.4.15.82.14 1-.27.04-.1.05-.2.05-.3-.01-.1-.03-.2-.07-.29a.942.942 0 00-.18-.25.869.869 0 00-.26-.16L72.62 48m6.5 2.35l-1.38.65a.88.88 0 01-.15.05c-.05.01-.1.01-.15.01-.05 0-.1 0-.15-.01a.88.88 0 01-.15-.05c-.4-.15-.71-.43-.56-.83.04-.1.09-.18.16-.26.07-.07.15-.13.25-.18.09-.04.19-.06.29-.07.1 0 .2.01.3.05l1.08.4"/><path id="Layer" fill-rule="evenodd" class="shp0" d="M74.13 53.13c-.25-.07-.49-.19-.7-.34a2.21 2.21 0 01-.53-.57c-.15-.21-.25-.45-.31-.71a2.21 2.21 0 01-.05-.77v-.07l.29.11v.05c-.02.45.11.89.35 1.26.25.37.61.66 1.03.81.42.16.88.18 1.31.05.43-.12.81-.37 1.09-.72l.29.11v.06c-.15.21-.34.4-.55.54-.21.15-.45.26-.7.33-.25.06-.51.09-.77.06-.26-.02-.51-.09-.75-.2zm-1.46-2.29c0 .47.14.94.41 1.33.27.39.65.68 1.09.85.45.16.93.18 1.39.06.46-.12.87-.38 1.17-.74-.31.34-.71.59-1.16.7a2.303 2.303 0 01-2.42-.9c-.27-.38-.41-.83-.42-1.29l-.06-.01z"/><path id="Layer" class="shp0" d="M74.09 53.24c-.26-.08-.51-.2-.73-.36-.22-.17-.41-.37-.56-.6a2.27 2.27 0 01-.32-.75c-.07-.26-.08-.54-.05-.81v-.19l.5.19v.15c-.02.42.1.84.33 1.19.24.35.58.62.97.77.4.15.83.16 1.24.05.41-.12.77-.36 1.03-.69l.07-.13.5.19-.1.17c-.15.22-.34.42-.56.58-.22.16-.47.28-.73.35-.26.08-.53.1-.81.08-.27-.01-.53-.08-.78-.19z"/><path id="Layer" fill-rule="evenodd" class="shp0" d="M69.42 49.54a6.14 6.14 0 013.57-5.81 6.153 6.153 0 016.74 1.08 6.152 6.152 0 011.58 6.64c-.28.76-.71 1.45-1.26 2.04a5.88 5.88 0 01-1.94 1.4c-.73.34-1.52.53-2.33.56-.8.03-1.6-.1-2.36-.38a6.124 6.124 0 01-4-5.53zm1.95-4.07a5.696 5.696 0 00-1 6.24 5.691 5.691 0 0010.86-2.59c-.03-.75-.2-1.48-.52-2.16A5.643 5.643 0 0077.52 44c-2.16-.8-4.59-.22-6.15 1.47zM57.4 57.32a6.154 6.154 0 01-6.76-.97 6.144 6.144 0 01-1.68-6.61 6.127 6.127 0 015.46-4.09 6.145 6.145 0 014.9 10.24c-.54.59-1.19 1.08-1.92 1.43zm-5.1-10.67a5.67 5.67 0 00-3.23 5.43c.12 2.3 1.61 4.3 3.78 5.07 2.17.77 4.59.15 6.13-1.56a5.694 5.694 0 00.9-6.26c-.32-.67-.77-1.27-1.33-1.77-.55-.5-1.2-.88-1.9-1.13-.71-.25-1.45-.35-2.19-.31-.75.04-1.48.22-2.15.54l-.01-.01z"/><path id="Layer" class="shp1" d="M57.18 56.86a5.92 5.92 0 01-7.9-2.8 5.916 5.916 0 012.79-7.89 5.924 5.924 0 115.11 10.69z"/><path id="Layer" class="shp0" d="M53.44 53.48a.72.72 0 01-.96-.34c-.18-.36-.02-.78.34-.96a.72.72 0 11.62 1.3z"/><path id="Layer" fill-rule="evenodd" class="shp0" d="M53.49 53.58c-.3.14-.66.09-.91-.13a.833.833 0 01.51-1.45c.33-.02.64.17.79.47.05.1.07.21.08.31 0 .11-.01.22-.05.32-.03.11-.09.2-.16.28-.07.09-.16.15-.26.2zm-.62-1.3c-.22.1-.36.33-.35.58.01.25.17.46.4.55.24.08.5.01.66-.17.17-.18.21-.45.1-.67a.522.522 0 00-.14-.19.571.571 0 00-.21-.13.66.66 0 00-.24-.03c-.08 0-.16.02-.23.06h.01z"/><path id="Layer" class="shp0" d="M56.91 51.82a.716.716 0 11-.62-1.29.716.716 0 11.62 1.29z"/><path id="Layer" fill-rule="evenodd" class="shp0" d="M57 51.93c-.31.15-.67.1-.93-.13a.822.822 0 01-.23-.9c.11-.32.41-.55.75-.56.34-.02.66.17.8.48.05.1.07.21.08.31 0 .11-.01.22-.05.32-.03.11-.09.2-.16.28-.07.09-.16.15-.26.2zm-.62-1.3c-.22.1-.36.33-.35.58.01.25.17.46.4.55.24.08.5.01.66-.17.17-.18.21-.45.1-.67a.596.596 0 00-.14-.21.71.71 0 00-.22-.13.566.566 0 00-.26-.03.55.55 0 00-.24.07l.05.01zm-.59 5.09a2.27 2.27 0 01-1.5-.28 2.24 2.24 0 01-.59-.51v-.06l.28-.13c.31.32.71.53 1.15.61.44.08.89.02 1.29-.17s.73-.5.94-.89c.22-.39.3-.84.25-1.28v-.05l.28-.13v.07c.06.26.07.52.03.79-.03.26-.12.51-.24.74-.13.24-.29.45-.49.62-.2.18-.42.31-.67.41-.23.13-.47.21-.73.26zm-1.93-.81c.34.33.77.55 1.23.63.47.07.94.01 1.37-.2.43-.2.78-.53 1.01-.94.23-.41.33-.88.29-1.35.04.47-.06.94-.29 1.34a2.27 2.27 0 01-2.36 1.13c-.47-.08-.89-.29-1.23-.62l-.02.01z"/><path id="Layer" class="shp0" d="M56.56 55.56a2.35 2.35 0 01-2.38-.02c-.24-.15-.45-.33-.62-.55l-.11-.16.55-.23.08.12a1.982 1.982 0 002.31.42c.38-.18.69-.48.89-.85.21-.37.28-.79.23-1.21v-.14l.48-.23.06.19c.05.27.06.55.02.83-.05.27-.14.53-.27.78a2.468 2.468 0 01-1.24 1.05z"/><path id="Layer" class="shp1" d="M54.25 45.91c-.05.52-.14 1.03-.26 1.54s-.27 1.01-.45 1.5-.39.97-.63 1.43c-.24.46-.51.91-.8 1.34-2 2.89-.8 4.85.91 7.72 0 0-6.08-4.74-3.71-10.14l.03-.06c.01-.02.02-.03.03-.05l.03-.06c.02-.01.03-.03.04-.05.22-.45.5-.88.83-1.26.34-.37.72-.71 1.14-.99.42-.27.88-.49 1.36-.65.48-.16.98-.25 1.48-.27z"/><path id="Layer" fill-rule="evenodd" class="shp0" d="M53.83 60.35l-.94-.73c-.06 0-6.18-4.91-3.78-10.4l.03-.06c.02-.03.03-.05.04-.07.01-.02.03-.04.04-.06.01-.02.03-.04.04-.06l.14-.22c.15-.27.31-.53.5-.77.19-.25.39-.48.61-.7.22-.21.46-.41.7-.59.25-.18.52-.34.79-.48.18-.08.36-.15.54-.22a5.67 5.67 0 011.13-.26c.19-.03.39-.04.58-.05h.25v.25c-.05.53-.14 1.05-.26 1.57s-.27 1.03-.46 1.53a12.656 12.656 0 01-1.46 2.83c-1.89 2.77-.78 4.64.91 7.47l.6 1.02zm-2.38-13.28c-.23.17-.44.36-.65.56-.2.2-.39.42-.56.65-.17.23-.32.47-.46.72l-.15.23c-.01.02-.02.03-.03.05-.01.01-.02.03-.03.04-.01.02-.02.04-.02.05-.01.02-.02.03-.03.05-1.63 3.73 1 7.19 2.55 8.84-1.26-2.25-1.87-4.12-.14-6.65.27-.41.53-.83.75-1.27.23-.44.43-.88.6-1.34.18-.46.32-.93.44-1.41.12-.48.22-.96.28-1.45-.16.01-.31.03-.47.06-.16.02-.31.06-.46.1-.15.04-.31.08-.45.14-.15.05-.3.11-.44.18-.25.13-.5.28-.73.45z"/><path id="Layer" fill-rule="evenodd" class="shp0" d="M53.06 59.52l-.19.13c-.06 0-6.21-4.93-3.79-10.45.01-.02.02-.04.03-.07a.21.21 0 00.04-.06c.01-.02.03-.05.04-.07.01-.02.03-.04.04-.06l.14-.22c.15-.27.32-.53.51-.78.19-.24.39-.47.61-.69.23-.21.46-.41.72-.59.25-.18.51-.34.79-.48.18-.08.36-.16.54-.22.19-.07.38-.12.57-.17.19-.04.38-.08.57-.1.2-.03.39-.04.59-.05h.29v.29c-.05.53-.14 1.06-.26 1.58s-.27 1.03-.46 1.53a12.656 12.656 0 01-1.46 2.83c-1.88 2.75-.77 4.61.92 7.43l-.24.22zm-.86-12.87c-.25.13-.49.28-.72.45-.23.16-.45.35-.65.55-.2.2-.39.41-.56.64-.17.22-.32.46-.46.71l-.15.23c-.01.02-.02.03-.03.05-.01.01-.02.03-.03.04-.01.02-.02.04-.02.05-.01.02-.02.03-.03.05C48 53 50.29 56.27 51.88 58c-1.16-2.14-1.66-4 0-6.42.28-.4.53-.82.76-1.25.23-.43.43-.87.61-1.32.18-.46.33-.92.46-1.39.12-.47.22-.95.29-1.43-.16.01-.31.03-.46.05-.16.03-.31.06-.46.1-.15.04-.3.08-.45.13-.14.06-.29.11-.43.18z"/><path id="Layer" class="shp1" d="M58.91 50.29c.4.28 1.91 1.53 2.67 5.08 0 0-.8-4.71-1.64-6.22v-.09c-.22-.56-.53-1.07-.93-1.52a5.047 5.047 0 00-3.11-1.64c-.59-.07-1.2-.04-1.78.1v.08c.34.41.7.8 1.08 1.18.37.38.76.75 1.16 1.1.4.35.81.69 1.24 1.01.42.33.86.63 1.31.92z"/><path id="Layer" fill-rule="evenodd" class="shp0" d="M61.81 55.33l-.44.08c-.73-3.39-2.16-4.64-2.58-4.95-.45-.3-.89-.61-1.32-.94-.42-.33-.84-.68-1.24-1.04s-.79-.74-1.16-1.13c-.37-.39-.73-.79-1.07-1.21v-.09l-.12-.26.29-.05c.61-.14 1.23-.16 1.85-.08.61.08 1.21.28 1.75.57.55.3 1.04.69 1.45 1.15.41.47.73 1.01.95 1.59v.06c.83 1.54 1.61 6.11 1.64 6.3zm-7.32-9.2a27.266 27.266 0 002.16 2.14 27.13 27.13 0 002.4 1.86c.17.13.34.28.49.43.16.15.31.31.45.48.14.16.27.34.38.52.12.19.23.38.33.57-.05-.25-.11-.49-.17-.74-.07-.24-.14-.48-.22-.72-.08-.24-.16-.48-.25-.71-.1-.24-.2-.47-.3-.7a4.7 4.7 0 00-.81-1.45c-.35-.43-.78-.8-1.26-1.08-.48-.29-1-.48-1.55-.59-.55-.1-1.11-.1-1.66-.01h.01z"/><path id="Layer" class="shp0" d="M70.19 48zM60 49s.17-.17 0-.55c.05.03.11.05.16.07.06.01.12.02.18.02s.12-.01.18-.02c.05-.02.11-.04.16-.07.03-.03.05-.07.07-.11.02-.03.04-.07.06-.11l.03-.12c.01-.05.02-.09.02-.13l.15-.1s.21.33.42.26c0 0 .4 0 .4-.4.02.01.03.01.05.02h.11c.02-.01.03-.01.05-.02.02-.01.39.7 1.09-.35 0 0 .41.83 1.08 0 .04 0 .07 0 .11-.01.03 0 .07-.01.11-.02l.1-.03c.03-.01.07-.02.1-.04s-.15.5.29.58c0 0 .38.08.51-.4.04.05.09.1.15.14.06.03.12.06.19.08.06.02.13.03.2.03.07-.01.14-.02.2-.04s.08.56.57.18c0 0 .25.19.42.11-.01.03-.01.06-.01.09s0 .06.01.08c0 .03.01.06.02.09s.02.05.03.08l2.65-.14c.09-.06.52-.33.4-.77 0 0-.2-.62-.71-.67 0 0 .42-.94-.47-1.08 0 0-.26 0-.28-.05.03-.07.04-.14.04-.21.01-.07 0-.14-.02-.21a.496.496 0 00-.08-.2 1.07 1.07 0 00-.14-.16.622.622 0 00-.26-.09.615.615 0 00-.27 0c-.09.01-.18.04-.26.09-.08.04-.15.1-.21.17s.11-1.24-.75-.83c-.04.02-.08.04-.12.07-.04.02-.08.04-.11.06-.04.03-.08.05-.12.08-.04.02-.07.04-.11.07-.04.03-.05-.93-.51-1 0 0-.39 0-.85.69-.03-.02-.06-.03-.09-.05a.572.572 0 01-.08-.07.27.27 0 01-.08-.07c-.03-.03-.05-.05-.07-.08-.02-.03-.14-.51-.46-.55-.09 0-.17.02-.25.04-.08.02-.16.06-.24.1a1.004 1.004 0 00-.35.36c-.04.07-.2-.52-1.11-.21-.11.05-.22.12-.3.21-.09.08-.16.19-.21.3-.05.11-.08.23-.09.36-.01.12.01.24.05.36 0 0-.48-.91-1-.3 0 0-.59.52-.32 1 0 0-.8-.24-1.1.11 0 0-.5.57 0 1 0 0-.77 0-.74.61 0 .59.05.54.29.57 0 0 .4.26.28.41"/><path id="Layer" class="shp1" d="M70.2 50.36a5.92 5.92 0 01-6.16 5.69 5.93 5.93 0 01-5.68-6.16 5.912 5.912 0 016.16-5.68c3.27.13 5.81 2.88 5.68 6.15z"/><path id="Layer" class="shp0" d="M63.25 50.42c-.02.4-.35.71-.75.69a.717.717 0 01-.69-.75c.02-.4.36-.7.75-.69.4.02.71.36.69.75z"/><path id="Layer" fill-rule="evenodd" class="shp0" d="M62.49 51.22a.831.831 0 01-.52-1.44c.25-.23.6-.28.91-.14.3.14.49.45.48.78-.01.11-.03.22-.08.32-.04.1-.11.18-.19.26a1 1 0 01-.28.17.86.86 0 01-.32.05zm.06-1.44a.609.609 0 00-.58.35c-.11.22-.07.49.1.67a.6.6 0 00.66.16c.23-.08.39-.29.4-.54 0-.08-.01-.16-.03-.23a.72.72 0 00-.12-.21.847.847 0 00-.19-.14.865.865 0 00-.23-.06h-.01z"/><path id="Layer" class="shp0" d="M67.09 50.58c-.02.4-.35.71-.75.69a.712.712 0 01-.69-.75c.02-.4.35-.7.75-.69.4.02.71.36.69.75z"/><path id="Layer" fill-rule="evenodd" class="shp0" d="M66.33 51.39a.843.843 0 01-.54-1.46c.25-.23.62-.28.93-.14.31.14.5.46.48.8-.01.11-.03.22-.08.32-.04.1-.11.18-.19.26a1 1 0 01-.28.17.86.86 0 01-.32.05zm.06-1.44a.609.609 0 00-.58.35c-.11.22-.07.49.1.67a.6.6 0 00.66.16c.23-.08.39-.29.4-.54 0-.08-.01-.16-.03-.23a.72.72 0 00-.12-.21.847.847 0 00-.19-.14.865.865 0 00-.23-.06h-.01zm-2.11 4.36c-.26.01-.53-.03-.78-.11s-.49-.2-.69-.37a2.14 2.14 0 01-.53-.59c-.13-.22-.23-.47-.28-.73v-.07h.31v.05c.13.42.38.79.73 1.06.34.28.77.43 1.21.45.44.02.87-.1 1.24-.34.37-.23.66-.58.82-.99v-.05h.31v.07c-.07.25-.18.48-.33.69-.15.21-.34.4-.55.54-.21.15-.45.26-.7.32-.24.07-.5.09-.76.07zm-2.09-1.73c.14.45.42.85.79 1.13.38.29.83.46 1.3.48.48.02.94-.11 1.34-.36.4-.25.71-.62.89-1.06-.18.43-.49.8-.89 1.05-.39.25-.85.37-1.32.35-.47-.02-.92-.19-1.29-.47-.37-.28-.65-.67-.79-1.12h-.03z"/><path id="Layer" class="shp0" d="M64.28 54.42c-.27.01-.55-.04-.81-.12-.25-.09-.5-.22-.71-.4-.21-.17-.39-.38-.54-.61-.14-.23-.24-.49-.29-.76v-.2h.54v.15c.11.41.35.77.68 1.03.33.26.74.42 1.16.43.42.02.84-.09 1.19-.32.35-.24.62-.57.77-.97v-.15h.53v.2c-.07.27-.19.52-.35.75-.16.22-.36.42-.59.57-.23.16-.49.28-.76.34-.27.07-.54.09-.82.06z"/><path id="Layer" fill-rule="evenodd" class="shp0" d="M64.19 56.37a6.139 6.139 0 01-3.88-10.66 6.13 6.13 0 016.74-1.04 6.135 6.135 0 012.97 8.16c-.34.73-.82 1.39-1.42 1.93-.59.55-1.29.97-2.04 1.25-.76.27-1.57.39-2.37.36zm-4.89-8.53a5.69 5.69 0 00.96 6.25 5.693 5.693 0 009.88-3.6 5.62 5.62 0 00-.34-2.19 5.673 5.673 0 00-2.94-3.21c-.67-.32-1.4-.5-2.15-.53-2.3-.1-4.44 1.19-5.41 3.28z"/><path id="Layer" class="shp1" d="M68 63.33s2.57 4.38 3.32 5.78c.15.1.29.2.44.31.14.1.28.21.42.32.14.11.28.23.42.34.13.12.27.24.4.36s1.69 1.85-.7.51c0 0 2.78 3.58-.84.54 0 0 2.34 4.42-.73.59 0 0 1.31 5.08-1.47-.64 0 0-1.08 2.17-1.39 1.22-.14-.44.7-1.5.32-2.32-.2-.37-.41-.73-.63-1.09-.22-.35-.45-.7-.69-1.05-.24-.34-.48-.68-.74-1.02-.25-.33-.51-.66-.78-.98L68 63.33z"/><path id="Layer" fill-rule="evenodd" class="shp0" d="M69.23 71.93c-.29.52-.75 1.19-1.15 1.19-.12 0-.33-.05-.44-.4a.966.966 0 01-.01-.24c0-.08.01-.15.02-.23.01-.08.03-.16.06-.23.02-.08.05-.15.09-.22.06-.1.11-.21.15-.32.03-.11.06-.23.08-.35.02-.11.02-.23.02-.35-.01-.12-.02-.23-.05-.35-.2-.36-.41-.71-.62-1.06-.22-.35-.44-.7-.67-1.04-.23-.33-.47-.67-.72-.99-.24-.33-.5-.65-.76-.97l-.23-.15L68.09 63l.15.26s2.52 4.31 3.3 5.74c.14.1.28.2.42.31.14.1.27.21.4.32.14.11.27.22.4.34.13.11.25.23.38.35.77.84.65 1.1.62 1.19-.01.03-.03.06-.06.08-.02.03-.05.05-.07.07-.03.01-.07.03-.1.03-.03.01-.07.01-.1.01-.04 0-.07 0-.11-.01-.04 0-.07-.01-.11-.02l-.11-.03c-.03-.01-.07-.03-.1-.04.63.93.53 1.13.49 1.22-.01.03-.03.05-.05.07l-.06.06c-.03.01-.06.02-.08.03-.03.01-.06.01-.09.01-.16 0-.41-.09-1.11-.62.53 1.14.41 1.33.37 1.41-.01.02-.03.04-.04.06-.02.01-.04.03-.06.04-.02.01-.04.02-.07.03-.02.01-.05.01-.07.01-.15 0-.37-.08-1.09-.92.03.11.06.22.08.33.01.11.02.22.02.33 0 .11-.01.22-.02.33-.02.11-.05.22-.08.33-.02.01-.03.02-.05.03-.02.01-.04.02-.06.02-.02.01-.05.01-.07.01h-.06c-.19 0-.46 0-1.67-2.45zm.01-1l.2.41c.09.21.19.43.3.63.1.21.21.42.32.63.11.2.23.4.35.6.12.2.25.4.38.59-.01-.14-.03-.28-.05-.42-.02-.14-.04-.27-.07-.41a4.96 4.96 0 00-.08-.41c-.03-.14-.06-.27-.1-.41l-.26-1 .65.81c.09.11.18.22.27.32.09.11.18.22.27.32.1.11.19.21.29.31.09.1.19.2.29.3-.05-.14-.11-.27-.17-.41-.06-.14-.12-.27-.18-.41-.06-.13-.13-.26-.19-.4l-.21-.39-.54-1 .88.74c.11.09.22.19.34.28.11.09.23.18.35.27.11.08.23.17.35.25.12.08.25.16.37.24-.06-.11-.13-.22-.2-.33l-.21-.33c-.07-.11-.15-.21-.23-.32-.07-.1-.15-.21-.23-.31l-.68-.87 1 .54.21.12c.07.04.15.07.22.11.07.03.15.07.22.1.08.03.15.06.23.09-.03-.05-.07-.1-.1-.16-.04-.05-.07-.1-.11-.15-.04-.04-.08-.09-.12-.14-.04-.05-.08-.09-.12-.14-.12-.12-.25-.23-.38-.34a5.7 5.7 0 00-.39-.33c-.13-.11-.26-.22-.4-.32-.13-.1-.27-.2-.41-.3-.77-1.29-2.73-4.63-3.3-5.59l-2.36 2.48c.25.31.5.63.74.96.24.32.47.65.7.99.22.33.44.67.65 1.01.22.34.42.69.62 1.04.05.15.09.3.11.46.02.15.03.31.02.46-.01.16-.04.31-.08.47-.05.15-.11.29-.18.43l-.06.15c-.02.05-.04.1-.05.15l-.03.16c-.01.05-.02.11-.02.16v.08c.1-.1.2-.2.29-.3.09-.11.18-.22.26-.33.07-.12.15-.24.21-.36.07-.12.13-.25.18-.38l.24-.4z"/><path id="Layer" class="shp1" d="M70.3 64.9s-2.91 4.16-3.87 5.43c-.03.17-.07.34-.11.51-.03.17-.08.33-.12.5-.04.17-.09.33-.14.5-.05.16-.1.33-.16.49-.06.16-1 2.31-.76-.43 0 0-2.09 4-.84-.53 0 0-3 4-.85-.42 0 0-4.07 3.31 0-1.61 0 0-2.42-.08-1.69-.76.34-.31 1.66 0 2.24-.68.25-.34.49-.68.72-1.03.23-.35.46-.7.67-1.06.22-.36.43-.73.62-1.1.2-.37.39-.74.57-1.12l3.72 1.31z"/><path id="Layer" fill-rule="evenodd" class="shp0" d="M64 73.79c-.02 0-.04 0-.07-.01-.02 0-.04-.01-.06-.02a.218.218 0 01-.05-.04c-.02-.02-.04-.03-.05-.05-.09-.12-.16-.34.07-1.33-.53.61-.89.93-1.1.93-.02 0-.05 0-.07-.01-.02 0-.05-.01-.07-.02-.02-.02-.04-.03-.05-.05a.12.12 0 01-.05-.05c-.07-.11-.16-.26.36-1.41-.08.07-.16.13-.25.19s-.18.11-.27.16c-.1.05-.19.09-.29.13l-.3.09c-.03 0-.06 0-.09-.01s-.05-.02-.08-.03c-.03-.02-.05-.04-.07-.06a.18.18 0 01-.05-.07c-.08-.18-.19-.41 1.53-2.55-.65-.05-1.43-.2-1.57-.58-.02-.05-.02-.1-.02-.15 0-.05.01-.1.03-.15.01-.05.04-.1.07-.14.03-.04.07-.07.11-.1.07-.04.14-.08.21-.11.07-.03.15-.06.22-.07.08-.02.16-.04.23-.05h.24c.12.01.24 0 .35-.01.12-.02.24-.04.35-.08.11-.04.22-.08.33-.14.1-.06.2-.12.29-.2.24-.33.48-.67.71-1.01.22-.34.44-.69.65-1.04.22-.35.42-.71.61-1.07.2-.36.38-.73.56-1.1l.06-.24 4.25 1.45-.17.24s-2.86 4.09-3.84 5.4c-.03.17-.07.34-.1.51-.04.17-.08.33-.13.5-.04.17-.09.33-.14.5-.05.16-.1.33-.16.49-.45 1.06-.73 1.06-.83 1.06-.02 0-.04 0-.06-.01-.03 0-.05-.01-.07-.02-.02 0-.03-.01-.05-.03-.02-.01-.04-.02-.05-.04-.03-.04-.05-.08-.08-.12-.02-.05-.04-.09-.05-.14-.01-.05-.02-.1-.03-.14v-.15c-.57 1-.8 1-.89 1l-.02-.05zm.83-3.45l-.31 1.11-.12.42c-.03.14-.07.28-.1.42l-.09.43c-.02.14-.05.29-.07.43.08-.11.15-.21.22-.32l.21-.33c.07-.11.13-.22.2-.34.06-.11.12-.22.18-.34l.51-1-.09 1.1c-.01.08-.01.17-.02.25v.5c.01.08.01.17.02.25.03-.05.06-.1.1-.16.03-.05.06-.1.08-.16.03-.05.06-.11.09-.16.02-.06.05-.11.07-.17.05-.16.11-.33.15-.49.05-.17.1-.33.14-.5.04-.17.08-.34.12-.5.04-.17.07-.34.1-.51v-.05c.81-1.07 3.05-4.27 3.69-5.18l-3.24-1.11c-.18.36-.37.72-.57 1.08-.2.35-.4.7-.62 1.05-.21.34-.43.68-.65 1.02-.23.34-.46.67-.7 1a2.489 2.489 0 01-.76.47c-.14.05-.28.08-.43.11-.15.02-.3.03-.45.02-.05 0-.11 0-.16.01-.05 0-.11.01-.16.02s-.11.02-.16.04a.88.88 0 00-.15.05l-.06.07c.13.05.25.1.39.14.13.04.26.07.39.1.14.02.27.04.41.05.14.01.27.01.41.01h.46l-.29.35c-.15.17-.31.35-.45.53-.15.19-.29.37-.43.56-.14.19-.27.38-.4.57-.13.19-.26.39-.38.59.12-.07.24-.15.36-.23.12-.08.23-.16.35-.24.11-.08.22-.17.33-.26l.33-.27.81-.66-.46.93c-.06.13-.12.26-.17.39-.06.12-.12.25-.17.39l-.15.39c-.05.13-.1.27-.14.4.1-.11.21-.21.31-.32.1-.11.19-.22.29-.34.1-.11.19-.22.29-.34.09-.11.18-.23.27-.35l.67-.92z"/><path id="Layer" class="shp1" d="M75.98 59.27a6.027 6.027 0 01-6.37 5.69 6.043 6.043 0 01-5.69-6.38 6.035 6.035 0 016.38-5.68c3.33.19 5.87 3.04 5.68 6.37z"/><path id="Layer" fill-rule="evenodd" class="shp0" d="M69.6 65.2a6.248 6.248 0 01-6.07-6.34 6.253 6.253 0 016.25-6.16c3.42 0 6.2 2.75 6.25 6.16a6.248 6.248 0 01-6.07 6.34h-.36zm.4-12.07c-3.18.09-5.7 2.72-5.65 5.9.05 3.18 2.64 5.74 5.82 5.74s5.77-2.56 5.82-5.74a5.814 5.814 0 00-5.65-5.9H70z"/><path id="Layer" class="shp0" d="M68.97 58.64a.661.661 0 11-.93-.94.661.661 0 01.93.94z"/><path id="Layer" fill-rule="evenodd" class="shp0" d="M67.95 58.72a.792.792 0 01-.18-.86.796.796 0 011.47 0 .792.792 0 01-.44 1.03.73.73 0 01-.3.06c-.1 0-.2-.02-.29-.06-.1-.04-.19-.1-.26-.17zm.94-.92a.541.541 0 00-.58-.12c-.2.08-.33.27-.33.49 0 .22.13.41.33.49.2.08.43.03.58-.12a.62.62 0 00.11-.17c.02-.07.04-.13.04-.2a.653.653 0 00-.05-.2.452.452 0 00-.11-.17h.01z"/><path id="Layer" class="shp0" d="M71.41 61.12c-.26.26-.68.26-.93 0a.655.655 0 01.01-.94c.26-.25.67-.25.93.01.25.26.25.68-.01.93z"/><path id="Layer" fill-rule="evenodd" class="shp0" d="M70.23 60.36a.771.771 0 011.43 0 .766.766 0 01-.42 1.02.73.73 0 01-.3.06c-.1 0-.2-.02-.29-.06a.766.766 0 01-.42-1.02zm1.1-.07a.541.541 0 00-.58-.12c-.2.08-.33.27-.33.49 0 .22.13.41.33.49.2.08.43.03.58-.12a.62.62 0 00.11-.17c.02-.06.03-.13.03-.2 0-.06-.01-.13-.04-.19a.5.5 0 00-.11-.17l.01-.01z"/><path id="Layer" class="shp0" d="M68.27 60.84c-.09-.09-.16-.18-.24-.28-.07-.1-.13-.2-.19-.31-.05-.11-.1-.22-.13-.34-.04-.11-.07-.23-.09-.35-.33.24-.54.61-.58 1.01-.03.4.11.8.39 1.1.28.29.67.44 1.08.42.4-.02.78-.21 1.03-.53-.12-.02-.24-.06-.36-.1-.11-.05-.22-.1-.33-.16-.11-.06-.21-.13-.31-.21-.1-.07-.19-.16-.27-.25zM64.67 58zm-8.16 2.51s.11-.16-.05-.46c.05.01.1.02.15.02.05 0 .1-.01.14-.02.05-.01.1-.03.14-.05l.12-.09a.3.3 0 00.04-.1c.01-.03.02-.06.03-.1 0-.03.01-.07.01-.1 0-.04 0-.08-.01-.11l.11-.11s.22.23.39.15c.04-.01.08-.03.12-.05.03-.03.06-.06.08-.1.03-.03.05-.07.06-.11 0-.04.01-.09 0-.13.01 0 .03.01.04.01h.08c.01 0 .03-.01.04-.01.01 0 .43.51.83-.46 0 0 .47.61.88-.18.03-.01.06-.01.09-.02s.06-.02.08-.04c.03-.01.06-.02.08-.04.03-.01.06-.03.08-.05.02-.02 0 .43.34.42 0 0 .33 0 .35-.41.05.03.1.06.15.07a.453.453 0 00.33 0c.05-.01.1-.04.15-.07.05-.03.16.44.49.05 0 0 .24.11.36 0 0 .02 0 .05.01.07 0 .03.01.05.02.07.01.03.02.05.03.07.01.02.02.04.04.06l2.13-.55c.05-.04.09-.09.13-.14.04-.05.06-.11.08-.17.02-.06.03-.13.03-.19-.01-.07-.02-.13-.04-.19S64.39 57 64 57c0 0 .19-.84-.56-.81 0 0-.2.07-.23 0 .01-.06.01-.12 0-.18a.549.549 0 00-.05-.17.71.71 0 00-.1-.14.755.755 0 00-.14-.11.833.833 0 00-.22-.03.85.85 0 00-.22.04.76.76 0 00-.19.12c-.05.05-.1.11-.14.17-.04.06-.12-1-.75-.56-.03.02-.06.05-.09.07-.02.03-.05.05-.08.08-.03.02-.05.05-.08.07l-.08.08c-.03.03-.2-.75-.57-.71 0 0-.32 0-.58.7a.689.689 0 01-.08-.03.689.689 0 01-.08-.03c-.03-.02-.06-.03-.08-.05a.304.304 0 01-.07-.05c-.02-.02-.2-.39-.47-.37-.07.01-.14.04-.2.07-.06.03-.12.07-.17.12-.06.04-.1.1-.14.16-.04.06-.07.12-.09.19-.02.07-.25-.39-.94 0-.08.06-.15.13-.21.22-.06.08-.1.18-.12.28-.02.1-.03.2-.01.3.01.1.04.2.09.29 0 0-.54-.66-.86-.08 0 0-.39.52-.1.85 0 0-.69-.07-.87.27 0 0-.31.55.16.81 0 0-.63.15-.5.61.13.47.13.43.33.42 0 0 .37.15.29.29"/><path id="Layer" class="shp1" d="M57.14 65.21s-.78 5-1 6.6c-.09.15-.19.29-.27.44-.09.15-.18.3-.26.45-.09.15-.17.31-.24.46-.08.16-.16.31-.23.47-.07.16-.9 2.34.84.22 0 0-1.28 4.35 1 .2 0 0-.56 5 .9.28 0 0 .64 5.21 1.13-1.14 0 0 1.8 1.62 1.74.62 0-.46-1.2-1.14-1.14-2 .05-.42.12-.83.19-1.24.07-.41.16-.82.25-1.23.1-.41.2-.82.31-1.22.11-.4.24-.8.37-1.2l-3.59-1.71z"/><path id="Layer" fill-rule="evenodd" class="shp0" d="M57 76.56c-.02 0-.04 0-.06-.01-.02 0-.04-.01-.06-.02a.219.219 0 00-.05-.03c-.01-.01-.03-.02-.04-.04-.04-.11-.08-.23-.1-.34-.03-.12-.05-.24-.06-.36-.01-.12-.01-.23-.01-.35.01-.12.02-.24.04-.36-.55.92-.76 1-.92 1-.02 0-.04 0-.07-.01-.02 0-.04-.01-.06-.02-.02-.01-.04-.03-.05-.04-.02-.02-.04-.03-.05-.05-.12-.16-.1-.59 0-1.27-.24.23-.39.29-.51.29-.03 0-.05 0-.08-.01-.02-.01-.05-.01-.07-.03a.21.21 0 01-.06-.04c-.02-.02-.04-.04-.05-.06-.17-.24 0-.83.17-1.28.07-.16.15-.31.22-.47.08-.15.16-.31.25-.46.08-.15.17-.3.26-.45.08-.15.18-.29.27-.44.2-1.62 1-6.5 1-6.55v-.29L61 66.78l-.12.21c-.13.39-.25.79-.36 1.18-.11.4-.21.8-.3 1.2-.1.4-.18.8-.25 1.21-.07.4-.14.81-.19 1.22 0 .43.34.84.66 1.2.06.05.12.11.17.17.05.06.09.12.14.19.04.06.07.13.1.21.04.07.06.14.08.22.01.04.01.08 0 .11 0 .04-.01.08-.02.12-.01.03-.02.07-.04.1-.01.04-.04.07-.06.1-.02.02-.04.04-.07.06-.02.01-.05.03-.08.04-.02.01-.05.02-.08.02-.03.01-.06.01-.09.01-.12-.03-.25-.07-.37-.11-.11-.05-.23-.1-.34-.16-.11-.06-.22-.13-.33-.21-.1-.07-.2-.15-.29-.24-.23 2.7-.48 2.92-.77 2.92-.14 0-.39 0-.63-1.27-.38 1.18-.56 1.28-.76 1.28zm1-3.3l.13 1c.02.14.03.28.05.42.02.14.05.27.08.41.02.14.05.28.08.41.04.14.07.28.11.41.05-.23.1-.46.14-.69.04-.23.07-.46.1-.69.03-.23.06-.47.08-.7.02-.23.03-.47.04-.7v-.45l.34.31c.1.1.2.19.3.27.11.09.22.17.33.25.12.07.24.14.36.2s.24.12.37.17v-.09c0-.11-.21-.34-.37-.52-.11-.1-.21-.2-.31-.32a2.4 2.4 0 01-.23-.38 2.05 2.05 0 01-.23-.85c.05-.4.11-.81.18-1.21.06-.4.14-.8.22-1.2.09-.39.18-.79.28-1.18.1-.4.2-.79.32-1.18l-3.1-1.44c-.17 1.1-.77 5-.93 6.29v.05c-.09.14-.18.29-.27.43-.09.15-.18.29-.26.44-.09.15-.17.3-.24.45-.08.15-.16.31-.23.46-.02.06-.04.12-.06.17l-.06.18c-.01.06-.03.12-.04.18-.02.06-.03.12-.04.18.06-.06.12-.11.18-.17.05-.06.11-.12.17-.18.05-.06.1-.12.16-.18.05-.06.1-.13.15-.19l.7-.86-.31 1.06c-.04.12-.07.25-.11.38l-.09.37c-.03.13-.05.26-.08.39-.02.12-.04.25-.06.38.08-.12.17-.24.24-.36.08-.12.16-.24.24-.37.07-.12.14-.25.22-.38.07-.12.13-.25.2-.38l.55-1-.13 1.15c-.02.15-.03.29-.05.44l-.03.44c-.01.15-.01.3-.02.45v.44c.06-.13.11-.26.16-.39l.15-.39c.05-.13.09-.27.13-.4.05-.13.09-.27.13-.4l.36-.93z"/><path id="Layer" class="shp1" d="M61.73 68.26c-3.3.52-6.39-1.73-6.9-5.03a6.032 6.032 0 015.04-6.9c3.3-.52 6.38 1.74 6.89 5.04.52 3.3-1.73 6.38-5.03 6.89z"/><path id="Layer" fill-rule="evenodd" class="shp0" d="M56.5 66.92a6.254 6.254 0 01-2.02-4.12 6.22 6.22 0 011.34-4.39c.98-1.24 2.4-2.06 3.97-2.3l.25-.03.25-.03c.08-.01.17-.01.25-.01.08-.01.17-.01.25-.01 1.59-.02 3.12.57 4.29 1.64a6.254 6.254 0 012.02 4.12 6.22 6.22 0 01-1.34 4.39 6.261 6.261 0 01-3.97 2.3l-.25.03-.25.03c-.08.01-.17.01-.25.01-.08.01-.17.01-.25.01-1.59.02-3.12-.57-4.29-1.64zm4.29-10.44a5.823 5.823 0 00-5.81 5.81c0 1.55.61 3.02 1.7 4.11a5.813 5.813 0 004.11 1.7v.01h.23c.07-.01.15-.01.22-.02.08 0 .15-.01.23-.02l.22-.03c1.46-.21 2.78-.97 3.7-2.12a5.743 5.743 0 001.26-4.08 5.754 5.754 0 00-1.87-3.83c-1.08-1-2.51-1.55-3.98-1.53h-.01z"/><path id="Layer" class="shp0" d="M59.28 63.9a.655.655 0 01-.75-.55c-.06-.36.19-.69.55-.75.36-.06.7.19.76.55.05.36-.19.7-.56.75z"/><path id="Layer" fill-rule="evenodd" class="shp0" d="M58.52 63.64a.769.769 0 01.03-.87.782.782 0 011.26.92c-.06.08-.13.15-.22.2a.79.79 0 01-.29.11c-.31.05-.62-.1-.78-.36zm.58-.94c-.21.03-.39.19-.44.4a.532.532 0 00.79.58c.19-.12.28-.33.25-.54-.02-.06-.04-.13-.08-.18a.927.927 0 00-.14-.14.67.67 0 00-.18-.07.452.452 0 00-.2-.01v-.04z"/><path id="Layer" class="shp0" d="M62.72 63.37a.65.65 0 01-.75-.55c-.06-.36.19-.69.55-.75.36-.06.7.19.75.55.06.36-.19.7-.55.75z"/><path id="Layer" fill-rule="evenodd" class="shp0" d="M62.74 63.5c-.31.04-.62-.1-.78-.37a.78.78 0 111.43-.22c-.03.1-.07.19-.13.28a.873.873 0 01-.52.31zm-.2-1.3c-.21.03-.39.19-.44.4a.532.532 0 00.79.58c.19-.12.28-.33.25-.54a.502.502 0 00-.21-.34.663.663 0 00-.19-.09.444.444 0 00-.2-.01z"/><path id="Layer" class="shp0" d="M61.21 65a2.186 2.186 0 01-.73 0c-.12-.02-.24-.05-.35-.08-.12-.04-.23-.09-.34-.14-.02.42.15.83.46 1.11.31.28.74.41 1.15.34.42-.06.78-.31 1-.67.21-.37.25-.81.1-1.2a2.586 2.586 0 01-.59.42c-.11.06-.23.1-.34.14-.12.03-.24.06-.36.08z"/></svg>