<svg xmlns="http://www.w3.org/2000/svg" width="36" height="31"><path fill="#FFF" d="M15.672 12.001c1.732-.032 3.107.643 4.232 1.887.217.236.412.504.596.761.4.536.628 1.061.52 1.812-.239 1.683.335 3.151 1.515 4.406.216.235.281.6.465.997-1.472.01-2.62.493-3.67 1.404-.259-1.898-.519-3.71-1.395-5.37v6.774c0 .225-.022.472-.12.676-.9 1.792-1.35 3.697-1.56 5.652H5.325V18.294c0-.14-.01-.268-.021-.408a1.357 1.357 0 01-.174-.042c-.27.964-.595 1.918-.79 2.894-.584 2.852-.67 5.746-.595 8.64.013.539.034 1.081.058 1.623H.025A49.59 49.59 0 000 30.664v-5.253c.108-1.061.195-2.133.325-3.195.27-2.208.692-4.384 1.753-6.367a11.205 11.205 0 011.689-2.337c.974-1.04 2.23-1.523 3.68-1.512 2.738.022 5.487.043 8.225 0zM31.663 31H21.309v-2.835c0-.149-.01-.297-.02-.446l-.18-.031c-.255.975-.572 1.94-.752 2.926l-.066.386h-3.019c.194-1.34.51-2.666 1.002-3.97.328-.88.857-1.707 1.428-2.449.856-1.103 2.04-1.601 3.469-1.58 2.2.043 4.41.043 6.61 0 1.555-.032 2.76.583 3.702 1.77 1.11 1.411 1.65 3.065 1.978 4.804.087.472.154.948.213 1.425h-2.978a18.562 18.562 0 00-.419-1.913c-.137-.488-.328-.954-.486-1.431-.043.01-.085.01-.127.021L31.663 31zm-5.117-19c2.462.01 4.454 2.023 4.454 4.505A4.471 4.471 0 0126.495 21C24.033 21 22 18.977 22 16.526 22 14.002 24.012 12 26.546 12zM12.01 0C14.758 0 17 2.252 17 5c0 2.768-2.283 5.02-5.041 5C9.22 9.98 6.989 7.717 7 4.969 7.01 2.23 9.262 0 12.01 0z"/></svg>