<svg xmlns="http://www.w3.org/2000/svg" viewBox="0 0 57.64 57.64"><g data-name="Layer 2"><circle cx="28.82" cy="28.82" r="27.82" fill="none" stroke="#fff" stroke-miterlimit="10" stroke-width="2"/><path d="M40.78 20.52l1.84-3.69-2.76 1.84-.53.27a6 6 0 0 0-4.53-2.11c-3.3 0-6 2.22-6 5.53a11.29 11.29 0 0 0 .2 1.76l-.15.08s-12-1.84-12.88-6.45A6.37 6.37 0 0 0 17.78 26s-1.84 1-2.78 0c0 0 0 2.76 4.6 5.52 0 0-1.84.92-2.76 0 0 0 3.68 3.68 5.52 3.68 0 0 0 2.76-8.28 2.76 0 0 10.47 6.9 20.24-.92a16.26 16.26 0 0 0 6.25-12.81 6.33 6.33 0 0 0 .19-1.45v-.46l2.77-2.76z" fill="#fff" data-name="logo - Twitter"/></g></svg>