<?xml version="1.0" standalone="no"?>
<!DOCTYPE svg PUBLIC "-//W3C//DTD SVG 20010904//EN"
 "http://www.w3.org/TR/2001/REC-SVG-20010904/DTD/svg10.dtd">
<svg version="1.0" xmlns="http://www.w3.org/2000/svg"
 width="260.000000pt" height="260.000000pt" viewBox="0 0 260.000000 260.000000"
 preserveAspectRatio="xMidYMid meet">
<metadata>
Created by potrace 1.11, written by Peter Selinger 2001-2013
</metadata>
<g transform="translate(0.000000,260.000000) scale(0.100000,-0.100000)"
fill="#000000" stroke="none">
<path d="M1775 2344 c-155 -18 -236 -31 -525 -84 -58 -11 -122 -22 -144 -26
-21 -3 -48 -8 -60 -10 -11 -2 -41 -7 -66 -10 -25 -3 -54 -8 -65 -10 -11 -2
-49 -7 -85 -10 -36 -3 -76 -7 -90 -10 -76 -14 -384 -3 -478 17 -23 5 -59 12
-80 15 -20 3 -70 16 -110 29 l-72 23 0 -197 0 -197 78 -23 c42 -13 83 -25 90
-27 18 -5 127 -23 193 -30 139 -17 416 -6 579 21 14 2 43 7 65 10 23 3 52 8
65 10 14 3 45 8 70 11 25 3 47 8 50 9 3 2 25 6 50 10 25 4 47 8 50 10 3 2 30
6 60 10 30 4 57 8 60 10 3 2 26 6 50 9 25 4 59 10 75 13 17 4 35 7 40 8 24 2
141 18 156 20 56 11 193 19 309 19 213 1 319 -15 543 -81 16 -5 17 9 17 190
l0 196 -78 25 c-43 13 -106 29 -140 35 -34 6 -74 14 -89 17 -56 12 -411 10
-518 -2z"/>
<path d="M1889 1576 c-2 -2 -39 -6 -81 -10 -98 -8 -151 -15 -213 -26 -27 -6
-66 -12 -85 -14 -19 -3 -111 -19 -205 -36 -93 -17 -185 -33 -204 -36 -18 -3
-43 -7 -54 -10 -11 -2 -57 -8 -101 -14 -45 -6 -94 -13 -111 -16 -97 -13 -397
-21 -450 -10 -11 2 -47 7 -80 11 -85 10 -215 40 -279 64 l-26 11 0 -199 0
-198 73 -21 c159 -47 305 -67 477 -66 113 0 259 9 307 18 10 2 45 7 78 10 33
4 67 9 75 11 8 2 33 6 55 10 22 3 56 8 75 11 19 4 42 8 50 9 8 2 53 10 100 19
47 8 101 18 120 21 19 3 71 12 115 20 44 8 103 17 130 20 28 4 61 8 75 11 110
19 423 25 530 10 55 -8 122 -20 170 -31 14 -3 34 -8 46 -10 12 -3 40 -12 64
-20 23 -8 47 -15 51 -15 6 0 8 86 7 197 l-3 196 -25 8 c-14 4 -50 14 -80 23
-30 9 -80 20 -110 26 -30 5 -68 12 -85 16 -33 7 -399 16 -406 10z"/>
<path d="M1889 796 c-2 -2 -40 -6 -84 -10 -44 -3 -91 -8 -105 -10 -14 -3 -43
-7 -65 -11 -22 -3 -56 -8 -75 -11 -19 -3 -84 -14 -145 -25 -95 -17 -219 -39
-305 -54 -455 -80 -806 -73 -1069 20 l-41 14 0 -198 0 -197 73 -22 c144 -44
303 -66 477 -66 86 0 264 11 310 18 14 3 48 7 75 11 28 3 57 8 65 10 8 2 35 6
60 9 53 7 50 7 295 51 210 38 218 39 325 54 140 19 235 25 370 25 193 0 327
-18 474 -65 33 -10 64 -19 69 -19 4 0 7 88 7 195 l0 194 -80 25 c-44 14 -95
28 -113 31 -17 3 -57 10 -87 16 -51 10 -422 23 -431 15z"/>
</g>
</svg>
