<?xml version="1.0" standalone="no"?>
<!DOCTYPE svg PUBLIC "-//W3C//DTD SVG 20010904//EN"
 "http://www.w3.org/TR/2001/REC-SVG-20010904/DTD/svg10.dtd">
<svg version="1.0" xmlns="http://www.w3.org/2000/svg"
 width="260.000000pt" height="260.000000pt" viewBox="0 0 260.000000 260.000000"
 preserveAspectRatio="xMidYMid meet">
<metadata>
Created by potrace 1.11, written by Peter Selinger 2001-2013
</metadata>
<g transform="translate(0.000000,260.000000) scale(0.100000,-0.100000)"
fill="#000000" stroke="none">
<path d="M1567 2564 c-4 -4 -7 -17 -7 -30 0 -18 7 -23 38 -26 36 -5 52 4 52
28 0 7 -11 15 -24 18 -13 3 -30 8 -38 11 -8 3 -17 2 -21 -1z"/>
<path d="M1726 2504 c-10 -27 -7 -31 35 -48 46 -19 44 -19 53 11 6 18 2 25
-16 32 -57 21 -66 22 -72 5z"/>
<path d="M1882 2438 c-20 -20 -14 -32 26 -55 37 -21 38 -21 50 -2 16 25 17 24
-24 48 -41 25 -37 24 -52 9z"/>
<path d="M1300 2374 c0 -17 6 -21 28 -19 19 1 28 7 30 20 2 16 -3 20 -28 20
-24 1 -30 -3 -30 -21z"/>
<path d="M1186 2382 c-2 -4 -1 -14 3 -21 12 -18 55 -10 59 12 3 13 -3 17 -27
17 -16 0 -32 -4 -35 -8z"/>
<path d="M1410 2365 c0 -16 7 -21 30 -23 24 -2 30 2 30 17 0 13 -9 20 -30 23
-25 4 -30 1 -30 -17z"/>
<path d="M1082 2372 c-15 -10 -6 -42 12 -42 21 0 49 26 42 38 -8 14 -35 15
-54 4z"/>
<path d="M1526 2363 c-14 -14 -4 -32 23 -41 25 -9 30 -8 34 8 3 14 -3 21 -23
29 -16 5 -31 7 -34 4z"/>
<path d="M988 2352 c-28 -3 -34 -16 -20 -39 5 -8 13 -8 33 0 35 16 25 43 -13
39z"/>
<path d="M2019 2344 c-12 -14 -9 -20 21 -45 40 -34 46 -35 60 -10 8 16 4 24
-21 45 -36 30 -42 31 -60 10z"/>
<path d="M1626 2324 c-3 -8 6 -20 23 -29 26 -13 30 -13 35 1 8 22 9 21 -23 32
-23 8 -31 7 -35 -4z"/>
<path d="M873 2310 c-30 -12 -20 -43 11 -34 29 9 40 20 32 33 -8 13 -13 13
-43 1z"/>
<path d="M1734 2278 c-7 -12 21 -38 42 -38 22 0 27 21 8 35 -23 18 -41 19 -50
3z"/>
<path d="M767 2257 c-15 -10 -16 -15 -5 -29 12 -16 14 -16 37 1 38 29 7 57
-32 28z"/>
<path d="M2156 2241 c-17 -19 -17 -21 14 -52 31 -33 31 -33 50 -13 20 20 20
20 -13 52 -33 32 -34 32 -51 13z"/>
<path d="M1836 2224 c-6 -16 32 -56 46 -47 14 8 8 35 -9 49 -23 18 -30 17 -37
-2z"/>
<path d="M673 2202 c-16 -12 -20 -21 -13 -32 7 -12 12 -12 34 0 29 15 32 23
13 38 -9 8 -19 6 -34 -6z"/>
<path d="M1933 2161 c-14 -22 27 -57 46 -38 16 16 14 23 -12 40 -21 14 -24 13
-34 -2z"/>
<path d="M591 2139 c-22 -18 -24 -49 -3 -49 18 0 44 38 35 53 -7 13 -11 13
-32 -4z"/>
<path d="M2273 2129 c-18 -18 -15 -40 8 -68 16 -19 24 -23 37 -15 26 17 25 31
-5 64 -22 25 -30 29 -40 19z"/>
<path d="M1180 2107 c-158 -17 -317 -91 -440 -205 -211 -195 -301 -472 -244
-750 94 -458 573 -739 1024 -600 288 89 509 343 556 640 13 82 5 230 -16 313
-102 399 -465 647 -880 602z"/>
<path d="M2014 2089 c-3 -6 3 -21 15 -32 16 -16 23 -19 33 -9 9 9 7 16 -7 32
-20 23 -31 25 -41 9z"/>
<path d="M2365 1986 c-18 -13 -18 -15 4 -50 24 -38 28 -41 50 -27 12 8 12 14
2 40 -19 43 -34 54 -56 37z"/>
<path d="M2448 1843 c-21 -5 -22 -15 -6 -60 12 -33 22 -38 51 -27 14 5 14 10
0 42 -18 45 -23 50 -45 45z"/>
<path d="M2501 1681 c-18 -11 -2 -85 19 -88 32 -6 41 11 27 52 -15 42 -24 50
-46 36z"/>
<path d="M2528 1474 c4 -42 6 -45 31 -42 14 2 25 8 24 15 -2 6 -4 26 -5 42 -2
26 -6 31 -28 31 -24 0 -25 -2 -22 -46z"/>
<path d="M2540 1315 c0 -38 3 -45 19 -45 30 0 38 20 32 80 -1 6 -12 10 -26 10
-23 0 -25 -4 -25 -45z"/>
<path d="M2529 1188 c0 -2 -2 -22 -5 -44 -5 -37 -3 -42 17 -47 29 -8 39 7 39
56 0 33 -3 37 -25 37 -14 0 -25 -1 -26 -2z"/>
<path d="M867 319 c7 -7 15 -10 18 -7 3 3 -2 9 -12 12 -14 6 -15 5 -6 -5z"/>
<path d="M1960 220 c-9 -6 -10 -10 -3 -10 6 0 15 5 18 10 8 12 4 12 -15 0z"/>
</g>
</svg>
