<svg xmlns="http://www.w3.org/2000/svg" width="219" height="247" viewBox="0 0 219 247">
    <g fill="none" fill-rule="evenodd">
        <path fill="#C1F1F0" fill-rule="nonzero" d="M-40 231.1V23H64.5v119.2c0 49.1-39.8 88.8-88.8 88.8H-40v.1z"/>
        <g transform="translate(-78 -35)">
            <path fill="#9F93DD" fill-rule="nonzero" d="M119.4 205.6c17.4 0 31.6 14.2 31.6 31.6 0 17.4-14.2 31.6-31.6 31.6-17.4 0-31.6-14.2-31.6-31.6 0-17.4 14.1-31.6 31.6-31.6m0-13c-24.6 0-44.6 20-44.6 44.6s20 44.6 44.6 44.6 44.6-20 44.6-44.6c-.1-24.6-20-44.6-44.6-44.6z"/>
            <circle cx="203" cy="155.8" r="16.4" fill="#67DAD6" fill-rule="nonzero"/>
            <path fill="#59449B" fill-rule="nonzero" d="M186.6 102.7c-24.6 0-44.6 20-44.6 44.6s20 44.6 44.6 44.6v-89.2z"/>
            <path stroke="#205058" stroke-width="2" d="M219.6 54.8c0 20.9 17 37.9 37.9 37.9s37.9-17 37.9-37.9M.6 204.8c56.3 0 102-45.7 102-102S56.9.8.6.8"/>
        </g>
    </g>
</svg>
