<svg xmlns="http://www.w3.org/2000/svg" viewBox="0 0 15 15" width="20" height="20">
	<style>
		tspan { white-space:pre }
		.shp0 { fill: #693996 } 
		.shp1 { fill: #ffffff } 
	</style>
	<path id="Layer" class="shp0" d="M4.52 0L9.55 0C9.99 0 10.34 0.35 10.34 0.79L10.34 5.94C10.34 6.38 9.99 6.73 9.55 6.73L4.52 6.73C4.08 6.73 3.73 6.38 3.73 5.94L3.73 0.79C3.73 0.35 4.08 0 4.52 0Z" />
	<path id="Layer" class="shp0" d="M0.79 7.28L5.82 7.28C6.26 7.28 6.61 7.63 6.61 8.07L6.61 13.22C6.61 13.66 6.26 14.01 5.82 14.01L0.79 14.01C0.35 14.01 0 13.66 0 13.22L0 8.07C0 7.63 0.35 7.28 0.79 7.28Z" />
	<path id="Layer" class="shp0" d="M8.27 7.3L13.29 7.3C13.72 7.3 14.07 7.65 14.07 8.08L14.07 13.21C14.07 13.64 13.72 13.99 13.29 13.99L8.27 13.99C7.84 13.99 7.49 13.64 7.49 13.21L7.49 8.08C7.49 7.65 7.84 7.3 8.27 7.3Z" />
	<path id="Layer" fill-rule="evenodd" class="shp1" d="M8.17 5L7.95 4.46L6.1 4.46L5.88 5C5.87 5.04 5.85 5.07 5.84 5.11C5.82 5.15 5.81 5.18 5.79 5.22C5.77 5.25 5.75 5.29 5.73 5.32C5.71 5.35 5.69 5.39 5.67 5.42C5.65 5.44 5.63 5.47 5.61 5.48C5.59 5.5 5.56 5.52 5.54 5.53C5.51 5.55 5.48 5.55 5.46 5.56C5.43 5.57 5.4 5.57 5.37 5.57C5.34 5.57 5.31 5.57 5.28 5.56C5.25 5.56 5.22 5.55 5.2 5.54C5.17 5.53 5.14 5.52 5.11 5.51C5.09 5.49 5.06 5.48 5.04 5.46C5.02 5.44 5 5.42 4.98 5.4C4.96 5.38 4.95 5.35 4.94 5.33C4.93 5.3 4.92 5.27 4.91 5.25C4.91 5.22 4.91 5.19 4.91 5.16C4.91 5.15 4.91 5.13 4.9 5.12C4.9 5.1 4.9 5.09 4.9 5.07C4.9 5.05 4.9 5.04 4.9 5.02C4.91 5.01 4.91 4.99 4.91 4.98L5.04 4.72L6.22 2L6.34 1.71C6.35 1.69 6.36 1.66 6.37 1.64C6.38 1.62 6.4 1.59 6.41 1.57C6.42 1.55 6.43 1.53 6.45 1.51C6.46 1.48 6.48 1.46 6.49 1.44C6.5 1.42 6.52 1.4 6.53 1.38C6.55 1.37 6.56 1.35 6.58 1.33C6.6 1.32 6.62 1.3 6.64 1.29C6.66 1.28 6.68 1.27 6.7 1.26C6.73 1.25 6.75 1.23 6.78 1.22C6.81 1.21 6.84 1.2 6.86 1.19C6.89 1.18 6.92 1.18 6.95 1.17C6.98 1.16 7.01 1.16 7.04 1.16C7.07 1.16 7.1 1.16 7.12 1.16C7.15 1.17 7.18 1.17 7.2 1.18C7.23 1.18 7.26 1.19 7.28 1.2C7.31 1.21 7.34 1.22 7.36 1.23C7.38 1.24 7.4 1.25 7.42 1.26C7.44 1.28 7.46 1.29 7.47 1.3C7.49 1.32 7.51 1.33 7.52 1.35C7.54 1.37 7.56 1.38 7.57 1.4C7.58 1.42 7.59 1.44 7.61 1.46C7.62 1.48 7.63 1.5 7.64 1.52C7.65 1.54 7.66 1.56 7.67 1.58C7.68 1.6 7.69 1.62 7.7 1.64C7.71 1.67 7.73 1.7 7.74 1.73C7.75 1.76 7.76 1.79 7.78 1.82C7.79 1.85 7.8 1.88 7.81 1.91C7.82 1.94 7.83 1.97 7.84 2L9.04 4.7C9.06 4.74 9.07 4.77 9.09 4.81C9.1 4.84 9.12 4.88 9.13 4.92C9.14 4.96 9.15 4.99 9.16 5.03C9.17 5.07 9.17 5.11 9.18 5.15C9.18 5.18 9.18 5.2 9.17 5.23C9.17 5.25 9.16 5.28 9.15 5.3C9.13 5.33 9.12 5.35 9.1 5.37C9.09 5.39 9.07 5.41 9.05 5.43C9.03 5.45 9 5.47 8.98 5.48C8.95 5.5 8.93 5.51 8.9 5.52C8.87 5.53 8.85 5.54 8.82 5.54C8.79 5.55 8.76 5.55 8.73 5.55L8.55 5.55C8.54 5.54 8.52 5.54 8.51 5.53C8.5 5.52 8.49 5.51 8.48 5.5C8.47 5.5 8.45 5.49 8.44 5.48C8.43 5.47 8.42 5.46 8.41 5.45C8.4 5.44 8.39 5.42 8.38 5.4C8.37 5.39 8.36 5.37 8.35 5.36C8.34 5.34 8.33 5.33 8.32 5.31C8.32 5.29 8.31 5.28 8.3 5.26L8.17 5ZM6.34 3.82L7.69 3.82L7.04 2.06L6.34 3.82Z" />
	<path id="Layer" fill-rule="evenodd" class="shp1" d="M2.04 12.75C2 12.75 1.97 12.75 1.93 12.75C1.9 12.74 1.86 12.73 1.83 12.72C1.8 12.71 1.76 12.69 1.73 12.68C1.7 12.66 1.68 12.63 1.65 12.61C1.63 12.58 1.6 12.55 1.59 12.52C1.57 12.49 1.56 12.46 1.55 12.42C1.53 12.39 1.53 12.35 1.53 12.32C1.52 12.28 1.52 12.25 1.53 12.21L1.53 9.05C1.53 9.01 1.53 8.98 1.53 8.94C1.53 8.91 1.54 8.87 1.55 8.84C1.56 8.8 1.57 8.77 1.59 8.74C1.61 8.71 1.63 8.68 1.65 8.65C1.68 8.63 1.71 8.61 1.74 8.59C1.77 8.58 1.8 8.56 1.83 8.55C1.87 8.54 1.9 8.54 1.94 8.53C1.97 8.53 2.01 8.53 2.04 8.53L3.44 8.53C3.48 8.53 3.53 8.52 3.57 8.52C3.62 8.52 3.66 8.52 3.71 8.52C3.75 8.52 3.79 8.52 3.84 8.52C3.88 8.52 3.93 8.53 3.97 8.53C4 8.54 4.04 8.54 4.07 8.55C4.11 8.56 4.14 8.57 4.17 8.58C4.2 8.59 4.24 8.61 4.27 8.62C4.3 8.64 4.33 8.65 4.36 8.67C4.39 8.69 4.41 8.7 4.43 8.72C4.46 8.74 4.48 8.76 4.5 8.77C4.53 8.79 4.55 8.81 4.57 8.84C4.59 8.86 4.61 8.88 4.63 8.9C4.67 8.94 4.7 8.99 4.73 9.04C4.76 9.09 4.79 9.15 4.81 9.2C4.83 9.26 4.84 9.32 4.85 9.37C4.86 9.43 4.87 9.49 4.87 9.55C4.87 9.65 4.85 9.75 4.82 9.84C4.79 9.93 4.74 10.02 4.69 10.1C4.63 10.18 4.56 10.25 4.49 10.32C4.41 10.38 4.32 10.42 4.23 10.46C4.35 10.48 4.46 10.52 4.56 10.58C4.66 10.64 4.75 10.72 4.83 10.81C4.91 10.9 4.96 11 5 11.11C5.04 11.22 5.06 11.34 5.06 11.46C5.06 11.52 5.06 11.57 5.05 11.63C5.04 11.68 5.03 11.74 5.01 11.79C4.99 11.85 4.97 11.9 4.95 11.95C4.93 12 4.9 12.05 4.87 12.1C4.84 12.15 4.81 12.19 4.77 12.23C4.74 12.27 4.7 12.31 4.66 12.35C4.62 12.38 4.58 12.41 4.53 12.44C4.49 12.47 4.44 12.5 4.39 12.52C4.35 12.53 4.32 12.54 4.28 12.56C4.24 12.57 4.21 12.58 4.17 12.59C4.13 12.6 4.09 12.6 4.05 12.61C4.02 12.62 3.98 12.62 3.94 12.63C3.89 12.64 3.85 12.66 3.8 12.67C3.75 12.68 3.7 12.69 3.66 12.7C3.61 12.71 3.56 12.72 3.51 12.73C3.47 12.74 3.42 12.74 3.37 12.75L2.04 12.75ZM2.37 9.17L2.37 10.26L3.15 10.26C3.19 10.26 3.23 10.26 3.28 10.26C3.32 10.26 3.36 10.26 3.4 10.25C3.44 10.25 3.49 10.24 3.53 10.23C3.57 10.22 3.61 10.21 3.65 10.2C3.68 10.19 3.71 10.19 3.74 10.17C3.77 10.16 3.8 10.15 3.82 10.13C3.85 10.11 3.87 10.09 3.89 10.07C3.91 10.05 3.93 10.03 3.95 10C3.96 9.98 3.98 9.96 3.99 9.93C4 9.91 4.01 9.89 4.02 9.86C4.03 9.84 4.03 9.81 4.03 9.79C4.04 9.76 4.04 9.74 4.04 9.71C4.05 9.67 4.04 9.62 4.04 9.58C4.03 9.54 4.01 9.5 3.99 9.46C3.97 9.42 3.95 9.38 3.92 9.35C3.88 9.32 3.85 9.3 3.81 9.28C3.75 9.26 3.7 9.24 3.64 9.22C3.58 9.21 3.52 9.2 3.46 9.19C3.4 9.18 3.34 9.17 3.28 9.17C3.22 9.17 3.16 9.17 3.1 9.17L2.37 9.17ZM2.41 10.87L2.41 12.11L3.33 12.11C3.91 12.11 4.23 11.91 4.23 11.49C4.24 11.44 4.24 11.4 4.23 11.35C4.23 11.31 4.22 11.26 4.2 11.22C4.18 11.18 4.16 11.14 4.13 11.1C4.11 11.06 4.08 11.03 4.04 11C3.98 10.97 3.92 10.95 3.86 10.93C3.8 10.91 3.74 10.9 3.68 10.89C3.62 10.87 3.55 10.87 3.49 10.87C3.43 10.86 3.36 10.86 3.3 10.87L2.41 10.87Z" />
	<path id="Layer" class="shp1" d="M12.61 11.39C12.61 11.43 12.6 11.46 12.6 11.5C12.59 11.54 12.59 11.57 12.58 11.61C12.57 11.65 12.56 11.68 12.55 11.72C12.54 11.75 12.52 11.79 12.51 11.82C12.49 11.86 12.47 11.9 12.45 11.94C12.43 11.98 12.4 12.02 12.38 12.05C12.35 12.09 12.33 12.12 12.3 12.16C12.27 12.19 12.24 12.23 12.21 12.26C12.17 12.3 12.13 12.33 12.09 12.37C12.05 12.4 12.01 12.43 11.96 12.46C11.92 12.49 11.87 12.52 11.83 12.54C11.78 12.57 11.73 12.59 11.68 12.61C11.62 12.64 11.56 12.66 11.5 12.68C11.44 12.69 11.38 12.71 11.32 12.72C11.26 12.73 11.19 12.74 11.13 12.75C11.07 12.75 11 12.75 10.94 12.75C10.89 12.75 10.84 12.75 10.79 12.75C10.74 12.74 10.69 12.74 10.64 12.74C10.59 12.73 10.55 12.72 10.5 12.72C10.45 12.71 10.4 12.7 10.35 12.69C10.31 12.68 10.27 12.67 10.22 12.66C10.18 12.64 10.14 12.63 10.1 12.61C10.06 12.6 10.02 12.58 9.98 12.56C9.95 12.54 9.91 12.52 9.87 12.5C9.83 12.48 9.79 12.45 9.76 12.43C9.72 12.4 9.69 12.38 9.65 12.35C9.62 12.32 9.59 12.29 9.56 12.26C9.53 12.23 9.5 12.19 9.47 12.16C9.44 12.13 9.42 12.09 9.39 12.06C9.37 12.02 9.34 11.98 9.32 11.95C9.3 11.91 9.27 11.87 9.25 11.84C9.23 11.8 9.21 11.76 9.19 11.72C9.17 11.68 9.16 11.64 9.14 11.6C9.12 11.56 9.11 11.52 9.09 11.47C9.08 11.43 9.07 11.39 9.05 11.35C9.04 11.31 9.03 11.26 9.02 11.22C9.01 11.17 9 11.13 9 11.08C8.99 11.03 8.98 10.98 8.98 10.94C8.98 10.89 8.97 10.84 8.97 10.79C8.97 10.75 8.97 10.7 8.97 10.65C8.97 10.57 8.97 10.5 8.97 10.42C8.98 10.35 8.99 10.27 9 10.2C9.01 10.12 9.03 10.05 9.04 9.98C9.06 9.9 9.08 9.83 9.11 9.76C9.13 9.7 9.16 9.64 9.19 9.58C9.22 9.52 9.25 9.46 9.28 9.4C9.32 9.35 9.35 9.29 9.39 9.24C9.43 9.19 9.48 9.14 9.52 9.09C9.56 9.05 9.61 9 9.66 8.96C9.71 8.92 9.76 8.89 9.81 8.85C9.87 8.82 9.92 8.78 9.98 8.76C10.03 8.73 10.09 8.7 10.15 8.68C10.21 8.65 10.27 8.63 10.34 8.61C10.4 8.6 10.46 8.58 10.53 8.57C10.59 8.55 10.66 8.54 10.72 8.54C10.79 8.53 10.85 8.53 10.92 8.53C11 8.53 11.07 8.53 11.15 8.54C11.22 8.55 11.3 8.56 11.37 8.57C11.45 8.59 11.52 8.61 11.59 8.64C11.66 8.67 11.73 8.7 11.8 8.73C11.86 8.76 11.91 8.79 11.97 8.83C12.02 8.86 12.07 8.9 12.12 8.94C12.17 8.98 12.22 9.03 12.27 9.07C12.31 9.12 12.35 9.17 12.39 9.22C12.42 9.26 12.45 9.3 12.47 9.34C12.5 9.39 12.52 9.43 12.54 9.48C12.55 9.53 12.57 9.57 12.58 9.62C12.59 9.67 12.6 9.72 12.6 9.77C12.6 9.79 12.6 9.82 12.59 9.84C12.59 9.86 12.58 9.88 12.57 9.9C12.56 9.92 12.55 9.94 12.54 9.96C12.52 9.98 12.51 10 12.49 10.01C12.48 10.03 12.46 10.05 12.44 10.06C12.43 10.08 12.41 10.09 12.38 10.1C12.36 10.11 12.34 10.12 12.32 10.12C12.3 10.13 12.27 10.13 12.25 10.13C12.23 10.13 12.21 10.13 12.19 10.12C12.17 10.12 12.14 10.11 12.12 10.11C12.1 10.1 12.08 10.09 12.06 10.08C12.05 10.07 12.03 10.06 12.01 10.05C11.99 10.03 11.98 10.01 11.96 9.99C11.94 9.97 11.93 9.95 11.91 9.93C11.9 9.91 11.89 9.88 11.87 9.86C11.86 9.84 11.85 9.81 11.84 9.79C11.82 9.75 11.79 9.7 11.77 9.66C11.74 9.62 11.71 9.58 11.68 9.54C11.64 9.5 11.61 9.47 11.57 9.43C11.54 9.4 11.5 9.37 11.46 9.34C11.42 9.31 11.38 9.29 11.34 9.27C11.29 9.25 11.25 9.23 11.2 9.22C11.16 9.21 11.11 9.2 11.06 9.19C11.02 9.19 10.97 9.19 10.92 9.19C10.84 9.19 10.76 9.2 10.69 9.21C10.61 9.23 10.54 9.26 10.47 9.29C10.4 9.32 10.33 9.36 10.27 9.41C10.21 9.46 10.16 9.52 10.11 9.58C10.05 9.66 10.01 9.74 9.96 9.83C9.92 9.92 9.89 10.01 9.86 10.1C9.84 10.2 9.82 10.29 9.81 10.39C9.8 10.49 9.79 10.58 9.8 10.68C9.8 10.75 9.8 10.81 9.81 10.88C9.81 10.95 9.82 11.01 9.83 11.08C9.84 11.14 9.86 11.21 9.88 11.27C9.89 11.33 9.92 11.4 9.94 11.46C9.96 11.51 9.98 11.56 10 11.6C10.03 11.65 10.06 11.69 10.09 11.73C10.12 11.77 10.16 11.81 10.2 11.85C10.23 11.88 10.28 11.91 10.32 11.94C10.36 11.97 10.41 11.99 10.45 12.01C10.5 12.03 10.55 12.05 10.59 12.06C10.64 12.07 10.69 12.08 10.74 12.09C10.79 12.09 10.84 12.09 10.89 12.09C10.94 12.09 11 12.09 11.05 12.08C11.1 12.08 11.15 12.07 11.21 12.05C11.26 12.04 11.31 12.02 11.35 11.99C11.4 11.97 11.45 11.94 11.49 11.91C11.53 11.88 11.58 11.84 11.62 11.81C11.65 11.77 11.69 11.73 11.72 11.68C11.76 11.64 11.78 11.59 11.81 11.54C11.83 11.49 11.85 11.44 11.87 11.39C11.87 11.37 11.88 11.35 11.89 11.32C11.89 11.3 11.9 11.28 11.91 11.26C11.91 11.24 11.92 11.21 11.93 11.19C11.94 11.17 11.95 11.15 11.96 11.13C11.98 11.11 12 11.1 12.02 11.09C12.04 11.07 12.06 11.06 12.08 11.05C12.1 11.04 12.13 11.04 12.15 11.03C12.17 11.03 12.2 11.03 12.22 11.03C12.27 11.03 12.32 11.04 12.36 11.06C12.4 11.08 12.45 11.11 12.48 11.14C12.52 11.17 12.55 11.21 12.57 11.25C12.59 11.3 12.6 11.34 12.61 11.39L12.61 11.39Z" />
</svg>