<?xml version="1.0" encoding="utf-8"?>
<svg version="1.1" xmlns="http://www.w3.org/2000/svg" xmlns:xlink="http://www.w3.org/1999/xlink" x="0px" y="0px"
	 viewBox="0 0 379.3 352.2" style="enable-background:new 0 0 379.3 352.2;" xml:space="preserve">
<style type="text/css">
	.st0{fill-rule:evenodd;clip-rule:evenodd;fill:#fff}
</style>
<path class="st0" d="M252,24c11.6,0,21.1,9.4,21.1,21.1v105.3c0,11.6-9.4,21.1-21.1,21.1H146.7c-11.6,0-21.1-9.4-21.1-21.1V45.1
	c0-11.6,9.4-21.1,21.1-21.1H252z M206,44.3c-6.8,0-13,1.2-18.6,3.5c-5.6,2.3-10.5,5.6-14.5,9.7c-4,4.2-7.2,9.1-9.4,14.9
	s-3.3,12.1-3.3,18.9c0,6.7,1,13,3.1,18.7c2.1,5.7,5,10.7,8.9,14.9c3.9,4.2,8.6,7.5,14.1,9.9s11.8,3.6,18.8,3.6
	c7.6,0,14.2-1.2,19.8-3.7c4.8-2.1,8.9-5.1,12.3-9l1.6-2l-8.5-8.9c-0.5-0.5-0.9-0.8-1.5-1c-0.5-0.2-1-0.3-1.5-0.3
	c-0.6,0-1.2,0.1-1.8,0.4s-1.1,0.6-1.6,1c-1.3,1.1-2.5,2.1-3.7,2.8s-2.5,1.3-3.9,1.8s-2.9,0.8-4.5,0.9c-1.6,0.2-3.4,0.3-5.3,0.3
	c-3.4,0-6.5-0.7-9.5-2c-2.9-1.3-5.5-3.2-7.7-5.7c-2.2-2.5-4-5.6-5.2-9.3c-1.3-3.7-1.9-7.9-1.9-12.6c0-4.7,0.6-8.8,1.7-12.5
	c1.2-3.6,2.8-6.7,4.9-9.2s4.7-4.4,7.6-5.7s6.2-2,9.7-2c2.2,0,4.2,0.2,5.8,0.5c1.7,0.3,3.1,0.7,4.4,1.2c1.2,0.5,2.3,1,3.2,1.6
	s1.7,1.1,2.5,1.6c0.8,0.5,1.5,0.9,2.1,1.2c0.7,0.3,1.4,0.5,2.1,0.5c1.1,0,2-0.2,2.7-0.7l0.9-0.8l0,0l0.8-0.8l7.2-9.7
	c-1.7-1.8-3.7-3.4-5.9-4.9c-2.2-1.5-4.7-2.8-7.3-3.9c-2.7-1.1-5.5-1.9-8.6-2.5C212.7,44.6,209.4,44.3,206,44.3z M63.6,183.1
	l90.5,17.6c10,1.9,16.5,11.6,14.6,21.6l-17.6,90.5c-1.9,10-11.6,16.5-21.6,14.6l-90.5-17.6c-10-1.9-16.5-11.6-14.6-21.6l17.6-90.5
	C43.9,187.7,53.6,181.1,63.6,183.1z M91.4,215.6l-39.5,62.8l12.3,2.4c1.3,0.3,2.5,0.1,3.5-0.4c0.8-0.4,1.4-0.9,1.9-1.4l0.4-0.6
	l6.3-11.1l25.8,5l1.7,12.6c0.2,1.1,0.7,2,1.4,2.8c0.5,0.6,1.3,1.1,2.2,1.4l1,0.2l12.2,2.4l-13.1-73.1L91.4,215.6z M96.7,231.2
	c0.2,2,0.4,3.8,0.6,5.5c0.1,1.1,0.3,2.2,0.4,3.1l0.2,1.3l2.7,19.8L82,257.3l9.8-17.3c0.7-1.1,1.5-2.4,2.3-3.9
	C95,234.6,95.8,233,96.7,231.2z M274.3,213.8l-2.6,0.5l-27.8,5.4l14.7,75.6l30.2-5.9c4.5-0.9,8.4-2.2,11.8-4.1s6-4,8-6.6
	c2-2.5,3.4-5.3,4.1-8.3c0.7-3,0.7-6.1,0.1-9.3c-0.8-4.3-2.7-7.6-5.6-9.8c-2.9-2.2-7-3.5-12.2-3.7c2.1-1.3,3.9-2.6,5.3-4.1
	c1.4-1.5,2.5-3,3.3-4.5s1.2-3.2,1.4-4.9c0.2-1.7,0.1-3.3-0.2-5c-0.6-3.1-1.7-5.8-3.2-8.2c-1.5-2.3-3.6-4.1-6.3-5.5
	c-2.7-1.3-5.9-2.1-9.8-2.4C282.1,212.9,278.5,213.2,274.3,213.8z M336.6,191.7l18.4,94.5c2,10.4-4.8,20.5-15.2,22.6l-94.5,18.4
	c-10.4,2-20.5-4.8-22.6-15.2l-18.4-94.5c-2-10.4,4.8-20.5,15.2-22.6l94.5-18.4C324.4,174.4,334.6,181.3,336.6,191.7z M287.8,257
	c1.5,0.1,2.8,0.5,3.8,1.1c1,0.6,1.8,1.4,2.4,2.4c0.6,1,1,2.2,1.3,3.6c0.2,1.2,0.3,2.4,0.2,3.7c-0.1,1.2-0.4,2.4-1.1,3.5
	c-0.6,1.1-1.7,2.1-3,3c-1.4,0.9-3.2,1.5-5.5,2l-12.4,2.4l-3.7-18.8l12.2-2.4C284.4,257,286.3,256.9,287.8,257z M279.5,226.9
	c1.5,0,2.8,0.3,3.9,0.9c1.1,0.5,2,1.4,2.6,2.5c0.7,1.1,1.2,2.6,1.5,4.4c0.4,1.8,0.4,3.4,0,4.7c-0.3,1.3-1,2.4-1.9,3.3
	s-2.2,1.6-3.7,2.2c-1.5,0.6-3.2,1.1-5.2,1.4l-9.1,1.8l-3.6-18.7l10.3-2C276.3,227,278,226.9,279.5,226.9z"/>
</svg>
