<svg xmlns="http://www.w3.org/2000/svg" width="34" height="33" viewBox="0 0 34 33">
  <path fill="#FFF" fill-rule="evenodd" d="M20.8625549 0C21.9671244-2.02906125e-16 22.8625549.8954305 22.8625549 2L22.8625549 12C22.8625549 13.1045695 21.9671244 14 20.8625549 14L10.8625549 14C9.75798539 14 8.86255489 13.1045695 8.86255489 12L8.86255489 2C8.86255489.8954305 9.75798539 2.02906125e-16 10.8625549 0L20.8625549 0zM16.2245549 3C15.5805549 3 14.9905549 3.11 14.4545549 3.33 13.9185549 3.55 13.4585549 3.858 13.0745549 4.254 12.6905549 4.65 12.3925549 5.121 12.1805549 5.667 11.9685549 6.213 11.8625549 6.812 11.8625549 7.464 11.8625549 8.104 11.9605549 8.697 12.1565549 9.243 12.3525549 9.789 12.6335549 10.261 12.9995549 10.659 13.3655549 11.057 13.8115549 11.369 14.3375549 11.595 14.8635549 11.821 15.4585549 11.934 16.1225549 11.934 16.8465549 11.934 17.4735549 11.817 18.0035549 11.583 18.4578406 11.3824286 18.8467386 11.0988367 19.1702488 10.7322245L19.3265549 10.542 18.5225549 9.696C18.4785549 9.652 18.4325549 9.621 18.3845549 9.603 18.3365549 9.585 18.2885549 9.576 18.2405549 9.576 18.1805549 9.576 18.1225549 9.589 18.0665549 9.615 18.0105549 9.641 17.9585549 9.674 17.9105549 9.714 17.7905549 9.822 17.6725549 9.911 17.5565549 9.981 17.4405549 10.051 17.3165549 10.107 17.1845549 10.149 17.0525549 10.191 16.9105549 10.221 16.7585549 10.239 16.6065549 10.257 16.4385549 10.266 16.2545549 10.266 15.9345549 10.266 15.6345549 10.204 15.3545549 10.08 15.0745549 9.956 14.8295549 9.775 14.6195549 9.537 14.4095549 9.299 14.2435549 9.006 14.1215549 8.658 13.9995549 8.31 13.9385549 7.912 13.9385549 7.464 13.9385549 7.02 13.9935549 6.625 14.1035549 6.279 14.2135549 5.933 14.3695549 5.641 14.5715549 5.403 14.7735549 5.165 15.0135549 4.984 15.2915549 4.86 15.5695549 4.736 15.8765549 4.674 16.2125549 4.674 16.4245549 4.674 16.6095549 4.69 16.7675549 4.722 16.9255549 4.754 17.0635549 4.793 17.1815549 4.839 17.2995549 4.885 17.4015549 4.935 17.4875549 4.989 17.5735549 5.043 17.6525549 5.093 17.7245549 5.139 17.7965549 5.185 17.8645549 5.224 17.9285549 5.256 17.9925549 5.288 18.0605549 5.304 18.1325549 5.304 18.2405549 5.304 18.3245549 5.281 18.3845549 5.235L18.4685549 5.16225 18.4685549 5.16225 18.5405549 5.082 19.2245549 4.164C19.0605549 3.996 18.8725549 3.84 18.6605549 3.696 18.4485549 3.552 18.2165549 3.429 17.9645549 3.327 17.7125549 3.225 17.4415549 3.145 17.1515549 3.087 16.8615549 3.029 16.5525549 3 16.2245549 3zM4.29008194 14.1745647L14.1063538 16.0826547C15.1906292 16.2934165 15.898752 17.3432516 15.6879902 18.4275271L13.7799002 28.2437989C13.5691384 29.3280743 12.5193033 30.0361971 11.4350278 29.8254353L1.61875601 27.9173453C.534480562 27.7065835-.173642163 26.6567484.0371196332 25.5724729L1.94520959 15.7562011C2.15597138 14.6719257 3.2058065 13.9638029 4.29008194 14.1745647zM7.69529764 17.8934852L3.18161276 25.0718544 4.58812336 25.3452524C4.73729872 25.3742491 4.87026646 25.358628 4.98702658 25.298389 5.07459667 25.2532097 5.14575323 25.1991382 5.20049626 25.1361745L5.24976812 25.0702467 5.97099158 23.8060745 8.92253274 24.379796 9.11767224 25.8220911C9.1453046 25.9454141 9.19999341 26.0528019 9.28173868 26.1442544 9.34304764 26.2128439 9.42531919 26.2642559 9.52855334 26.2984907L9.63877502 26.3269996 11.0346302 26.5983264 9.53867894 18.2518022 7.69529764 17.8934852zM8.30098109 19.6699156C8.31993767 19.89476 8.34182843 20.1045093 8.36665339 20.2991635 8.38320337 20.428933 8.40024596 20.5477402 8.41778118 20.6555852L8.44445347 20.8091311 8.7504881 23.0746858 6.62473914 22.6614821 7.74978237 20.6851587C7.82929444 20.5605465 7.9171911 20.4117621 8.01347235 20.2388056 8.1097536 20.065849 8.20558985 19.876219 8.30098109 19.6699156zM31.7799002 18.7562011L33.6879902 28.5724729C33.898752 29.6567484 33.1906292 30.7065835 32.1063538 30.9173453L22.2900819 32.8254353C21.2058065 33.0361971 20.1559714 32.3280743 19.9452096 31.2437989L18.0371196 21.4275271C17.8263578 20.3432516 18.5344806 19.2934165 19.618756 19.0826547L29.4350278 17.1745647C30.5193033 16.9638029 31.5691384 17.6719257 31.7799002 18.7562011zM25.3105441 21.0555948L25.0451772 21.1028263 22.1562154 21.6643836 23.6826873 29.5174011 26.8195824 28.9076505C27.2902964 28.8161529 27.6972093 28.6745963 28.0403211 28.4829806 28.383433 28.2913648 28.6590749 28.0643869 28.8672467 27.8020467 29.0754186 27.5397066 29.2162446 27.2522349 29.2897248 26.9396317 29.3632049 26.6270285 29.3674669 26.3036414 29.3025106 25.9694704 29.2159023 25.5239091 29.0213917 25.185089 28.718979 24.9530099 28.4165663 24.7209308 27.994424 24.5922984 27.4525521 24.5671125 27.6729428 24.4347769 27.8560546 24.292907 28.0018877 24.1415028 28.1477208 23.9900987 28.2607415 23.8329534 28.3409496 23.6700669 28.4211577 23.5071805 28.4705246 23.339102 28.4890503 23.1658313 28.5075759 22.9925607 28.4997266 22.8178912 28.4655023 22.6418226 28.4026414 22.3184313 28.2909205 22.036234 28.1303397 21.7952307 27.9697588 21.5542273 27.7512844 21.3654963 27.4749164 21.2290377 27.1985484 21.0925791 26.8601445 21.0110626 26.4597048 20.9844881 26.126005 20.9623427 25.7429514 20.986045 25.3105441 21.0555948zM26.7128932 25.5387261C26.8721905 25.5525098 27.005336 25.590022 27.1123295 25.6512626 27.219323 25.7125032 27.3028595 25.7969484 27.362939 25.9045982 27.4230185 26.012248 27.4670274 26.1379376 27.4949656 26.281667 27.5194115 26.4074303 27.5273386 26.53454 27.5187469 26.6629961 27.5101552 26.7914522 27.4721697 26.9125704 27.4047903 27.0263507 27.3374109 27.140131 27.2333018 27.2424058 27.092463 27.3331751 26.9516242 27.4239444 26.7608314 27.4927273 26.5200845 27.5395238L25.2372993 27.788872 24.8569909 25.8323549 26.1289964 25.5851021C26.3589635 25.540401 26.5535958 25.5249423 26.7128932 25.5387261zM25.8505704 22.4117715C26.0059758 22.4151248 26.1395209 22.4451013 26.2512058 22.5017009 26.3628907 22.5583006 26.4541376 22.6440438 26.5249463 22.7589306 26.5957551 22.8738173 26.6493192 23.0246848 26.6856389 23.2115331 26.722657 23.4019746 26.7237447 23.5658393 26.6889023 23.703127 26.6540598 23.8404148 26.5870296 23.9559917 26.4878117 24.0498577 26.3885939 24.1437237 26.260931 24.2207449 26.104823 24.2809213 25.948715 24.3410976 25.7700504 24.3907425 25.5688292 24.4298559L24.6202148 24.6142479 24.2430495 22.6739004 25.3102406 22.4664594C25.5150551 22.4266475 25.695165 22.4084182 25.8505704 22.4117715z"/>
</svg>
