<svg xmlns="http://www.w3.org/2000/svg" width="36" height="33" viewBox="0 0 36 33">
  <path fill="#FFF" fill-rule="evenodd" d="M25.896,0.55 C28.542,0.55 28.542,0.55 30.747,1.81 C32.952,3.07 32.952,3.07 34.212,5.275 C35.472,7.48 35.472,7.48 35.472,10.126 C35.472,13.318 35.472,13.318 33.624,16.552 C31.986,19.366 31.986,19.366 28.416,22.978 C26.19,25.288 26.19,25.288 20.562,30.412 L20.562,30.412 L18,32.638 L15.48,30.328 L15.090264,29.97522 C9.69268966,25.0852414 9.69268966,25.0852414 7.584,22.936 C4.014,19.324 4.014,19.324 2.418,16.51 C0.528,13.318 0.528,13.318 0.528,10.126 C0.528,7.48 0.528,7.48 1.809,5.275 C3.09,3.07 3.09,3.07 5.274,1.81 C7.458,0.55 7.458,0.55 10.146,0.55 C12.372,0.55 12.372,0.55 14.472,1.558 C16.572,2.566 16.572,2.566 18,4.246 C19.428,2.566 19.428,2.566 21.528,1.558 C23.628,0.55 23.628,0.55 25.896,0.55 Z M18.9285821,7.28569555 L16.7857224,7.28569555 C16.1942038,7.28569555 15.7142925,7.76560684 15.7142925,8.3571254 L15.7142925,12.9999881 L11.0714298,12.9999881 C10.4799113,12.9999881 10,13.4798994 10,14.0714179 L10,16.2142776 C10,16.8057962 10.4799113,17.2857075 11.0714298,17.2857075 L15.7142925,17.2857075 L15.7142925,21.9285702 C15.7142925,22.5200887 16.1942038,23 16.7857224,23 L18.9285821,23 C19.5201006,23 20.0000119,22.5200887 20.0000119,21.9285702 L20.0000119,17.2857075 L24.6428746,17.2857075 C25.2343932,17.2857075 25.7143044,16.8057962 25.7143044,16.2142776 L25.7143044,14.0714179 C25.7143044,13.4798994 25.2343932,12.9999881 24.6428746,12.9999881 L20.0000119,12.9999881 L20.0000119,8.3571254 C20.0000119,7.76560684 19.5201006,7.28569555 18.9285821,7.28569555 Z"/>
</svg>
