<svg xmlns="http://www.w3.org/2000/svg" viewBox="0 0 16 14" width="20" height="20">
	<style>
		tspan { white-space:pre }
		.shp0 { fill: #693996 } 
		.shp1 { fill: #f2f2f2 } 
	</style>
	<path id="Layer" class="shp0" d="M14.45 1C14.03 0.66 13.55 0.4 13.04 0.24C12.53 0.08 11.99 0.02 11.45 0.06C10.92 0.09 10.39 0.23 9.91 0.47C9.42 0.7 8.98 1.02 8.62 1.42L8 2L7.38 1.36C7.01 0.97 6.57 0.65 6.09 0.42C5.6 0.19 5.07 0.06 4.54 0.03C4 -0.01 3.46 0.06 2.95 0.23C2.44 0.4 1.96 0.66 1.55 1C1.09 1.4 0.72 1.88 0.45 2.43C0.19 2.98 0.03 3.57 0.01 4.18C-0.02 4.79 0.07 5.39 0.28 5.96C0.5 6.53 0.82 7.05 1.24 7.49L7.24 13.74C7.33 13.83 7.44 13.9 7.56 13.95C7.68 14 7.81 14.02 7.94 14.02C8.06 14.02 8.19 14 8.31 13.95C8.43 13.9 8.54 13.83 8.63 13.74L8.63 13.74L8.63 13.74L14.63 7.49C15.06 7.06 15.39 6.55 15.62 5.98C15.84 5.42 15.95 4.81 15.93 4.21C15.92 3.6 15.78 3 15.52 2.45C15.27 1.9 14.9 1.41 14.45 1L14.45 1Z" />
	<path id="Layer" class="shp1" d="M11 6.25L8.75 6.25L8.75 4C8.75 3.93 8.74 3.87 8.71 3.81C8.69 3.74 8.65 3.69 8.61 3.64C8.56 3.59 8.51 3.55 8.44 3.53C8.38 3.5 8.32 3.49 8.25 3.49L7.75 3.49C7.68 3.49 7.62 3.5 7.56 3.53C7.49 3.55 7.44 3.59 7.39 3.64C7.35 3.69 7.31 3.74 7.29 3.81C7.26 3.87 7.25 3.93 7.25 4L7.25 6.25L5 6.25C4.93 6.25 4.87 6.26 4.81 6.29C4.74 6.31 4.69 6.35 4.64 6.39C4.59 6.44 4.55 6.49 4.53 6.56C4.5 6.62 4.49 6.68 4.49 6.75L4.49 6.75L4.49 7.25C4.49 7.32 4.51 7.38 4.53 7.44C4.56 7.5 4.6 7.56 4.64 7.61C4.69 7.65 4.75 7.69 4.81 7.72C4.87 7.74 4.93 7.76 5 7.76L7.25 7.76L7.25 10C7.25 10.07 7.26 10.13 7.29 10.19C7.31 10.26 7.35 10.31 7.39 10.36C7.44 10.41 7.49 10.45 7.56 10.47C7.62 10.5 7.68 10.51 7.75 10.51L8.25 10.51C8.32 10.51 8.38 10.5 8.44 10.47C8.5 10.45 8.56 10.41 8.6 10.36C8.65 10.32 8.69 10.26 8.71 10.2C8.74 10.14 8.75 10.08 8.75 10.01L8.75 10.01L8.75 7.75L11 7.75C11.07 7.75 11.13 7.74 11.19 7.71C11.26 7.69 11.31 7.65 11.36 7.61C11.41 7.56 11.45 7.51 11.47 7.44C11.5 7.38 11.51 7.32 11.51 7.25L11.51 6.75C11.51 6.68 11.5 6.62 11.47 6.56C11.45 6.49 11.41 6.44 11.36 6.39C11.31 6.35 11.26 6.31 11.19 6.29C11.13 6.26 11.07 6.25 11 6.25L11 6.25Z" />
</svg>