<svg xmlns="http://www.w3.org/2000/svg" width="24" height="24" viewBox="0 0 24 24">
  <path fill="#F7F7F7" d="M23.5 9H19V.5a.5.5 0 0 0-.5-.5h-13a.5.5 0 0 0-.5.5V9H.5a.5.5 0 0 0-.5.5v14a.5.5 0 0 0 .5.5H10v-4.5a.5.5 0 0 1 .5-.5h3a.5.5 0 0 1 .5.5V24h9.5a.5.5 0 0 0 .5-.5v-14a.5.5 0 0 0-.5-.5zM6 16.5a.5.5 0 0 1-.5.5h-2a.5.5 0 0 1-.5-.5v-5a.5.5 0 0 1 .5-.5h2a.5.5 0 0 1 .5.5v5zm2-9v-5a.5.5 0 0 1 .5-.5h2a.5.5 0 0 1 .5.5v5a.5.5 0 0 1-.5.5h-2a.5.5 0 0 1-.5-.5zm4.123 9.485a.517.517 0 0 1-.246 0C9.327 16.338 9 13.446 9 11a.5.5 0 0 1 .402-.49l2.5-.5a.497.497 0 0 1 .196 0l2.5.5A.5.5 0 0 1 15 11c0 2.446-.327 5.337-2.877 5.985zM16 7.5a.5.5 0 0 1-.5.5h-2a.5.5 0 0 1-.5-.5v-5a.5.5 0 0 1 .5-.5h2a.5.5 0 0 1 .5.5v5zm5 9a.5.5 0 0 1-.5.5h-2a.5.5 0 0 1-.5-.5v-5a.5.5 0 0 1 .5-.5h2a.5.5 0 0 1 .5.5v5z" class="nc-icon-wrapper"/>
</svg>
