<svg version="1.1" xmlns="http://www.w3.org/2000/svg" xmlns:xlink="http://www.w3.org/1999/xlink" x="0px" y="0px"
	 viewBox="0 0 379.4 352.2" style="enable-background:new 0 0 379.4 352.2;" xml:space="preserve" fill="#693996">
<g>
	<path d="M226.6,193.2c0-10,3.2-19.2,8.7-26.5c-0.7-3.9-2.6-7.3-5.2-10.7c-1.8-2.5-3.8-5.2-6-7.5c-11.3-12.2-25.1-18.9-42.5-18.6
		c-27.5,0.4-55.2,0.2-82.7,0c-14.6-0.1-27.2,4.6-37,14.9c-6.6,6.9-12.4,14.8-17,23c-10.7,19.5-14.9,40.9-17.6,62.7
		c-1.3,10.4-2.2,21-3.3,31.4v51.7c0.1,1.1-0.1,13.5,0,14.6l38,0c-0.2-5.3-0.2-21.9-0.3-27.2c-0.8-28.5,0.1-57,6-85.1
		c2-9.6,5.2-19,7.9-28.5c0.7,0.2,1.2,0.3,1.7,0.4c0.1,1.4,0.2,2.6,0.2,4l-1.2,136.4h100.8c2-13.2,6.9-37.5,11.8-50.4
		c3.3-8.7,8.6-16.8,14.3-24.1c0,0,0,0,0,0c0.6-0.8,1-1.7,1-2.7V188c8.8,16.4,11.4,34.2,14,52.9c7.7-6.6,16-10.9,25.7-12.8
		C233.5,220,226.6,207.4,226.6,193.2z"/>
	<path d="M139.2,122.2c27,0.2,49.4-21.9,49.4-49c0-26.9-22-49-48.9-49s-49,21.9-49.1,48.7C90.6,99.8,112.4,122,139.2,122.2z"/>
	<path d="M200.8,269.5c-8.8,18.5-9.1,38.3-11.2,58.5l21.3,0l0.7-4c1.8-10.2,4.9-20.2,7.4-30.2l1.8,0.3c0.1,1.5,0.2,3.1,0.2,4.6
		l0,29.3h101.5l0-34.3c0.4-0.1,0.8-0.1,1.2-0.2c1.6,4.9,3.4,9.7,4.8,14.8c1.7,6.6,3.1,13.1,4.1,19.8l22.9,0.2
		c-0.6-4.9-1.2-9.8-2.1-14.7c-3.2-18-8.5-35.1-19.4-49.6c-9.2-12.3-14.8-18.9-30-18.5c-21.6,0.4-43.2,0.4-64.8,0c-0.1,0-0.3,0-0.4,0
		c-14.8-0.1-28.5,8.1-36.3,21.3L200.8,269.5z"/>
</g>
<path d="M272.5,236.8c24.5,0.1,44.1-19.5,44.1-44c0-24.3-19.5-44-43.6-44.1c-24.8,0-44.5,19.6-44.5,44.3
	C228.4,217,248.4,236.8,272.5,236.8z"/>
</svg>
