<svg xmlns="http://www.w3.org/2000/svg" width="36" height="31" viewBox="0 0 36 31">
  <path fill="#FFF" d="M15.6724706,12.001098 C17.4042353,11.9689378 18.7788235,12.6443033 19.9044706,13.8878334 C20.1209412,14.1236753 20.3157647,14.3916775 20.4997647,14.6489596 C20.9002353,15.184964 21.1275294,15.7102483 21.0192941,16.4606544 C20.7811765,18.1437082 21.3548235,19.6123601 22.5345882,20.8666104 C22.7510588,21.1024523 22.816,21.4669353 23,21.8635785 C21.528,21.8742986 20.3807059,22.3567025 19.3308235,23.26791 C19.0710588,21.3704545 18.8112941,19.5587597 17.9345882,17.8971461 L17.9345882,24.6722414 C17.9345882,24.8973633 17.9129412,25.1439253 17.8155294,25.347607 C16.9154447,27.1395768 16.4659479,29.045008 16.2553389,31.0003623 L5.325,31 L5.32517647,18.2937894 C5.32517647,18.1544282 5.31435294,18.0257872 5.30352941,17.8864261 C5.24941176,17.875706 5.19529412,17.8649859 5.13035294,17.8435457 C4.85976471,18.8083536 4.53505882,19.7624414 4.34023529,20.7379693 C3.75576471,23.5895126 3.66917647,26.4839362 3.74494118,29.3783599 C3.75804228,29.9168596 3.77907236,30.4592859 3.80323269,31.000886 L0.0253293497,31.0004431 C0.0172141667,30.8882881 0.00883231544,30.7763061 0,30.6647704 L0,25.4119275 C0.108235294,24.3506388 0.194823529,23.2786301 0.324705882,22.2173414 C0.595294118,20.0090034 1.01741176,17.8328256 2.07811765,15.8496094 C2.53270588,15.0134426 3.10635294,14.209436 3.76658824,13.5126304 C4.74070588,12.4727819 5.99623529,11.9903779 7.44658824,12.001098 C10.1849412,12.0225382 12.9341176,12.0439784 15.6724706,12.001098 Z M31.663,31 L21.309,31 L21.3092711,28.1646818 C21.3092711,28.0162442 21.2986946,27.8678066 21.2881181,27.719369 L21.108318,27.687561 C20.8544825,28.6630079 20.5371881,29.6278522 20.357388,30.6139019 L20.291,31 L17.2721101,31.0006994 C17.4663114,29.6603538 17.7821609,28.3344282 18.2738217,27.0301945 C18.6016925,26.1501717 19.1305165,25.3231623 19.7016463,24.5809744 C20.5583411,23.4782952 21.7429067,22.979969 23.1707313,23.0011744 C25.3706389,23.0435851 27.5811229,23.0435851 29.7810305,23.0011744 C31.3357729,22.9693663 32.5414915,23.584322 33.4827981,24.7718227 C34.5933283,26.1819797 35.1327287,27.8359985 35.4605996,29.5748388 C35.5478289,30.0470443 35.6152741,30.5228557 35.6740604,31.0000426 L32.6959944,31.0005492 C32.5897983,30.3599375 32.4525849,29.721927 32.2770795,29.0871153 C32.1395853,28.5993918 31.9492087,28.1328737 31.7905615,27.6557529 C31.7482556,27.6663556 31.7059496,27.6663556 31.6636437,27.6769583 L31.663,31 Z M26.5459705,12 C29.0079455,12.0102156 31,14.0226927 31,16.5050884 C31,19.0079152 28.9977299,21.0101767 26.4948922,21 C24.0329171,21 22,18.9772684 22,16.5255196 C22,14.0022615 24.0124858,12 26.5459705,12 Z M12.0103484,0 C14.7582725,0 17,2.25203435 17,4.99992948 C17,7.76848548 14.7169503,10.0205198 11.9586957,9.99985897 C9.22110217,9.9791981 6.98970518,7.71683331 7,4.96893818 C7.01036627,2.23137349 9.26242434,0 12.0103484,0 Z"/>
</svg>
