<?xml version="1.0" encoding="utf-8"?>
<!-- Generator: Adobe Illustrator 24.0.0, SVG Export Plug-In . SVG Version: 6.00 Build 0)  -->
<svg version="1.1" id="Layer_1" xmlns="http://www.w3.org/2000/svg" xmlns:xlink="http://www.w3.org/1999/xlink" x="0px" y="0px"
	 viewBox="0 0 252.6 65.3" style="enable-background:new 0 0 252.6 65.3;" xml:space="preserve">
<style type="text/css">
	.st0{fill:none;stroke:#FFFFFF;stroke-width:0.5;stroke-linecap:round;}
	.st1{fill:none;}
	.st2{fill-rule:evenodd;clip-rule:evenodd;fill:#FFFFFF;}
	.st3{fill-rule:evenodd;clip-rule:evenodd;fill:#FFFFFF;stroke:#FFFFFF;stroke-width:0.1;stroke-linejoin:round;}
	.st4{fill:none;stroke:#FFFFFF;stroke-width:0.5;stroke-linecap:round;stroke-linejoin:round;}
	.st5{fill:url(#group-9-b_2_);}
	.st6{fill:#FFFFFF;}
	.st7{enable-background:new    ;}
</style>
<g transform="translate(1 -5)">
	<path class="st0" d="M33.8,10.8c-1.7-0.3-3.5-0.5-5.3-0.5c-16.1,0-29.2,13.1-29.2,29.3s13.1,29.3,29.3,29.3
		c14.2,0,26-10.1,28.7-23.5"/>
	<g transform="translate(33.665)">
		<path class="st1" d="M-0.7,16.5c3,0.6,5.9,1.7,8.5,3.4l6.5-9.8C10.5,7.6,6,5.8,1.5,5L-0.7,16.5z"/>
		<path class="st2" d="M8.7,13.2l-0.6,1c0.3,0.2,0.6,0.3,0.9,0.5l0.5,0.3l0.5,0.3l0.6-1l-0.5-0.3l-0.5-0.3C9.3,13.5,9,13.3,8.7,13.2
			z M5.1,11.6l-0.4,1.1c0.3,0.1,0.6,0.2,1,0.4l0.5,0.2c0.2,0.1,0.3,0.1,0.5,0.2l0.5-1.1c-0.2-0.1-0.3-0.2-0.5-0.2L6.1,12
			C5.8,11.9,5.5,11.7,5.1,11.6z M1.3,10.5l-0.3,1.2c0.3,0.1,0.7,0.2,1,0.2l0.5,0.1c0.2,0,0.3,0.1,0.5,0.1l0.3-1.1
			C3.3,11,3.1,11,2.9,10.9l-0.5-0.1C2,10.7,1.7,10.6,1.3,10.5z"/>
		<g transform="translate(8.465 5.089)">
			<path class="st1" d="M-0.6,14.9C2,16.5,4.3,18.7,6,21.3l9.8-6.6c-2.6-3.8-6-7.1-9.9-9.7L-0.6,14.9z"/>
			<path class="st2" d="M9.4,15.3l-0.9,0.8l0.6,0.8c0.2,0.3,0.4,0.6,0.6,0.8l1-0.7c-0.2-0.3-0.4-0.6-0.6-0.9L9.4,15.3z M6.7,12.5
				l-0.8,0.9c0.5,0.5,1,1,1.5,1.5l0.9-0.8C7.7,13.5,7.2,13,6.7,12.5z M3.6,10.1l-0.7,1c0.6,0.4,1.1,0.8,1.7,1.3l0.7-0.9
				C4.8,10.9,4.2,10.5,3.6,10.1z"/>
		</g>
		<g transform="translate(15.159 14.679)">
			<path class="st1" d="M-0.7,11.7c0.9,1.3,1.6,2.6,2.2,4s1,2.9,1.3,4.4l11.6-2.3c-0.5-2.3-1.1-4.5-2-6.6c-0.9-2.1-2-4.2-3.3-6.1
				L-0.7,11.7z"/>
			<path class="st3" d="M8.3,16l-1.1,0.4c0.1,0.3,0.2,0.7,0.3,1l0.3,1l1.1-0.3L8.6,17C8.5,16.7,8.4,16.3,8.3,16z"/>
			<path class="st2" d="M6.9,12.3l-1.1,0.5c0.1,0.3,0.3,0.6,0.4,1l0.4,1l1.1-0.4l-0.4-1C7.2,13,7,12.7,6.9,12.3z"/>
			<polygon class="st2" points="5,8.9 4,9.5 4.6,10.4 5.1,11.3 6.1,10.8 5.6,9.8 			"/>
		</g>
		<g transform="translate(18.703 27.4)">
			<path class="st1" d="M-0.7,7.4c0.6,3,0.6,6.2,0,9.2l11.6,2.3c0.9-4.5,0.9-9.2,0-13.8L-0.7,7.4z"/>
			<path class="st2" d="M5.9,14.8l-1.2-0.1c-0.1,0.7-0.2,1.4-0.3,2.1L5.6,17C5.8,16.3,5.9,15.5,5.9,14.8z M6.1,10.9l-1.2,0l0,1
				c0,0.4,0,0.7,0,1l1.2,0c0-0.4,0-0.7,0-1.1L6.1,10.9z M5.7,7.1L4.5,7.3c0.1,0.4,0.1,0.7,0.2,1l0.1,1L6,9.2L5.8,8.1
				C5.8,7.8,5.7,7.4,5.7,7.1z"/>
		</g>
	</g>
	<g transform="translate(4.691 5.333)">
		<path class="st4" d="M6.9,16.5c-1.1,1-2.1,2.1-2.9,3.3c-8,10.9-5.5,26.3,5.6,34.3s26.6,5.7,34.6-5.3c7-9.6,6-22.6-1.9-31.1"/>
		<g transform="translate(4.704)">
			<g transform="translate(0 2.924)">
				<path class="st1" d="M5.3,16.5c1.5-1.5,3.3-2.7,5.3-3.6L6.8,5c-2.8,1.3-5.4,3.1-7.6,5.2L5.3,16.5z"/>
				<path class="st2" d="M6.8,9.7l0.5,0.8c0.2-0.1,0.4-0.2,0.6-0.4l0.6-0.3L8.1,9L7.4,9.3C7.2,9.4,7,9.5,6.8,9.7z M4.5,11.1l0.5,0.7
					c0.2-0.1,0.4-0.3,0.6-0.4c0.2-0.1,0.4-0.3,0.6-0.4l-0.5-0.7c-0.2,0.1-0.4,0.3-0.6,0.4C5,10.8,4.7,10.9,4.5,11.1z M2.5,12.7
					l0.6,0.6c0.4-0.3,0.7-0.6,1.1-0.9l-0.5-0.7C3.2,12.1,2.9,12.4,2.5,12.7z"/>
			</g>
			<g transform="translate(7.449 .39)">
				<path class="st1" d="M3.2,15.5c1-0.4,2-0.8,3-1.1c1-0.3,2.1-0.5,3.2-0.6L8.2,5c-1.5,0.2-3,0.5-4.5,0.9c-1.5,0.4-2.9,1-4.3,1.6
					L3.2,15.5z"/>
				<path class="st2" d="M6.7,9.4l0.2,0.9c0.2-0.1,0.5-0.1,0.7-0.1S8,10,8.3,10L8.1,9.1c-0.2,0-0.5,0.1-0.7,0.1
					C7.2,9.3,6.9,9.3,6.7,9.4z"/>
				<polygon class="st2" points="4.1,10 4.4,10.9 5.1,10.7 5.8,10.5 5.5,9.7 4.8,9.8 				"/>
				<path class="st2" d="M1.7,11L2,11.8c0.2-0.1,0.4-0.2,0.6-0.3s0.4-0.2,0.7-0.3L3,10.4c-0.2,0.1-0.5,0.2-0.7,0.3
					C2.1,10.8,1.9,10.9,1.7,11z"/>
			</g>
			<g transform="translate(16.27)">
				<path class="st1" d="M0.5,14.1c2.1-0.3,4.3-0.2,6.4,0.2l1.7-8.6C5.5,5.1,2.4,5-0.6,5.4L0.5,14.1z"/>
				<path class="st2" d="M5.7,9.4l-0.1,0.9l0.7,0.1c0.2,0,0.5,0.1,0.7,0.1l0.2-0.9C7,9.6,6.7,9.5,6.5,9.5L5.7,9.4z M3.1,9.2v0.9
					c0.2,0,0.5,0,0.7,0c0.2,0,0.5,0,0.7,0l0.1-0.9c-0.2,0-0.5,0-0.7,0C3.6,9.2,3.4,9.2,3.1,9.2z"/>
				<polygon class="st2" points="0.5,9.4 0.6,10.2 1.3,10.2 2,10.1 2,9.3 1.2,9.3 				"/>
			</g>
			<g transform="translate(23.718 .585)">
				<path class="st1" d="M-0.6,13.7c2.1,0.4,4.1,1.2,6,2.2l4.3-7.6C7.1,6.8,4.2,5.7,1.1,5.1L-0.6,13.7z"/>
				<path class="st2" d="M5.9,10.9l-0.4,0.8c0.4,0.2,0.8,0.4,1.3,0.6l0.4-0.8C6.8,11.3,6.3,11.1,5.9,10.9z M3.4,9.9l-0.3,0.8
					c0.5,0.2,0.9,0.3,1.3,0.5l0.3-0.8C4.4,10.2,3.9,10.1,3.4,9.9z M0.9,9.2l-0.2,0.9c0.2,0,0.5,0.1,0.7,0.2c0.2,0.1,0.5,0.1,0.7,0.2
					l0.2-0.8C2.1,9.5,1.9,9.5,1.6,9.4C1.4,9.3,1.2,9.3,0.9,9.2z"/>
			</g>
			<g transform="translate(29.794 3.704)">
				<path class="st1" d="M-0.7,12.8c1.9,1,3.6,2.4,5,4l6.5-5.9C8.8,8.6,6.3,6.7,3.7,5.2L-0.7,12.8z"/>
				<path class="st2" d="M6.4,12.1l-0.6,0.6c0.4,0.3,0.7,0.6,1,1l0.6-0.6C7.1,12.8,6.8,12.5,6.4,12.1z M4.4,10.5l-0.5,0.7
					C4.2,11.4,4.6,11.7,5,12l0.6-0.7C5.2,11,4.8,10.8,4.4,10.5z M2.2,9L1.7,9.8c0.2,0.1,0.4,0.3,0.6,0.4c0.2,0.1,0.4,0.3,0.6,0.4
					l0.5-0.7C3.2,9.7,3,9.5,2.8,9.4C2.6,9.3,2.4,9.1,2.2,9z"/>
			</g>
		</g>
	</g>
	<g>
		<g>
			<ellipse id="group-9-b" cx="28.4" cy="39.3" rx="18.4" ry="18.3"/>
		</g>
		<g>
			
				<radialGradient id="group-9-b_2_" cx="-214.2598" cy="284.5272" r="0.485" gradientTransform="matrix(36.666 0 0 -36.666 7885.0972 10471.8057)" gradientUnits="userSpaceOnUse">
				<stop  offset="0" style="stop-color:#C1F1F0"/>
				<stop  offset="0.5104" style="stop-color:#47B3AF"/>
				<stop  offset="1" style="stop-color:#2E6B72"/>
			</radialGradient>
			<ellipse id="group-9-b_1_" class="st5" cx="28.4" cy="39.3" rx="18.4" ry="18.3"/>
		</g>
	</g>
	<g transform="translate(34.178 23.333)">
		<path class="st6" d="M4.6,23.5c-0.1,0-0.2,0-0.2-0.1s-0.1-0.2,0-0.3c1.5-3.8,1-8.1-1.4-11.5C2,10.4,0.9,9.3-0.4,8.5
			c-0.1,0-0.1-0.1-0.1-0.2s0-0.2,0.1-0.2l3.9-2.8c0,0,0.1-0.1,0.2-0.1s0.1,0,0.2,0.1c1,0.7,1.8,1.6,2.5,2.5
			c3.5,4.8,2.9,11.5-1.4,15.6C4.8,23.4,4.7,23.5,4.6,23.5L4.6,23.5z"/>
		<path class="st6" d="M3.6,5.2c0.1,0,0.1,0,0.2,0.1C4.6,6,5.5,6.8,6.2,7.8c1.7,2.3,2.5,5.2,2.2,8.1c-0.3,2.9-1.5,5.5-3.6,7.5
			c0,0-0.1,0.1-0.2,0.1c-0.1,0-0.2,0-0.2-0.1c0-0.1-0.1-0.1,0-0.2c1.5-3.8,1-8.1-1.4-11.5C2,10.4,0.9,9.3-0.5,8.5
			c-0.1,0-0.1-0.1-0.1-0.2s0-0.2,0.1-0.2l3.9-2.8C3.5,5.2,3.5,5.2,3.6,5.2 M3.6,5.2c-0.1,0-0.1,0-0.2,0.1L-0.5,8
			c-0.2,0.1-0.2,0.4,0,0.5c1.3,0.8,2.4,1.8,3.4,3.1c2.5,3.4,2.9,7.8,1.4,11.4c-0.1,0.2,0.1,0.4,0.3,0.4c0.1,0,0.1,0,0.2-0.1
			c4.3-4.1,4.9-10.8,1.4-15.6C5.5,6.8,4.6,6,3.7,5.3C3.7,5.2,3.6,5.2,3.6,5.2L3.6,5.2z"/>
	</g>
	<g transform="translate(36.859 44.667)">
		<ellipse class="st6" cx="0.6" cy="6" rx="1.2" ry="1"/>
		<path class="st6" d="M0.6,5.1c0.6,0,1.1,0.4,1.1,0.9S1.2,6.9,0.6,6.9S-0.5,6.5-0.5,6C-0.5,5.5,0,5.1,0.6,5.1 M0.6,5
			C0,5-0.6,5.5-0.6,6S0,7,0.6,7s1.2-0.4,1.2-1S1.3,5,0.6,5L0.6,5z"/>
	</g>
</g>
<g>
	<g class="st7">
		<path class="st6" d="M73.4,18.7c1.9,0,3.6,0.2,5,0.6c1.4,0.4,2.6,0.9,3.5,1.7c0.9,0.7,1.6,1.7,2.1,2.7c0.4,1.1,0.7,2.3,0.7,3.6
			c0,0.9-0.2,1.8-0.5,2.6c-0.3,0.8-0.8,1.6-1.3,2.3s-1.3,1.3-2.2,1.8c-0.9,0.5-1.8,0.9-2.9,1.2c2.7,0.4,4.7,1.3,6.2,2.7
			c1.4,1.4,2.1,3.2,2.1,5.5c0,1.4-0.3,2.7-0.8,3.9c-0.5,1.2-1.3,2.1-2.2,2.9s-2.2,1.4-3.6,1.8c-1.4,0.4-3,0.6-4.8,0.6h-11v-34H73.4z
			 M66.1,20.7v13.9h7.3c1.6,0,2.9-0.2,4-0.6c1.1-0.4,2-0.9,2.7-1.6s1.2-1.4,1.6-2.2c0.3-0.8,0.5-1.7,0.5-2.6c0-2.3-0.7-4-2.2-5.2
			c-1.4-1.2-3.7-1.8-6.7-1.8H66.1z M74.6,50.7c3,0,5.2-0.6,6.8-1.9c1.5-1.3,2.3-3.1,2.3-5.4c0-1.1-0.2-2-0.6-2.9
			c-0.4-0.9-1-1.6-1.8-2.2c-0.8-0.6-1.7-1.1-2.8-1.4s-2.4-0.5-3.8-0.5h-8.5v14.3H74.6z"/>
		<path class="st6" d="M114.2,22.8c-0.1,0.3-0.4,0.4-0.6,0.4c-0.2,0-0.5-0.1-0.8-0.4c-0.3-0.3-0.8-0.6-1.3-1c-0.6-0.4-1.3-0.7-2.1-1
			s-1.9-0.5-3.1-0.5s-2.3,0.2-3.3,0.5c-0.9,0.4-1.7,0.8-2.4,1.4c-0.6,0.6-1.1,1.3-1.4,2.1s-0.5,1.6-0.5,2.5c0,1.2,0.2,2.1,0.7,2.9
			c0.5,0.8,1.1,1.4,1.9,1.9c0.8,0.5,1.7,1,2.7,1.3c1,0.4,2.1,0.7,3.1,1.1c1.1,0.4,2.1,0.7,3.1,1.2c1,0.4,1.9,1,2.7,1.6
			c0.8,0.6,1.4,1.4,1.9,2.4c0.5,0.9,0.7,2.1,0.7,3.5c0,1.4-0.2,2.8-0.7,4c-0.5,1.3-1.2,2.3-2.1,3.3c-0.9,0.9-2.1,1.7-3.4,2.2
			s-2.9,0.8-4.6,0.8c-2.2,0-4.2-0.4-5.8-1.2s-3-1.9-4.2-3.3l0.7-1.1c0.2-0.2,0.4-0.4,0.7-0.4c0.1,0,0.3,0.1,0.6,0.3
			c0.2,0.2,0.5,0.4,0.8,0.7c0.3,0.3,0.7,0.6,1.2,0.9c0.4,0.3,1,0.6,1.6,0.9c0.6,0.3,1.3,0.5,2,0.7c0.8,0.2,1.6,0.3,2.6,0.3
			c1.3,0,2.5-0.2,3.6-0.6c1.1-0.4,1.9-1,2.7-1.7c0.7-0.7,1.3-1.5,1.7-2.5c0.4-1,0.6-2,0.6-3.1c0-1.2-0.2-2.2-0.7-3
			c-0.5-0.8-1.1-1.4-1.9-1.9c-0.8-0.5-1.7-1-2.7-1.3c-1-0.4-2.1-0.7-3.1-1c-1.1-0.3-2.1-0.7-3.1-1.1c-1-0.4-1.9-0.9-2.7-1.6
			c-0.8-0.6-1.4-1.5-1.9-2.4c-0.5-1-0.7-2.2-0.7-3.6c0-1.1,0.2-2.2,0.6-3.3c0.4-1.1,1.1-2,1.9-2.8s1.9-1.5,3.1-1.9
			c1.2-0.5,2.6-0.7,4.2-0.7c1.8,0,3.3,0.3,4.7,0.8c1.4,0.6,2.7,1.4,3.8,2.6L114.2,22.8z"/>
		<path class="st6" d="M147.6,50.6l0,2h-20.4v-34h20.4v2h-17.9v13.7h14.9v2h-14.9v14.2H147.6z"/>
		<path class="st6" d="M182.3,52.7h-2.1c-0.3,0-0.5,0-0.7-0.1s-0.4-0.3-0.5-0.5l-10.9-13.8c-0.1-0.2-0.3-0.3-0.4-0.5
			c-0.1-0.1-0.3-0.2-0.5-0.3c-0.2-0.1-0.4-0.1-0.6-0.2c-0.2,0-0.5,0-0.9,0h-4.4v15.4h-2.5v-34h8.7c3.9,0,6.8,0.8,8.8,2.3
			c1.9,1.5,2.9,3.7,2.9,6.7c0,1.3-0.2,2.5-0.7,3.6c-0.4,1.1-1.1,2-1.9,2.8c-0.8,0.8-1.9,1.5-3,2c-1.2,0.5-2.5,0.9-4,1
			c0.4,0.2,0.7,0.6,1,1L182.3,52.7z M167.2,35.5c1.5,0,2.9-0.2,4-0.5c1.2-0.4,2.2-0.9,3-1.5c0.8-0.7,1.5-1.5,1.9-2.4
			c0.4-0.9,0.6-2,0.6-3.2c0-2.4-0.8-4.2-2.4-5.4s-3.9-1.8-6.9-1.8h-6.2v14.8H167.2z"/>
		<path class="st6" d="M216.9,18.7l-14,34h-2.2l-14-34h1.9c0.2,0,0.4,0.1,0.6,0.2c0.1,0.1,0.3,0.3,0.3,0.5l11.6,28.2
			c0.1,0.4,0.3,0.7,0.4,1.1c0.1,0.4,0.2,0.8,0.4,1.2c0.1-0.4,0.2-0.8,0.3-1.2c0.1-0.4,0.2-0.8,0.4-1.1l11.5-28.2
			c0.1-0.2,0.2-0.3,0.3-0.5s0.4-0.2,0.6-0.2H216.9z"/>
		<path class="st6" d="M249.8,52.7h-1.9c-0.2,0-0.4-0.1-0.6-0.2c-0.1-0.1-0.3-0.3-0.3-0.5l-4-9.9h-16.7l-4,9.9
			c-0.1,0.2-0.2,0.3-0.3,0.5c-0.2,0.1-0.4,0.2-0.6,0.2h-1.9l13.9-34h2.4L249.8,52.7z M242.3,40.3l-6.9-17.2c-0.2-0.6-0.5-1.2-0.7-2
			c-0.1,0.4-0.2,0.7-0.3,1.1c-0.1,0.3-0.2,0.7-0.4,0.9l-6.9,17.1H242.3z"/>
	</g>
</g>
</svg>
