<svg id="Camada_1" data-name="Camada 1" xmlns="http://www.w3.org/2000/svg" viewBox="0 0 167.28 38.66"><defs><style>.cls-1{fill:#2b2523;}.cls-2{fill:#686969;}.cls-3{fill:#fff;}</style></defs><title>site-observa</title><rect class="cls-1" width="93.11" height="38.66"/><rect class="cls-2" x="93.11" width="74.16" height="38.66"/><path class="cls-3" d="M64.12,5.16H54.45V33.52h9.67a14.18,14.18,0,1,0,0-28.36m0,23.2H59.61v-18h4.51a9,9,0,1,1,0,18"/><rect class="cls-3" x="81.53" y="5.17" width="5.15" height="28.35"/><path class="cls-3" d="M26.11,14.81a10.31,10.31,0,0,0-20.62,0V33.52h5.15V14.81a5.15,5.15,0,0,1,10.31,0V33.52h5.15Z"/><path class="cls-3" d="M19.67,21.94a3.87,3.87,0,1,0-3.86,3.87,3.87,3.87,0,0,0,3.86-3.87"/><path class="cls-3" d="M102.83,21.55A3.42,3.42,0,0,1,99.51,18a3.42,3.42,0,0,1,3.32-3.59A3.12,3.12,0,0,1,106,16.66h-1.41a1.89,1.89,0,0,0-1.72-1.09,2.23,2.23,0,0,0-2,2.39,2.23,2.23,0,0,0,2,2.4,1.93,1.93,0,0,0,1.72-1.11H106a3.16,3.16,0,0,1-3.12,2.3"/><path class="cls-3" d="M111.43,18.88a2.57,2.57,0,1,1-2.57-2.68,2.59,2.59,0,0,1,2.57,2.68m-1.32,0a1.28,1.28,0,1,0-2.51,0,1.27,1.27,0,1,0,2.51,0"/><path class="cls-3" d="M119.79,21.43h-1.31v-3a.89.89,0,0,0-1-1,.94.94,0,0,0-1,1v3h-1.31v-3a.88.88,0,0,0-.95-1,.93.93,0,0,0-1,1v3H112v-3a2.19,2.19,0,0,1,2.3-2.28,2,2,0,0,1,1.62.72,2.24,2.24,0,0,1,3.9,1.56Z"/><path class="cls-3" d="M122.73,21.55a2.13,2.13,0,0,1-2.27-2.28V16.33h1.31v3a.89.89,0,0,0,1,1,1,1,0,0,0,1-1v-3H125v2.94a2.19,2.19,0,0,1-2.3,2.28"/><path class="cls-3" d="M128.07,16.2a2.13,2.13,0,0,1,2.27,2.28v3H129v-3a.89.89,0,0,0-1-1,.94.94,0,0,0-1,1v3h-1.31v-3a2.19,2.19,0,0,1,2.3-2.28"/><path class="cls-3" d="M131.2,15.77V15a.66.66,0,0,1,1.32,0v.73Zm1.32,5.65h-1.31v-5.1h1.31Z"/><path class="cls-3" d="M135.76,21.55a2.67,2.67,0,0,1,0-5.35A2.41,2.41,0,0,1,138.21,18h-1.4a1.22,1.22,0,0,0-1.06-.64,1.49,1.49,0,0,0,0,3,1.21,1.21,0,0,0,1.07-.65h1.39a2.4,2.4,0,0,1-2.47,1.84"/><path class="cls-3" d="M143.77,21.43h-1.23v-.54a2.05,2.05,0,0,1-1.56.65,2.56,2.56,0,0,1-2.44-2.65,2.62,2.62,0,1,1,5.24,0Zm-2.61-4a1.46,1.46,0,1,0,1.31,1.46,1.39,1.39,0,0,0-1.31-1.46"/><path class="cls-3" d="M146.7,21.94a.79.79,0,0,1,1.12.65.8.8,0,0,1-.91.79,1.41,1.41,0,0,1-1-.42l.18-.31a1,1,0,0,0,.7.27c.23,0,.42-.11.42-.32a.35.35,0,0,0-.39-.33.5.5,0,0,0-.35.13l-.36-.24.34-.65a2.68,2.68,0,0,1,.38-5.33A2.42,2.42,0,0,1,149.34,18h-1.41a1.19,1.19,0,0,0-1.06-.57,1.37,1.37,0,0,0-1.31,1.42,1.36,1.36,0,0,0,1.31,1.4,1.18,1.18,0,0,0,1.07-.59h1.4a2.39,2.39,0,0,1-2.4,1.85Z"/><path class="cls-3" d="M155.1,21.43h-1.24v-.54a2.06,2.06,0,0,1-1.55.65,2.56,2.56,0,0,1-2.44-2.65,2.62,2.62,0,1,1,5.24,0Zm-1.81-5.87c-.58,0-1-.37-1.39-.37-.23,0-.38.12-.44.4h-.62c.09-.59.43-1.18,1.09-1.18s1,.38,1.35.38.35-.12.43-.42h.61c-.08.6-.42,1.18-1,1.18m-.8,1.87a1.46,1.46,0,1,0,1.31,1.46,1.39,1.39,0,0,0-1.31-1.46"/><path class="cls-3" d="M160.78,18.88a2.57,2.57,0,1,1-2.57-2.68,2.59,2.59,0,0,1,2.57,2.68m-1.32,0a1.28,1.28,0,1,0-2.51,0,1.27,1.27,0,1,0,2.51,0"/><path class="cls-3" d="M104.56,29.26A2.41,2.41,0,0,1,102.09,31a2.67,2.67,0,0,1,0-5.35,2.47,2.47,0,0,1,2.5,2.14L101,29.32a1.34,1.34,0,0,0,1.09.54,1.2,1.2,0,0,0,1.08-.6Zm-1.46-2a1.29,1.29,0,0,0-1-.46,1.42,1.42,0,0,0-1.39,1.47Z"/><path class="cls-3" d="M111.08,30.89h-2.55V24h2.55c1.91,0,3.1,1.32,3.1,3.44s-1.22,3.44-3.1,3.44m0-5.66h-1.24v4.44h1.24c1.55,0,1.79-1.4,1.79-2.23,0-1-.32-2.21-1.79-2.21"/><path class="cls-3" d="M114.89,25.23V24.5a.66.66,0,0,1,1.32,0v.73Zm1.32,5.66H114.9v-5.1h1.31Z"/><path class="cls-3" d="M119.77,26.92c-.84-.15-1.39.3-1.39,1v3h-1.31v-3a2.18,2.18,0,0,1,2.69-2.25Z"/><path class="cls-3" d="M124.94,29.26A2.42,2.42,0,0,1,122.47,31a2.67,2.67,0,0,1,0-5.35A2.47,2.47,0,0,1,125,27.8l-3.6,1.52a1.33,1.33,0,0,0,1.09.54,1.19,1.19,0,0,0,1.08-.6Zm-1.47-2a1.28,1.28,0,0,0-1-.46,1.42,1.42,0,0,0-1.38,1.47Z"/><path class="cls-3" d="M125.82,25.31v-.73a.66.66,0,0,1,1.31,0v.73ZM127.13,31h-1.31v-5.1h1.31Z"/><path class="cls-3" d="M130.23,31a1.92,1.92,0,0,1-2.29-2.14V24.57h1.31v1.3h.92V27h-.92v1.8c0,.71.33,1,1,.94Z"/><path class="cls-3" d="M135.66,28.41a2.57,2.57,0,1,1-2.57-2.68,2.59,2.59,0,0,1,2.57,2.68m-1.31,0a1.28,1.28,0,1,0-2.52,0,1.27,1.27,0,1,0,2.52,0"/><path class="cls-3" d="M135.81,29.69a1,1,0,0,0,.82-.19c.13-.12.26-.35.26-1.1a2.61,2.61,0,0,1,.67-2,2.09,2.09,0,0,1,1.72-.53v1.27a.93.93,0,0,0-.82.22c-.12.13-.26.32-.26,1a2.72,2.72,0,0,1-.65,2.06,2.18,2.18,0,0,1-1.73.49Z"/><path class="cls-3" d="M50.58,14.81a10.31,10.31,0,0,0-20.62,0V33.52h5.15V14.81a5.15,5.15,0,0,1,10.31,0V33.52h5.15Z"/></svg>