<svg xmlns="http://www.w3.org/2000/svg" viewBox="0 0 110 97.53"><defs><style>.cls-1{isolation:isolate;}.cls-2{fill:#fff;}.cls-3{fill:#d6d6d6;}.cls-3,.cls-4,.cls-6,.cls-7{mix-blend-mode:multiply;}.cls-4{fill:#b2b2b2;}.cls-5{fill:#969696;}.cls-6{fill:#383838;}.cls-7,.cls-8{fill:none;}.cls-7{stroke:#383838;stroke-width:0.5px;}</style></defs><title>site-observa</title><g class="cls-1"><g id="Camada_1" data-name="Camada 1"><polygon class="cls-2" points="9.59 33.95 14.51 38.88 14.51 29.02 9.59 33.95"/><polygon class="cls-3" points="9.59 33.95 14.51 38.88 14.51 29.02 9.59 33.95"/><polygon class="cls-2" points="53.39 38.88 38.88 53.39 53.39 53.39 53.39 38.88"/><polygon class="cls-2" points="14.51 14.51 14.51 29.02 29.02 14.51 14.51 14.51"/><polygon class="cls-2" points="14.51 53.39 29.02 53.39 14.51 38.88 14.51 53.39"/><polygon class="cls-2" points="53.39 14.51 38.88 14.51 53.39 29.02 53.39 14.51"/><polygon class="cls-2" points="33.95 58.31 38.88 53.39 29.02 53.39 33.95 58.31"/><polygon class="cls-2" points="33.95 9.59 29.02 14.51 38.88 14.51 33.95 9.59"/><polygon class="cls-2" points="58.31 33.95 53.39 29.02 53.39 38.88 58.31 33.95"/><path class="cls-2" d="M53.39,29,38.88,14.51H29L14.51,29v9.85L29,53.39h9.85L53.39,38.88ZM34,45.28A11.33,11.33,0,1,1,45.29,34,11.33,11.33,0,0,1,34,45.28Z"/><path class="cls-2" d="M34,22.62A11.33,11.33,0,1,0,45.29,34,11.33,11.33,0,0,0,34,22.62Zm0,20.32a9,9,0,1,1,9-9A9,9,0,0,1,34,42.94Z"/><path class="cls-2" d="M34,25a9,9,0,1,0,9,9A9,9,0,0,0,34,25Zm0,14.1A5.11,5.11,0,1,1,39.06,34,5.11,5.11,0,0,1,34,39.06Z"/><circle class="cls-2" cx="33.95" cy="33.95" r="5.11"/><polygon class="cls-4" points="53.39 38.88 38.88 53.39 53.39 53.39 53.39 38.88"/><polygon class="cls-4" points="14.51 14.51 14.51 29.02 29.02 14.51 14.51 14.51"/><polygon class="cls-4" points="14.51 53.39 29.02 53.39 14.51 38.88 14.51 53.39"/><polygon class="cls-4" points="53.39 14.51 38.88 14.51 53.39 29.02 53.39 14.51"/><polygon class="cls-3" points="33.95 58.31 38.88 53.39 29.02 53.39 33.95 58.31"/><polygon class="cls-3" points="33.95 9.59 29.02 14.51 38.88 14.51 33.95 9.59"/><polygon class="cls-3" points="58.31 33.95 53.39 29.02 53.39 38.88 58.31 33.95"/><path class="cls-5" d="M53.39,29,38.88,14.51H29L14.51,29v9.85L29,53.39h9.85L53.39,38.88ZM34,45.28A11.33,11.33,0,1,1,45.29,34,11.33,11.33,0,0,1,34,45.28Z"/><path d="M34,22.62A11.33,11.33,0,1,0,45.29,34,11.33,11.33,0,0,0,34,22.62Zm0,20.32a9,9,0,1,1,9-9A9,9,0,0,1,34,42.94Z"/><path class="cls-6" d="M34,25a9,9,0,1,0,9,9A9,9,0,0,0,34,25Zm0,14.1A5.11,5.11,0,1,1,39.06,34,5.11,5.11,0,0,1,34,39.06Z"/><circle class="cls-2" cx="33.95" cy="33.95" r="5.11"/><path class="cls-7" d="M34,25a9,9,0,1,0,9,9A9,9,0,0,0,34,25Z"/><rect class="cls-8" width="67.9" height="97.53"/><path class="cls-2" d="M65.39,21.39a.55.55,0,0,1,.6-.61h2a2.26,2.26,0,0,1,2.45,2.17,2,2,0,0,1-1.26,2v0a2.21,2.21,0,0,1,2,2.24,2.68,2.68,0,0,1-3,2.65H66a.55.55,0,0,1-.6-.61Zm1.12,3.22h1.27a1.4,1.4,0,0,0,1.5-1.47,1.31,1.31,0,0,0-1.46-1.4H66.51Zm0,4.27h1.58A1.72,1.72,0,0,0,70,27.2a1.67,1.67,0,0,0-1.85-1.67H66.51Z"/><path class="cls-2" d="M73.45,26.9a1.93,1.93,0,0,0,2,2.06c1.49,0,1.87-.92,2.29-.92a.44.44,0,0,1,.41.5c0,.55-1.39,1.39-2.71,1.39-2.17,0-3.11-1.67-3.11-3.47a3.18,3.18,0,0,1,3-3.47,3.09,3.09,0,0,1,2.92,3.3c0,.39-.14.6-.62.6Zm3.72-.84A1.91,1.91,0,0,0,75.38,24C74,23.92,73.49,25,73.45,26.05Z"/><path class="cls-2" d="M79.87,23.6a.56.56,0,1,1,1.12,0v.57h0A2,2,0,0,1,82.55,23a.57.57,0,0,1,.62.57c0,.32-.23.52-.7.61A1.77,1.77,0,0,0,81,26.11v3.22a.56.56,0,1,1-1.12,0Z"/><path class="cls-2" d="M84.39,23.6a.56.56,0,1,1,1.12,0v.27l0,0a2.38,2.38,0,0,1,4.23,1.68v3.76a.56.56,0,1,1-1.12,0V25.63a1.57,1.57,0,1,0-3.13,0v3.69a.56.56,0,1,1-1.12,0Z"/><path class="cls-2" d="M97.36,29.38a.52.52,0,0,1-.52.55.51.51,0,0,1-.52-.55v-.47h0a2.19,2.19,0,0,1-1.85,1c-1.91,0-3-1.67-3-3.47s1.07-3.47,3-3.47a2.37,2.37,0,0,1,1.85.9h0v-.36a.51.51,0,0,1,.52-.55.52.52,0,0,1,.52.55ZM94.44,29c1.38,0,1.86-1.35,1.86-2.5S95.82,24,94.44,24s-1.86,1.35-1.86,2.5S93.07,29,94.44,29Z"/><path class="cls-2" d="M99.35,23.6a.56.56,0,1,1,1.12,0v.57h0A2,2,0,0,1,102,23a.57.57,0,0,1,.62.57c0,.32-.23.52-.7.61a1.77,1.77,0,0,0-1.48,1.92v3.22a.56.56,0,1,1-1.12,0Z"/><path class="cls-2" d="M108.3,29h0a1.85,1.85,0,0,1-1.81.93c-1.84,0-2.89-1.67-2.89-3.47S104.63,23,106.47,23a2.22,2.22,0,0,1,1.81.92h0v-3.3a.56.56,0,1,1,1.12,0v8.71a.56.56,0,1,1-1.12,0Zm-1.74-5c-1.38,0-1.86,1.35-1.86,2.5s.48,2.5,1.86,2.5,1.86-1.35,1.86-2.5S107.94,24,106.56,24Z"/><path class="cls-2" d="M64.93,33.72a1.31,1.31,0,0,1-.11-.45.48.48,0,0,1,.5-.51.53.53,0,0,1,.57.42l1.5,4.55h0l1.5-4.55a.53.53,0,0,1,.57-.42.49.49,0,0,1,.5.51,1.25,1.25,0,0,1-.11.45L68,39c-.11.32-.22.47-.57.47s-.46-.15-.57-.47Z"/><path class="cls-2" d="M76.67,39a.5.5,0,0,1-.51.53.5.5,0,0,1-.51-.53V38.5h0a2.13,2.13,0,0,1-1.79,1c-1.85,0-2.89-1.62-2.89-3.36s1-3.36,2.89-3.36a2.3,2.3,0,0,1,1.79.88h0V33.3a.5.5,0,0,1,.51-.53.5.5,0,0,1,.51.53Zm-2.83-.41c1.33,0,1.8-1.31,1.8-2.42s-.47-2.42-1.8-2.42S72,35,72,36.13,72.5,38.55,73.84,38.55Z"/><path class="cls-2" d="M78.6,33.35a.54.54,0,1,1,1.09,0v.26l0,0a2.31,2.31,0,0,1,4.1,1.63v3.65a.54.54,0,1,1-1.09,0V35.32a1.52,1.52,0,1,0-3,0v3.58a.54.54,0,1,1-1.09,0Z"/><path class="cls-2" d="M88.75,38.4h2.32a.51.51,0,1,1,0,1H88.24a.54.54,0,0,1-.58-.59V32.47a.55.55,0,1,1,1.09,0Z"/><path class="cls-2" d="M93.65,36.55a1.87,1.87,0,0,0,1.94,2c1.44,0,1.82-.89,2.22-.89a.43.43,0,0,1,.4.48c0,.53-1.35,1.35-2.63,1.35-2.1,0-3-1.62-3-3.36a3.09,3.09,0,0,1,3-3.36A3,3,0,0,1,98.35,36c0,.38-.13.58-.6.58Zm3.61-.82a1.85,1.85,0,0,0-1.74-2c-1.35,0-1.83,1-1.86,2Z"/><path class="cls-2" d="M100.57,36.55a1.87,1.87,0,0,0,1.94,2c1.44,0,1.81-.89,2.22-.89a.43.43,0,0,1,.4.48c0,.53-1.35,1.35-2.63,1.35-2.1,0-3-1.62-3-3.36a3.09,3.09,0,0,1,3-3.36,3,3,0,0,1,2.83,3.2c0,.38-.14.58-.6.58Zm3.61-.82a1.85,1.85,0,0,0-1.74-2c-1.35,0-1.83,1-1.87,2Z"/><path class="cls-2" d="M106.8,33.35a.54.54,0,1,1,1.09,0v.56h0a2,2,0,0,1,1.48-1.14.55.55,0,0,1,.61.56c0,.31-.22.51-.68.59a1.71,1.71,0,0,0-1.43,1.87v3.13a.54.54,0,1,1-1.09,0Z"/><path class="cls-2" d="M65.92,46.48a.28.28,0,1,1-.55,0V42.59a.27.27,0,0,1,.29-.3h1.56a.26.26,0,1,1,0,.51H65.92v1.45h1.15a.26.26,0,1,1,0,.51H65.92Z"/><path class="cls-2" d="M70.79,42.25a2.29,2.29,0,1,1-1.95,2.26A2.05,2.05,0,0,1,70.79,42.25Zm0,4c1,0,1.36-.94,1.36-1.79s-.36-1.79-1.36-1.79-1.36.94-1.36,1.79S69.79,46.3,70.79,46.3Z"/><path class="cls-2" d="M74.38,42.55a.28.28,0,1,1,.55,0v2.64a1.18,1.18,0,0,0,2.35,0V42.55a.28.28,0,1,1,.55,0V45a1.73,1.73,0,1,1-3.45,0Z"/><path class="cls-2" d="M80.2,46.48a.28.28,0,1,1-.55,0V42.58c0-.22.07-.33.25-.33s.24.07.39.29l2.25,3.23h0V42.55a.28.28,0,1,1,.55,0v3.9c0,.22-.07.33-.25.33s-.24-.07-.39-.29l-2.25-3.23h0Z"/><path class="cls-2" d="M84.94,42.59a.27.27,0,0,1,.29-.3h1.08a2,2,0,0,1,2,2.2c0,1.33-.71,2.25-1.9,2.25H85.23a.27.27,0,0,1-.29-.3Zm.55,3.67h.79c1,0,1.42-.87,1.42-1.78s-.41-1.72-1.46-1.72h-.75Z"/><path class="cls-2" d="M90.17,46.57a.27.27,0,0,1-.27.21.24.24,0,0,1-.26-.23,1.23,1.23,0,0,1,.08-.27l1.38-3.68c.07-.19.18-.34.39-.34s.33.14.39.34l1.38,3.68a1.28,1.28,0,0,1,.07.27.24.24,0,0,1-.26.23.27.27,0,0,1-.27-.21l-.29-.8H90.45Zm1.33-3.68h0l-.86,2.41h1.72Z"/><path class="cls-2" d="M95.14,42.8h-.83a.26.26,0,1,1,0-.51h2.21a.26.26,0,1,1,0,.51h-.83v3.68a.27.27,0,1,1-.55,0Z"/><path class="cls-2" d="M98.8,46.48a.28.28,0,1,1-.55,0V42.55a.28.28,0,1,1,.55,0Z"/><path class="cls-2" d="M102.4,42.25a2.29,2.29,0,1,1-1.95,2.26A2.05,2.05,0,0,1,102.4,42.25Zm0,4c1,0,1.36-.94,1.36-1.79s-.36-1.79-1.36-1.79-1.36.94-1.36,1.79S101.4,46.3,102.4,46.3Z"/><path class="cls-2" d="M106.54,46.48a.27.27,0,1,1-.55,0V42.58c0-.22.08-.33.25-.33s.24.07.39.29l2.25,3.23h0V42.55a.28.28,0,1,1,.55,0v3.9c0,.22-.08.33-.25.33s-.24-.07-.39-.29l-2.25-3.23h0Z"/></g></g></svg>