<svg xmlns="http://www.w3.org/2000/svg" viewBox="0 0 109 54">
	<style>
		tspan { white-space:pre }
		.shp0 { fill: #ffffff }
		.shp1 { mix-blend-mode: multiply;fill: #d6d6d6 }
		.shp2 { mix-blend-mode: multiply;fill: #b2b2b2 }
		.shp3 { fill: #969696 }
		.shp4 { fill: #000000 }
		.shp5 { mix-blend-mode: multiply;fill: #383838 }
		.shp6 { mix-blend-mode: multiply;fill: none;stroke: #383838;stroke-width: 0.5 }
	</style>
	<g id="Layer">
		<g id="Camada_1">
			<path id="Layer" class="shp0" d="M0.38 26.73L5.7 32.07L5.7 21.4L0.38 26.73L0.38 26.73Z" />
			<path id="Layer" class="shp1" d="M0.38 26.73L5.7 32.07L5.7 21.4L0.38 26.73L0.38 26.73Z" />
			<path id="Layer" class="shp0" d="M47.77 32.07L32.07 47.77L47.77 47.77L47.77 32.07L47.77 32.07Z" />
			<path id="Layer" class="shp0" d="M5.7 5.7L5.7 21.4L21.4 5.7L5.7 5.7L5.7 5.7Z" />
			<path id="Layer" class="shp0" d="M5.7 47.77L21.4 47.77L5.7 32.07L5.7 47.77L5.7 47.77Z" />
			<path id="Layer" class="shp0" d="M47.77 5.7L32.07 5.7L47.77 21.4L47.77 5.7L47.77 5.7Z" />
			<path id="Layer" class="shp0" d="M26.73 53.09L32.07 47.77L21.4 47.77L26.73 53.09L26.73 53.09Z" />
			<path id="Layer" class="shp0" d="M26.73 0.38L21.4 5.7L32.07 5.7L26.73 0.38L26.73 0.38Z" />
			<path id="Layer" class="shp0" d="M53.09 26.73L47.77 21.4L47.77 32.07L53.09 26.73L53.09 26.73Z" />
			<path id="Layer" fill-rule="evenodd" class="shp0" d="M47.77 32.07L32.04 47.77L21.38 47.77L5.7 32.04L5.7 21.38L21.38 5.7L32.07 5.7L47.77 21.38L47.77 32.07ZM26.79 38.99C28.39 38.99 29.98 38.67 31.45 38.05C32.93 37.44 34.28 36.54 35.41 35.41C36.54 34.27 37.44 32.93 38.06 31.45C38.68 29.97 39 28.39 39 26.79C39.03 21.82 36.05 17.33 31.46 15.42C26.88 13.51 21.59 14.55 18.08 18.06C14.57 21.57 13.52 26.86 15.43 31.44C17.33 36.03 21.82 39.01 26.79 38.99Z" />
			<path id="Layer" fill-rule="evenodd" class="shp0" d="M26.79 14.48C28.4 14.48 29.99 14.8 31.48 15.43C32.96 16.05 34.31 16.96 35.45 18.1C36.58 19.24 37.48 20.6 38.09 22.09C38.7 23.58 39.01 25.18 39 26.79C38.98 31.75 35.98 36.2 31.39 38.08C26.8 39.96 21.53 38.89 18.04 35.37C14.55 31.85 13.52 26.57 15.44 22C17.35 17.43 21.83 14.46 26.79 14.48ZM30.52 35.72C31.7 35.23 32.77 34.51 33.67 33.61C34.58 32.71 35.3 31.63 35.79 30.45C36.27 29.27 36.53 28 36.53 26.72C36.53 22.78 34.15 19.23 30.52 17.73C26.88 16.22 22.69 17.05 19.9 19.84C17.12 22.62 16.28 26.81 17.79 30.45C19.3 34.09 22.85 36.46 26.79 36.46C28.07 36.46 29.33 36.21 30.52 35.72Z" />
			<path id="Layer" fill-rule="evenodd" class="shp0" d="M30.52 17.79C31.7 18.28 32.77 19 33.67 19.9C34.58 20.81 35.3 21.88 35.79 23.06C36.27 24.24 36.53 25.51 36.53 26.79C36.53 30.73 34.15 34.28 30.52 35.79C26.88 37.29 22.69 36.46 19.9 33.67C17.12 30.89 16.28 26.7 17.79 23.06C19.3 19.42 22.85 17.05 26.79 17.05C28.07 17.05 29.33 17.3 30.52 17.79ZM26.79 32.26C27.51 32.26 28.21 32.11 28.88 31.83C29.54 31.55 30.14 31.15 30.64 30.64C31.15 30.14 31.55 29.54 31.83 28.88C32.11 28.21 32.26 27.51 32.26 26.79C32.27 24.55 30.92 22.52 28.85 21.67C26.77 20.81 24.39 21.29 22.81 22.88C21.23 24.48 20.77 26.86 21.64 28.93C22.51 30.99 24.55 32.33 26.79 32.31L26.79 32.26Z" />
			<path id="Layer" class="shp0" d="M26.73 32.26C23.68 32.26 21.21 29.79 21.21 26.73C21.21 23.68 23.68 21.21 26.73 21.21C29.79 21.21 32.26 23.68 32.26 26.73C32.26 29.79 29.79 32.26 26.73 32.26Z" />
			<path id="Layer" class="shp2" d="M47.77 32.07L32.07 47.77L47.77 47.77L47.77 32.07L47.77 32.07Z" />
			<path id="Layer" class="shp2" d="M5.7 5.7L5.7 21.4L21.4 5.7L5.7 5.7L5.7 5.7Z" />
			<path id="Layer" class="shp2" d="M5.7 47.77L21.4 47.77L5.7 32.07L5.7 47.77L5.7 47.77Z" />
			<path id="Layer" class="shp2" d="M47.77 5.7L32.07 5.7L47.77 21.4L47.77 5.7L47.77 5.7Z" />
			<path id="Layer" class="shp1" d="M26.73 53.09L32.07 47.77L21.4 47.77L26.73 53.09L26.73 53.09Z" />
			<path id="Layer" class="shp1" d="M26.73 0.38L21.4 5.7L32.07 5.7L26.73 0.38L26.73 0.38Z" />
			<path id="Layer" class="shp1" d="M53.09 26.73L47.77 21.4L47.77 32.07L53.09 26.73L53.09 26.73Z" />
			<path id="Layer" fill-rule="evenodd" class="shp3" d="M47.77 32.07L32.04 47.77L21.38 47.77L5.7 32.04L5.7 21.38L21.38 5.7L32.07 5.7L47.77 21.38L47.77 32.07ZM26.79 38.99C28.39 38.99 29.98 38.67 31.45 38.05C32.93 37.44 34.28 36.54 35.41 35.41C36.54 34.27 37.44 32.93 38.06 31.45C38.68 29.97 39 28.39 39 26.79C39.03 21.82 36.05 17.33 31.46 15.42C26.88 13.51 21.59 14.55 18.08 18.06C14.57 21.57 13.52 26.86 15.43 31.44C17.33 36.03 21.82 39.01 26.79 38.99Z" />
			<path id="Layer" fill-rule="evenodd" class="shp4" d="M26.79 14.48C28.4 14.48 29.99 14.8 31.48 15.43C32.96 16.05 34.31 16.96 35.45 18.1C36.58 19.24 37.48 20.6 38.09 22.09C38.7 23.58 39.01 25.18 39 26.79C38.98 31.75 35.98 36.2 31.39 38.08C26.8 39.96 21.53 38.89 18.04 35.37C14.55 31.85 13.52 26.57 15.44 22C17.35 17.43 21.83 14.46 26.79 14.48ZM30.52 35.72C31.7 35.23 32.77 34.51 33.67 33.61C34.58 32.71 35.3 31.63 35.79 30.45C36.27 29.27 36.53 28 36.53 26.72C36.53 22.78 34.15 19.23 30.52 17.73C26.88 16.22 22.69 17.05 19.9 19.84C17.12 22.62 16.28 26.81 17.79 30.45C19.3 34.09 22.85 36.46 26.79 36.46C28.07 36.46 29.33 36.21 30.52 35.72Z" />
			<path id="Layer" fill-rule="evenodd" class="shp5" d="M30.52 17.79C31.7 18.28 32.77 19 33.67 19.9C34.58 20.81 35.3 21.88 35.79 23.06C36.27 24.24 36.53 25.51 36.53 26.79C36.53 30.73 34.15 34.28 30.52 35.79C26.88 37.29 22.69 36.46 19.9 33.67C17.12 30.89 16.28 26.7 17.79 23.06C19.3 19.42 22.85 17.05 26.79 17.05C28.07 17.05 29.33 17.3 30.52 17.79ZM26.79 32.26C27.51 32.26 28.21 32.11 28.88 31.83C29.54 31.55 30.14 31.15 30.64 30.64C31.15 30.14 31.55 29.54 31.83 28.88C32.11 28.21 32.26 27.51 32.26 26.79C32.27 24.55 30.92 22.52 28.85 21.67C26.77 20.81 24.39 21.29 22.81 22.88C21.23 24.48 20.77 26.86 21.64 28.93C22.51 30.99 24.55 32.33 26.79 32.31L26.79 32.26Z" />
			<path id="Layer" class="shp0" d="M26.73 32.26C23.68 32.26 21.21 29.79 21.21 26.73C21.21 23.68 23.68 21.21 26.73 21.21C29.79 21.21 32.26 23.68 32.26 26.73C32.26 29.79 29.79 32.26 26.73 32.26Z" />
			<path id="Layer" class="shp6" d="M26.79 17.05C22.85 17.05 19.3 19.42 17.79 23.06C16.28 26.7 17.12 30.89 19.9 33.67C22.69 36.46 26.88 37.29 30.52 35.79C34.15 34.28 36.53 30.73 36.53 26.79C36.53 25.51 36.27 24.24 35.79 23.06C35.3 21.88 34.58 20.81 33.67 19.9C32.77 19 31.7 18.28 30.52 17.79C29.33 17.3 28.07 17.05 26.79 17.05Z" />
			<path id="Layer" fill-rule="evenodd" class="shp0" d="M60.75 13.14C60.74 13.06 60.75 12.97 60.78 12.88C60.81 12.8 60.86 12.72 60.92 12.66C60.98 12.6 61.06 12.55 61.14 12.52C61.22 12.49 61.31 12.48 61.4 12.48L63.57 12.48C63.9 12.46 64.23 12.5 64.54 12.6C64.86 12.7 65.15 12.87 65.39 13.09C65.64 13.31 65.84 13.58 65.98 13.88C66.13 14.18 66.21 14.5 66.22 14.83C66.23 15.06 66.21 15.29 66.16 15.51C66.1 15.73 66.01 15.94 65.89 16.14C65.77 16.33 65.62 16.5 65.44 16.65C65.26 16.8 65.07 16.91 64.85 17C65.15 17.02 65.44 17.11 65.71 17.24C65.97 17.38 66.21 17.56 66.41 17.78C66.61 18.01 66.76 18.26 66.87 18.54C66.97 18.82 67.02 19.12 67.02 19.42C67.02 19.83 66.93 20.23 66.76 20.61C66.59 20.98 66.34 21.31 66.04 21.58C65.73 21.85 65.37 22.06 64.98 22.18C64.59 22.3 64.18 22.34 63.77 22.29L61.41 22.29C61.32 22.3 61.24 22.28 61.15 22.25C61.07 22.22 60.99 22.18 60.93 22.11C60.87 22.05 60.82 21.97 60.79 21.89C60.76 21.8 60.75 21.72 60.76 21.63L60.75 13.14ZM61.96 16.63L63.34 16.63C63.55 16.64 63.77 16.61 63.97 16.54C64.17 16.47 64.36 16.35 64.51 16.2C64.66 16.05 64.78 15.87 64.86 15.67C64.94 15.47 64.97 15.25 64.96 15.04C64.98 14.83 64.95 14.62 64.87 14.42C64.8 14.23 64.68 14.05 64.53 13.91C64.38 13.76 64.2 13.65 64 13.59C63.8 13.52 63.59 13.5 63.38 13.52L61.96 13.52L61.96 16.63ZM61.96 21.25L63.67 21.25C63.93 21.28 64.19 21.25 64.44 21.17C64.69 21.1 64.91 20.97 65.11 20.8C65.3 20.63 65.46 20.42 65.57 20.18C65.68 19.95 65.74 19.69 65.74 19.43C65.74 19.18 65.69 18.92 65.59 18.69C65.48 18.46 65.33 18.25 65.14 18.08C64.96 17.91 64.73 17.78 64.49 17.7C64.25 17.62 63.99 17.6 63.74 17.62L61.96 17.62L61.96 21.25Z" />
			<path id="Layer" fill-rule="evenodd" class="shp0" d="M69.47 19.11C69.45 19.4 69.5 19.69 69.6 19.97C69.7 20.24 69.85 20.49 70.06 20.7C70.26 20.91 70.51 21.08 70.78 21.19C71.05 21.3 71.35 21.35 71.64 21.34C73.25 21.34 73.66 20.34 74.12 20.34C74.18 20.34 74.25 20.36 74.3 20.39C74.36 20.42 74.41 20.46 74.46 20.51C74.5 20.56 74.53 20.62 74.55 20.69C74.56 20.75 74.57 20.82 74.56 20.88C74.56 21.48 73.06 22.38 71.63 22.38C69.28 22.38 68.26 20.58 68.26 18.63C68.22 18.17 68.27 17.7 68.41 17.26C68.55 16.82 68.78 16.41 69.09 16.06C69.39 15.71 69.76 15.42 70.18 15.22C70.59 15.02 71.05 14.9 71.51 14.88C71.95 14.9 72.39 15.01 72.79 15.2C73.18 15.4 73.54 15.67 73.84 16C74.13 16.33 74.36 16.72 74.5 17.14C74.64 17.56 74.7 18 74.67 18.45C74.67 18.87 74.52 19.1 74 19.1L69.47 19.11ZM73.5 18.2C73.52 17.92 73.49 17.65 73.4 17.39C73.32 17.12 73.18 16.88 73 16.68C72.82 16.47 72.6 16.3 72.35 16.18C72.11 16.06 71.84 15.98 71.56 15.97C70.07 15.88 69.52 17.05 69.47 18.19L73.5 18.2Z" />
			<path id="Layer" class="shp0" d="M76.42 15.54C76.42 15.37 76.48 15.22 76.6 15.11C76.71 14.99 76.87 14.93 77.03 14.93C77.19 14.93 77.34 14.99 77.45 15.11C77.57 15.22 77.63 15.37 77.63 15.54L77.63 16.15L77.63 16.15C77.71 15.98 77.8 15.83 77.92 15.68C78.03 15.54 78.16 15.41 78.31 15.3C78.46 15.19 78.62 15.1 78.79 15.03C78.96 14.96 79.14 14.91 79.32 14.89C79.41 14.88 79.49 14.89 79.57 14.92C79.65 14.94 79.73 14.99 79.79 15.05C79.85 15.1 79.91 15.18 79.94 15.25C79.97 15.33 79.99 15.42 79.99 15.5C79.99 15.85 79.74 16.07 79.23 16.16C79 16.2 78.77 16.29 78.56 16.41C78.35 16.54 78.17 16.7 78.02 16.89C77.88 17.08 77.77 17.3 77.7 17.54C77.64 17.77 77.62 18.01 77.64 18.25L77.64 21.74C77.64 21.9 77.58 22.05 77.47 22.16C77.35 22.28 77.2 22.34 77.04 22.34C76.88 22.34 76.72 22.28 76.61 22.16C76.5 22.05 76.43 21.9 76.43 21.74L76.42 15.54Z" />
			<path id="Layer" class="shp0" d="M81.31 15.54C81.31 15.37 81.37 15.22 81.49 15.11C81.6 14.99 81.76 14.93 81.92 14.93C82.08 14.93 82.23 14.99 82.35 15.11C82.46 15.22 82.52 15.37 82.52 15.54L82.52 15.83L82.52 15.83C82.87 15.4 83.34 15.09 83.87 14.95C84.41 14.81 84.97 14.84 85.48 15.04C86 15.25 86.43 15.61 86.72 16.08C87.01 16.55 87.14 17.1 87.1 17.65L87.1 21.71C87.1 21.87 87.04 22.03 86.92 22.14C86.81 22.26 86.65 22.32 86.49 22.32C86.33 22.32 86.18 22.26 86.07 22.14C85.95 22.03 85.89 21.87 85.89 21.71L85.89 17.73C85.93 17.26 85.76 16.79 85.44 16.44C85.12 16.1 84.67 15.9 84.19 15.9C83.72 15.9 83.27 16.1 82.95 16.44C82.62 16.79 82.46 17.26 82.5 17.73L82.5 21.72C82.5 21.89 82.44 22.04 82.32 22.15C82.21 22.27 82.06 22.33 81.9 22.33C81.73 22.33 81.58 22.27 81.47 22.15C81.35 22.04 81.29 21.89 81.29 21.72L81.31 15.54Z" />
			<path id="Layer" fill-rule="evenodd" class="shp0" d="M95.34 21.79C95.35 21.87 95.34 21.94 95.31 22.01C95.29 22.09 95.24 22.15 95.19 22.21C95.14 22.26 95.08 22.31 95.01 22.34C94.93 22.37 94.86 22.38 94.78 22.38C94.71 22.39 94.63 22.37 94.56 22.34C94.49 22.31 94.42 22.27 94.37 22.21C94.32 22.16 94.27 22.09 94.25 22.02C94.22 21.94 94.21 21.87 94.22 21.79L94.22 21.28C94.11 21.45 93.98 21.6 93.84 21.73C93.69 21.87 93.53 21.98 93.36 22.08C93.18 22.17 93 22.24 92.81 22.29C92.61 22.34 92.42 22.36 92.22 22.36C90.15 22.36 88.97 20.56 88.97 18.61C88.97 16.66 90.13 14.85 92.22 14.85C92.41 14.85 92.6 14.88 92.79 14.92C92.98 14.96 93.16 15.03 93.33 15.11C93.5 15.2 93.67 15.3 93.81 15.42C93.96 15.54 94.1 15.68 94.22 15.83L94.22 15.44C94.21 15.36 94.22 15.28 94.25 15.21C94.27 15.14 94.32 15.07 94.37 15.02C94.42 14.96 94.49 14.92 94.56 14.89C94.63 14.86 94.71 14.84 94.78 14.84C94.86 14.84 94.93 14.86 95.01 14.89C95.08 14.92 95.14 14.96 95.19 15.02C95.24 15.07 95.29 15.14 95.31 15.21C95.34 15.28 95.35 15.36 95.34 15.44L95.34 21.79ZM92.19 21.38C93.68 21.38 94.2 19.92 94.2 18.67C94.2 17.43 93.68 15.97 92.19 15.97C90.69 15.97 90.17 17.43 90.17 18.67C90.17 19.92 90.7 21.38 92.19 21.38Z" />
			<path id="Layer" class="shp0" d="M97.5 15.54C97.5 15.37 97.56 15.22 97.68 15.11C97.79 14.99 97.94 14.93 98.1 14.93C98.26 14.93 98.42 14.99 98.53 15.11C98.65 15.22 98.71 15.37 98.71 15.54L98.71 16.15L98.71 16.15C98.78 15.99 98.88 15.83 98.99 15.69C99.1 15.54 99.23 15.42 99.38 15.31C99.52 15.2 99.68 15.11 99.84 15.03C100.01 14.96 100.19 14.91 100.37 14.89C100.45 14.88 100.54 14.89 100.62 14.92C100.7 14.94 100.77 14.99 100.84 15.05C100.9 15.1 100.95 15.18 100.98 15.25C101.02 15.33 101.04 15.42 101.04 15.5C101.04 15.85 100.79 16.07 100.28 16.16C100.04 16.2 99.81 16.28 99.6 16.41C99.4 16.53 99.21 16.69 99.07 16.88C98.92 17.08 98.81 17.29 98.74 17.53C98.68 17.76 98.65 18 98.68 18.24L98.68 21.72C98.68 21.89 98.61 22.04 98.5 22.15C98.39 22.27 98.23 22.33 98.07 22.33C97.91 22.33 97.76 22.27 97.64 22.15C97.53 22.04 97.47 21.89 97.47 21.72L97.5 15.54Z" />
			<path id="Layer" fill-rule="evenodd" class="shp0" d="M107.18 21.38C107.09 21.55 106.97 21.7 106.83 21.84C106.69 21.97 106.53 22.09 106.35 22.17C106.18 22.26 106 22.33 105.8 22.36C105.61 22.4 105.42 22.41 105.22 22.38C103.23 22.38 102.1 20.58 102.1 18.63C102.1 16.68 103.21 14.89 105.2 14.89C105.39 14.89 105.58 14.91 105.77 14.95C105.95 14.99 106.13 15.06 106.3 15.15C106.47 15.23 106.63 15.34 106.77 15.46C106.92 15.59 107.05 15.73 107.16 15.88L107.16 12.31C107.16 12.15 107.22 12 107.34 11.88C107.45 11.77 107.61 11.71 107.77 11.71C107.93 11.71 108.08 11.77 108.19 11.88C108.31 12 108.37 12.15 108.37 12.31L108.37 21.74C108.37 21.9 108.31 22.05 108.19 22.16C108.08 22.28 107.93 22.34 107.77 22.34C107.61 22.34 107.45 22.28 107.34 22.16C107.22 22.05 107.16 21.9 107.16 21.74L107.18 21.38ZM105.3 15.97C103.81 15.97 103.29 17.43 103.29 18.67C103.29 19.92 103.81 21.38 105.3 21.38C106.79 21.38 107.31 19.92 107.31 18.67C107.31 17.43 106.79 15.97 105.3 15.97Z" />
			<path id="Layer" class="shp0" d="M60.26 26.49C60.24 26.45 60.22 26.41 60.21 26.37C60.2 26.33 60.18 26.29 60.17 26.25C60.16 26.21 60.16 26.17 60.15 26.12C60.14 26.08 60.14 26.04 60.14 26C60.13 25.93 60.14 25.85 60.17 25.78C60.19 25.72 60.23 25.65 60.28 25.6C60.33 25.55 60.4 25.51 60.46 25.48C60.53 25.46 60.6 25.44 60.68 25.45C60.75 25.44 60.82 25.45 60.88 25.46C60.95 25.48 61.02 25.51 61.07 25.56C61.13 25.6 61.18 25.65 61.22 25.71C61.25 25.77 61.28 25.83 61.29 25.9L62.92 30.82L62.92 30.82L64.54 25.9C64.55 25.83 64.58 25.77 64.62 25.71C64.66 25.65 64.7 25.6 64.76 25.56C64.82 25.51 64.88 25.48 64.95 25.46C65.02 25.45 65.09 25.44 65.16 25.45C65.23 25.45 65.3 25.46 65.37 25.49C65.44 25.51 65.5 25.55 65.55 25.61C65.6 25.66 65.64 25.72 65.66 25.79C65.69 25.85 65.7 25.93 65.7 26C65.7 26.04 65.69 26.08 65.69 26.12C65.68 26.17 65.67 26.21 65.66 26.25C65.65 26.29 65.64 26.33 65.63 26.37C65.61 26.41 65.6 26.45 65.58 26.49L63.58 32.2C63.46 32.54 63.34 32.71 62.96 32.71C62.58 32.71 62.46 32.54 62.34 32.2L60.26 26.49Z" />
			<path id="Layer" fill-rule="evenodd" class="shp0" d="M72.96 32.2C72.96 32.27 72.95 32.35 72.93 32.42C72.9 32.49 72.86 32.55 72.81 32.61C72.76 32.66 72.69 32.7 72.62 32.73C72.56 32.76 72.48 32.77 72.41 32.77C72.33 32.77 72.26 32.76 72.19 32.73C72.12 32.7 72.06 32.66 72 32.61C71.95 32.55 71.91 32.49 71.89 32.42C71.86 32.35 71.85 32.27 71.85 32.2L71.85 31.66C71.75 31.82 71.63 31.97 71.49 32.1C71.35 32.24 71.19 32.35 71.02 32.45C70.86 32.54 70.68 32.61 70.49 32.66C70.3 32.71 70.11 32.74 69.92 32.74C67.92 32.74 66.79 30.99 66.79 29.1C66.79 27.22 67.87 25.47 69.92 25.47C70.1 25.47 70.29 25.49 70.47 25.54C70.65 25.58 70.83 25.64 70.99 25.72C71.16 25.81 71.32 25.91 71.46 26.02C71.61 26.14 71.74 26.27 71.85 26.42L71.85 26.03C71.85 25.96 71.86 25.88 71.89 25.81C71.91 25.74 71.95 25.68 72 25.62C72.06 25.57 72.12 25.53 72.19 25.5C72.26 25.47 72.33 25.46 72.41 25.46C72.48 25.46 72.56 25.47 72.62 25.5C72.69 25.53 72.76 25.57 72.81 25.62C72.86 25.68 72.9 25.74 72.93 25.81C72.95 25.88 72.96 25.96 72.96 26.03L72.96 32.2ZM69.9 31.75C71.33 31.75 71.84 30.34 71.84 29.14C71.84 27.94 71.33 26.52 69.9 26.52C68.46 26.52 67.9 27.87 67.9 29.09C67.9 30.32 68.45 31.71 69.9 31.71L69.9 31.75Z" />
			<path id="Layer" class="shp0" d="M75.05 26.09C75.05 25.93 75.11 25.78 75.22 25.67C75.33 25.56 75.48 25.5 75.64 25.5C75.79 25.5 75.94 25.56 76.05 25.67C76.16 25.78 76.22 25.93 76.22 26.09L76.23 26.37L76.23 26.37C76.56 25.95 77.02 25.65 77.54 25.52C78.05 25.38 78.6 25.42 79.09 25.61C79.59 25.81 80.01 26.16 80.29 26.61C80.57 27.07 80.7 27.6 80.66 28.13L80.66 32.08C80.66 32.23 80.59 32.38 80.49 32.49C80.38 32.6 80.23 32.66 80.07 32.66C79.92 32.66 79.77 32.6 79.66 32.49C79.55 32.38 79.49 32.23 79.49 32.08L79.48 28.22C79.56 27.74 79.43 27.25 79.11 26.89C78.8 26.52 78.34 26.31 77.86 26.31C77.38 26.31 76.92 26.52 76.61 26.89C76.29 27.25 76.16 27.74 76.24 28.22L76.24 32.09C76.23 32.25 76.17 32.39 76.06 32.5C75.95 32.61 75.8 32.67 75.65 32.67C75.49 32.67 75.34 32.61 75.23 32.5C75.12 32.39 75.06 32.25 75.06 32.09L75.05 26.09Z" />
			<path id="Layer" class="shp0" d="M86.03 31.55L88.54 31.55C88.7 31.52 88.87 31.56 89 31.66C89.13 31.77 89.2 31.92 89.2 32.09C89.2 32.26 89.13 32.41 89 32.52C88.87 32.62 88.7 32.66 88.54 32.63L85.48 32.63C85.39 32.64 85.31 32.63 85.23 32.6C85.15 32.57 85.07 32.52 85.01 32.46C84.95 32.4 84.91 32.32 84.88 32.24C84.85 32.16 84.84 32.08 84.85 31.99L84.85 25.13C84.83 24.96 84.88 24.79 84.99 24.66C85.1 24.53 85.27 24.46 85.44 24.46C85.61 24.46 85.77 24.53 85.89 24.66C86 24.79 86.05 24.96 86.03 25.13L86.03 31.55Z" />
			<path id="Layer" fill-rule="evenodd" class="shp0" d="M91.33 29.55C91.31 29.83 91.35 30.12 91.45 30.38C91.55 30.65 91.7 30.89 91.9 31.1C92.09 31.3 92.33 31.46 92.6 31.57C92.86 31.67 93.15 31.72 93.43 31.71C94.99 31.71 95.4 30.75 95.83 30.75C95.89 30.75 95.96 30.77 96.01 30.8C96.07 30.83 96.12 30.87 96.16 30.92C96.2 30.96 96.23 31.02 96.25 31.08C96.27 31.14 96.27 31.21 96.26 31.27C96.26 31.84 94.8 32.73 93.42 32.73C91.15 32.73 90.17 30.98 90.17 29.09C90.13 28.64 90.19 28.18 90.33 27.75C90.47 27.31 90.71 26.91 91.01 26.57C91.31 26.23 91.68 25.96 92.1 25.77C92.51 25.57 92.96 25.47 93.42 25.46C93.85 25.49 94.26 25.6 94.64 25.8C95.03 25.99 95.37 26.26 95.64 26.58C95.92 26.91 96.13 27.28 96.27 27.69C96.4 28.1 96.45 28.53 96.42 28.95C96.42 29.36 96.28 29.58 95.77 29.58L91.33 29.55ZM95.24 28.66C95.26 28.39 95.23 28.13 95.14 27.87C95.06 27.62 94.93 27.38 94.75 27.18C94.58 26.98 94.36 26.81 94.12 26.7C93.88 26.58 93.62 26.51 93.35 26.5C91.89 26.5 91.37 27.58 91.34 28.66L95.24 28.66Z" />
			<path id="Layer" fill-rule="evenodd" class="shp0" d="M98.82 29.55C98.8 29.83 98.84 30.12 98.94 30.38C99.03 30.65 99.19 30.89 99.38 31.1C99.58 31.3 99.82 31.46 100.09 31.57C100.35 31.67 100.63 31.72 100.92 31.71C102.48 31.71 102.88 30.75 103.32 30.75C103.38 30.75 103.44 30.77 103.5 30.8C103.56 30.83 103.61 30.87 103.65 30.92C103.69 30.96 103.72 31.02 103.74 31.08C103.75 31.14 103.76 31.21 103.75 31.27C103.75 31.84 102.29 32.73 100.91 32.73C98.63 32.73 97.66 30.98 97.66 29.09C97.62 28.64 97.67 28.18 97.82 27.75C97.96 27.31 98.19 26.91 98.5 26.57C98.8 26.23 99.17 25.96 99.59 25.77C100 25.57 100.45 25.47 100.91 25.46C101.34 25.48 101.76 25.59 102.14 25.78C102.53 25.96 102.88 26.23 103.16 26.55C103.45 26.87 103.66 27.25 103.8 27.65C103.94 28.06 104 28.49 103.97 28.92C103.97 29.33 103.82 29.55 103.32 29.55L98.82 29.55ZM102.72 28.66C102.75 28.39 102.71 28.13 102.63 27.87C102.55 27.62 102.41 27.38 102.24 27.18C102.06 26.98 101.85 26.81 101.61 26.7C101.37 26.58 101.11 26.51 100.84 26.5C99.38 26.5 98.86 27.58 98.82 28.66L102.72 28.66Z" />
			<path id="Layer" class="shp0" d="M105.56 26.09C105.56 25.93 105.63 25.78 105.74 25.67C105.85 25.56 105.99 25.5 106.15 25.5C106.3 25.5 106.45 25.56 106.56 25.67C106.67 25.78 106.73 25.93 106.73 26.09L106.74 26.69L106.74 26.69C106.81 26.53 106.9 26.38 107.01 26.24C107.12 26.11 107.25 25.98 107.39 25.88C107.53 25.77 107.68 25.68 107.84 25.61C108 25.54 108.17 25.49 108.34 25.46C108.42 25.45 108.51 25.46 108.59 25.48C108.67 25.51 108.74 25.55 108.81 25.61C108.87 25.67 108.92 25.74 108.95 25.82C108.99 25.89 109 25.98 109 26.06C109 26.4 108.76 26.62 108.26 26.7C108.03 26.74 107.81 26.82 107.61 26.94C107.41 27.06 107.23 27.22 107.09 27.4C106.94 27.59 106.84 27.8 106.77 28.03C106.71 28.26 106.69 28.49 106.72 28.73L106.72 32.11C106.71 32.27 106.65 32.42 106.54 32.53C106.43 32.63 106.28 32.7 106.13 32.7C105.97 32.7 105.82 32.63 105.71 32.53C105.6 32.42 105.54 32.27 105.54 32.11L105.56 26.09Z" />
			<path id="Layer" class="shp0" d="M61.33 40.29C61.34 40.38 61.32 40.47 61.26 40.54C61.2 40.61 61.12 40.65 61.03 40.65C60.94 40.65 60.85 40.61 60.8 40.54C60.74 40.47 60.71 40.38 60.73 40.29L60.73 36.08C60.73 36.04 60.73 36 60.74 35.96C60.76 35.91 60.78 35.88 60.81 35.85C60.84 35.82 60.88 35.79 60.92 35.78C60.96 35.76 61 35.75 61.04 35.76L62.73 35.76C62.82 35.74 62.9 35.76 62.97 35.82C63.03 35.87 63.07 35.95 63.07 36.03C63.07 36.12 63.03 36.2 62.97 36.25C62.9 36.31 62.82 36.33 62.73 36.31L61.33 36.31L61.33 37.88L62.57 37.88C62.65 37.86 62.74 37.88 62.8 37.94C62.87 37.99 62.91 38.07 62.91 38.16C62.91 38.24 62.87 38.32 62.8 38.37C62.74 38.43 62.65 38.45 62.57 38.43L61.33 38.43L61.33 40.29Z" />
			<path id="Layer" fill-rule="evenodd" class="shp0" d="M69.13 36.97C69.63 37.88 69.52 39 68.84 39.78C68.16 40.57 67.07 40.85 66.1 40.49C65.13 40.12 64.48 39.2 64.49 38.16C64.45 37.86 64.49 37.56 64.58 37.27C64.67 36.98 64.82 36.71 65.01 36.48C65.21 36.25 65.45 36.07 65.72 35.93C66 35.8 66.29 35.73 66.6 35.72C67.62 35.56 68.63 36.06 69.13 36.97ZM66.6 40.04C67.68 40.04 68.07 39.03 68.07 38.11C68.07 37.19 67.68 36.17 66.6 36.17C65.51 36.17 65.12 37.19 65.12 38.11C65.12 39.03 65.51 40.1 66.6 40.1L66.6 40.04Z" />
			<path id="Layer" class="shp0" d="M70.48 36.04C70.46 35.95 70.49 35.86 70.54 35.79C70.6 35.72 70.69 35.68 70.78 35.68C70.87 35.68 70.95 35.72 71.01 35.79C71.07 35.86 71.09 35.95 71.08 36.04L71.08 38.9C71.1 39.21 71.25 39.51 71.49 39.72C71.72 39.94 72.03 40.06 72.35 40.06C72.66 40.06 72.97 39.94 73.21 39.72C73.44 39.51 73.59 39.21 73.62 38.9L73.62 36.04C73.6 35.95 73.62 35.86 73.68 35.79C73.74 35.72 73.83 35.68 73.92 35.68C74.01 35.68 74.09 35.72 74.15 35.79C74.21 35.86 74.23 35.95 74.21 36.04L74.21 38.69C74.25 39.21 74.07 39.72 73.72 40.11C73.37 40.49 72.87 40.7 72.35 40.7C71.83 40.7 71.33 40.49 70.97 40.11C70.62 39.72 70.44 39.21 70.48 38.69L70.48 36.04Z" />
			<path id="Layer" class="shp0" d="M76.78 40.29C76.79 40.38 76.77 40.47 76.71 40.54C76.66 40.61 76.57 40.65 76.48 40.65C76.39 40.65 76.3 40.61 76.25 40.54C76.19 40.47 76.17 40.38 76.18 40.29L76.18 36.07C76.18 35.83 76.26 35.72 76.45 35.72C76.65 35.72 76.71 35.79 76.87 36.03L79.31 39.52L79.31 39.52L79.31 36.04C79.29 35.95 79.32 35.86 79.37 35.79C79.43 35.72 79.52 35.68 79.61 35.68C79.7 35.68 79.78 35.72 79.84 35.79C79.9 35.86 79.92 35.95 79.9 36.04L79.9 40.26C79.9 40.5 79.83 40.62 79.63 40.62C79.44 40.62 79.37 40.54 79.21 40.3L76.78 36.81L76.78 36.81L76.78 40.29Z" />
			<path id="Layer" fill-rule="evenodd" class="shp0" d="M81.91 36.08C81.9 36.04 81.91 36 81.92 35.96C81.93 35.91 81.96 35.88 81.99 35.85C82.02 35.82 82.05 35.79 82.09 35.78C82.13 35.76 82.18 35.75 82.22 35.76L83.39 35.76C83.69 35.76 83.99 35.82 84.27 35.94C84.55 36.06 84.8 36.24 85 36.47C85.2 36.69 85.36 36.96 85.45 37.24C85.55 37.53 85.58 37.84 85.55 38.14C85.55 39.58 84.78 40.57 83.5 40.57L82.22 40.57C82.18 40.58 82.13 40.57 82.09 40.56C82.05 40.54 82.02 40.52 81.99 40.49C81.96 40.45 81.93 40.42 81.92 40.38C81.91 40.34 81.9 40.29 81.91 40.25L81.91 36.08ZM82.5 40.05L83.36 40.05C84.44 40.05 84.89 39.11 84.89 38.13C84.89 37.14 84.45 36.27 83.31 36.27L82.5 36.27L82.5 40.05Z" />
			<path id="Layer" fill-rule="evenodd" class="shp0" d="M87.57 40.39C87.56 40.42 87.54 40.45 87.53 40.48C87.51 40.51 87.49 40.53 87.46 40.56C87.43 40.58 87.4 40.59 87.37 40.6C87.34 40.61 87.31 40.62 87.27 40.62C87.24 40.62 87.2 40.62 87.17 40.6C87.14 40.59 87.11 40.58 87.08 40.55C87.05 40.53 87.03 40.5 87.02 40.47C87 40.44 86.99 40.4 86.99 40.37C87 40.34 87 40.32 87.01 40.29C87.01 40.27 87.02 40.24 87.03 40.22C87.03 40.19 87.04 40.17 87.05 40.15C87.06 40.12 87.07 40.1 87.08 40.08L88.57 36.09C88.65 35.89 88.77 35.73 88.99 35.73C89.22 35.73 89.35 35.88 89.42 36.09L90.91 40.08C90.92 40.1 90.93 40.12 90.93 40.15C90.94 40.17 90.95 40.2 90.95 40.22C90.96 40.24 90.97 40.27 90.97 40.29C90.98 40.32 90.98 40.34 90.98 40.37C90.98 40.4 90.97 40.44 90.96 40.47C90.94 40.5 90.92 40.53 90.9 40.55C90.87 40.58 90.84 40.59 90.81 40.6C90.77 40.62 90.74 40.62 90.7 40.62C90.67 40.62 90.64 40.61 90.6 40.6C90.57 40.59 90.54 40.58 90.52 40.56C90.49 40.53 90.47 40.51 90.45 40.48C90.43 40.45 90.42 40.42 90.41 40.39L90.1 39.52L87.87 39.52L87.57 40.39ZM89 36.41L88.07 39.02L89.93 39.02L89 36.41Z" />
			<path id="Layer" class="shp0" d="M92.94 36.31L92.04 36.31C91.96 36.33 91.88 36.31 91.81 36.25C91.75 36.2 91.71 36.12 91.71 36.03C91.71 35.95 91.75 35.87 91.81 35.82C91.88 35.76 91.96 35.74 92.04 35.76L94.44 35.76C94.52 35.74 94.6 35.76 94.67 35.82C94.73 35.87 94.77 35.95 94.77 36.03C94.77 36.12 94.73 36.2 94.67 36.25C94.6 36.31 94.52 36.33 94.44 36.31L93.54 36.31L93.54 40.29C93.53 40.37 93.5 40.44 93.45 40.5C93.39 40.55 93.32 40.58 93.24 40.58C93.16 40.58 93.09 40.55 93.03 40.5C92.98 40.44 92.95 40.37 92.95 40.29L92.94 36.31Z" />
			<path id="Layer" class="shp0" d="M96.9 40.29C96.92 40.38 96.9 40.47 96.84 40.54C96.78 40.61 96.7 40.65 96.61 40.65C96.52 40.65 96.43 40.61 96.37 40.54C96.31 40.47 96.29 40.38 96.31 40.29L96.31 36.04C96.29 35.95 96.31 35.86 96.37 35.79C96.43 35.72 96.52 35.68 96.61 35.68C96.7 35.68 96.78 35.72 96.84 35.79C96.9 35.86 96.92 35.95 96.9 36.04L96.9 40.29Z" />
			<path id="Layer" fill-rule="evenodd" class="shp0" d="M103.34 36.97C103.84 37.88 103.72 39 103.04 39.78C102.37 40.57 101.27 40.85 100.3 40.49C99.33 40.12 98.69 39.2 98.69 38.16C98.66 37.86 98.69 37.56 98.78 37.27C98.87 36.98 99.02 36.71 99.22 36.48C99.41 36.25 99.66 36.07 99.93 35.93C100.2 35.8 100.5 35.73 100.8 35.72C101.82 35.56 102.84 36.06 103.34 36.97ZM100.8 40.04C101.88 40.04 102.27 39.03 102.27 38.11C102.27 37.19 101.88 36.17 100.8 36.17C99.72 36.17 99.33 37.19 99.33 38.11C99.33 39.03 99.72 40.1 100.8 40.1L100.8 40.04Z" />
			<path id="Layer" class="shp0" d="M105.28 40.29C105.27 40.37 105.24 40.44 105.19 40.5C105.13 40.55 105.06 40.58 104.98 40.58C104.9 40.58 104.83 40.55 104.77 40.5C104.72 40.44 104.69 40.37 104.69 40.29L104.68 36.07C104.68 35.83 104.77 35.72 104.95 35.72C105.14 35.72 105.21 35.79 105.38 36.03L107.81 39.52L107.81 39.52L107.81 36.04C107.79 35.95 107.82 35.86 107.87 35.79C107.93 35.72 108.02 35.68 108.11 35.68C108.2 35.68 108.28 35.72 108.34 35.79C108.4 35.86 108.42 35.95 108.4 36.04L108.4 40.26C108.4 40.5 108.32 40.62 108.13 40.62C107.95 40.62 107.87 40.54 107.71 40.3L105.28 36.81L105.28 36.81L105.28 40.29Z" />
		</g>
	</g>
</svg>
