<svg data-name="Camada 1" xmlns="http://www.w3.org/2000/svg" viewBox="0 0 207.62 59.45"><defs><style>.cls-1{fill:#fff;}.cls-2{fill:#231f20;}</style></defs><title>site-observa</title><path class="cls-1" d="M93.68,21.13c6,0,8.94,2.51,8.94,6.67A5.55,5.55,0,0,1,98.77,33,6.89,6.89,0,0,1,104,39.41c0,4.09-3,7.19-9.76,7.19-3.32,0-6-.07-9.06-.11l-.25-.26V21.5l.25-.26C88.15,21.2,91,21.13,93.68,21.13ZM89.21,31.71h4.31c3.85,0,4.72-2.06,4.72-3.8s-.78-3.8-4.63-3.8c-1.15,0-3.08,0-4.39,0Zm0,3v8.92c1.72,0,3.44,0,5,0,4.43,0,5.33-2.54,5.33-4.42s-1.19-4.46-5.58-4.46Z"/><path class="cls-1" d="M120.37,35.39a5.12,5.12,0,0,1,2.91,3.13l1.8,4.31a5.67,5.67,0,0,0,1.84,2.65,3.86,3.86,0,0,1-3,1.22c-1.64,0-2.21-.81-2.87-2.4l-2.05-5c-.7-1.7-1.6-3-4.14-3h-3.36V46.45a14,14,0,0,1-2.17.15,13.5,13.5,0,0,1-2.13-.15v-25l.25-.26c3.08,0,6-.11,8.82-.11,5.7,0,9.31,2.65,9.31,7.56A6.9,6.9,0,0,1,120.37,35.39Zm-8.82-2.21c1.6,0,3.4-.07,4.55-.07,4,0,5-2.28,5-4.42s-1-4.46-5-4.46c-1.19,0-3.16,0-4.55,0Z"/><path class="cls-1" d="M135.5,40.33l-2.17,6.16a10,10,0,0,1-1.89.15,9,9,0,0,1-2.13-.26l-.12-.18,9.27-24.92a18.6,18.6,0,0,1,2.5-.15,17.6,17.6,0,0,1,2.46.15l9.19,24.92a5.32,5.32,0,0,1-2.54.52c-1.35,0-2.05-.44-2.58-2.06L146,40.33c-.7,0-2.13,0-2.46,0h-5.62C137.55,40.37,136.2,40.33,135.5,40.33Zm1.11-3.17c.66,0,1.76,0,2.09,0h4.1c.29,0,1.39,0,2.05,0L143,31.82c-.74-2.14-1.6-4.72-2.17-6.67h-.2c-.41,1.66-1.15,4-1.6,5.34Z"/><path class="cls-1" d="M156.49,41.14a17.11,17.11,0,0,0,8.24,2.51c3.32,0,5.21-1.44,5.25-3.47,0-1.73-1.35-3.06-3.73-4l-4.84-1.88C158,33,155.8,31.08,155.8,27.95c0-4,3.77-7.15,9.27-7.15a21.92,21.92,0,0,1,8.69,1.92,4.43,4.43,0,0,1-1.6,3.06,19,19,0,0,0-7-1.73c-3,0-4.92,1.51-4.92,3.47,0,1.62,1.39,2.54,3.4,3.32l4.76,1.84c3.53,1.33,6.15,3.58,6.15,6.86,0,4.24-3.28,7.41-10,7.41a19.22,19.22,0,0,1-9.84-2.76A4.74,4.74,0,0,1,156.49,41.14Z"/><path class="cls-1" d="M179.63,21.27a14,14,0,0,1,2.17-.15,14.39,14.39,0,0,1,2.17.15V46.45a14.39,14.39,0,0,1-2.17.15,14,14,0,0,1-2.17-.15Z"/><path class="cls-1" d="M207.28,43.06a10.66,10.66,0,0,1-.12,1.55c-.25,1.25-1.27,1.88-2.83,1.88h-10.7a2.31,2.31,0,0,1-2.54-2.43V21.35l.29-.22H193c1.8,0,2.46.77,2.46,2.51V43.2c1.27-.11,2.54-.15,3.65-.15Z"/><path class="cls-1" d="M89.1,12.81H87.39V17a7.25,7.25,0,0,1-1.24.09A7.4,7.4,0,0,1,84.9,17V4.44L85,4.33c1.49,0,2.73-.07,4.07-.07,2.56,0,4.4,1.39,4.4,4.29S91.66,12.81,89.1,12.81Zm-1.71-1.89,1.56,0c1.65,0,2-1.36,2-2.34S90.61,6.2,89,6.2c-.46,0-1,0-1.56,0Z"/><path class="cls-1" d="M96.48,14.15,95.6,17a4.91,4.91,0,0,1-1.08.09A3.92,3.92,0,0,1,93.34,17l-.09-.13,4.14-12.5a12.4,12.4,0,0,1,1.45-.09,9.25,9.25,0,0,1,1.43.11l4.07,12.5a3.19,3.19,0,0,1-1.43.32c-.8,0-1.19-.28-1.49-1.34l-.52-1.69-.91,0h-2.6C97.2,14.17,96.77,14.17,96.48,14.15Zm.61-2,.84,0h1.6l.78,0-.56-1.9c-.31-1.06-.72-2.49-1-3.6h-.11c-.19.95-.58,2.29-.82,3.14Z"/><path class="cls-1" d="M106.91,7.78c0-.5,0-.85,0-1.37h0l-1.12,0h-2.06a5.36,5.36,0,0,1-.09-1,5.5,5.5,0,0,1,.09-1h8.88a4,4,0,0,1,.13,1c0,.82-.43,1.11-1.34,1.11h-.87l-1.12,0h0c0,.52,0,.87,0,1.37V17a7.6,7.6,0,0,1-1.26.09,7.51,7.51,0,0,1-1.24-.09Z"/><path class="cls-1" d="M120.75,11.57a2.46,2.46,0,0,1,1.37,1.63l.69,1.88a3.05,3.05,0,0,0,.87,1.36,2.11,2.11,0,0,1-1.65.74c-.91,0-1.23-.5-1.58-1.47l-.78-2.21a1.68,1.68,0,0,0-1.73-1.34h-1.13V17a7.41,7.41,0,0,1-1.25.09,7.31,7.31,0,0,1-1.23-.09V4.44l.13-.11c1.49,0,2.9-.07,4.23-.07,2.58,0,4.36,1.28,4.36,3.92A3.54,3.54,0,0,1,120.75,11.57Zm-3.94-1.34c.65,0,1.36-.06,1.71-.06a1.76,1.76,0,0,0,2-2,1.76,1.76,0,0,0-2-2c-.45,0-1.13,0-1.71,0Z"/><path class="cls-1" d="M125.69,4.34a7.39,7.39,0,0,1,1.24-.09,7.52,7.52,0,0,1,1.24.09V17a7.39,7.39,0,0,1-1.24.09,7.26,7.26,0,0,1-1.24-.09Z"/><path class="cls-1" d="M133.27,14.15l-.87,2.9a4.92,4.92,0,0,1-1.08.09,3.92,3.92,0,0,1-1.19-.17l-.09-.13,4.14-12.5a12.4,12.4,0,0,1,1.45-.09,9.22,9.22,0,0,1,1.43.11l4.07,12.5a3.19,3.19,0,0,1-1.43.32c-.8,0-1.19-.28-1.49-1.34l-.52-1.69-.91,0h-2.6C134,14.17,133.56,14.17,133.27,14.15Zm.61-2,.84,0h1.6l.78,0-.56-1.9c-.31-1.06-.72-2.49-1-3.6h-.11c-.19.95-.58,2.29-.82,3.14Z"/><path class="cls-1" d="M149,14.15l-.87,2.9a4.91,4.91,0,0,1-1.08.09,3.92,3.92,0,0,1-1.19-.17l-.09-.13,4.14-12.5a12.4,12.4,0,0,1,1.45-.09,9.25,9.25,0,0,1,1.43.11l4.07,12.5a3.19,3.19,0,0,1-1.43.32c-.8,0-1.19-.28-1.49-1.34l-.52-1.69-.91,0h-2.6C149.69,14.17,149.26,14.17,149,14.15Zm.61-2,.84,0H152l.78,0-.56-1.9c-.31-1.06-.72-2.49-1-3.6h-.11c-.19.95-.58,2.29-.82,3.14Z"/><path class="cls-1" d="M159.25,4.36a11.24,11.24,0,0,1,1.67-.13,9.75,9.75,0,0,1,1.58.13l1.43,5.15c.13.52.59,2.43.71,3.18h.13c.11-.74.58-2.66.71-3.18l1.41-5.15a10.27,10.27,0,0,1,1.58-.13,11.46,11.46,0,0,1,1.69.13l1,12.63a5.52,5.52,0,0,1-1.26.13,6.94,6.94,0,0,1-1.1-.07l-.35-6c-.07-1.15-.15-2.86-.15-4h-.13L166,15.14a8.81,8.81,0,0,1-2.54,0l-2.17-8.08h-.13c0,1.17-.07,2.88-.15,4l-.35,6a7.17,7.17,0,0,1-1.11.07,5.47,5.47,0,0,1-1.24-.13Z"/><path class="cls-1" d="M175.82,14.15l-.87,2.9a4.91,4.91,0,0,1-1.08.09,3.92,3.92,0,0,1-1.19-.17l-.09-.13,4.14-12.5a12.4,12.4,0,0,1,1.45-.09,9.25,9.25,0,0,1,1.43.11l4.07,12.5a3.19,3.19,0,0,1-1.43.32c-.8,0-1.19-.28-1.49-1.34l-.52-1.69-.91,0h-2.6C176.54,14.17,176.12,14.17,175.82,14.15Zm.61-2,.84,0h1.6l.78,0-.56-1.9c-.31-1.06-.72-2.49-1-3.6H178c-.19.95-.58,2.29-.82,3.14Z"/><path class="cls-1" d="M193.31,16.19a5.85,5.85,0,0,1-3.32.93c-1.56,0-2.77,0-4.38-.07l-.13-.11V4.44l.13-.11c1.6-.06,2.82-.07,4.38-.07a5.86,5.86,0,0,1,3.32.93c1.71,1.37,2,3.34,2,5.5S195,14.82,193.31,16.19ZM190,6.22c-.71,0-1.28,0-2,0v9c.74,0,1.32,0,2,0,2.43,0,2.79-2.43,2.79-4.48S192.42,6.22,190,6.22Z"/><path class="cls-1" d="M199.42,14.15l-.87,2.9a4.92,4.92,0,0,1-1.08.09,3.92,3.92,0,0,1-1.19-.17l-.09-.13,4.14-12.5a12.4,12.4,0,0,1,1.45-.09,9.22,9.22,0,0,1,1.43.11l4.07,12.5a3.19,3.19,0,0,1-1.43.32c-.8,0-1.19-.28-1.49-1.34l-.52-1.69-.91,0h-2.6C200.15,14.17,199.72,14.17,199.42,14.15Zm.61-2,.84,0h1.6l.78,0-.56-1.9c-.31-1.06-.72-2.49-1-3.6h-.11c-.19.95-.58,2.29-.82,3.14Z"/><path class="cls-1" d="M101,0a2.33,2.33,0,0,1,1,1.33L99,3.15a1.38,1.38,0,0,1-.69-.83Z"/><path class="cls-1" d="M88,54.17h1.42q1,0,1,.9v2.37a8,8,0,0,1-2.45.37,2.87,2.87,0,0,1-1.15-.22,2.22,2.22,0,0,1-.84-.62,2.72,2.72,0,0,1-.51-1,4.8,4.8,0,0,1-.17-1.34,3.91,3.91,0,0,1,.24-1.43,3,3,0,0,1,.64-1,2.63,2.63,0,0,1,.93-.61,3,3,0,0,1,1.09-.2,4.05,4.05,0,0,1,2.2.65,1,1,0,0,1-.07.29,1.88,1.88,0,0,1-.14.29,1.36,1.36,0,0,1-.2.25,1.67,1.67,0,0,1-.23.19,2.76,2.76,0,0,0-1.52-.49q-1.47,0-1.47,2.06t1.51,2l.4,0L89,56.6V56q0-.21,0-.36c0-.1,0-.19,0-.26h-.45a.76.76,0,0,1-.54-.15.64.64,0,0,1-.15-.47A2,2,0,0,1,88,54.17Z"/><path class="cls-1" d="M95.2,57.24a3.26,3.26,0,0,1-1-2.65,4.75,4.75,0,0,1,.18-1.39,2.79,2.79,0,0,1,.53-1,2.23,2.23,0,0,1,.84-.61,2.88,2.88,0,0,1,1.12-.21,2.92,2.92,0,0,1,1.12.21,2.21,2.21,0,0,1,.85.62,2.85,2.85,0,0,1,.53,1,5.29,5.29,0,0,1,0,2.77,2.79,2.79,0,0,1-.53,1,2.22,2.22,0,0,1-.85.61,2.92,2.92,0,0,1-1.12.21A2.6,2.6,0,0,1,95.2,57.24ZM95.93,56a1,1,0,0,0,1,.7.93.93,0,0,0,.6-.18,1.28,1.28,0,0,0,.36-.47,2.18,2.18,0,0,0,.18-.64,5.52,5.52,0,0,0,0-.7q0-.32,0-.7a2.94,2.94,0,0,0-.13-.73,1.37,1.37,0,0,0-.34-.57.94.94,0,0,0-.69-.23.92.92,0,0,0-.66.22,1.37,1.37,0,0,0-.34.55,2.7,2.7,0,0,0-.14.69c0,.24,0,.46,0,.65a6,6,0,0,0,0,.74A3.78,3.78,0,0,0,95.93,56Z"/><path class="cls-1" d="M105.79,56.46l1.18-5a2.38,2.38,0,0,1,.56-.05,2.22,2.22,0,0,1,.74.1l.05.07-1.69,6a9.89,9.89,0,0,1-1,.05,1.59,1.59,0,0,1-.75-.13.84.84,0,0,1-.35-.52L103,51.63a2.17,2.17,0,0,1,.8-.21.79.79,0,0,1,.56.17,1.14,1.14,0,0,1,.28.54l.7,2.57q.16.61.34,1.64C105.71,56.43,105.74,56.46,105.79,56.46Z"/><path class="cls-1" d="M113.61,55.85v.65h0l.67,0h2.09a3.71,3.71,0,0,1,0,.51q-.11.7-.92.7H113a.81.81,0,0,1-.61-.23.84.84,0,0,1-.22-.61V51.57l.06-.06h3.89a2.82,2.82,0,0,1,.05.57,1.81,1.81,0,0,1-.13.64H113.6V54h2a1.89,1.89,0,0,1,.08.58,2.07,2.07,0,0,1-.08.6h-2Z"/><path class="cls-1" d="M124.88,53.41a1.75,1.75,0,0,1-.09.56,1.86,1.86,0,0,1-.24.48,1.7,1.7,0,0,1-.35.37,1.61,1.61,0,0,1-.42.24,1.23,1.23,0,0,1,.7.83l.27.77a1.32,1.32,0,0,0,.45.67,1,1,0,0,1-.41.3,1.43,1.43,0,0,1-.6.12.67.67,0,0,1-.51-.19,1.72,1.72,0,0,1-.33-.65L123,56a1,1,0,0,0-.27-.42.75.75,0,0,0-.5-.14h-.37v2.26a4,4,0,0,1-.72.05,3.87,3.87,0,0,1-.71-.05V51.55l.06-.06,1.32,0h.84a3.15,3.15,0,0,1,.9.12,1.87,1.87,0,0,1,.69.37,1.64,1.64,0,0,1,.44.61A2.17,2.17,0,0,1,124.88,53.41Zm-3-.88V54.3h.7a1.09,1.09,0,0,0,.47-.11.64.64,0,0,0,.27-.27,1.1,1.1,0,0,0,.09-.5q0-.88-.85-.88h-.67Z"/><path class="cls-1" d="M134,51.44l.06.06v6.14a3.92,3.92,0,0,1-.85.08,6.23,6.23,0,0,1-.87-.05l-1.42-3.23q-.25-.55-.51-1.27h0q.11,1.32.11,2.7v1.8a3.63,3.63,0,0,1-.68.05,3.48,3.48,0,0,1-.67-.05V51.53a3.62,3.62,0,0,1,.83-.08,6.16,6.16,0,0,1,.86.05l1.4,3.22q.38.89.56,1.37l0,0q-.11-1.25-.11-2.66v-1.1a1,1,0,0,1,.19-.67.81.81,0,0,1,.61-.2Z"/><path class="cls-1" d="M139.09,57.24a3.26,3.26,0,0,1-1-2.65,4.75,4.75,0,0,1,.18-1.39,2.79,2.79,0,0,1,.53-1,2.23,2.23,0,0,1,.84-.61,2.88,2.88,0,0,1,1.12-.21,2.92,2.92,0,0,1,1.12.21,2.21,2.21,0,0,1,.85.62,2.85,2.85,0,0,1,.53,1,5.29,5.29,0,0,1,0,2.77,2.79,2.79,0,0,1-.53,1,2.22,2.22,0,0,1-.85.61,2.92,2.92,0,0,1-1.12.21A2.6,2.6,0,0,1,139.09,57.24Zm.73-1.25a1,1,0,0,0,1,.7.93.93,0,0,0,.6-.18,1.28,1.28,0,0,0,.36-.47,2.18,2.18,0,0,0,.18-.64,5.52,5.52,0,0,0,0-.7q0-.32,0-.7a2.94,2.94,0,0,0-.13-.73,1.37,1.37,0,0,0-.34-.57.94.94,0,0,0-.69-.23.92.92,0,0,0-.66.22,1.37,1.37,0,0,0-.34.55,2.7,2.7,0,0,0-.14.69c0,.24,0,.46,0,.65a6,6,0,0,0,0,.74A3.78,3.78,0,0,0,139.82,56Z"/><path class="cls-1" d="M154.11,52.73V54h1.94a2.46,2.46,0,0,1,0,1.18h-1.94v2.48a4.77,4.77,0,0,1-1.44,0V51.56l.06-.05h3.86a2.47,2.47,0,0,1,.05.56.63.63,0,0,1-.19.5.87.87,0,0,1-.58.16Z"/><path class="cls-1" d="M162,55.85v.65h0l.67,0h2.09a3.71,3.71,0,0,1,0,.51q-.11.7-.92.7h-2.4a.81.81,0,0,1-.61-.23.84.84,0,0,1-.22-.61V51.57l.06-.06h3.89a2.82,2.82,0,0,1,.05.57,1.81,1.81,0,0,1-.13.64H162V54h2a1.89,1.89,0,0,1,.08.58,2.07,2.07,0,0,1-.08.6h-2Z"/><path class="cls-1" d="M172.87,57.27a1.84,1.84,0,0,1-.76.34,4.6,4.6,0,0,1-1,.11h-.81l-1.32,0-.06-.06V51.55l.06-.06,1.09,0h1.19a3,3,0,0,1,1.28.24,2.1,2.1,0,0,1,.82.67,2.66,2.66,0,0,1,.43,1,5.73,5.73,0,0,1,.13,1.23,5.23,5.23,0,0,1-.21,1.56A2.25,2.25,0,0,1,172.87,57.27Zm-1.66-.68q1.19,0,1.19-2t-1.19-2h-.89v4h.89Z"/><path class="cls-1" d="M179.42,55.85v.65h0l.67,0h2.09a3.71,3.71,0,0,1,0,.51q-.11.7-.92.7h-2.4a.81.81,0,0,1-.61-.23.84.84,0,0,1-.22-.61V51.57l.06-.06h3.89a2.82,2.82,0,0,1,.05.57,1.81,1.81,0,0,1-.13.64h-2.46V54h2a1.89,1.89,0,0,1,.08.58,2.07,2.07,0,0,1-.08.6h-2Z"/><path class="cls-1" d="M190.69,53.41a1.75,1.75,0,0,1-.09.56,1.86,1.86,0,0,1-.24.48,1.7,1.7,0,0,1-.35.37,1.61,1.61,0,0,1-.42.24,1.23,1.23,0,0,1,.7.83l.27.77a1.32,1.32,0,0,0,.45.67,1,1,0,0,1-.41.3,1.43,1.43,0,0,1-.6.12.67.67,0,0,1-.51-.19,1.72,1.72,0,0,1-.33-.65l-.33-.95a1,1,0,0,0-.27-.42.75.75,0,0,0-.5-.14h-.37v2.26a4,4,0,0,1-.72.05,3.87,3.87,0,0,1-.71-.05V51.55l.06-.06,1.32,0h.84a3.15,3.15,0,0,1,.9.12,1.87,1.87,0,0,1,.69.37,1.64,1.64,0,0,1,.44.61A2.17,2.17,0,0,1,190.69,53.41Zm-3-.88V54.3h.7a1.09,1.09,0,0,0,.47-.11.64.64,0,0,0,.27-.27,1.1,1.1,0,0,0,.09-.5q0-.88-.85-.88h-.67Z"/><path class="cls-1" d="M196.41,56.38h-.36l-.39,1.31a2.62,2.62,0,0,1-.6.05,2.08,2.08,0,0,1-.7-.1l0-.07,2-6.06a5.47,5.47,0,0,1,.82-.05,4.54,4.54,0,0,1,.85.06l1.95,6.07a1.47,1.47,0,0,1-.71.17,1,1,0,0,1-.66-.16,1.31,1.31,0,0,1-.33-.62l-.17-.6h-1.63Zm0-1.14h1.35l-.15-.56q-.22-.76-.5-1.86H197q-.07.39-.43,1.72Z"/><path class="cls-1" d="M206.05,56.45h1.57a3.66,3.66,0,0,1,0,.62.7.7,0,0,1-.29.44,1,1,0,0,1-.64.19h-2a.78.78,0,0,1-.84-.84V51.51l.06-.06h.53q.84,0,.84.92v4.13Q205.6,56.45,206.05,56.45Z"/><rect class="cls-2" x="0.68" y="2.79" width="78.63" height="56.66"/><rect class="cls-1" x="2" y="4.26" width="75.55" height="53.48"/><polygon class="cls-1" points="2 4.25 2 33.33 32.07 9.07 77.55 29.13 77.55 4.25 2 4.25"/><path class="cls-1" d="M2,54.95a1,1,0,0,1-1-1V33.33a1,1,0,0,1,.37-.78L31.44,8.29a1,1,0,0,1,.63-.22,1,1,0,0,1,.4.08L78,28.22a1,1,0,0,1-.4,1.92h0q-1.64,0-3.24,0A115.55,115.55,0,0,0,53.41,32l-.18,0a1,1,0,0,1-.6-.2A26.92,26.92,0,0,0,9.88,49a1,1,0,0,1-.43.67,72.35,72.35,0,0,0-6.79,5A1,1,0,0,1,2,54.95Z"/><path class="cls-2" d="M32.07,9.07,77.55,29.13q-1.65,0-3.28,0a116,116,0,0,0-21,1.93A27.92,27.92,0,0,0,8.89,48.86,72.1,72.1,0,0,0,2,53.95V33.33L32.07,9.07m0-2a2,2,0,0,0-1.26.44L.74,31.77A2,2,0,0,0,0,33.33V53.95a2,2,0,0,0,3.32,1.51A71.39,71.39,0,0,1,10,50.53a2,2,0,0,0,.87-1.35A25.92,25.92,0,0,1,52,32.62a2,2,0,0,0,1.57.37,114.42,114.42,0,0,1,20.69-1.9c1.07,0,2.15,0,3.22,0h.06a2,2,0,0,0,.81-3.83L32.87,7.24a2,2,0,0,0-.81-.17Z"/><path class="cls-2" d="M53.24,31A121.19,121.19,0,0,0,8.83,48.86a72.23,72.23,0,0,0-6.9,5.08v3.8a53.88,53.88,0,0,1,6.54-4.39c8.78-5.17,26.28-13.24,51.74-14.71a145.8,145.8,0,0,1,17.39,0V29.13A116.28,116.28,0,0,0,53.24,31Z"/></svg>
