<svg xmlns="http://www.w3.org/2000/svg" viewBox="0 0 198 39" width="198" height="39">
	<style>
		tspan { white-space:pre }
		.shp0 { fill: #ffffff } 
	</style>
	<path id="Layer" class="shp0" d="M0.23 0.23L38.81 0.23L38.81 9.58L0.23 9.58L0.23 0.23Z" />
	<path id="Layer" class="shp0" d="M68.31 28.58L80.21 28.58L81.16 25.25L73.91 25.25L74.55 23.02L80.44 23.02L81.39 19.69L75.5 19.69L76.09 17.64L83.03 17.64L83.97 14.34L72.35 14.34L68.31 28.58L68.31 28.58Z" />
	<path id="Layer" fill-rule="evenodd" class="shp0" d="M68.11 19.15C67.29 22.05 65.16 23.92 61.53 24.15C61.27 24.15 58.66 24.15 58.4 24.15L57.15 28.58L52.46 28.58L56.53 14.34L63.39 14.34C67.49 14.34 68.93 16.25 68.11 19.15ZM61.57 17.64L60.24 17.64L59.37 20.81L61.53 20.81C61.77 20.81 62.01 20.77 62.24 20.7C62.47 20.62 62.69 20.5 62.88 20.35C63.07 20.2 63.24 20.02 63.37 19.82C63.5 19.61 63.59 19.39 63.65 19.15C64 17.82 62.57 17.64 61.57 17.64Z" />
	<path id="Layer" class="shp0" d="M15.37 18.18C15.37 18.03 15.33 17.88 15.26 17.74C15.2 17.6 15.11 17.48 14.99 17.37C14.88 17.27 14.75 17.19 14.6 17.15C14.46 17.1 14.3 17.08 14.15 17.09L10.94 17.09L10.2 19.73L13.64 19.73C13.86 19.75 14.08 19.72 14.28 19.65C14.49 19.59 14.68 19.48 14.84 19.33C15 19.19 15.13 19.01 15.23 18.81C15.32 18.61 15.37 18.4 15.37 18.18Z" />
	<path id="Layer" class="shp0" d="M8.53 25.55L11.62 25.55C13.36 25.55 13.62 24.66 13.8 24.37C13.84 24.27 13.87 24.17 13.89 24.07C13.91 23.97 13.92 23.87 13.92 23.76C13.92 23.66 13.91 23.56 13.89 23.46C13.87 23.36 13.84 23.26 13.8 23.16C13.61 22.84 13.53 22.47 12.17 22.47L9.42 22.47L8.53 25.55Z" />
	<path id="Layer" class="shp0" d="M31.3 18.37C31.3 18.09 31.24 17.11 29.8 17.11L26.8 17.11C26.8 17.19 25.92 20.3 25.92 20.3L29 20.3C29.28 20.33 29.56 20.3 29.83 20.21C30.09 20.13 30.34 20 30.55 19.82C30.77 19.64 30.94 19.42 31.07 19.17C31.2 18.92 31.28 18.65 31.3 18.37L31.3 18.37Z" />
	<path id="Layer" class="shp0" d="M34.6 16.5C34.7 16.79 34.77 17.08 34.8 17.39C34.84 17.69 34.84 17.99 34.8 18.29C34.77 18.59 34.7 18.89 34.61 19.18C34.51 19.47 34.38 19.74 34.22 20C34.06 20.25 33.88 20.49 33.68 20.72C33.49 20.94 33.27 21.15 33.03 21.33C32.8 21.52 32.55 21.69 32.29 21.83C32.03 21.97 31.75 22.09 31.47 22.19C31.68 22.2 31.88 22.26 32.06 22.35C32.24 22.44 32.41 22.56 32.54 22.72C32.68 22.87 32.78 23.05 32.85 23.24C32.92 23.44 32.94 23.65 32.93 23.85C32.93 24.18 33.12 28.64 33.12 28.64L29.23 28.64L29.09 24.64C29.09 24.18 29.2 23.1 27.47 23.1L25.09 23.1L23.56 28.51L19.39 28.51L23.52 14.25L14.52 14.25C14.86 14.23 15.21 14.25 15.55 14.3C15.89 14.35 16.23 14.44 16.55 14.55C16.87 14.67 17.19 14.82 17.48 15C17.77 15.18 18.05 15.39 18.3 15.63C18.5 15.9 18.66 16.19 18.78 16.5C18.89 16.81 18.96 17.13 18.99 17.46C19.02 17.79 19 18.12 18.93 18.45C18.87 18.77 18.75 19.09 18.6 19.38C18.49 19.58 18.37 19.77 18.24 19.95C18.11 20.12 17.96 20.29 17.8 20.45C17.64 20.61 17.47 20.75 17.29 20.89C17.11 21.02 16.92 21.14 16.72 21.24C16.87 21.33 17.02 21.43 17.15 21.54C17.29 21.66 17.41 21.78 17.53 21.92C17.64 22.05 17.74 22.2 17.83 22.35C17.92 22.5 17.99 22.66 18.05 22.83C18.15 23.19 18.2 23.56 18.21 23.94C18.21 24.32 18.17 24.69 18.08 25.05C17.98 25.42 17.85 25.77 17.66 26.1C17.48 26.43 17.26 26.73 17 27C16.26 27.62 15.62 28.47 12 28.47L3.53 28.47L7.64 14.24L0.23 14.24L0.23 38.69L38.81 38.69L38.81 14.25L30.81 14.25C31.2 14.22 31.6 14.24 31.98 14.33C32.36 14.42 32.73 14.56 33.07 14.76C33.41 14.96 33.71 15.22 33.97 15.51C34.23 15.81 34.44 16.14 34.6 16.5L34.6 16.5Z" />
	<path id="Layer" fill-rule="evenodd" class="shp0" d="M132.02 21.42C131.79 22.31 131.44 23.17 130.98 23.96C130.52 24.76 129.95 25.49 129.29 26.14C128.63 26.78 127.89 27.33 127.08 27.78C126.28 28.22 125.42 28.56 124.52 28.77C124.34 28.81 124.17 28.84 123.99 28.87C123.81 28.9 123.63 28.92 123.45 28.94C123.27 28.96 123.09 28.98 122.91 28.99C122.73 29 122.55 29 122.37 29C117.91 29 115.71 26.23 117.07 21.37C117.31 20.5 117.66 19.66 118.12 18.88C118.58 18.1 119.15 17.39 119.8 16.76C120.46 16.14 121.19 15.6 121.99 15.18C122.79 14.75 123.64 14.43 124.52 14.23C124.69 14.19 124.87 14.16 125.05 14.13C125.22 14.1 125.4 14.08 125.58 14.06C125.76 14.04 125.93 14.02 126.11 14.01C126.29 14 126.47 14 126.65 14C131.75 14 133.11 17.62 132.02 21.42ZM127.34 21.38C127.91 19.44 127.7 17.39 125.62 17.47C125.53 17.47 125.43 17.47 125.34 17.48C125.25 17.49 125.15 17.51 125.06 17.52C124.97 17.54 124.88 17.56 124.79 17.59C124.7 17.62 124.61 17.65 124.52 17.68C123.07 18.27 122.17 19.96 121.76 21.42C121.22 23.24 121.14 25.52 123.37 25.52C123.47 25.52 123.57 25.51 123.66 25.51C123.76 25.5 123.86 25.48 123.95 25.46C124.05 25.45 124.15 25.43 124.24 25.4C124.33 25.37 124.43 25.34 124.52 25.31C125.91 24.77 126.83 23.29 127.34 21.42L127.34 21.38Z" />
	<path id="Layer" class="shp0" d="M99.46 16.21L100 14.34L99.46 14.34L86.92 14.34L85.87 18.08L90.07 18.08L87.07 28.58L91.73 28.58L94.73 18.08L98.93 18.08L99.46 16.21L99.46 16.21Z" />
	<path id="Layer" fill-rule="evenodd" class="shp0" d="M165.54 18.67C165.43 19.05 165.27 19.41 165.07 19.75C164.86 20.09 164.62 20.4 164.34 20.68C164.06 20.95 163.74 21.19 163.4 21.39C163.06 21.58 162.69 21.74 162.31 21.84C163.64 22.4 164.46 22.76 163.64 25.63C163.1 27.5 162.87 28.11 163.41 28.11L163.31 28.55L158.57 28.55C158.58 28.36 158.59 28.17 158.61 27.98C158.63 27.8 158.65 27.61 158.69 27.42C158.72 27.24 158.75 27.05 158.8 26.87C158.84 26.68 158.89 26.5 158.95 26.32C158.98 26.24 159.03 26.16 159.03 26.06C159.36 24.91 159.44 24.27 158.95 23.91C158.82 23.84 158.68 23.78 158.55 23.73C158.41 23.68 158.26 23.65 158.12 23.62C157.97 23.59 157.83 23.57 157.68 23.57C157.53 23.56 157.39 23.56 157.24 23.58L155.83 23.58L154.4 28.58L149.74 28.58L153.74 14.34L160.47 14.34C163.36 14.34 164.93 14.8 165.54 15.8C165.64 16 165.72 16.21 165.77 16.42C165.83 16.64 165.86 16.86 165.87 17.08C165.88 17.31 165.86 17.53 165.82 17.75C165.79 17.97 165.72 18.18 165.64 18.39C165.63 18.41 165.63 18.44 165.62 18.46C165.61 18.49 165.61 18.51 165.6 18.53C165.59 18.56 165.58 18.58 165.57 18.6C165.56 18.63 165.55 18.65 165.54 18.67ZM161.11 19.13C161.4 18.13 160.73 17.64 159.66 17.65L157.48 17.65L156.66 20.49L158.91 20.49C160.11 20.41 160.85 20.03 161.11 19.13Z" />
	<path id="Layer" class="shp0" d="M197.75 18.46C198.11 15.98 196.88 13.95 192.94 13.95C189.36 13.95 186.31 15.46 185.46 18.51C183.9 23.94 192.53 22.45 191.91 24.63C191.73 25.3 190.83 25.63 189.68 25.63C189.57 25.63 189.46 25.63 189.36 25.61C189.25 25.6 189.14 25.58 189.04 25.55C188.93 25.52 188.83 25.48 188.73 25.43C188.63 25.38 188.54 25.33 188.45 25.27C188.37 25.21 188.3 25.14 188.24 25.06C188.17 24.98 188.12 24.89 188.08 24.79C188.04 24.7 188.02 24.6 188 24.5C187.99 24.4 187.99 24.3 188 24.2L183.52 24.2C182.91 26.76 184.72 28.96 188.52 28.96C192.44 28.96 195.66 27.35 196.59 24.04C198.07 18.87 189.5 20.17 190.11 18.04C190.24 17.53 190.78 17.22 191.83 17.22C191.93 17.22 192.03 17.22 192.12 17.23C192.22 17.24 192.32 17.25 192.41 17.27C192.51 17.29 192.6 17.32 192.69 17.36C192.78 17.39 192.87 17.43 192.96 17.48C193.04 17.53 193.11 17.6 193.17 17.67C193.23 17.74 193.28 17.83 193.32 17.92C193.35 18.01 193.37 18.1 193.37 18.2C193.38 18.29 193.37 18.39 193.34 18.48L197.75 18.46Z" />
	<path id="Layer" fill-rule="evenodd" class="shp0" d="M179.24 14.34L180.24 28.58L175.58 28.58L175.58 26.71L170.92 26.71L169.84 28.58L165.26 28.58L165.54 28.14L174.12 14.8L174.43 14.34L179.24 14.34ZM175.6 23.74L175.55 18.62L174.12 21.13L172.66 23.74L175.6 23.74Z" />
	<path id="Layer" fill-rule="evenodd" class="shp0" d="M114.89 18.36C114.79 18.77 114.63 19.17 114.43 19.54C114.22 19.91 113.97 20.25 113.67 20.56C113.38 20.86 113.04 21.13 112.68 21.34C112.31 21.56 111.92 21.73 111.51 21.84C112.84 22.4 113.66 22.76 112.84 25.63C112.31 27.5 112.08 28.11 112.64 28.11L112.51 28.55L107.77 28.55C107.78 28.36 107.8 28.17 107.82 27.99C107.84 27.8 107.86 27.61 107.9 27.42C107.93 27.24 107.96 27.05 108.01 26.87C108.05 26.68 108.1 26.5 108.15 26.32C108.18 26.24 108.23 26.16 108.23 26.06C108.56 24.91 108.64 24.27 108.15 23.91C108.02 23.84 107.88 23.78 107.74 23.73C107.6 23.68 107.46 23.64 107.31 23.62C107.17 23.59 107.02 23.57 106.87 23.57C106.73 23.56 106.58 23.56 106.43 23.58L105.02 23.58L103.64 28.58L98.95 28.58L99.49 26.71L103 14.34L109.68 14.34C114.44 14.34 115.62 15.62 114.89 18.36ZM110.32 19.13C110.6 18.13 109.94 17.64 108.87 17.65L106.69 17.65L105.87 20.49L108.12 20.49C109.32 20.41 110.06 20.03 110.32 19.13Z" />
	<path id="Layer" fill-rule="evenodd" class="shp0" d="M149.04 17.95C148.92 18.28 148.78 18.61 148.6 18.91C148.42 19.22 148.21 19.51 147.98 19.77C147.74 20.04 147.48 20.28 147.2 20.49C146.92 20.71 146.62 20.89 146.3 21.05C147.73 21.44 148.17 22.77 147.73 24.33C146.91 27.25 144.53 28.4 141.3 28.58C140.99 28.58 133.69 28.58 133.38 28.58L137.38 14.34L144.22 14.34C147.42 14.34 149.75 15.08 149.04 17.95ZM141.25 22.64L139.74 22.64L139 25.25L141.22 25.25C142.27 25.22 143.12 24.94 143.4 23.94C143.76 22.71 142.68 22.64 141.25 22.64ZM144.34 18.8C144.65 17.67 143.76 17.64 142.74 17.64L141.1 17.64L140.43 20.02L142.35 20.02C142.56 20.05 142.77 20.04 142.98 19.99C143.19 19.95 143.39 19.87 143.57 19.76C143.75 19.65 143.91 19.51 144.04 19.34C144.17 19.18 144.28 18.99 144.35 18.79L144.34 18.8Z" />
</svg>