<svg id="Camada_1" data-name="Camada 1" xmlns="http://www.w3.org/2000/svg" xmlns:xlink="http://www.w3.org/1999/xlink" viewBox="0 0 110.87 96.04"><defs><style>.cls-1{fill:none;}.cls-2{fill:#231f20;}.cls-3{fill:#fff;}.cls-4{clip-path:url(#clip-path);}</style><clipPath id="clip-path"><rect class="cls-1" x="24.64" y="17.66" width="64.48" height="64.48" transform="translate(-18.63 54.84) rotate(-45)"/></clipPath></defs><title>site-observa</title><rect class="cls-2" x="24.64" y="17.66" width="64.48" height="64.48" transform="translate(-18.63 54.84) rotate(-45)"/><path class="cls-3" d="M56.88,96,10.74,49.9,56.88,3.76,103,49.9ZM11.83,49.9,56.88,95,101.94,49.9,56.88,4.85Z"/><g class="cls-4"><rect class="cls-1" y="8.18" width="110.87" height="83.15"/><polygon class="cls-3" points="51.73 94.9 51.14 94.72 55.78 79.55 42.26 70.14 58.13 64.05 58.35 64.63 43.56 70.3 56.5 79.3 51.73 94.9"/><rect class="cls-3" x="40.54" y="83.68" width="16.81" height="0.62" transform="translate(-36.85 38.29) rotate(-31.72)"/><rect class="cls-3" x="35.82" y="77.03" width="13.39" height="0.62" transform="translate(-39.01 111.13) rotate(-83.71)"/><rect class="cls-3" x="23.07" y="75.26" width="21.2" height="0.62" transform="translate(-31.46 24.56) rotate(-27.92)"/><rect class="cls-3" x="20.41" y="70.94" width="22.65" height="0.62" transform="translate(-4.06 1.95) rotate(-3.31)"/><rect class="cls-3" x="29.43" y="51.56" width="0.62" height="28.32" transform="translate(-42.21 71) rotate(-69.85)"/><rect class="cls-3" x="36.32" y="50.45" width="0.62" height="22.18" transform="translate(-28.81 32.44) rotate(-35.27)"/><rect class="cls-3" x="16.35" y="56.88" width="15.47" height="0.62" transform="translate(-29.84 26.47) rotate(-37.49)"/><rect class="cls-3" x="21.89" y="22.91" width="0.62" height="31.75" transform="translate(-16.56 16.54) rotate(-30.36)"/><rect class="cls-3" x="42.54" y="54.68" width="0.62" height="15.93" transform="translate(-1.45 1.02) rotate(-1.34)"/><rect class="cls-3" x="36.13" y="47.27" width="0.62" height="12.63" transform="translate(-22.65 80.18) rotate(-80.01)"/><rect class="cls-3" x="28.17" y="45.94" width="21.02" height="0.62" transform="translate(-19.91 32.01) rotate(-36.43)"/><rect class="cls-3" x="41.72" y="51.48" width="9.88" height="0.62" transform="translate(-21.49 37.13) rotate(-35.84)"/><rect class="cls-3" x="47.73" y="50.08" width="0.62" height="10.89" transform="translate(-14.28 94.35) rotate(-81.06)"/><rect class="cls-3" x="39.47" y="62.99" width="17.38" height="0.62" transform="translate(-31.37 63.4) rotate(-52.81)"/><rect class="cls-3" x="59.6" y="77.64" width="0.62" height="12.9" transform="translate(-38.97 54.35) rotate(-37.79)"/><rect class="cls-3" x="60.07" y="81.93" width="14.84" height="0.62" transform="matrix(0.61, -0.79, 0.79, 0.61, -38.85, 85.19)"/><rect class="cls-3" x="71.72" y="60.37" width="0.62" height="16" transform="translate(-0.08 0.09) rotate(-0.07)"/><rect class="cls-3" x="71.23" y="72.24" width="18.97" height="0.62" transform="translate(-22.39 38.66) rotate(-23.76)"/><rect class="cls-3" x="79.21" y="71.27" width="0.62" height="16.08" transform="translate(-23.34 124.39) rotate(-68.59)"/><rect class="cls-3" x="79.6" y="57.9" width="0.62" height="16.86" transform="translate(-10.06 118.21) rotate(-69.67)"/><rect class="cls-3" x="70.11" y="57.98" width="15.73" height="0.62" transform="translate(-19.16 64.7) rotate(-40.55)"/><rect class="cls-3" x="85.93" y="52.86" width="0.62" height="17.21" transform="translate(-13.23 25.12) rotate(-15.41)"/><rect class="cls-3" x="90.77" y="49.26" width="0.62" height="16.87" transform="translate(-6.45 103.66) rotate(-57.59)"/><rect class="cls-3" x="83.66" y="50.88" width="13.53" height="0.62" transform="translate(-11.04 28.81) rotate(-17.08)"/><rect class="cls-3" x="101.46" y="46.74" width="0.62" height="12.16" transform="translate(-1.31 103.04) rotate(-53.4)"/><rect class="cls-3" x="95.49" y="35.39" width="0.62" height="13.9" transform="translate(-5.45 15.51) rotate(-9)"/><rect class="cls-3" x="83" y="43.34" width="0.62" height="10.27" transform="translate(-3.4 6.37) rotate(-4.29)"/><rect class="cls-3" x="82.43" y="40.55" width="12.96" height="0.62" transform="translate(-8.88 37.49) rotate(-22.71)"/><rect class="cls-3" x="77.6" y="35.34" width="16.47" height="0.62" transform="translate(22.25 103.44) rotate(-69.39)"/><rect class="cls-3" x="77.32" y="26.66" width="0.62" height="17.76" transform="translate(-6.32 51.13) rotate(-35.12)"/><rect class="cls-3" x="72.42" y="26.7" width="16.91" height="0.62" transform="translate(-3.15 12.51) rotate(-8.68)"/><rect class="cls-3" x="68.39" y="14.27" width="0.62" height="15.38" transform="translate(-1.82 37.07) rotate(-29.82)"/><rect class="cls-3" x="62.96" y="10.64" width="11.77" height="0.62" transform="translate(14.23 54.27) rotate(-47.46)"/><rect class="cls-3" x="54.41" y="-4.86" width="0.62" height="25.26" transform="translate(15.9 47.11) rotate(-53.47)"/><rect class="cls-3" x="50.82" y="-0.51" width="0.62" height="27.76" transform="translate(30.81 62.15) rotate(-82.03)"/><rect class="cls-3" x="46.03" y="19.73" width="20.04" height="0.62" transform="translate(-2.81 28.91) rotate(-28.24)"/><rect class="cls-3" x="47.1" y="24.22" width="22.58" height="0.62" transform="translate(4.8 58.29) rotate(-55)"/><rect class="cls-3" x="39.01" y="7.25" width="0.62" height="20.64" transform="translate(-0.25 34.57) rotate(-47.33)"/><rect class="cls-3" x="19.08" y="27.61" width="28.23" height="0.62" transform="translate(-5.68 8.68) rotate(-13.73)"/><rect class="cls-3" x="40.05" y="30.89" width="13.29" height="0.62" transform="translate(13.97 76.84) rotate(-88.12)"/><rect class="cls-3" x="32.73" y="21.14" width="0.62" height="29.41" transform="translate(-10.7 57.36) rotate(-73.52)"/><rect class="cls-3" x="45.85" y="33.84" width="27.96" height="0.62" transform="translate(-8.81 28.25) rotate(-24.81)"/><rect class="cls-3" x="55.96" y="36.79" width="21.25" height="0.62" transform="translate(-1.35 71.66) rotate(-56.09)"/><rect class="cls-3" x="22.38" y="41.76" width="0.62" height="16.01" transform="translate(-31.82 54.19) rotate(-70.13)"/><rect class="cls-3" x="15.49" y="47.01" width="0.62" height="11.77" transform="translate(-5.64 2.03) rotate(-6.23)"/><rect class="cls-3" x="6.38" y="51.05" width="10.9" height="0.62" transform="translate(-36.02 29.27) rotate(-52.25)"/><rect class="cls-3" x="11.8" y="41.65" width="11.06" height="0.62" transform="translate(-28.07 41.53) rotate(-67.02)"/><rect class="cls-3" x="80.21" y="48.21" width="0.62" height="7.57" transform="translate(4.67 110.6) rotate(-70.54)"/><circle class="cls-3" cx="42.94" cy="70.55" r="1.29"/><circle class="cls-3" cx="42.76" cy="54.59" r="1.29"/><circle class="cls-3" cx="56.37" cy="79.33" r="1.29"/><circle class="cls-3" cx="58.54" cy="64.36" r="1.09"/><circle class="cls-3" cx="53.56" cy="56.14" r="1.09"/><circle class="cls-3" cx="61.3" cy="45.94" r="1.09"/><circle class="cls-3" cx="72" cy="63.27" r="1.09"/><circle class="cls-3" cx="72.34" cy="76.38" r="1.29"/><circle class="cls-3" cx="88.44" cy="69.44" r="1.09"/><circle class="cls-3" cx="83.85" cy="53.18" r="1.29"/><circle class="cls-3" cx="83.26" cy="43.05" r="1.09"/><circle class="cls-3" cx="30.41" cy="52.51" r="1.29"/><circle class="cls-3" cx="19.69" cy="72.42" r="1.09"/><circle class="cls-3" cx="18.11" cy="61.61" r="1.09"/><circle class="cls-3" cx="15.5" cy="47.02" r="1.29"/><circle class="cls-3" cx="5.41" cy="62.82" r="1.09"/><circle class="cls-3" cx="19.69" cy="84.35" r="1.09"/><circle class="cls-3" cx="63.13" cy="88.18" r="1.29"/><circle class="cls-3" cx="47.19" cy="40.76" r="1.09"/><circle class="cls-3" cx="47.24" cy="24.48" r="1.09"/><circle class="cls-3" cx="19.06" cy="31.93" r="1.09"/><circle class="cls-3" cx="72.62" cy="28.6" r="1.29"/><circle class="cls-3" cx="89.91" cy="25.56" r="1.09"/><circle class="cls-3" cx="94.81" cy="38.71" r="1.09"/><circle class="cls-3" cx="105.76" cy="39.67" r="1.09"/><circle class="cls-3" cx="97.41" cy="49.14" r="1.29"/><circle class="cls-3" cx="100.06" cy="63.27" r="1.09"/><circle class="cls-3" cx="93.86" cy="85.6" r="1.09"/><circle class="cls-3" cx="108.32" cy="18.11" r="1.09"/><circle class="cls-3" cx="93.62" cy="12.21" r="1.09"/><circle class="cls-3" cx="64.76" cy="15.47" r="1.29"/><circle class="cls-3" cx="77.57" cy="14.39" r="1.09"/><circle class="cls-3" cx="32.58" cy="10.6" r="1.09"/><circle class="cls-3" cx="15.93" cy="14.11" r="1.09"/><circle class="cls-3" cx="3.24" cy="16.56" r="1.09"/></g><polyline class="cls-3" points="59.38 80.95 59.48 80.83 64.63 74.74 65.01 70.29 75.2 64.7 78.93 57.93 80.22 52.19 81.72 49.16 85.53 43.59 83.33 39.45 77.36 36.1 74.39 35.52 72.54 34.45 68.06 32.69 63.53 31.09 63.41 29.16 61.35 25.5 54.53 28 49.86 29.55 48.36 24.04 41.78 25.32 41.91 29.12 37.88 29.13 33.76 29.97 33.76 38.11 30.55 39.44 28.24 43.13 33.4 47.52 37.18 48.52 39.34 46.63 41.5 49.66 46.22 51.79 48.35 53.38 51.89 60.93 52.89 62.77 52.41 64.34 56.58 69.52 57.2 72.21 52.66 76.82 56.22 79.25"/><path class="cls-3" d="M12.15,86.31h-.92V81h1.24a1.93,1.93,0,0,1,1.25.34,1.68,1.68,0,0,1,.55,1.28,1.57,1.57,0,0,1-1.74,1.7l-.39,0Zm1.15-3.68c0-.83-.63-.81-1.15-.83v1.67C12.68,83.47,13.3,83.44,13.3,82.64Z"/><path class="cls-3" d="M15,86.31V81h1.48c.81,0,1.63.23,1.63,1.4a1.15,1.15,0,0,1-.92,1.25c.33.15.43.45.56.81l.65,1.86h-1l-.49-1.51c-.2-.64-.4-.7-1-.7v2.21Zm1.32-3c.41,0,.81-.18.81-.73a.65.65,0,0,0-.74-.73h-.48v1.46Z"/><path class="cls-3" d="M19,86.31V81H20v5.32Z"/><path class="cls-3" d="M25.3,86.31V83.17c0-.48,0-1,.06-1.43h0c0,.18-.08.37-.14.55l-1.15,4H23.2l-1-3.32c-.12-.41-.22-.83-.31-1.25h0c0,.46.07.93.07,1.39v3.18h-.87V81h1.44l.82,2.79a10.36,10.36,0,0,1,.29,1.31c.07-.37.14-.72.24-1.08l.87-3h1.47v5.32Z"/><path class="cls-3" d="M30,86.31H27.3V81H30v.88H28.22v1.28h1.61V84H28.22v1.42H30Z"/><path class="cls-3" d="M31,86.31V81h.92v5.32Z"/><path class="cls-3" d="M33,86.31V81h1.48c.8,0,1.63.23,1.63,1.4a1.15,1.15,0,0,1-.92,1.25c.33.15.43.45.56.81l.65,1.86h-1l-.49-1.51c-.2-.64-.4-.7-1-.7v2.21Zm1.32-3c.41,0,.81-.18.81-.73a.65.65,0,0,0-.74-.73h-.48v1.46Z"/><path class="cls-3" d="M40.19,86.31,39.8,85.1H37.92l-.38,1.21H36.6L38.36,81h1l1.81,5.32Zm-1.25-4c0-.11-.06-.23-.09-.35,0,.14-.06.29-.1.44l-.54,1.79h1.32Z"/><path class="cls-3" d="M13,79.1l-1.07-2.33c-.1-.22-.18-.45-.27-.68a8.2,8.2,0,0,1,.08,1v2h-.63V75.25h.78L13,77.58c.1.22.16.46.24.68a6.33,6.33,0,0,1-.06-.94V75.25h.63V79.1Z"/><path class="cls-3" d="M16.83,79.1l-.28-.88H15.19l-.28.88h-.68l1.28-3.85h.73l1.31,3.85Zm-.91-2.87c0-.08,0-.17-.06-.25,0,.1,0,.21-.08.32l-.39,1.3h1Z"/><path class="cls-3" d="M20.38,79a2.56,2.56,0,0,1-.74.13,1.72,1.72,0,0,1-1.8-1.92c0-1.28.66-2,1.74-2a2.21,2.21,0,0,1,.79.17l-.05.66a1.26,1.26,0,0,0-.7-.21c-.66,0-1.07.52-1.07,1.28s.43,1.36,1.13,1.36a1.73,1.73,0,0,0,.69-.16Z"/><path class="cls-3" d="M20.91,79.1V75.25h.66V79.1Z"/><path class="cls-3" d="M23.85,79.19c-1,0-1.61-.83-1.61-2s.57-2,1.61-2,1.59.86,1.59,2S24.86,79.19,23.85,79.19Zm0-3.43c-.64,0-.9.77-.9,1.42s.26,1.41.91,1.41.89-.77.89-1.41S24.48,75.76,23.84,75.76Z"/><path class="cls-3" d="M28,79.1,26.9,76.78c-.1-.22-.18-.45-.27-.68a8.2,8.2,0,0,1,.08,1v2h-.63V75.25h.78L28,77.58c.1.22.16.46.24.68a6.4,6.4,0,0,1-.06-.94V75.25h.63V79.1Z"/><path class="cls-3" d="M31.82,79.1l-.28-.88H30.18l-.28.88h-.68l1.28-3.85h.73l1.31,3.85Zm-.91-2.87c0-.08,0-.17-.06-.25,0,.1,0,.21-.08.32l-.39,1.3h1Z"/><path class="cls-3" d="M34.92,79.1H33V75.25h.66v3.22h1.28Z"/><path class="cls-3" d="M11.24,73.36V68h1.49c.81,0,1.64.23,1.64,1.41a1.16,1.16,0,0,1-.92,1.26c.33.15.43.45.56.81l.66,1.87h-1l-.5-1.52c-.2-.64-.4-.71-1-.71v2.22Zm1.33-3c.42,0,.82-.18.82-.74a.66.66,0,0,0-.75-.73h-.48v1.47Z"/><path class="cls-3" d="M18,73.36H15.31V68H18v.88H16.23v1.29h1.62v.87H16.23v1.43H18Z"/><path class="cls-3" d="M19,68h1a3.07,3.07,0,0,1,2,.51,2.7,2.7,0,0,1,.82,2.17A2.81,2.81,0,0,1,22,72.87a2.58,2.58,0,0,1-1.74.49H19Zm1.16,4.53c1,0,1.74-.59,1.74-1.89a1.88,1.88,0,0,0-.68-1.55,2.26,2.26,0,0,0-1.29-.26v3.69Z"/><path class="cls-3" d="M26.43,73.36H23.71V68h2.69v.88H24.63v1.29h1.62v.87H24.63v1.43h1.8Z"/><path class="cls-3" d="M11.14,94.81V88.12h1.15v6.69Z"/><path class="cls-3" d="M17,94.81l-1.86-4c-.18-.38-.32-.78-.47-1.18a14.31,14.31,0,0,1,.13,1.72v3.5H13.72V88.12h1.35L17,92.17c.17.38.28.79.42,1.18a11.08,11.08,0,0,1-.1-1.63v-3.6H18.4v6.69Z"/><path class="cls-3" d="M20.92,94.81H19.76V88.12h3.16v1.1h-2v1.58h1.93v1.1H20.92Z"/><path class="cls-3" d="M33.18,94.81l-1.87-4c-.18-.38-.32-.78-.47-1.18A14.25,14.25,0,0,1,31,91.31v3.5H29.88V88.12h1.35l1.92,4.05c.17.38.28.79.42,1.18a11.05,11.05,0,0,1-.1-1.63v-3.6h1.09v6.69Z"/><path class="cls-3" d="M40.07,94.64a4.42,4.42,0,0,1-1.29.22,3,3,0,0,1-3.12-3.33c0-2.22,1.15-3.46,3-3.46a3.82,3.82,0,0,1,1.36.29L40,89.5a2.2,2.2,0,0,0-1.21-.36c-1.14,0-1.86.9-1.86,2.23s.75,2.37,2,2.37a3,3,0,0,0,1.2-.28Z"/><path class="cls-3" d="M41,94.81V88.12h1.15v6.69Z"/><path class="cls-3" d="M47.49,94.81,47,93.29H44.64l-.48,1.52H43l2.22-6.69h1.27l2.28,6.69Zm-1.57-5c0-.14-.08-.29-.11-.44-.05.18-.08.37-.13.55L45,92.19h1.65Z"/><polygon class="cls-3" points="27.02 88.66 26.84 88.12 25.57 88.12 25.39 88.66 27.02 88.66"/><path class="cls-3" d="M27.11,88.92H25.3l-2,5.89h1.18L25,93.29h2.36l.49,1.52h1.25Zm-1.75,3.27L26,89.94c0-.18.08-.37.13-.55,0,.15.07.3.11.44L27,92.19Z"/><circle class="cls-3" cx="47.21" cy="32.74" r="5.92" transform="translate(-7.6 15.52) rotate(-17.3)"/><path class="cls-2" d="M52.1,30.39a3.2,3.2,0,0,1-2.5-1.05,2.44,2.44,0,0,1-1.05.9,3.1,3.1,0,0,0-.11-.86,6.8,6.8,0,0,1-2.59,1.92,1.77,1.77,0,0,0,0-1.52s-1.39,2.57-2.95,2.89A4.37,4.37,0,0,0,43,31.17s-.46,1.76-1.54,2.15h0c-.72-2.48,1.06-5.22,4-6.15s5.91.38,6.69,2.89c0,.1.06.21.08.31Z"/><path class="cls-2" d="M52.17,30.5a3.46,3.46,0,0,1-2.49-.92,2.45,2.45,0,0,1-1,.75l-.28.1v-.25a3.19,3.19,0,0,0,0-.46A6.06,6.06,0,0,1,46,31.4l-.38.09.15-.32a1.82,1.82,0,0,0,.14-1c-.47.76-1.6,2.34-2.87,2.6l-.3.06.07-.26s0-.14.07-.33a2.49,2.49,0,0,1-1.22,1.18l-.06,0-.2,0,0-.1a5.88,5.88,0,0,1,4.23-6.21,5.77,5.77,0,0,1,6.89,2.82,1.22,1.22,0,0,1,.09.32l0,.2ZM41.68,33a3.54,3.54,0,0,0,1.21-1.92l.23-.87.18.84a3.68,3.68,0,0,1-.06,1.28c1.32-.54,2.48-2.66,2.49-2.69l.19-.35.19.31a1.72,1.72,0,0,1,.13,1.32,7.73,7.73,0,0,0,2.11-1.72l.26-.3.11.34a2.89,2.89,0,0,1,.11.63,2.49,2.49,0,0,0,.67-.68l.17-.27.19.23a3,3,0,0,0,2.22,1l0-.09c-.76-2.45-3.59-3.67-6.44-2.78S41.13,30.67,41.68,33Z"/><ellipse class="cls-2" cx="44.21" cy="33.81" rx="0.72" ry="0.53" transform="translate(-8.06 14.68) rotate(-17.31)"/><path class="cls-2" d="M43.41,34.05c-.1-.32.17-.7.61-.84a.75.75,0,0,1,1,.34c.1.32-.17.7-.61.84A.75.75,0,0,1,43.41,34.05Zm.21-.07a.55.55,0,0,0,.72.25c.32-.1.52-.38.45-.61a.55.55,0,0,0-.72-.25C43.75,33.47,43.55,33.75,43.62,34Z"/><ellipse class="cls-2" cx="50.21" cy="32.08" rx="0.72" ry="0.53" transform="translate(-7.27 16.39) rotate(-17.3)"/><path class="cls-2" d="M49.41,32.33c-.1-.32.17-.7.61-.84a.75.75,0,0,1,1,.34c.1.32-.17.7-.61.84A.75.75,0,0,1,49.41,32.33Zm.21-.07a.55.55,0,0,0,.72.25c.32-.1.52-.38.45-.61a.55.55,0,0,0-.72-.25C49.75,31.75,49.55,32,49.62,32.26Z"/><path class="cls-2" d="M45.76,35.88l0-.06.29-.09,0,0a2.12,2.12,0,0,0,3.84-1.2v-.05l.3-.09v.07a2.44,2.44,0,0,1-4.43,1.38ZM50,34.6a2.29,2.29,0,0,1-4.1,1.28h0a2.3,2.3,0,0,0,4.13-1.29Z"/><path class="cls-2" d="M48.51,36.91a2.34,2.34,0,0,0,1.79-2.43l0-.2-.51.16,0,.15a2,2,0,0,1-3.63,1.13l-.07-.13-.51.16.09.18A2.34,2.34,0,0,0,48.51,36.91Z"/><path class="cls-2" d="M41.41,34.74a6.14,6.14,0,1,1,7.68,4A6.14,6.14,0,0,1,41.41,34.74Zm.43-.13a5.69,5.69,0,1,0,3.74-7.12A5.69,5.69,0,0,0,41.84,34.61Z"/><path class="cls-2" d="M49.63,38.14a.58.58,0,0,1,.71-.4,1.35,1.35,0,0,1-.69-1.06,1,1,0,0,1,1.08-.91s-.71-1.29.4-1.62c0,0,.33,0,.34-.12a1.1,1.1,0,0,1,.11-1.14,1,1,0,0,1,1.28.09s-.36-1.76.81-1.31a6.22,6.22,0,0,1,.63.33s-.1-1.34.47-1.47c0,0,.49-.09,1.21.86a1.47,1.47,0,0,1,.15-.62s.31-.56.71-.66h0l1,6-.21-.2a1.12,1.12,0,0,1-.56-.08s.29.7-.27.87c0,0-.47.18-.72-.49a.81.81,0,0,1-.91.4s0,.82-.69.34c0,0-.29.31-.52.22,0,0,.21.6-.32.81,0,0-.19.14-.58-.13a.75.75,0,0,1-.27.13s1,1.44.06,1c0,0-.07.34-.26.43,0,0,4.93,4.42,5,5.08l.08.06.12.71-.32,0a8.06,8.06,0,0,1-2.77-.86s-.28.14-.51-.46,0,0,0,0-1.21,0-2-2.08c0,0-.74-.23-.37-.78,0,0-2.06-1-.75-1.37a3,3,0,0,1-.67-.39S49.57,38.87,49.63,38.14Z"/><path class="cls-2" d="M65.86,35.45a.58.58,0,0,0-.8-.15,1.35,1.35,0,0,0,.31-1.23,1,1,0,0,0-1.31-.51s.25-1.45-.9-1.41c0,0-.31.12-.36,0a1.1,1.1,0,0,0-.47-1,1,1,0,0,0-1.19.5s-.23-1.78-1.18-1a6.33,6.33,0,0,0-.49.51s-.34-1.3-.92-1.24c0,0-.5.08-.87,1.2a4.57,4.57,0,0,0-.2-.67.5.5,0,0,0-.53-.34h0l.5,6.11a2.17,2.17,0,0,0,.14-.26,1.12,1.12,0,0,0,.5-.25s0,.75.54.74c0,0,.51,0,.53-.7a.81.81,0,0,0,1,.09s.27.77.77.1c0,0,.38.2.56,0,0,0,0,.64.56.67,0,0,.23.07.51-.31a.75.75,0,0,0,.29,0s-.46,1.67.25.94c0,0,.18.3.39.32,0,0-3.25,5.77-3.1,6.42l-.05.08.12.71.31-.09A8.06,8.06,0,0,0,63,43s.31,0,.34-.6,0,0,0,0,1.14-.4,1.22-2.61c0,0,.63-.45.1-.86,0,0,1.62-1.63.27-1.54,0,0,.48-.46.5-.59S66.16,36.12,65.86,35.45Z"/><circle class="cls-3" cx="58.41" cy="40.47" r="5.92" transform="translate(-5.82 10.08) rotate(-9.4)"/><path class="cls-3" d="M63.84,38.14A5.91,5.91,0,0,0,52.45,40a9.19,9.19,0,0,1,11.39-1.89Z"/><path class="cls-2" d="M52.19,40.65l0-.63a6.14,6.14,0,0,1,11.83-2l.23.59-.55-.31a9,9,0,0,0-11.12,1.84Zm5.23-5.93a5.72,5.72,0,0,0-4.68,4.68,9.41,9.41,0,0,1,10.62-1.76A5.72,5.72,0,0,0,57.42,34.72Z"/><circle class="cls-2" cx="56.49" cy="40.88" r="0.72" transform="translate(-5.91 9.77) rotate(-9.39)"/><path class="cls-2" d="M56.63,41.7a.83.83,0,1,1,.69-1A.84.84,0,0,1,56.63,41.7Zm-.24-1.43a.61.61,0,1,0,.7.5A.61.61,0,0,0,56.39,40.28Z"/><circle class="cls-2" cx="60.29" cy="40.25" r="0.72" transform="translate(-5.75 10.36) rotate(-9.38)"/><path class="cls-2" d="M60.42,41.07a.83.83,0,1,1,.69-1A.84.84,0,0,1,60.42,41.07Zm-.24-1.43a.61.61,0,1,0,.7.5A.61.61,0,0,0,60.19,39.65Z"/><path class="cls-2" d="M59,44.35a2.23,2.23,0,0,1-2.57-1.29l0-.07.3-.05,0,.05a2.12,2.12,0,0,0,4-.66v-.05l.3-.05v.07A2.23,2.23,0,0,1,59,44.35Zm-2.4-1.26a2.3,2.3,0,0,0,4.27-.71h0a2.29,2.29,0,0,1-4.24.7Z"/><path class="cls-2" d="M59,44.46a2.34,2.34,0,0,1-2.69-1.37l-.06-.19.53-.09,0,.14a2,2,0,0,0,3.75-.62v-.15l.53-.09v.2A2.34,2.34,0,0,1,59,44.46Z"/><path class="cls-2" d="M59.35,46.38a6.14,6.14,0,1,1,5.05-7.06A6.14,6.14,0,0,1,59.35,46.38ZM57.42,34.72A5.69,5.69,0,1,0,64,39.4,5.69,5.69,0,0,0,57.42,34.72Z"/><circle class="cls-3" cx="69.25" cy="39.61" r="5.92" transform="translate(13.42 96.6) rotate(-75.36)"/><path class="cls-3" d="M70.66,33.94a5.89,5.89,0,0,0-7.2,4.34c0,.13-.06.27-.09.4h.16a3.55,3.55,0,0,0,2.69-1.59,2.43,2.43,0,0,0,1.13,1A4.6,4.6,0,0,1,67.47,37s1.5,1.9,2.79,2.12a2.51,2.51,0,0,1,0-1.9s1.49,3.06,3.17,3.29a6.16,6.16,0,0,1-.13-1.86s.49,2.15,1.65,2.53h0A6,6,0,0,0,70.66,33.94Z"/><path class="cls-2" d="M63.26,38.77l0-.1c0-.13.06-.27.09-.41a6,6,0,0,1,7.31-4.4,6.13,6.13,0,0,1,4.39,7.36v.05l-.11,0h0c-.85-.27-1.34-1.41-1.57-2.08a7.91,7.91,0,0,0,.16,1.3l0,.13-.13,0c-1.49-.21-2.79-2.5-3.14-3.17a2.51,2.51,0,0,0,.07,1.65l.07.16-.17,0a6.05,6.05,0,0,1-2.72-2,4.79,4.79,0,0,0-.08.88v.13l-.12,0a2.36,2.36,0,0,1-1.11-.93,3.61,3.61,0,0,1-2.68,1.51ZM70.63,34a5.79,5.79,0,0,0-7.09,4.27c0,.1,0,.19-.07.29h.06A3.48,3.48,0,0,0,66.14,37l.08-.13.07.13a2.49,2.49,0,0,0,1,.92,4.46,4.46,0,0,1,.12-1l0-.18.11.14A7,7,0,0,0,70.11,39a2.5,2.5,0,0,1,.07-1.81l.08-.17.08.17s1.38,2.8,2.92,3.21h0a5.69,5.69,0,0,1-.1-1.76l.08-.44.1.44s.47,2,1.52,2.44A6,6,0,0,0,70.63,34Z"/><path class="cls-3" d="M63.56,38.7a3.55,3.55,0,0,0,2.69-1.59,2.44,2.44,0,0,0,1.13,1A4.6,4.6,0,0,1,67.5,37s1.5,1.9,2.79,2.12a2.51,2.51,0,0,1,0-1.9s1.49,3.06,3.17,3.29a6.16,6.16,0,0,1-.13-1.86s.49,2.15,1.65,2.53h0A6,6,0,0,0,70.68,34a5.89,5.89,0,0,0-7.2,4.34c0,.13-.06.27-.09.4Z"/><path class="cls-2" d="M63.13,38.91l0-.26c0-.14.06-.28.09-.41a6.1,6.1,0,0,1,7.47-4.5,6.27,6.27,0,0,1,4.48,7.52l0,.12-.22.07-.07,0a2.51,2.51,0,0,1-1.31-1.34c0,.24.07.4.07.41l.07.32-.32,0c-1.36-.19-2.57-2-3.08-2.94a2.5,2.5,0,0,0,.15,1.24l.17.38-.41-.07a5.72,5.72,0,0,1-2.61-1.84,4.79,4.79,0,0,0,0,.58v.32l-.3-.1a2.35,2.35,0,0,1-1.07-.83,3.75,3.75,0,0,1-2.68,1.42Zm7.5-4.73a5.66,5.66,0,0,0-6.92,4.18l0,.11A3.36,3.36,0,0,0,66.06,37l.2-.31.18.32a2.55,2.55,0,0,0,.72.77,4.3,4.3,0,0,1,.12-.8l.11-.43.28.35a7.54,7.54,0,0,0,2.27,1.93,2.52,2.52,0,0,1,.14-1.67l.2-.41.2.41s1.26,2.56,2.68,3.09a5.27,5.27,0,0,1-.07-1.59l.2-1.08.24,1.07a4,4,0,0,0,1.3,2.27A5.82,5.82,0,0,0,70.63,34.18Z"/><circle class="cls-2" cx="67.29" cy="39.53" r="0.72" transform="translate(12.04 94.65) rotate(-75.37)"/><path class="cls-2" d="M67.07,40.34a.83.83,0,1,1,1-.6A.84.84,0,0,1,67.07,40.34Zm.37-1.4a.61.61,0,1,0,.44.75A.61.61,0,0,0,67.44,38.94Z"/><circle class="cls-2" cx="71.01" cy="40.5" r="0.72" transform="translate(13.86 98.96) rotate(-75.35)"/><path class="cls-2" d="M70.79,41.31a.83.83,0,1,1,1-.6A.84.84,0,0,1,70.79,41.31Zm.37-1.4a.61.61,0,1,0,.44.74A.61.61,0,0,0,71.16,39.91Z"/><path class="cls-2" d="M68.18,43.73a2.23,2.23,0,0,1-1.82-2.22v-.07l.3.08v.05a2.12,2.12,0,0,0,3.89,1l0,0,.3.08,0,.06A2.23,2.23,0,0,1,68.18,43.73ZM66.5,41.6a2.3,2.3,0,0,0,4.18,1.09h0a2.29,2.29,0,0,1-4.16-1.09Z"/><path class="cls-2" d="M68.15,43.84a2.34,2.34,0,0,1-1.9-2.34l0-.2.52.14v.15a2,2,0,0,0,3.68,1l.06-.14.52.14-.08.18A2.34,2.34,0,0,1,68.15,43.84Z"/><path class="cls-2" d="M67.65,45.72a6.14,6.14,0,1,1,7.49-4.39A6.14,6.14,0,0,1,67.65,45.72Zm3-11.44a5.69,5.69,0,1,0,4.06,6.94A5.69,5.69,0,0,0,70.64,34.29Z"/><path class="cls-2" d="M52.26,40.88A6.8,6.8,0,0,0,39.59,45.5h.07l.14-.06-.18.22a35.66,35.66,0,0,0,3,6.7l2.79-1.07-3-6.88.24-.1s-.49-2.35-.17-2.93a26.06,26.06,0,0,0,.67,2.77v0l3-1.21s-.77-2.13-.91-2.78c0,0,1.07,2.22,1.68,2.44l2.4-.8,2.38,7,2.8-1.08A35.61,35.61,0,0,0,52.26,40.88Z"/><circle class="cls-3" cx="46.42" cy="44.32" r="5.92" transform="translate(-12.81 19.61) rotate(-21.03)"/><path class="cls-2" d="M44.22,38.62a6,6,0,0,0-3.68,6.87h.06l2.45-1a8.24,8.24,0,0,1,0-2.65,22.75,22.75,0,0,0,.58,2.42v0l2.66-1.06s-.67-1.87-.8-2.44c0,0,.94,1.95,1.47,2.14l4.65-1.54A6,6,0,0,0,44.22,38.62Z"/><path class="cls-2" d="M48.62,50a6.14,6.14,0,1,1,3.53-7.93A6.14,6.14,0,0,1,48.62,50ZM44.38,39a5.69,5.69,0,1,0,7.35,3.27A5.69,5.69,0,0,0,44.38,39Z"/><rect class="cls-2" x="41.27" y="40.38" width="7.24" height="3.39" transform="translate(-11.86 18.31) rotate(-20.43)"/><path class="cls-2" d="M42.87,45.48l1.39.68a.78.78,0,0,0,.6,0c.4-.15.71-.44.56-.85a.78.78,0,0,0-1-.45l-1.08.42"/><path class="cls-2" d="M49.83,42.81s-.5,1.26-.58,1.44a.78.78,0,0,1-.44.42c-.4.15-.82.15-1-.26a.78.78,0,0,1,.45-1L49.37,43"/><path class="cls-2" d="M47.91,48.2a2.23,2.23,0,0,1-2.77-.75l0-.06.29-.11,0,0a2.12,2.12,0,0,0,3.76-1.44v-.05l.29-.11,0,.07A2.23,2.23,0,0,1,47.91,48.2Zm-2.61-.75a2.3,2.3,0,0,0,4-1.55h0a2.29,2.29,0,0,1-4,1.54Z"/><path class="cls-2" d="M48,48.3a2.34,2.34,0,0,1-2.91-.8l-.1-.17.5-.19.07.13a2,2,0,0,0,3.55-1.36l0-.15.5-.19,0,.19A2.34,2.34,0,0,1,48,48.3Z"/><circle class="cls-3" cx="75.55" cy="48.32" r="5.92" transform="translate(4.01 102.4) rotate(-69.69)"/><path class="cls-2" d="M77.66,42.58a6,6,0,0,0-7.3,2.73l0,0,2.47.9s1.21-1.77,1.76-2a22.83,22.83,0,0,0-1.16,2.21v0l2.69,1s.73-1.85,1-2.36c0,0-.58,2.08-.31,2.58l4.51,1.91A6,6,0,0,0,77.66,42.58Z"/><path class="cls-2" d="M72.16,46.78s.51,1.24.59,1.42a.77.77,0,0,0,.44.41c.4.15.82.14,1-.27a.78.78,0,0,0-.46-1L72.62,47"/><path class="cls-2" d="M79.12,49.35,77.74,50a.77.77,0,0,1-.6,0c-.4-.15-.71-.43-.56-.83a.78.78,0,0,1,1-.46l1.08.4"/><path class="cls-2" d="M74.13,52.13a2.23,2.23,0,0,1-1.59-2.39v-.07l.29.11v.05a2.12,2.12,0,0,0,3.78,1.4l0,0,.29.11,0,.06A2.23,2.23,0,0,1,74.13,52.13Zm-1.46-2.29a2.3,2.3,0,0,0,4.06,1.5h0a2.29,2.29,0,0,1-4-1.49Z"/><path class="cls-2" d="M74.09,52.24a2.34,2.34,0,0,1-1.66-2.52l0-.19.5.19,0,.15a2,2,0,0,0,3.57,1.32l.07-.13.5.19-.1.17A2.34,2.34,0,0,1,74.09,52.24Z"/><path class="cls-2" d="M73.42,54.07a6.14,6.14,0,1,1,7.89-3.62A6.14,6.14,0,0,1,73.42,54.07ZM77.52,43a5.69,5.69,0,1,0,3.36,7.31A5.69,5.69,0,0,0,77.52,43Z"/><path class="cls-2" d="M57.4,56.32a6.14,6.14,0,1,1,2.89-8.18A6.14,6.14,0,0,1,57.4,56.32Zm-5.1-10.67a5.69,5.69,0,1,0,7.58,2.68A5.69,5.69,0,0,0,52.31,45.66Z"/><circle class="cls-3" cx="54.63" cy="50.51" r="5.92" transform="translate(-16.44 28.48) rotate(-25.53)"/><circle class="cls-2" cx="53.13" cy="51.83" r="0.72" transform="translate(-17.15 27.95) rotate(-25.52)"/><path class="cls-2" d="M53.49,52.58a.83.83,0,1,1,.39-1.11A.84.84,0,0,1,53.49,52.58Zm-.62-1.3a.61.61,0,1,0,.81.29A.61.61,0,0,0,52.86,51.28Z"/><circle class="cls-2" cx="56.6" cy="50.17" r="0.72" transform="translate(-16.1 29.31) rotate(-25.54)"/><path class="cls-2" d="M57,50.93a.84.84,0,1,1,.39-1.11A.84.84,0,0,1,57,50.93Zm-.62-1.3a.61.61,0,1,0,.81.29A.61.61,0,0,0,56.33,49.62Z"/><path class="cls-2" d="M56.52,54.46a2.23,2.23,0,0,1-2.82-.53l0-.06.28-.13,0,0a2.12,2.12,0,0,0,3.63-1.73l0-.05.28-.13,0,.07A2.23,2.23,0,0,1,56.52,54.46Zm-2.66-.55a2.3,2.3,0,0,0,3.9-1.86h0a2.29,2.29,0,0,1-3.88,1.85Z"/><path class="cls-2" d="M56.56,54.56a2.34,2.34,0,0,1-3-.57l-.11-.16L54,53.6l.08.12a2,2,0,0,0,3.43-1.64l0-.14.48-.23.06.19A2.34,2.34,0,0,1,56.56,54.56Z"/><path class="cls-3" d="M54.25,44.91a12.64,12.64,0,0,1-2.14,5.81c-2,2.89-.8,4.85.91,7.72,0,0-6.08-4.74-3.71-10.14a2.09,2.09,0,0,1,.13-.22A5.64,5.64,0,0,1,54.25,44.91Z"/><path class="cls-2" d="M53.83,59.35l-.94-.73c-.06,0-6.18-4.91-3.78-10.4a2.07,2.07,0,0,1,.15-.25l.14-.22A6.19,6.19,0,0,1,52,45.21a5.69,5.69,0,0,1,2.25-.53h.25v.25a12.75,12.75,0,0,1-2.18,5.93c-1.89,2.77-.78,4.64.91,7.47ZM52.18,45.62A5.78,5.78,0,0,0,49.78,48l-.15.23a2,2,0,0,0-.11.19c-1.63,3.73,1,7.19,2.55,8.84-1.26-2.25-1.87-4.12-.14-6.65A12.75,12.75,0,0,0,54,45.14,5.14,5.14,0,0,0,52.18,45.62Z"/><path class="cls-2" d="M53.06,58.52l-.19.13c-.06,0-6.21-4.93-3.79-10.45a2.2,2.2,0,0,1,.15-.26l.14-.22A6.22,6.22,0,0,1,52,45.18a5.7,5.7,0,0,1,2.27-.54h.29l0,.29a12.79,12.79,0,0,1-2.18,5.94c-1.88,2.75-.77,4.61.92,7.43ZM52.2,45.65A5.75,5.75,0,0,0,49.81,48l-.15.23a1.89,1.89,0,0,0-.11.19C48,52,50.29,55.27,51.88,57c-1.16-2.14-1.66-4,0-6.42A12.74,12.74,0,0,0,54,45.19,5.06,5.06,0,0,0,52.2,45.65Z"/><path class="cls-3" d="M58.91,49.29c.4.28,1.91,1.53,2.67,5.08,0,0-.8-4.71-1.64-6.22l0-.09A5,5,0,0,0,54.12,45l0,.08A21.6,21.6,0,0,0,58.91,49.29Z"/><path class="cls-2" d="M61.81,54.33l-.44.08c-.73-3.39-2.16-4.64-2.58-4.95A21.32,21.32,0,0,1,54,45.14l0-.09-.12-.26.29-.05a5.19,5.19,0,0,1,6,3.23h0l0,.06C61,49.57,61.78,54.14,61.81,54.33Zm-7.32-9.2a25.43,25.43,0,0,0,4.56,4,5.8,5.8,0,0,1,1.65,2,13.46,13.46,0,0,0-.94-2.87v0l0,0h0v0A4.75,4.75,0,0,0,54.48,45.13Z"/><path class="cls-2" d="M70.19,47h0Z"/><path class="cls-2" d="M60,48s.17-.17,0-.55a.7.7,0,0,0,.68,0,.81.81,0,0,0,.18-.47l.15-.1s.21.33.42.26c0,0,.4,0,.4-.4a.28.28,0,0,0,.21,0s.39.7,1.09-.35c0,0,.41.83,1.08,0a1,1,0,0,0,.42-.1s-.15.5.29.58c0,0,.38.08.51-.4a.67.67,0,0,0,.74.21s.08.56.57.18c0,0,.25.19.42.11a.53.53,0,0,0,.05.34l2.65-.14c.09-.06.52-.33.4-.77,0,0-.2-.62-.71-.67,0,0,.42-.94-.47-1.08,0,0-.26,0-.28-.05a.7.7,0,0,0-.2-.78.8.8,0,0,0-1,.17s.11-1.24-.75-.83a4.85,4.85,0,0,0-.46.28s-.05-.93-.51-1c0,0-.39,0-.85.69a1,1,0,0,1-.32-.27s-.14-.51-.46-.55a1,1,0,0,0-.84.5s-.2-.52-1.11-.21a1,1,0,0,0-.55,1.23h0s-.48-.91-1-.3c0,0-.59.52-.32,1,0,0-.8-.24-1.1.11,0,0-.5.57,0,1,0,0-.77,0-.74.61h0c0,.59.05.54.29.57,0,0,.4.26.28.41"/><circle class="cls-3" cx="64.49" cy="49.39" r="5.92" transform="matrix(0.04, -1, 1, 0.04, 12.31, 111.64)"/><circle class="cls-2" cx="62.53" cy="49.39" r="0.72" transform="translate(10.44 109.69) rotate(-87.48)"/><path class="cls-2" d="M62.49,50.22a.83.83,0,1,1,.87-.8A.84.84,0,0,1,62.49,50.22Zm.06-1.44a.61.61,0,1,0,.58.64A.61.61,0,0,0,62.56,48.78Z"/><circle class="cls-2" cx="66.37" cy="49.56" r="0.72" transform="translate(13.94 113.68) rotate(-87.48)"/><path class="cls-2" d="M66.33,50.39a.84.84,0,1,1,.87-.8A.84.84,0,0,1,66.33,50.39Zm.06-1.44a.61.61,0,1,0,.58.64A.61.61,0,0,0,66.4,48.95Z"/><path class="cls-2" d="M64.28,53.31A2.23,2.23,0,0,1,62,51.51v-.07h.31v.05a2.12,2.12,0,0,0,4,.18v-.05h.31v.07A2.23,2.23,0,0,1,64.28,53.31Zm-2.09-1.73a2.3,2.3,0,0,0,4.32.19h0a2.29,2.29,0,0,1-4.29-.19Z"/><path class="cls-2" d="M64.28,53.42a2.34,2.34,0,0,1-2.35-1.89l0-.2.54,0,0,.15a2,2,0,0,0,3.8.17l0-.15.53,0,0,.2A2.35,2.35,0,0,1,64.28,53.42Z"/><path class="cls-2" d="M64.19,55.37a6.14,6.14,0,1,1,6.4-5.86A6.14,6.14,0,0,1,64.19,55.37Zm.52-11.81a5.69,5.69,0,1,0,5.43,5.93A5.69,5.69,0,0,0,64.71,43.56Z"/><path class="cls-3" d="M68,62.33s2.57,4.38,3.32,5.78A14.55,14.55,0,0,1,73,69.44s1.69,1.85-.7.51c0,0,2.78,3.58-.84.54,0,0,2.34,4.42-.73.59,0,0,1.31,5.08-1.47-.64,0,0-1.08,2.17-1.39,1.22-.14-.44.7-1.5.32-2.32a26.12,26.12,0,0,0-2.84-4.14Z"/><path class="cls-2" d="M70.9,73.38c-.19,0-.46,0-1.67-2.45-.29.52-.75,1.19-1.15,1.19-.12,0-.33-.05-.44-.4a1.54,1.54,0,0,1,.16-.92A1.9,1.9,0,0,0,68,69.43a26.23,26.23,0,0,0-2.77-4.06L65,65.22,68.09,62l.15.26s2.52,4.31,3.3,5.74a14.11,14.11,0,0,1,1.6,1.32c.77.84.65,1.1.62,1.19a.33.33,0,0,1-.33.19,1.18,1.18,0,0,1-.43-.1c.63.93.53,1.13.49,1.22a.3.3,0,0,1-.28.17h0c-.16,0-.41-.09-1.11-.62.53,1.14.41,1.33.37,1.41a.28.28,0,0,1-.24.14h0c-.15,0-.37-.08-1.09-.92a2.2,2.2,0,0,1,0,1.32A.31.31,0,0,1,70.9,73.38Zm-1.66-3.45.2.41a15.64,15.64,0,0,0,1.35,2.45,10.06,10.06,0,0,0-.3-1.65l-.26-1,.65.81A14.49,14.49,0,0,0,72,72.2a14.32,14.32,0,0,0-.75-1.61l-.54-1,.88.74A12.2,12.2,0,0,0,73,71.37a10.78,10.78,0,0,0-.87-1.29l-.68-.87,1,.54a5.52,5.52,0,0,0,.88.42,4,4,0,0,0-.45-.59,14.48,14.48,0,0,0-1.58-1.29l0,0,0,0C70.53,67,68.57,63.66,68,62.7l-2.36,2.48a30.15,30.15,0,0,1,2.71,4A2.24,2.24,0,0,1,68.22,71a1.64,1.64,0,0,0-.16.62.37.37,0,0,0,0,.08A3.79,3.79,0,0,0,69,70.33Z"/><path class="cls-3" d="M70.3,63.9s-2.91,4.16-3.87,5.43a14.59,14.59,0,0,1-.53,2s-1,2.31-.76-.43c0,0-2.09,4-.84-.53,0,0-3,4-.85-.42,0,0-4.07,3.31,0-1.61,0,0-2.42-.08-1.69-.76.34-.31,1.66,0,2.24-.68a26.13,26.13,0,0,0,2.58-4.31Z"/><path class="cls-2" d="M64,72.79a.29.29,0,0,1-.23-.12c-.09-.12-.16-.34.07-1.33-.53.61-.89.93-1.1.93a.28.28,0,0,1-.24-.13c-.07-.11-.16-.26.36-1.41a2.79,2.79,0,0,1-1.11.57.31.31,0,0,1-.29-.17c-.08-.18-.19-.41,1.53-2.55-.65-.05-1.43-.2-1.57-.58a.48.48,0,0,1,.19-.54,1.54,1.54,0,0,1,.9-.23,1.9,1.9,0,0,0,1.32-.43,26.3,26.3,0,0,0,2.53-4.22l.06-.24,4.25,1.45-.17.24s-2.86,4.09-3.84,5.4a14.1,14.1,0,0,1-.53,2c-.45,1.06-.73,1.06-.83,1.06a.31.31,0,0,1-.23-.1.83.83,0,0,1-.16-.55c-.57,1-.8,1-.89,1Zm.83-3.45-.31,1.11a12.09,12.09,0,0,0-.38,1.7,10.79,10.79,0,0,0,.81-1.33l.51-1-.09,1.1a5.41,5.41,0,0,0,0,1,4.16,4.16,0,0,0,.34-.65,14.54,14.54,0,0,0,.51-2v-.05l0,0c.81-1.07,3.05-4.27,3.69-5.18l-3.24-1.11a30,30,0,0,1-2.54,4.15,2.24,2.24,0,0,1-1.64.6,1.65,1.65,0,0,0-.63.12l-.06.07a3.8,3.8,0,0,0,1.6.3h.46l-.29.35a15.66,15.66,0,0,0-1.66,2.25,10,10,0,0,0,1.37-1l.81-.66-.46.93A14.37,14.37,0,0,0,63,71.61a14.63,14.63,0,0,0,1.16-1.35Z"/><circle class="cls-3" cx="69.96" cy="57.94" r="6.04" transform="translate(8.13 124.48) rotate(-86.74)"/><path class="cls-2" d="M70,64.2H69.6a6.25,6.25,0,1,1,.36,0Zm0-12.07a5.82,5.82,0,1,0,.34,0Z"/><circle class="cls-2" cx="68.51" cy="57.17" r="0.66" transform="translate(-20.44 64.29) rotate(-44.42)"/><path class="cls-2" d="M67.95,57.72a.79.79,0,1,1,1.11,0A.79.79,0,0,1,67.95,57.72Zm.94-.92a.53.53,0,1,0,0,.74A.53.53,0,0,0,68.88,56.8Z"/><circle class="cls-2" cx="70.95" cy="59.66" r="0.66" transform="translate(-21.48 66.75) rotate(-44.45)"/><path class="cls-2" d="M70.39,60.21a.78.78,0,1,1,1.11,0A.79.79,0,0,1,70.39,60.21Zm.94-.92a.53.53,0,1,0,0,.74A.53.53,0,0,0,71.32,59.3Z"/><path class="cls-2" d="M68.27,59.84a2.35,2.35,0,0,1-.65-1.28,1.4,1.4,0,1,0,1.92,2A2.35,2.35,0,0,1,68.27,59.84Z"/><path class="cls-2" d="M64.67,57h0Z"/><path class="cls-2" d="M56.51,59.51s.11-.16-.05-.46a.58.58,0,0,0,.55-.14.67.67,0,0,0,.07-.41l.11-.11s.22.23.39.15a.35.35,0,0,0,.26-.39.23.23,0,0,0,.16,0s.43.51.83-.46c0,0,.47.61.88-.18a.78.78,0,0,0,.33-.15s0,.43.34.42c0,0,.33,0,.35-.41a.56.56,0,0,0,.63,0s.16.44.49.05c0,0,.24.11.36,0a.44.44,0,0,0,.1.27l2.13-.55a.61.61,0,0,0,.2-.69S64.39,56,64,56c0,0,.19-.84-.56-.81,0,0-.2.07-.23,0a.58.58,0,0,0-.29-.6.66.66,0,0,0-.77.3s-.12-1-.75-.56a4.31,4.31,0,0,0-.33.3s-.2-.75-.57-.71c0,0-.32,0-.58.7a.81.81,0,0,1-.31-.16s-.2-.39-.47-.37a.79.79,0,0,0-.6.54s-.25-.39-.94,0a.85.85,0,0,0-.25,1.09h0s-.54-.66-.86-.08c0,0-.39.52-.1.85,0,0-.69-.07-.87.27,0,0-.31.55.16.81,0,0-.63.15-.5.61h0c.13.47.13.43.33.42,0,0,.37.15.29.29"/><path class="cls-3" d="M57.14,64.21s-.78,5-1,6.6a14.56,14.56,0,0,0-1,1.82s-.9,2.34.84.22c0,0-1.28,4.35,1,.2,0,0-.56,5,.9.28,0,0,.64,5.21,1.13-1.14,0,0,1.8,1.62,1.74.62,0-.46-1.2-1.14-1.14-2a26.07,26.07,0,0,1,1.12-4.89Z"/><path class="cls-2" d="M57,75.56a.28.28,0,0,1-.21-.1,2.72,2.72,0,0,1-.13-1.41c-.55.92-.76,1-.92,1a.29.29,0,0,1-.23-.12c-.12-.16-.1-.59,0-1.27-.24.23-.39.29-.51.29a.31.31,0,0,1-.26-.14c-.17-.24,0-.83.17-1.28a14.16,14.16,0,0,1,1-1.82c.2-1.62,1-6.5,1-6.55l0-.29L61,65.78l-.12.21a26.22,26.22,0,0,0-1.1,4.81c0,.43.34.84.66,1.2a1.54,1.54,0,0,1,.49.79.56.56,0,0,1-.12.43.42.42,0,0,1-.32.13h0a2.93,2.93,0,0,1-1.33-.72c-.23,2.7-.48,2.92-.77,2.92-.14,0-.39,0-.63-1.27C57.38,75.46,57.2,75.56,57,75.56Zm1-3.3.13,1a10.06,10.06,0,0,0,.32,1.65,15.67,15.67,0,0,0,.36-2.78l0-.45.34.31a3.9,3.9,0,0,0,1.36.89.36.36,0,0,0,0-.09c0-.11-.21-.34-.37-.52a2.24,2.24,0,0,1-.77-1.55,30,30,0,0,1,1-4.77l-3.1-1.44c-.17,1.1-.77,5-.93,6.29v.05l0,0a14.38,14.38,0,0,0-1,1.78,4,4,0,0,0-.2.71,5.64,5.64,0,0,0,.66-.72l.7-.86-.31,1.06a10.79,10.79,0,0,0-.34,1.52,12.14,12.14,0,0,0,.9-1.49l.55-1-.13,1.15a14.58,14.58,0,0,0-.1,1.77,14.33,14.33,0,0,0,.57-1.58Z"/><circle class="cls-3" cx="60.79" cy="61.3" r="6.04" transform="translate(-8.71 10.09) rotate(-8.86)"/><path class="cls-2" d="M60.79,67.56h0a6.26,6.26,0,0,1-1-12.45,6.31,6.31,0,0,1,1-.08,6.26,6.26,0,0,1,1,12.45A6.3,6.3,0,0,1,60.79,67.56Zm0-12.08a5.81,5.81,0,0,0,0,11.63h0a5.93,5.93,0,0,0,.9-.07,5.81,5.81,0,0,0-.89-11.56Z"/><circle class="cls-2" cx="59.18" cy="62.26" r="0.66" transform="translate(-8.88 9.85) rotate(-8.86)"/><path class="cls-2" d="M59.3,63a.78.78,0,1,1,.65-.9A.78.78,0,0,1,59.3,63Zm-.2-1.3a.53.53,0,1,0,.6.44A.53.53,0,0,0,59.1,61.74Z"/><circle class="cls-2" cx="62.62" cy="61.72" r="0.66" transform="translate(-8.75 10.37) rotate(-8.85)"/><path class="cls-2" d="M62.74,62.5a.78.78,0,1,1,.66-.9A.79.79,0,0,1,62.74,62.5Zm-.2-1.3a.53.53,0,1,0,.6.44A.53.53,0,0,0,62.54,61.2Z"/><path class="cls-2" d="M61.21,64a2.35,2.35,0,0,1-1.42-.22,1.4,1.4,0,1,0,2.71-.42A2.35,2.35,0,0,1,61.21,64Z"/></svg>